<svg width="90" height="90" viewBox="0 0 90 90" fill="none" xmlns="http://www.w3.org/2000/svg">
<circle cx="45" cy="45" r="45" fill="#F5F9FA"/>
<path d="M28.3569 35.2892C31.3345 37.366 34.2121 39.3928 37.1147 41.4196C37.7402 41.845 38.3908 42.2454 38.9413 42.7208C39.6669 43.3463 40.2675 43.2462 41.0431 42.7958C44.4462 40.7941 47.8492 38.8423 51.2772 36.8656C52.3532 36.24 53.4291 35.6145 54.5301 34.9889C55.3809 34.5135 56.0314 34.5635 56.3067 35.1891C56.682 35.9898 56.1565 36.4152 55.556 36.7655C51.4524 39.1426 47.3237 41.5197 43.2201 43.8968C42.4444 44.3472 41.6437 44.7726 40.868 45.248C40.1674 45.6734 39.5668 45.6484 38.8912 45.1479C34.9377 42.3955 30.9842 39.643 27.0307 36.8906C26.23 36.3151 25.7296 35.6145 25.9548 34.5886C26.205 33.5627 26.9807 33.1373 27.9565 33.0122C30.8091 32.6619 33.6616 32.3616 36.5141 32.0363C41.7187 31.4358 46.9484 30.8352 52.153 30.2347C55.6061 29.8343 59.0341 29.434 62.4872 29.0336C62.7124 29.0086 62.9125 29.0086 63.1377 29.0086C63.9885 28.9586 64.7642 29.1087 65.2396 29.9344C65.74 30.8352 65.5148 31.6109 64.9644 32.3616C63.9885 33.6878 63.0126 35.039 62.0117 36.3651C56.0815 44.3472 50.1762 52.3293 44.246 60.3114C44.0959 60.5116 43.9457 60.7117 43.7956 60.9119C43.2201 61.6125 42.4944 61.8878 41.6187 61.6376C40.7179 61.3873 40.2675 60.7368 40.1924 59.861C39.9922 57.7591 39.792 55.6322 39.6169 53.5053C39.4667 51.8289 39.3416 50.1524 39.2165 48.4509C39.1665 47.8253 39.4417 47.2998 40.1173 47.2498C40.7929 47.1997 41.1182 47.6501 41.2183 48.2757C41.2433 48.4258 41.2934 48.576 41.2934 48.7261C41.4435 50.4026 41.5686 52.0791 41.7187 53.7806C41.8439 55.432 41.994 57.0835 42.1441 58.735C42.1691 58.8851 42.2442 59.0102 42.2692 59.1604C42.7196 59.0853 42.8197 58.71 43.0199 58.4597C49.5507 49.6519 56.0815 40.8191 62.6123 32.0113C62.7874 31.7861 63.1878 31.5359 62.9626 31.2356C62.7874 30.9603 62.3871 31.1105 62.0868 31.1355C54.2048 32.0363 46.3228 32.9621 38.4408 33.8629C35.4382 34.2132 32.4105 34.5385 29.4078 34.8638C29.1076 34.9639 28.7572 34.9639 28.3569 35.2892Z" fill="#007C8E"/>
<path d="M34.6875 46.6743C35.1129 46.6743 35.4132 46.8494 35.5883 47.2247C35.7635 47.6001 35.7384 47.9754 35.4382 48.2757C35.238 48.5009 34.9628 48.676 34.6875 48.8262C32.1102 50.3025 29.5079 51.7788 26.9306 53.3051C26.2801 53.6805 25.6295 53.9057 25.1541 53.105C24.7287 52.3042 25.2541 51.8789 25.8797 51.5286C28.4069 50.0523 30.9592 48.601 33.4864 47.1497C33.8618 46.9245 34.2371 46.6743 34.6875 46.6743Z" fill="#007C8E"/>
<path d="M37.4149 53.7055C37.4149 54.1559 37.1646 54.4812 36.7893 54.6814C35.1379 55.6322 33.4864 56.6081 31.8349 57.5339C31.2594 57.8592 30.7089 57.7341 30.3836 57.1586C30.0583 56.6081 30.2835 56.0826 30.784 55.7824C32.4855 54.7815 34.187 53.7806 35.9135 52.8548C36.6392 52.4794 37.3898 52.9548 37.4149 53.7055Z" fill="#007C8E"/>
<path d="M27.9315 46.5492C27.281 46.4991 26.9557 46.2739 26.7805 45.8736C26.6054 45.4232 26.7305 45.0228 27.0808 44.7726C28.1317 44.0469 29.2327 43.4214 30.3837 42.8709C30.8091 42.6707 31.1844 42.8459 31.4597 43.1712C31.7599 43.5215 31.835 43.9719 31.5347 44.2972C30.4838 45.3981 29.0575 45.8986 27.9315 46.5492Z" fill="#007C8E"/>
</svg>
