<svg width="81" height="18" viewBox="0 0 81 18" fill="none" xmlns="http://www.w3.org/2000/svg">
<path fill-rule="evenodd" clip-rule="evenodd" d="M7.86162 5.82498H4.99216L4.43253 11.2444H7.27797L7.86162 5.82498ZM8.80993 5.82498L8.22628 11.2444H11.6627L11.5901 12.0559H8.15269L7.56903 17.3574H6.62047L7.20412 12.0559H4.33618L3.77706 17.3574H2.82849L3.41189 12.0559H0L0.0723245 11.2444H3.48422L4.06787 5.82498H0.631701L0.704026 5.01268H4.14171L4.60323 0.619141H5.55154L5.08876 5.01268H7.93394L8.39546 0.619141H9.34377L8.88251 5.01268H12.3202L12.2461 5.82498H8.80993Z" fill="#ED5338"/>
<path fill-rule="evenodd" clip-rule="evenodd" d="M17.0263 3.03007V14.968H18.5342C19.3859 14.968 19.8955 14.5389 19.8955 13.3449V4.65368C19.8955 3.45993 19.3859 3.03007 18.5342 3.03007H17.0263ZM14.353 0.642578H18.5817C21.2567 0.642578 22.5702 2.09881 22.5702 4.77338V13.2252C22.5702 15.899 21.2567 17.3565 18.5817 17.3565H14.353V0.642578Z" fill="#ED5338"/>
<path fill-rule="evenodd" clip-rule="evenodd" d="M24.27 0.642578H26.9448V17.3565H24.27V0.642578Z" fill="#ED5338"/>
<path fill-rule="evenodd" clip-rule="evenodd" d="M31.5634 7.6856H35.235V10.0731H31.5634V14.968H36.1831V17.3565H28.8882V0.642578H36.1831V3.03007H31.5634V7.6856Z" fill="#ED5338"/>
<path fill-rule="evenodd" clip-rule="evenodd" d="M45.2499 0.642578V2.98239L40.1682 14.968H45.2499V17.3565H37.4209V15.0164L42.5026 3.03007H37.6637V0.642578H45.2499Z" fill="#ED5338"/>
<path fill-rule="evenodd" clip-rule="evenodd" d="M49.7701 17.3565V1.6456H46.2927V0.642578H54.3405V1.6456H50.8886V17.3565H49.7701Z" fill="#ED5338"/>
<path fill-rule="evenodd" clip-rule="evenodd" d="M61.5595 8.3782V9.38123H56.9158V16.3532H62.5086V17.3565H55.7981V0.642578H62.5086V1.6456H56.9158V8.3782H61.5595Z" fill="#ED5338"/>
<path fill-rule="evenodd" clip-rule="evenodd" d="M71.6 4.72541V6.11087H70.5301V4.65439C70.5301 2.8634 69.824 1.50228 67.9529 1.50228C66.0798 1.50228 65.3761 2.86365 65.3761 4.65439V13.3456C65.3761 15.1359 66.0798 16.4726 67.9529 16.4726C69.824 16.4726 70.5301 15.1359 70.5301 13.3456V11.3639H71.6V13.2736C71.6 15.6857 70.5301 17.5 67.9284 17.5C65.326 17.5 64.2576 15.6857 64.2576 13.2736L64.2578 4.72541C64.2578 2.31458 65.3257 0.5 67.9284 0.5C70.5301 0.5 71.6 2.31458 71.6 4.72541Z" fill="#ED5338"/>
<path fill-rule="evenodd" clip-rule="evenodd" d="M74.5391 9.50018V17.3565H73.4214V0.642578H74.5391V8.4979H79.8403V0.642578H80.9836V17.3565H79.8403V9.50018H74.5391Z" fill="#ED5338"/>
</svg>
