<svg width="183" height="67" viewBox="0 0 183 67" fill="none" xmlns="http://www.w3.org/2000/svg">
<path d="M57.4931 26.7279V26.6482C57.9376 26.5684 58.3081 26.3292 58.6785 26.0899C59.049 25.9304 59.049 25.3722 59.4935 25.133C59.6417 25.0532 59.7899 24.8937 59.864 24.814C60.4567 25.0532 60.8271 24.4153 61.3457 24.4153C61.7162 24.0963 62.0125 23.7773 62.383 23.4583H63.1239C63.2721 23.0596 63.4943 22.6608 63.9389 22.4216H64.6057C64.9761 22.1026 65.3466 21.7836 65.6429 21.4646H66.8283C67.0506 21.2254 67.2729 20.9861 67.4211 20.7469H68.236C68.3842 20.6672 68.5324 20.5077 68.6806 20.4279C68.7547 20.6672 68.8287 20.8267 68.9028 21.0659C68.9769 21.0659 69.1251 20.9861 69.1251 20.9861C68.9769 20.5077 69.3474 20.1887 69.4955 19.7899C69.5696 19.471 69.7919 19.5507 70.0142 19.471C70.1623 19.471 70.3105 19.3115 70.4587 19.152H71.1255C71.3478 18.833 71.57 18.514 71.7182 18.2748C72.2368 18.0355 72.6073 18.195 72.9777 18.1153C73.2 18.4343 73.2741 18.9127 73.7186 19.152C73.7927 19.0722 73.8668 18.9127 73.9409 18.833C73.8668 18.6735 73.7186 18.5937 73.5704 18.3545C73.6445 18.2748 73.7927 18.1153 73.9409 17.876C73.8668 17.7165 73.7186 17.557 73.5704 17.3178C73.7186 16.9191 74.1632 17.3178 74.5336 17.0786C74.9781 16.3608 76.0154 16.3608 76.6822 15.8026C77.0526 15.7229 77.4972 15.8824 77.8676 15.7229C77.7935 15.5634 77.7194 15.4039 77.5713 15.1646C78.0158 15.1646 78.4603 15.1646 78.7567 15.0849C79.2012 14.9254 79.4976 14.7659 79.7939 14.6064V14.2874C80.0903 14.1279 80.3866 13.9684 80.8312 13.8089C81.0534 13.8089 81.498 13.8089 81.9425 13.7292C82.0166 13.5697 82.0166 13.4102 82.0166 13.2507C82.313 13.0912 82.6093 12.9317 83.0538 12.7722C83.202 12.7722 83.5725 12.7722 83.7947 12.6925C83.8688 12.9317 83.7947 13.171 84.1652 12.9317C84.0911 12.852 83.9429 12.7722 83.7947 12.6925C83.7947 12.2938 84.2393 12.4532 84.4615 12.2938C84.4615 12.214 84.5356 12.0545 84.5356 11.8153C84.6838 11.7355 84.9061 11.6558 85.2024 11.576C85.1283 11.4165 84.9802 11.257 84.9061 11.0976C85.1283 10.8583 85.4988 11.0178 85.7951 10.9381C85.9433 10.8583 86.0915 10.6988 86.1656 10.6191C86.3879 10.7786 86.6101 11.0178 86.8324 11.1773C87.1287 11.0976 87.4251 11.0178 87.7215 10.8583C87.7955 11.0976 87.7955 11.257 87.8696 11.4165C87.4251 11.576 86.9806 11.7355 86.7583 12.214C86.8324 12.3735 86.8324 12.4532 86.9065 12.6925C87.2028 12.4532 87.4251 12.214 87.7215 11.9748H89.2032C89.4255 11.7355 89.6478 11.576 89.87 11.4165C90.5368 11.4165 91.0555 11.0976 91.5741 10.8583C91.5741 10.8583 91.5741 10.7786 91.5741 10.6988H92.8336C92.9818 10.5393 93.2781 10.3798 93.2781 10.0608H92.0186C91.8704 10.3001 91.5 10.3798 91.5 10.6988H90.2405C90.0923 10.7786 90.0182 10.9381 89.87 11.0178C89.7219 10.9381 89.6478 10.7786 89.4996 10.6988C89.0551 10.9381 88.6846 11.0976 88.3142 11.257C88.0178 11.0178 88.2401 10.6988 88.166 10.4596C88.3883 10.0608 88.8328 10.3798 89.2032 10.2203C89.2773 10.0608 89.3514 9.90135 89.4255 9.58237C89.5737 9.66211 89.6478 9.74186 89.87 9.90135H91.0555C91.1296 9.74186 91.1296 9.66211 91.2036 9.58237C91.4259 9.50262 91.5741 9.34313 91.7964 9.26338C91.8704 9.34313 91.9445 9.42287 92.0186 9.50262C92.0927 9.50262 92.2409 9.58237 92.315 9.58237C93.204 9.58237 94.1672 9.58237 95.0563 9.58237C95.2045 9.42287 95.3526 9.34313 95.5008 9.18363C95.7231 9.26338 95.8713 9.34313 96.3158 9.50262H98.3903C98.6866 10.1406 99.5016 9.66211 99.798 10.1406C100.317 10.1406 100.835 10.2203 101.428 10.2203C101.502 10.3001 101.576 10.3798 101.724 10.4596H102.687C102.984 10.7786 103.651 10.6988 103.799 11.1773H102.91C102.762 11.0976 102.687 10.9381 102.539 10.8583C102.169 10.9381 101.724 10.7786 101.28 11.0178V11.7355C101.65 12.0545 102.021 12.3735 102.317 12.6925V12.7722C102.317 13.0912 102.391 13.3305 102.391 13.5697C102.613 13.5697 102.762 13.5697 102.984 13.6494C103.058 13.4102 103.132 13.2507 103.206 13.0912C103.428 13.0115 103.651 12.9317 103.725 12.9317C103.947 12.533 104.095 12.214 104.317 11.8153C104.169 11.6558 104.021 11.576 103.873 11.4963C103.873 11.4963 103.873 11.4165 103.873 11.3368H104.836C104.91 11.4963 104.984 11.6558 104.984 11.7355C104.984 11.9748 104.984 12.1343 105.206 12.3735C105.355 12.4532 105.355 12.6127 105.429 12.7722C105.281 12.9317 105.132 13.0115 105.058 13.171C105.503 13.5697 105.503 14.2874 106.17 14.4469C106.17 14.6064 106.17 14.6862 106.17 14.7659C105.947 15.1646 105.725 15.4836 105.503 15.8824C105.725 16.0418 105.799 16.3608 105.947 16.6798C106.244 16.6798 106.54 16.7596 106.762 16.7596C107.059 17.1583 106.762 17.557 106.985 17.9558C106.985 17.9558 106.985 18.0355 107.059 18.0355C107.355 18.1153 107.651 18.1153 107.948 18.1153C108.022 18.2748 108.022 18.3545 108.022 18.4342C107.8 19.0722 106.836 19.2317 106.836 20.0292C106.392 20.0292 105.947 20.1089 105.577 20.1089C105.281 20.5077 105.503 20.9064 105.429 21.3051C105.132 21.5444 104.762 21.8634 104.391 22.1823C104.169 22.4216 104.095 22.7406 104.021 22.9798C104.095 23.0596 104.169 23.1393 104.317 23.2988C103.873 23.4583 103.502 23.6178 103.132 23.7773C102.762 23.9368 102.391 24.176 102.465 24.6545C102.317 24.6545 102.169 24.7342 101.947 24.814C101.724 25.3722 101.28 25.7709 100.761 26.0899C100.465 26.1697 100.168 25.9304 99.8721 26.2494C100.02 26.4089 100.094 26.4887 100.243 26.5684C99.9462 26.7279 99.798 27.1266 99.3534 27.0469C98.7607 27.6051 98.168 28.1634 97.6494 28.7216C97.4271 28.7216 97.353 28.7216 97.2049 28.8013C97.1308 28.8013 97.1308 28.8811 97.0567 28.8811C96.9826 29.0406 96.9085 29.2798 96.8344 29.4393C96.6862 29.4393 96.5381 29.4393 96.464 29.4393C94.9822 30.795 93.5004 32.1507 92.0927 33.5064C91.9445 33.5064 91.7964 33.5064 91.6482 33.5064C91.5 33.7456 91.4259 33.9849 91.2777 34.1444H90.9073C90.3146 34.7026 89.7219 35.2608 89.0551 35.819C88.3883 36.3773 87.7955 36.9355 87.0547 37.414C86.3138 37.8127 85.7951 38.5304 85.2024 39.0887C85.3506 39.1684 85.4988 39.1684 85.721 39.2481C86.0915 38.7697 86.6842 38.6102 87.1287 38.2912C87.5733 37.8925 88.0919 37.733 88.6105 37.5735C89.0551 37.414 89.2032 36.776 89.796 36.8557C90.6109 36.138 91.6482 35.819 92.6113 35.3406C93.5004 34.9418 94.3895 34.5431 94.9081 33.9051C95.7231 33.5861 96.3158 33.3469 96.9085 33.0279C97.1308 32.8684 97.353 32.6292 97.5753 32.4697H98.3903C98.9089 31.5925 100.02 31.3532 100.909 30.795C101.057 30.7152 101.354 30.7152 101.798 30.7152C101.872 30.6355 102.095 30.476 102.095 30.3165C102.095 29.6785 102.836 29.7583 103.206 29.4393C103.354 29.2798 103.799 29.519 104.021 29.2798C104.243 29.1203 104.54 29.0406 104.762 28.8811C104.762 28.8013 104.762 28.6418 104.762 28.5621C105.355 28.1634 106.096 28.0039 106.688 27.5254C107.059 27.2064 107.651 27.0469 108.17 26.8077C108.615 26.6482 108.985 26.3292 109.355 26.0102C109.948 26.1697 110.319 25.6912 110.911 25.6115C111.208 25.2925 111.504 24.9735 111.874 24.6545C112.541 24.7342 112.986 24.4153 113.504 24.176C114.023 23.9368 114.616 23.7773 114.912 23.2191H115.505C115.875 23.0596 116.172 22.9001 116.542 22.7406C116.987 22.5811 117.357 22.3418 117.728 22.0229C118.024 21.7836 118.468 21.5444 118.765 21.5444C119.283 21.5444 119.506 21.2254 119.876 21.1456C120.247 21.0659 120.617 20.8267 120.987 20.6672C121.432 20.5077 121.802 20.2684 122.173 20.1089C122.543 19.9494 122.914 19.7102 123.358 19.7899C123.729 19.152 124.692 19.152 125.062 18.514C125.433 18.2748 125.803 18.514 126.174 18.2748C126.618 17.876 127.359 17.876 127.804 17.3975C128.47 17.6368 128.841 16.9988 129.508 16.9988C130.1 16.9988 130.693 16.6001 131.212 16.2811C131.656 15.9621 132.101 15.6431 132.842 15.3241H133.731C133.879 15.2444 134.027 15.0849 134.101 15.0051C134.249 15.0849 134.398 15.2444 134.472 15.3241C134.62 15.3241 134.694 15.3241 134.842 15.3241C134.916 15.1646 134.99 14.9254 135.064 14.6862C135.213 14.7659 135.287 14.8456 135.509 15.0051C135.583 14.9254 135.731 14.8456 135.879 14.6862H137.287C137.435 14.6064 137.583 14.4469 137.732 14.3672H138.472C138.621 14.2874 138.769 14.1279 138.843 14.0482C138.991 14.1279 139.139 14.2874 139.213 14.3672H139.954C140.102 14.2874 140.251 14.1279 140.399 14.0482C140.621 14.5267 140.473 15.0051 140.547 15.4039C140.177 15.6431 140.177 15.6431 140.325 16.0418C140.695 15.8824 140.473 15.6431 140.547 15.4039C141.066 15.4039 140.843 15.8026 140.992 16.0418C141.214 16.2013 141.584 16.0418 141.806 16.1216C141.955 15.9621 142.103 15.8824 142.251 15.8026C142.399 16.1216 142.547 16.3608 142.77 16.7596V17.3178C142.918 17.4773 143.14 17.6368 143.288 17.7963C143.511 17.4773 143.733 17.1583 144.029 16.8393C144.251 16.9988 144.251 16.9988 144.177 18.1153C144.103 18.2748 143.955 18.3545 143.881 18.514C144.103 18.5937 144.326 18.5937 144.474 18.5937C144.77 18.833 144.548 19.0722 144.622 19.3912C144.696 19.471 144.844 19.6305 144.992 19.7899V20.8267C144.77 20.9064 144.548 21.0659 144.251 21.1456C144.4 21.3051 144.474 21.3849 144.622 21.5444C143.881 22.1823 143.14 22.9001 142.399 23.538V24.176C141.955 24.5747 141.436 25.0532 140.917 25.5317V26.1697C140.621 26.3292 140.325 26.4887 140.102 26.6482C139.88 26.8874 139.51 27.0469 139.51 27.3659C139.287 27.4456 138.991 27.3659 139.213 27.6849C139.287 27.6051 139.362 27.5254 139.51 27.3659C139.584 27.4456 139.732 27.4456 139.732 27.5254C139.806 27.7646 139.806 27.9241 139.806 28.0836C138.843 28.9608 137.954 29.7583 136.917 30.7152C136.62 30.795 136.25 30.9545 136.102 31.433C135.953 31.9114 135.509 32.0709 135.064 32.2304C134.99 32.3899 134.99 32.5494 134.916 32.7089C134.768 32.7089 134.62 32.7887 134.398 32.7887C134.101 33.2671 133.657 33.9849 133.36 34.0646C132.619 34.2241 132.323 34.7823 131.804 35.1811H131.434C131.138 35.5 131.138 36.138 130.471 36.2178C129.878 36.2975 129.878 36.8557 129.656 37.1747C129.508 37.1747 129.434 37.1747 129.285 37.1747C128.545 37.6532 128.1 38.4507 127.211 38.6899V39.0089C126.84 39.3279 126.544 39.6469 126.174 39.9659V40.0456C126.618 40.4443 126.766 39.8861 127.063 39.8064C127.359 39.7266 127.655 39.8861 127.878 39.6469C128.1 39.4076 128.545 39.4874 128.767 39.1684C128.915 39.0089 129.285 38.9292 129.73 38.7697H130.471C131.064 38.5304 131.508 38.1317 131.953 38.1317C132.471 38.1317 132.768 37.733 133.286 37.733C133.583 37.1747 134.398 37.6532 134.694 37.095C134.842 37.1747 134.916 37.2545 135.064 37.414C135.287 37.1747 135.583 37.0152 135.805 36.776H136.398C136.843 36.5368 137.287 36.2975 137.732 36.138H138.621C138.991 35.9785 139.362 35.819 139.658 35.5798C139.954 35.3406 140.399 35.6595 140.695 35.3406C140.991 35.0216 141.51 35.1013 141.732 34.7823H143.14C143.288 34.6228 143.436 34.4633 143.585 34.4633C144.251 34.5431 144.696 34.1444 145.215 33.9051C145.289 33.9051 145.437 33.7456 145.511 33.7456C146.104 33.9849 146.326 33.3469 146.845 33.4266C146.993 33.4266 147.067 33.4266 147.215 33.4266C147.363 33.3469 147.437 33.1874 147.585 33.1077H148.697C148.845 33.0279 148.993 32.8684 149.067 32.7887H149.808C149.882 32.7089 149.882 32.7089 149.956 32.6292C150.03 32.5494 150.03 32.5494 150.104 32.5494C150.549 32.3899 151.068 32.5494 151.364 32.1507H152.623C153.29 31.8317 153.957 31.5127 154.624 31.1937C154.698 31.3532 154.846 31.5925 154.994 31.9114C155.068 31.6722 155.143 31.5127 155.217 31.3532C156.18 30.8747 157.291 30.3963 158.402 29.838H160.181C160.477 29.2798 161.07 29.2001 161.662 28.8811H162.626C162.774 28.8013 162.922 28.6418 163.07 28.5621H164.181C164.255 28.6418 164.404 28.7216 164.552 28.8811C164.774 28.7216 165.07 28.6418 165.441 28.4026C165.441 28.3228 165.515 28.1634 165.663 27.9241C165.96 27.9241 166.182 27.9241 166.478 27.8444C166.7 27.4456 167.219 27.6051 167.589 27.5254C167.664 27.4456 167.738 27.3659 167.886 27.2861C168.034 27.3659 168.256 27.4456 168.479 27.6051C168.997 27.3659 169.516 27.1266 170.034 26.9672C170.183 26.8874 170.405 26.9672 170.775 26.9672C171.072 26.7279 171.442 26.3292 171.887 25.9304C172.405 25.8507 172.109 26.4089 172.405 26.5684C172.776 26.3292 173.146 26.0899 173.072 25.6115H174.332C174.48 25.7709 174.628 25.8507 174.776 26.0102C174.924 25.9304 175.221 25.9304 175.221 25.8507C175.221 25.3722 175.591 25.2127 175.887 24.9735C176.48 24.8937 176.184 25.452 176.48 25.6115C176.702 25.2925 176.999 24.9735 177.221 24.5747C177.443 24.6545 177.591 24.6545 177.814 24.7342C177.666 24.9735 177.517 25.2127 177.443 25.3722C177.74 25.8507 178.11 25.6115 178.555 25.6115C178.555 25.452 178.629 25.2925 178.629 25.133C178.777 24.9735 178.925 24.814 179.147 24.6545H180.185C180.333 24.5747 180.481 24.4153 180.629 24.3355H181.37C181.666 24.495 181.518 24.814 181.592 25.2127C181.296 25.3722 181 25.5317 180.777 25.6115C181.148 26.2494 181.74 25.7709 181.963 26.1697C181.815 26.3292 181.74 26.4089 181.592 26.5684C181.592 26.7279 181.592 26.8077 181.592 26.9672C181.74 27.0469 181.889 27.0469 182.111 27.1266C182.259 27.5254 182.555 27.9241 183 28.2431C182.704 28.8811 181.74 28.8013 181.444 29.4393C181.074 29.5988 180.703 29.3596 180.407 29.6785C180.481 29.7583 180.555 29.838 180.555 29.838C181.148 29.838 181.815 29.838 182.407 29.838C182.555 29.9975 182.704 30.157 182.926 30.3165V30.9545C182.778 31.114 182.63 31.2735 182.407 31.433H181.518C181.444 31.3532 181.296 31.2735 181.222 31.1937C181.148 31.2735 181 31.3532 181 31.3532C181.074 31.752 180.629 31.9114 180.407 32.1507C179.814 32.0709 179.666 32.6292 179.147 32.8684C178.925 32.7887 178.703 32.6292 178.481 32.5494C178.258 32.7887 178.406 33.1076 178.332 33.3469C177.74 33.5861 177.221 33.9051 176.554 34.2241C176.406 34.0646 176.11 33.8254 175.887 33.5861L175.813 33.6659C175.813 34.2241 175.813 34.7823 175.813 35.3406C175.295 35.5001 174.85 35.9785 174.109 35.819C173.887 36.0583 173.665 36.2975 173.517 36.5368H172.702C172.553 36.457 172.405 36.2975 172.257 36.138C172.109 36.138 171.961 36.2178 171.738 36.2975C171.887 36.457 172.035 36.5368 172.183 36.6963C172.035 36.8557 171.887 37.095 171.664 37.095C170.998 37.2545 170.479 37.733 169.738 37.8925C169.59 38.0519 169.368 38.2912 169.145 38.4507C169.071 38.4507 168.923 38.5304 168.775 38.5304C168.404 38.6102 167.886 38.3709 167.589 38.8494C166.849 38.7697 166.182 39.4874 165.441 39.2481C164.922 39.7266 164.181 39.7266 163.959 40.2849C163.515 40.4443 163.366 40.0456 163.144 39.9659H162.403C162.181 40.2051 161.959 40.3646 161.736 40.6038H160.699C160.551 40.6836 160.403 40.8431 160.255 40.9228C159.81 40.6836 159.662 40.2849 159.44 39.8064C159.366 40.2051 159.292 40.5241 159.292 40.8431C158.921 40.9228 158.551 41.0823 158.18 40.6836C158.477 40.5241 158.773 40.2849 159.069 40.1254C158.773 39.8064 158.402 39.9659 158.18 39.8861C158.032 40.0456 157.884 40.1254 157.736 40.2849H156.995C156.698 40.6038 156.772 41.0823 156.18 41.2418C156.106 41.1621 156.032 41.0823 155.883 40.9228C155.735 40.9228 155.365 40.8431 155.217 40.9228C154.846 41.3216 154.328 41.1621 153.809 41.3216C153.883 41.4811 154.031 41.5608 154.105 41.7203C154.105 41.8798 154.105 42.0393 154.179 42.438C154.031 42.5178 153.809 42.757 153.587 42.9165C153.513 42.6773 153.513 42.5178 153.438 42.438C153.587 42.2785 153.735 42.1988 153.809 42.0393C153.513 41.8798 153.216 41.7203 152.92 41.6405C152.623 41.9595 151.883 41.8 151.734 42.438C151.883 42.5178 152.105 42.5975 152.327 42.6773C152.327 42.8367 152.327 42.9165 152.327 42.9962C152.105 43.395 151.66 43.076 151.29 43.3152C151.29 43.395 151.216 43.5545 151.216 43.714C150.697 43.8735 150.253 44.2722 149.586 44.1924C149.438 44.1127 149.364 43.9532 149.215 43.8735C148.623 44.1924 147.956 44.4317 147.141 44.8304H145.363C145.289 45.0697 145.289 45.1494 145.215 45.3886C145.066 45.5481 144.918 45.7076 144.696 45.8671C144.4 45.7874 144.548 45.5481 144.4 45.3089C144.251 45.3089 144.103 45.2291 143.881 45.2291C143.807 45.4684 143.733 45.6279 143.659 45.8671C143.585 45.8671 143.585 45.9469 143.511 45.9469C142.77 45.9469 142.029 45.9469 141.288 45.9469C141.14 46.1861 140.843 46.2659 140.547 46.3456C140.251 46.4254 140.102 46.7443 139.88 46.9038H138.695C138.472 47.1431 138.25 47.3823 138.102 47.6215H137.213C137.065 47.7013 136.917 47.8608 136.768 47.9405H136.028C135.879 48.1 135.731 48.1798 135.657 48.2595H134.842C134.768 48.3393 134.62 48.419 134.398 48.5785H133.286C132.842 49.057 132.397 49.5355 132.027 49.9342H130.693C130.471 50.1734 130.249 50.3329 130.026 50.5722C129.878 50.4924 129.804 50.4127 129.656 50.2532C129.582 50.3329 129.434 50.4127 129.285 50.5722C129.137 50.4924 129.063 50.3329 128.915 50.2532H128.396C128.322 50.014 128.545 49.695 128.174 49.6152C128.026 50.0937 128.026 50.0937 128.396 50.2532C128.1 50.8114 127.581 51.1304 126.989 51.3696C126.618 51.5291 126.322 51.5291 125.951 51.6089C125.729 51.7684 125.507 52.0076 125.211 52.2469H124.025C123.951 52.4861 123.951 52.5658 123.877 52.8051C123.729 52.9646 123.581 53.1241 123.358 53.2836H122.617C122.469 53.3633 122.321 53.5228 122.173 53.6026H121.062C120.913 53.6823 120.765 53.8418 120.691 53.9215H120.098C118.394 54.719 116.764 55.4367 114.986 56.3139H114.171C113.875 56.3937 113.653 56.5532 113.356 56.6329C113.06 56.7127 112.986 57.0317 112.615 56.9519C112.319 56.8722 112.023 57.0317 111.8 57.2709H110.319C110.17 57.3506 110.022 57.5101 109.874 57.5899H108.318C108.096 57.3506 107.874 57.0317 107.577 56.6329C106.985 56.3937 106.54 56.9519 105.947 57.1114V57.4304C105.281 57.7494 104.614 58.0684 103.947 58.3874C103.873 58.1481 103.799 57.9089 103.725 57.7494C103.502 57.5101 103.132 57.6696 102.836 57.5899C102.762 57.4304 102.687 57.1912 102.613 57.0317C102.243 57.1114 102.095 57.4304 101.872 57.5899C101.132 57.6696 101.132 57.6696 100.539 57.9886C100.465 57.9886 100.391 57.9886 100.391 57.9886C99.9462 57.4304 99.1312 57.3506 98.6866 56.7924C98.8348 56.7127 98.9089 56.5532 99.1312 56.3937C98.9089 55.995 98.6125 55.5165 98.3903 55.038C98.4644 54.9582 98.5385 54.8785 98.6866 54.7988V52.6456C98.168 52.4064 97.5753 52.6456 96.7603 52.4063C96.6862 52.3266 96.5381 52.0874 96.3158 51.8481C95.9453 52.0874 96.0935 52.3266 96.0935 52.5658C96.0194 52.4861 95.8713 52.4861 95.7231 52.4063V50.6519C95.7972 50.5722 95.8712 50.4924 95.8712 50.4924C96.3899 50.4924 96.8344 50.4924 97.353 50.4924C97.4271 50.5722 97.5012 50.6519 97.6494 50.7317C98.168 50.5722 98.8348 50.4127 98.983 49.9342C99.1312 49.5355 99.6498 49.1367 99.2794 48.5785C99.2053 48.5785 99.1312 48.4988 99.0571 48.3393C99.2053 48.0203 99.3534 47.7013 99.5016 47.4621C99.8721 47.3823 100.094 47.6216 100.243 47.781H101.057C101.057 47.6216 101.206 47.4621 101.132 47.3026C101.057 47.0633 100.687 47.0633 100.761 46.7443H101.28C101.724 46.5051 101.798 46.0266 102.095 45.7076C102.391 45.3886 102.539 45.0697 102.762 44.7507C102.984 44.3519 103.132 43.9532 103.577 43.714C103.725 43.714 103.947 43.714 104.095 43.6342C104.169 43.8735 104.095 44.1127 104.466 43.8735C104.391 43.7937 104.243 43.714 104.095 43.6342C104.243 43.4747 104.317 43.3152 104.466 43.076C104.466 42.9962 104.466 42.8367 104.466 42.5178C104.391 42.6773 104.762 42.5975 104.762 42.757C104.836 42.9165 104.91 43.1557 104.984 43.3152H105.429C105.503 43.1557 105.503 42.9165 105.651 42.757C105.799 42.5975 106.021 42.438 105.947 42.1988C105.873 42.119 105.799 42.0393 105.651 41.9595C105.281 42.119 104.836 42.2785 104.466 42.5975C104.169 42.6773 103.873 42.6773 103.502 42.6773C103.428 42.8367 103.354 43.076 103.28 43.3152H102.169C101.724 43.6342 101.428 43.9532 100.983 44.1127C100.539 44.2722 100.243 44.7507 99.9462 45.0697H99.2053C98.7607 45.7076 97.8717 45.7874 97.4271 46.3456C97.0567 46.4254 96.5381 46.2659 96.3158 46.7443H95.5749C95.2045 47.3823 94.2413 47.3823 93.7968 48.1H92.6113C92.4632 48.3393 92.2409 48.6583 92.2409 48.738C91.7964 48.8177 91.5741 48.8975 91.4259 48.8975C91.4259 49.2165 91.3518 49.4557 91.3518 49.695C91.0555 49.8545 90.6109 49.8545 90.4628 50.1734C90.3146 50.5722 89.796 50.3329 89.5737 50.6519V50.9709C89.2773 51.1304 88.981 51.2899 88.6105 51.4494C88.166 51.2899 88.166 50.8114 87.8696 50.4127C87.7955 50.8114 87.7215 51.0507 87.6474 51.4494C87.4992 51.4494 87.2769 51.5291 87.1287 51.5291C86.7583 51.8481 86.4619 52.1671 86.0915 52.4861C85.721 52.6456 85.5729 52.4064 85.3506 52.1671C84.7579 52.4064 84.832 53.1241 84.3134 53.4431C83.9429 53.3633 83.7947 53.0443 83.5725 52.8848C83.1279 53.0443 83.4984 53.5228 83.2761 53.762C83.0538 54.0013 82.6834 53.8418 82.387 53.9215C81.9425 54.3203 81.4239 54.7987 80.9794 55.1975C80.7571 55.2772 80.6089 55.2772 80.4607 55.357C80.2385 55.5165 80.5348 55.995 80.0162 55.995C79.9421 55.995 79.868 55.995 79.868 55.995C79.4235 56.5532 78.6085 56.6329 78.164 57.1912V57.5101C77.4972 57.8291 76.8304 58.1481 75.7931 58.6266C75.7931 58.6266 75.4227 58.9456 75.1263 59.3443C74.83 59.7431 74.2373 59.6633 73.9409 60.062C73.6445 60.4608 73.0518 60.381 72.7555 60.7798C72.5332 61.0987 72.2368 61.338 71.7923 61.4975C71.3478 61.5772 70.9032 61.7367 70.6069 62.1355C70.3105 62.5342 69.7178 62.4544 69.4215 62.8532C69.2733 62.7734 69.1251 62.6139 68.9769 62.5342C68.4583 62.6139 68.0879 63.0924 67.4951 62.9329C67.4211 63.0127 67.4211 63.1722 67.347 63.2519C67.347 63.3317 67.347 63.3317 67.347 63.4114C66.8283 63.5709 66.3838 64.0494 65.5688 63.8899C65.2725 64.2089 64.9761 64.6076 64.6057 65.0063C64.5316 64.9266 64.5316 64.9266 64.4575 64.8468C64.2352 65.0063 64.013 65.1658 63.7166 65.2456C63.4202 65.3253 63.1239 65.1658 62.9016 65.4051V65.4848C62.6053 65.6443 62.3089 65.8038 61.9385 65.9633C61.7162 65.8835 61.6421 65.5646 61.1976 65.7241C61.0494 65.4848 60.9753 65.2456 60.8271 65.0063H60.4567C60.0862 65.3253 60.3826 65.7241 60.3085 66.1228C60.3826 66.2025 60.5308 66.362 60.6789 66.5215C60.2344 66.7608 59.7899 66.681 59.3453 66.6013C59.2713 66.5215 59.2713 66.4418 59.1972 66.2823C59.3453 66.2823 59.5676 66.2823 59.7158 66.2823C59.7899 66.2823 59.864 66.2025 59.864 66.2025C59.864 66.1228 59.7899 65.9633 59.7158 65.9633C59.5676 65.9633 59.3453 65.9633 59.1972 65.9633C59.1231 65.8835 59.1231 65.7241 59.049 65.7241C58.8267 65.6443 58.8267 65.8038 58.8267 65.9633C58.6045 66.043 58.3081 65.8038 58.1599 66.1228C58.0117 66.4418 57.5672 66.2025 57.419 66.4418C57.1968 66.7608 56.9004 66.6013 56.604 66.681C56.3818 66.7608 56.2336 66.8405 56.0113 66.9203C55.9372 66.8405 55.8632 66.7608 55.715 66.681C55.4927 66.7608 55.2704 66.9203 55.0482 67C54.8259 66.8405 54.7518 66.7608 54.6036 66.6013H53.8628C53.7146 66.681 53.6405 66.8405 53.4182 67C53.1219 66.8405 52.8255 66.7608 52.5292 66.6013C52.381 66.681 52.2328 66.7608 52.0105 66.9203C51.7883 66.4418 51.1215 66.7608 50.8992 66.5215C50.5287 66.2025 50.0842 66.2823 49.7879 66.2823C49.1951 65.7241 50.0842 65.6443 50.0101 65.2456C49.936 64.9266 49.5656 64.8468 49.4915 64.6076H48.7506C48.3802 64.3684 48.232 64.0494 48.0838 63.6506C48.0097 63.3316 47.4911 63.2519 47.4911 62.8532C47.8615 62.8532 47.9356 62.4544 48.232 62.3747C48.0097 62.2152 47.8615 62.0557 47.7134 61.8165C47.4911 61.8165 47.2688 61.8165 46.8243 61.7367C46.7502 61.657 46.602 61.4177 46.3798 61.1785C46.602 60.9392 46.8984 61.0987 47.2688 61.019C47.417 60.8595 47.6393 60.7 47.8615 60.4608C47.7134 60.2215 47.6393 59.9823 47.4911 59.8228C47.9356 59.4241 48.0838 59.9025 48.3802 60.062H49.1211C49.3433 59.9025 49.4915 59.743 49.6397 59.5836C49.4174 59.5038 49.1211 59.3443 48.8988 59.2646C48.9729 59.1848 49.1211 59.1051 49.2692 58.9456C49.2692 58.7861 49.2692 58.4671 49.3433 58.2279C49.4915 58.0684 49.7138 57.9089 49.8619 57.7494H50.6028C50.8992 57.2709 50.8992 57.2709 50.4547 57.0317C50.5287 56.9519 50.5287 56.7924 50.6028 56.7924C50.8992 56.7127 51.1955 56.7127 51.4919 56.7127C51.4919 56.5532 51.566 56.3937 51.566 56.1544C51.1955 56.0747 50.8992 56.0747 50.5287 55.995C50.5287 55.9152 50.6028 55.7557 50.6028 55.7557C50.9733 55.7557 51.1955 55.5962 51.3437 55.357C51.566 55.038 51.8623 54.9582 52.3069 54.9582C52.0846 54.719 52.0105 54.6393 51.8623 54.4798C52.0846 54.4 52.3069 54.3203 52.5292 54.2405C52.7514 53.8418 52.5291 53.3633 52.6032 52.9646H53.196C53.3441 52.8051 53.4923 52.6456 53.7146 52.4861C53.5664 52.3266 53.4182 52.1671 53.27 52.0076H52.4551C52.3069 52.1671 52.1587 52.3266 51.9364 52.4861V53.2038C51.7883 53.3633 51.566 53.4431 51.3437 53.6026C50.751 53.6026 50.2324 53.9215 49.7138 54.1608C49.7138 54.3203 49.7138 54.4798 49.7138 54.6393C49.6397 54.6393 49.4174 54.719 49.4174 54.719C49.4174 55.1177 49.6397 55.1975 49.7879 55.1177C49.936 55.2772 50.0101 55.4367 50.1583 55.676C49.8619 55.9152 49.5656 56.2342 49.2692 56.4734C48.8247 56.5532 48.3802 56.3937 48.0097 56.5532C48.0838 56.8722 48.6765 57.1114 48.0838 57.4304C48.0097 57.3506 47.9356 57.2709 47.7874 57.1912C47.417 57.2709 47.2688 57.5899 46.9725 57.8291C46.7502 57.6696 46.5279 57.5101 46.3798 57.3507C46.4538 57.1114 46.5279 56.9519 46.602 56.7924C46.7502 56.9519 46.8984 57.0317 47.0466 57.1114C47.1947 56.9519 47.417 56.7924 47.5652 56.6329V56.1544C47.8615 55.9152 48.232 55.5962 48.6765 55.2772C48.6024 55.1975 48.4543 55.1177 48.4543 55.038C48.8988 54.6393 49.2692 54.3203 49.8619 53.762C50.0842 53.762 50.4547 53.5228 50.5287 53.0443C50.6028 52.7253 50.8251 52.4861 51.2696 52.4063C51.3437 52.6456 51.1215 52.9646 51.4919 53.0443C51.6401 52.5658 51.6401 52.5658 51.2696 52.4063C51.2696 52.2469 51.1955 52.0874 51.2696 51.9279C51.566 51.5291 51.8624 51.0507 52.1587 50.7317C52.4551 50.7317 52.6032 50.7317 52.7514 50.7317C52.8255 51.0507 53.0478 51.2102 53.3441 51.3696C53.5664 51.1304 53.5664 50.8912 53.27 50.7317H52.7514V50.1734C53.0478 50.0937 53.4182 50.0937 53.7887 50.014C53.7887 49.8545 53.8628 49.695 53.9368 49.5355C54.085 49.4557 54.3814 49.4557 54.5296 49.2962C54.7518 49.1367 54.9 48.9772 55.1964 49.057C55.5668 49.2962 55.3445 49.6152 55.3445 49.9342C55.2704 50.014 55.1964 50.0937 55.1223 50.1734V51.3696C55.2704 51.2899 55.3445 51.2899 55.4186 51.2899C55.715 51.0507 55.9372 50.8114 56.1595 50.5722C56.0113 50.4127 55.9372 50.3329 55.7891 50.1734C55.7891 50.014 55.7891 49.9342 55.8632 49.8545C56.2336 49.5355 56.8263 49.9342 57.2709 49.6152C57.1968 49.5355 57.0486 49.376 56.9745 49.2962C57.1227 48.8178 57.7154 48.8975 58.0117 48.5785V48.2595C57.8636 48.1 57.6413 47.9405 57.4931 47.781C57.3449 47.8608 57.2708 48.0203 57.1227 48.1C56.9745 48.0203 56.9004 47.8608 56.7522 47.781C56.4559 48.0203 56.604 48.3393 56.604 48.5785C56.4559 48.738 56.3077 48.8975 56.1595 49.057C55.7891 48.8975 55.4927 48.738 55.1223 48.5785C55.2704 48.1 55.2704 48.1 55.715 47.781C55.8632 47.8608 55.9372 48.0203 56.0854 48.1C56.3818 47.8608 56.1595 47.5418 56.3077 47.2228C56.4559 47.0633 56.7522 46.8241 56.9745 46.5848V46.2659C57.1968 46.1064 57.5672 46.1064 57.7154 45.8671C58.0117 45.5481 58.4563 45.9469 58.6785 45.6279C58.9008 45.3089 59.2713 45.4684 59.4194 45.3089C59.4935 45.1494 59.4935 44.9899 59.5676 44.8304C59.7899 44.7507 60.0121 44.6709 60.2344 44.5912C60.0862 44.3519 59.9381 44.1127 59.7899 43.7937C60.2344 43.714 60.6049 43.6342 60.9753 43.5545C60.9753 43.395 61.0494 43.2355 61.0494 43.076C61.2717 42.8367 61.568 42.9962 62.0125 42.9165C62.2348 42.6773 62.5312 42.3583 62.8275 41.9595V41.5608C63.2721 41.1621 63.4943 40.6038 64.2352 40.6038C64.3093 40.4443 64.3093 40.2849 64.3834 40.0456C64.6057 39.8064 64.902 39.9659 65.2725 39.8861C65.4206 40.0456 65.6429 40.2051 65.7911 40.3646C65.6429 40.8431 65.2725 41.0026 64.6057 40.9228C64.8279 41.4013 64.9761 41.6405 65.1984 41.8798C64.9761 41.9595 64.6798 41.8798 64.902 42.1988C64.9761 42.119 65.0502 42.0393 65.1984 41.8798C65.4206 41.8 65.717 41.6405 66.1615 41.4013C66.1615 41.2418 66.2356 40.9228 66.3097 40.6038C66.3097 40.5241 66.532 40.5241 66.6061 40.4443C66.6802 40.6836 66.6061 40.9228 66.9765 40.6836C66.9024 40.6038 66.7542 40.5241 66.6061 40.4443C66.4579 39.9659 65.9393 39.7266 65.4947 39.2481C65.717 39.1684 65.8652 39.0887 66.2356 38.9292C66.3097 38.9292 66.6802 39.0886 66.9765 39.2481C67.0506 39.4874 66.8283 39.8064 67.1988 40.1254C67.4211 39.7266 67.5692 39.4076 67.7174 39.0089C67.7174 39.0089 67.7174 38.9292 67.6433 38.8494C67.4211 38.6102 67.0506 38.7697 66.7542 38.6899C66.6802 38.6102 66.6061 38.4507 66.6061 38.4507C66.9024 38.2912 66.9024 37.9722 66.9024 37.733C66.9024 37.5735 66.9765 37.4937 67.1247 37.2545C67.2729 37.5735 67.347 37.733 67.4211 37.9722C67.7915 38.1317 67.9397 37.9722 68.1619 37.733C67.9397 37.4937 67.7915 37.3342 67.6433 37.095C67.7174 36.5368 68.236 36.3773 68.6065 35.9785C68.6806 36.0583 68.7547 36.138 68.9028 36.2975H69.7178C69.9401 36.138 70.0883 35.9785 70.2364 35.819C70.0883 35.6595 70.0142 35.5798 69.866 35.5C69.7919 35.1811 70.0142 35.1013 70.1623 34.8621C70.3105 34.7026 70.3105 34.4633 70.3846 34.3038H70.8291C70.9773 34.0646 71.1996 33.9051 71.3478 33.6659C71.6441 33.1874 71.6441 33.2671 72.1628 32.9482C72.6814 32.6292 73.4223 32.5494 73.7186 31.9114C73.9409 31.9114 74.0891 31.9114 74.3113 31.8317C74.3854 32.0709 74.3113 32.3102 74.6818 32.0709C74.6077 31.9912 74.4595 31.9114 74.3113 31.8317C74.3113 31.5925 74.3113 31.3532 74.3113 31.0342C74.6077 30.8747 74.9781 30.7152 75.3486 30.476H76.534V31.0342C76.3117 31.114 76.0154 31.2735 75.7931 31.3532C75.8672 31.5127 75.8672 31.6722 75.9413 31.9114C76.3858 31.752 76.8304 31.5925 77.2008 31.433C77.2749 31.2735 77.349 31.0342 77.4231 30.8747H78.2381C78.6085 30.2368 79.053 29.6785 79.4235 29.519C79.7198 29.4393 80.0162 29.5988 80.2385 29.3596V28.9608C81.498 28.7216 81.7943 27.6051 82.2389 26.8077C82.387 26.8077 82.5352 26.8077 82.6834 26.8077C83.0538 26.2494 83.8688 26.0899 83.9429 25.2925C84.3875 24.814 85.0543 24.4153 85.2024 23.7773H86.0174C86.0915 23.4583 86.1656 23.1393 86.4619 22.9001C86.536 22.8203 86.4619 22.5811 86.3879 22.4216C86.0174 22.6608 85.721 22.9001 85.3506 23.0596C84.9802 23.2191 84.5356 23.538 84.017 23.3785C83.7947 23.6975 83.202 23.6178 83.202 23.857C83.0538 24.2558 82.7575 24.495 82.5352 24.814C82.313 25.133 82.1648 25.452 82.0166 25.771C81.8684 26.0899 81.6462 26.4089 81.498 26.7279C81.3498 26.6482 81.2016 26.4887 81.1275 26.4089C80.9794 26.5684 80.7571 26.7279 80.6089 26.8874C80.6089 27.2861 80.5348 27.6051 80.5348 28.0836C80.1644 28.0836 79.9421 28.1634 79.6458 28.1634C79.4976 28.3228 79.2753 28.4823 79.1271 28.6418C79.1271 28.7216 79.1271 28.8811 79.1271 28.9608C78.3121 29.2001 77.7194 29.7583 77.4972 30.476H76.3117C76.1636 30.2368 76.0154 29.9178 75.8672 29.6785C76.1636 29.3596 76.534 29.519 76.8304 29.4393C76.9785 29.2798 77.1267 29.1203 77.349 28.9608C77.4231 28.7216 77.349 28.3228 77.4972 28.1634C78.0158 27.8444 77.4972 27.1266 78.164 26.8874C77.8676 26.4887 77.5713 26.7279 77.1267 26.7279C77.1267 26.8874 77.0526 27.0469 77.0526 27.2064C76.8304 27.2861 76.534 27.3659 76.3117 27.5254C76.0154 27.6849 75.8672 28.0039 75.4227 28.0039C75.2004 28.0039 74.9781 28.3228 74.7559 28.5621C74.4595 28.9608 73.9409 28.9608 73.5704 29.2798C73.4223 29.3596 73.1259 29.3596 72.7555 29.3596C72.4591 29.7583 71.9405 29.9975 71.4219 30.2368C70.9773 30.3963 70.6069 30.6355 70.1623 30.795C69.7919 30.9545 69.4955 31.3532 69.051 31.5127C68.5324 31.752 68.1619 32.2304 67.7174 32.6292C67.0506 32.9482 66.3097 33.1076 65.717 33.5064C65.4206 33.6659 64.9761 33.9051 65.1984 34.4633H64.6057C64.3093 34.7026 64.087 35.0216 63.7907 35.2608C63.5684 35.5 63.3462 35.7393 62.9016 35.819C62.4571 35.819 62.383 36.457 61.9385 36.457C61.4939 36.457 61.4198 36.8557 61.1235 37.0152C60.753 37.1747 60.3826 37.3342 60.0121 37.4937C59.7158 37.6532 59.4194 37.8127 58.9749 37.9722C58.7526 38.2114 58.3822 38.4507 58.1599 38.7697C57.7154 39.3279 56.9004 39.4076 56.4559 39.9659C56.0113 40.5241 55.1964 40.6038 54.7518 41.1621C54.6036 41.4013 54.2332 41.3216 54.0109 41.4811C53.7146 41.6405 53.4182 41.7203 53.1219 41.9595C52.8255 42.1988 52.6032 42.5178 52.1587 42.5975C51.7883 42.6773 51.6401 43.1557 51.1955 43.2355C50.8251 43.3152 50.4547 43.5545 50.1583 43.714V44.1127C49.8619 44.1924 49.4174 44.1127 49.1951 44.2722C48.9729 44.4317 48.6024 44.4317 48.4543 44.5912C48.232 44.9102 47.7874 44.7507 47.5652 45.0697C47.417 45.3089 47.1206 45.4684 46.8984 45.7076C46.8984 45.7874 46.8984 45.9469 46.8984 46.0266C46.5279 46.1861 46.2316 46.3456 45.8611 46.5848C45.787 46.5848 45.713 46.5848 45.713 46.5848H45.3425C44.9721 46.9836 44.6016 47.3026 44.3794 47.6215H43.4903C43.1939 47.9405 42.8976 48.1798 42.6012 48.4988V48.8975C42.1567 49.057 41.6381 49.2165 41.1935 49.4557C40.8231 49.695 40.5267 50.0937 40.2304 50.4127H39.2672C39.0449 50.7317 38.9708 51.1304 38.5263 51.3696C38.3781 51.3696 38.0818 51.3696 37.8595 51.3696C37.8595 51.3696 37.7854 51.3696 37.7113 51.4494C37.2668 52.0874 36.3036 52.0874 36.0073 52.7253C35.785 52.5658 35.5628 52.4861 35.2664 52.2469C35.0441 52.5658 34.8219 52.8848 34.7478 53.0443H33.7846C33.6364 53.6026 33.1919 54.0013 32.5992 54.3203C32.3769 54.4798 32.1547 54.5595 31.8583 54.719C31.7842 54.6393 31.7101 54.5595 31.5619 54.4798C31.2656 54.8785 30.8951 55.2772 30.747 55.4367H29.7097C29.3393 55.7557 29.0429 56.0747 28.6725 56.3937C27.8575 56.5532 27.3389 57.1912 26.3757 57.1114C26.1534 57.3506 25.8571 57.5899 25.6348 57.7494H24.8939C24.5235 58.0684 24.153 58.3874 23.8567 58.7063C23.4862 58.8658 22.9676 58.4671 22.8194 59.1051H18.3741C18.2259 59.1848 18.0777 59.3443 17.9296 59.4241H16.8182C16.67 59.5038 16.5219 59.6633 16.3737 59.743C16.2996 59.5038 16.2255 59.3443 16.1514 59.1051C16.0032 59.1051 15.8551 59.1051 15.7069 59.1051C15.4105 59.3443 15.5587 59.6633 15.5587 59.9025C15.4846 59.9823 15.4105 60.062 15.2623 60.062C14.7437 60.062 14.2992 60.062 13.8547 60.062C13.5583 59.8228 13.336 59.5836 13.1138 59.4241C12.7433 59.7431 13.0397 60.2215 12.8915 60.5405C12.6692 60.7798 12.5211 60.9393 12.3729 61.0987C12.2247 61.019 12.0024 61.019 11.7802 60.9393C11.9283 60.7798 12.0765 60.6203 12.1506 60.5405C11.7802 60.1418 11.2615 60.5405 10.7429 60.3013C10.7429 60.2215 10.6688 60.062 10.6688 59.9025C10.817 59.743 10.8911 59.6633 11.1134 59.5038C10.8911 59.4241 10.7429 59.4241 10.5947 59.3443C10.4466 59.5836 10.3725 59.8228 10.2243 60.062C10.1502 59.9823 10.0761 59.9025 9.85385 59.743C9.40931 59.5836 8.89069 59.8228 8.29798 59.6633C8.1498 59.5038 8.00162 59.3443 7.77935 59.1848C7.85344 58.9456 8.1498 58.9456 8.1498 58.6266C8.52024 58.3874 8.52024 58.3874 8.37206 57.9886C8.00162 58.1481 8.22389 58.3874 8.1498 58.6266H7.63117C7.18664 57.9089 6.81619 57.1114 6.37166 56.3937C6.74211 55.995 7.26073 56.3937 7.70526 56.2342C7.92753 55.995 7.77935 55.7557 7.55709 55.5165C7.33482 55.2772 7.40891 55.1975 7.77935 54.9582C8.22389 54.7988 8.37206 55.676 8.89069 55.1177C8.8166 55.038 8.74251 54.8785 8.59433 54.7988C8.74251 54.4 9.55749 54.2405 9.26113 53.6026C9.70567 53.5228 10.002 53.5228 10.2984 53.5228C10.2984 53.3633 10.3725 53.2038 10.3725 53.0443C10.1502 52.8848 10.002 52.7253 9.85385 52.5658C9.55749 52.6456 9.4834 53.0443 9.11296 52.8051C8.74251 52.5658 8.96478 52.2469 8.96478 51.9279C8.96478 51.8481 9.18704 51.8481 9.26113 51.7684C9.33522 52.0076 9.26113 52.2469 9.63158 52.0076C9.55749 51.9279 9.40931 51.8481 9.26113 51.7684C9.26113 51.5291 9.26113 51.2899 9.26113 50.9709C9.4834 50.8912 9.63158 50.8114 9.85385 50.8114C10.0761 50.5722 9.92794 50.2532 10.002 50.014C10.1502 49.8545 10.2243 49.7747 10.3725 49.695V49.376C10.2984 49.2962 10.2243 49.2165 10.2243 49.2962C9.85385 49.5355 9.40931 49.6152 8.96478 49.5355C8.96478 49.7747 8.89069 49.9342 8.89069 50.0937C9.11296 50.1734 9.33522 50.2532 9.55749 50.3329C9.55749 50.4127 9.4834 50.5722 9.4834 50.5722C9.03887 50.4924 8.89069 50.9709 8.52024 50.9709C8.37206 50.8114 8.29798 50.5722 8.1498 50.4127V49.7747C8.66842 49.5355 8.37206 48.8178 9.11296 48.6583C9.18704 48.738 9.26113 48.8178 9.40931 48.8975C9.55749 48.8178 9.63158 48.6583 9.77976 48.5785H10.5206C10.5947 48.738 10.6688 48.9772 10.7429 49.2165C11.0393 49.057 11.4097 48.8975 11.7061 48.8177C11.5579 48.4988 11.0393 48.3393 10.9652 47.9405H12.0024C12.0024 47.781 12.0765 47.5418 12.1506 47.3823C11.9283 47.3026 11.7061 47.3026 11.4838 47.3026C11.4097 47.2228 11.3356 47.1431 11.4838 47.0633C11.8543 46.7443 11.7802 46.1064 12.5211 45.9469C12.6692 46.0266 12.8174 46.1064 13.0397 46.2659C13.4101 45.7874 13.8547 45.2291 14.2992 44.6709V44.1127C15.1883 43.714 15.1883 43.714 15.5587 42.9165C15.7069 42.9962 15.8551 43.1557 15.9291 43.2355C16.5219 42.9962 17.0405 42.6773 17.6332 42.438V41.7203C17.8555 41.6405 18.0777 41.5608 18.3 41.4811C18.3 41.3216 18.3741 41.1621 18.3741 41.0026C18.5223 40.8431 18.6704 40.6836 18.8927 40.5241C19.1891 40.5241 19.4854 40.5241 19.7818 40.4443C19.8559 40.1254 19.8559 39.8861 19.8559 39.5671C20.5968 39.2481 21.2636 38.9292 22.0045 38.6102C21.8563 38.4507 21.7822 38.3709 21.634 38.2114C22.0785 37.6532 22.9676 37.6532 23.264 37.0152H24.0789C24.153 36.8557 24.153 36.6165 24.3012 36.457C24.4494 36.2178 24.7457 36.0583 24.968 35.8988C24.8198 35.7393 24.7457 35.6595 24.5235 35.5C24.8939 35.4203 25.2644 35.4203 25.5607 35.3406C25.6348 35.1811 25.6348 35.0216 25.7089 34.8621C26.0794 34.5431 26.3757 34.2241 26.8202 33.9051C26.6721 33.8254 26.4498 33.7456 26.3757 33.7456C26.0053 33.9051 25.5607 33.9849 25.3385 34.3038C24.6717 35.0216 23.5603 35.2608 23.0417 36.138C22.8194 35.9785 22.7453 35.8988 22.5972 35.819C22.5231 35.8988 22.449 35.9785 22.3749 35.9785C22.0045 36.138 21.634 36.2975 21.2636 36.457C21.1895 36.457 21.1154 36.457 21.1154 36.457C20.6709 36.8557 20.1522 37.3342 19.7077 37.8127C19.4113 37.733 19.1891 37.9722 18.9668 38.1317C18.5223 38.0519 18.3741 38.4507 18.0777 38.6102C17.8555 38.7697 17.5591 38.8494 17.3368 39.0089C17.3368 39.0887 17.3368 39.2481 17.3368 39.3279C16.0032 39.9659 14.5955 40.6038 13.2619 41.1621C12.8174 41.0823 12.7433 40.6836 12.3729 40.5241C12.2247 40.6038 12.0765 40.6836 11.7802 40.8431C11.632 40.7633 11.4097 40.6038 11.2615 40.4443C11.1874 40.5241 11.0393 40.6836 10.8911 40.7633H10.1502C10.0761 40.9228 10.002 41.1621 9.92793 41.3216C9.4834 41.6405 9.33522 41.1621 9.11296 41.0823C8.8166 41.0823 8.52024 41.0823 8.59433 41.4013H7.18664C7.03846 41.3216 6.89028 41.1621 6.81619 41.0823H6.00121C5.85304 40.8431 5.63077 40.6038 5.48259 40.4443C4.81579 40.3646 4.66761 40.8431 4.37125 41.0823C4.00081 41.0026 4.22308 40.7633 4.0749 40.5241C3.92672 40.3646 3.55628 40.5241 3.18583 40.3646C3.18583 40.3646 3.03765 40.2051 2.88947 40.1254H1.62996C1.48178 39.9659 1.3336 39.8064 1.11134 39.5671V38.8494C0.889069 38.6899 0.592713 38.5304 0.370445 38.3709C0.370445 38.1317 0.370445 38.0519 0.370445 37.8925C0.296356 38.3709 0.148178 38.2114 0 38.0519C0.148178 37.9722 0.296356 37.9722 0.444534 37.8925C1.03725 38.1317 1.25951 38.7697 1.85223 38.8494C1.92632 39.0887 1.85223 39.3279 2.22267 39.0887C2.14858 39.0089 2.0004 38.9292 1.85223 38.8494C1.85223 38.6899 1.85223 38.5304 1.85223 38.3709C1.48178 38.0519 1.03725 37.8127 0.889069 37.414C0.666802 37.0152 0.370445 36.6962 0.0740891 36.3773C0.296356 36.0583 0.518623 35.6595 0.740891 35.2608V34.7823C0.889069 34.5431 1.03725 34.3836 1.11134 34.2241H1.48178V34.7026C1.62996 34.8621 1.85223 34.9418 2.07449 34.7823C2.29676 34.6228 2.44494 34.4633 2.7413 34.5431C2.88947 34.7823 3.11174 35.0216 3.25992 35.3406C3.33401 35.5798 3.33401 35.8988 3.4081 36.138C3.63036 36.3773 4.00081 36.138 4.22308 36.2975C4.29717 36.138 4.44534 36.0583 4.44534 35.9785C4.44534 35.4203 4.44534 34.8621 4.44534 34.3836C4.66761 34.0646 4.96397 34.2241 5.48259 33.8254C5.63077 33.6659 5.55668 33.9051 5.55668 34.0646C5.48259 34.2241 4.96397 34.1444 5.4085 34.4633H6.66802C6.74211 33.9051 6.44575 33.6659 5.48259 33.7456C5.18623 34.0646 5.18623 33.9051 5.18623 33.7456C5.03806 33.6659 4.96397 33.5064 4.81579 33.4266C4.88988 33.3469 5.03806 33.2671 5.11215 33.2671C5.55668 33.1874 6.0753 33.4266 6.44575 32.9482C6.81619 32.8684 7.33482 33.0279 7.55709 32.6292C8.07571 32.7089 8.07571 32.3899 8.22389 32.0709C8.29798 31.9114 8.52024 31.752 8.66842 31.5925H9.63158H9.77976C9.92793 31.5127 10.0761 31.3532 10.1502 31.2735C10.2984 31.3532 10.4466 31.5127 10.5206 31.5925C10.6688 31.3532 11.0393 31.2735 10.9652 30.9545C11.1874 30.8747 11.4838 30.9545 11.2615 30.6355C11.1874 30.7152 11.1134 30.795 10.9652 30.9545C10.817 30.8747 10.5206 31.0342 10.3725 30.795C10.5206 30.476 10.7429 30.3165 11.0393 30.2368C11.3356 30.157 11.5579 29.9975 11.7802 29.838C11.8543 30.0773 11.7802 30.3165 12.1506 30.0773C12.0765 29.9975 11.9283 29.9178 11.7802 29.838C11.8543 29.4393 12.1506 29.519 12.447 29.5988C12.5211 29.838 12.5951 29.9975 12.6692 30.2368C13.1138 30.0773 13.2619 29.519 13.8547 29.5988C14.151 29.3596 14.4474 29.0406 14.8178 28.7216C14.6696 28.4823 14.5215 28.3228 14.4474 28.0836C14.6696 27.8444 14.966 27.6051 15.2623 27.2861C15.4105 27.2064 15.781 27.2861 15.9291 27.0469C16.1514 26.7279 16.596 27.1266 16.8923 26.8077C17.1146 26.6482 17.4109 26.5684 17.6332 26.4089C17.485 26.2494 17.4109 26.1697 17.2628 26.0102C17.2628 25.8507 17.2628 25.7709 17.2628 25.6115C17.4109 25.5317 17.5591 25.5317 17.8555 25.452C18.3741 24.9735 18.9668 24.4153 19.5595 23.857C20.0781 23.857 20.3745 23.4583 20.7449 23.1393C21.1895 23.2988 21.3377 22.7406 21.7081 22.8203C21.7822 22.8203 21.8563 22.8203 21.9304 22.8203C22.0045 22.6608 22.0785 22.4216 22.1526 22.2621C22.3008 22.2621 22.449 22.1823 22.6713 22.1823C22.8935 22.0229 23.1158 21.7836 23.3381 21.5444C23.7085 21.5444 24.153 21.5444 24.5976 21.4646C24.6717 21.3051 24.6717 21.1456 24.7458 20.9064C24.8939 20.8267 25.1162 20.7469 25.3385 20.6672C25.4126 20.5077 25.4126 20.3482 25.4866 20.1887C25.9312 20.0292 26.3016 19.8697 26.8943 19.6305C28.1538 18.4343 28.1538 18.4343 29.4874 17.9558C29.5615 17.7963 29.5615 17.6368 29.6356 17.557C30.5988 17.1583 31.4879 16.7596 32.451 16.2811C33.7846 15.0849 33.7846 15.0849 35.4146 14.5267C35.3405 14.4469 35.1923 14.2874 35.0441 14.1279C35.2664 14.0482 35.4146 14.0482 35.8591 13.8887C36.0814 13.6494 36.3777 13.2507 36.6741 12.9317H37.6372C38.0818 12.533 38.4522 12.214 38.7486 11.895H40.1563C40.2304 11.7355 40.3045 11.4963 40.3785 11.257C40.5267 11.257 40.6749 11.1773 40.8972 11.1773C40.9713 11.0178 41.0453 10.8583 41.0453 10.6988C42.3789 10.0608 43.6385 9.50262 44.9721 8.86465H45.5648C46.0093 8.46591 46.5279 7.98743 46.8984 7.5887C47.2688 7.4292 47.4911 7.34946 47.9356 7.18996H48.5283C48.8247 6.95072 49.047 6.71148 49.3433 6.47224H50.3065C50.751 6.233 51.0474 6.15326 51.3437 5.99376C51.3437 5.83427 51.4178 5.67478 51.4919 5.43554H52.6032C52.7514 5.0368 52.8255 4.63807 53.4923 4.39883H54.6777C54.8259 4.31908 54.9741 4.07984 55.0482 4.07984C55.5668 4.23934 55.715 3.52162 56.1595 3.68111C56.53 3.36212 56.8263 3.04313 57.1968 2.72415C57.3449 2.80389 57.419 2.88364 57.5672 3.04313C57.7154 2.96339 57.7895 2.80389 57.9376 2.72415C58.0858 2.72415 58.3081 2.72415 58.4563 2.6444C58.5304 2.88364 58.4563 3.12288 58.8267 2.88364C58.7526 2.80389 58.6045 2.72415 58.4563 2.6444C58.5304 2.56465 58.5304 2.48491 58.6045 2.40516C59.049 2.32541 59.4194 2.24567 59.7158 2.6444C59.7899 2.56465 59.9381 2.56465 59.9381 2.48491C59.9381 2.00643 60.2344 1.84693 60.6789 1.68744C61.0494 1.68744 61.1976 1.60769 61.4939 1.4482C61.7903 1.4482 62.1607 1.4482 62.5312 1.4482C62.6053 1.52795 62.6793 1.60769 62.7534 1.68744C62.8275 1.68744 62.9757 1.76719 63.0498 1.76719C63.8648 1.76719 64.7538 1.76719 65.5688 1.76719C65.5688 1.84693 65.5688 2.00643 65.5688 2.08617H65.1984C64.902 2.24567 64.6798 2.40516 64.4575 2.56465C64.8279 2.88364 65.1984 2.80389 65.5688 2.6444C65.5688 2.48491 65.5688 2.24567 65.6429 2.08617C66.0874 2.00643 66.6061 2.16592 67.0506 2.00643C67.0506 1.92668 67.1247 1.84693 67.1247 1.84693C66.8283 1.60769 66.532 1.28871 66.2356 0.96972C66.0874 1.28871 66.0134 1.52795 65.9393 1.68744C65.8652 1.76719 65.717 1.76719 65.6429 1.76719C65.5688 1.36845 65.0502 1.20896 64.902 0.810227C65.4947 0.570987 66.0874 0.810227 66.7542 0.650733C66.6061 0.411493 66.4579 0.331746 66.3838 0.172253C66.4579 -0.0669872 66.6802 0.0127595 66.9765 0.0127595C67.0506 0.172253 67.1247 0.411493 67.1988 0.570987C67.347 0.650733 67.4951 0.650733 67.7174 0.73048C68.0138 0.96972 67.7174 1.28871 67.8656 1.4482C67.7174 1.60769 67.5692 1.68744 67.4211 1.84693C67.6433 1.92668 67.7915 1.92668 67.9397 2.00643C68.0879 1.84693 68.236 1.76719 68.3842 1.68744C68.5324 1.76719 68.6806 1.92668 68.7547 2.00643C69.051 2.08617 69.3474 1.92668 69.6437 2.16592C69.5696 2.24567 69.4215 2.40516 69.2733 2.56465V4.63807C69.4955 4.71782 69.6437 4.79756 69.866 4.79756C70.0883 5.11655 69.9401 5.51528 70.0142 5.91402C70.0883 5.99376 70.1623 6.07351 70.3105 6.233C70.3105 6.3925 70.3105 6.55199 70.3846 6.79123C70.0142 7.34946 70.0142 7.34946 70.0142 7.82794C70.0142 7.90768 70.0142 7.98743 69.9401 7.98743C69.2733 8.38616 69.2733 9.26338 68.5324 9.58237V10.3001C68.3101 10.5393 68.0879 10.6988 67.7915 10.9381V12.2938C67.4951 12.533 67.2729 12.7722 67.0506 12.9317V14.4469C66.9024 14.6064 66.8283 14.6862 66.6802 14.8456V15.6431C66.4579 15.8026 66.2356 16.0418 65.9393 16.2811C65.8652 16.5203 66.0134 16.8393 65.7911 17.0786C65.5688 16.9191 65.4206 16.6001 65.0502 16.7596C64.902 16.9988 64.7538 17.238 64.6798 17.4773C64.6057 17.6368 64.5316 17.876 64.3834 18.0355C64.2352 18.2748 63.8648 18.4343 63.7907 18.6735C63.7166 18.9127 63.7166 19.0722 63.4943 19.2317C63.2721 19.3912 63.0498 19.6304 62.8275 19.8697C62.5312 20.1887 62.0126 20.3482 61.9385 20.9064C61.568 20.9861 61.4198 21.2254 61.2717 21.4646C61.568 21.6241 61.7903 21.7039 61.9385 21.3849C61.9385 21.2254 61.9385 21.0659 61.9385 20.9064C62.2348 20.8267 62.3089 21.2254 62.7534 21.2254H63.198C63.4943 20.9861 63.2721 20.6672 63.4202 20.3482C63.7166 20.2684 64.1611 20.2684 64.4575 20.0292C64.8279 19.7899 65.1984 19.9494 65.4947 19.7899C65.717 19.5507 65.5688 19.2317 65.6429 18.9127C65.7911 18.9127 66.0134 18.7532 66.0874 18.833C66.3838 19.0722 66.6802 19.152 66.9765 19.2317C67.0506 19.2317 67.0506 19.3912 67.0506 19.471C66.6061 19.8697 66.1615 20.2684 65.5688 20.8267C65.717 20.8267 65.4947 20.8267 65.3466 20.9064C65.2725 21.0659 65.1984 21.3051 65.0502 21.5444C64.902 21.2254 64.7538 21.0659 64.6798 20.8267C64.2352 21.0659 64.6057 21.4646 64.3834 21.7039C64.1611 21.9431 63.7907 21.7836 63.4943 21.7836C63.4202 21.8634 63.3462 21.9431 63.198 22.1026C62.9757 22.1026 62.6794 22.1026 62.3089 22.1823C62.2348 22.5013 62.2348 22.8203 62.1607 23.0596C61.7903 23.2988 61.568 23.0596 61.3457 22.8203C61.1976 22.9001 61.1235 22.9798 60.9753 23.1393H59.864C59.4935 23.538 59.049 23.9368 58.6045 24.495C58.6045 24.495 58.6045 24.5747 58.6045 24.6545C58.1599 24.9735 57.5672 24.9735 57.419 25.5317C57.1968 25.3722 57.1227 25.2925 56.9745 25.133C56.7522 25.6912 56.3077 26.0899 55.8632 26.4887C55.715 26.4089 55.6409 26.3292 55.4927 26.0899C55.2704 26.3292 55.1223 26.6482 54.9741 26.8077H54.4555C54.0109 27.6051 54.0109 27.6051 53.196 28.0039C53.196 28.0836 53.196 28.2431 53.196 28.4026C52.9737 28.4823 52.8255 28.5621 52.8996 28.4823C52.2328 29.0406 51.8624 29.4393 51.3437 29.9178C51.3437 30.0773 51.4178 30.2368 51.8623 30.2368C52.2328 29.9975 52.5291 29.5988 52.9737 29.2798H53.7146C53.8628 29.0406 54.085 28.7216 54.2332 28.5621C54.6036 28.5621 54.8259 28.5621 54.9741 28.4823C55.0482 28.7216 54.9741 28.9608 55.3445 28.7216C55.2704 28.6418 55.1223 28.5621 54.9741 28.4823C54.9741 28.1634 55.3445 28.0836 55.4927 27.9241C55.9372 28.0039 56.1595 27.5254 56.604 27.5254C56.9745 27.3659 57.0486 26.8077 57.4931 26.7279C57.5672 26.9672 57.4931 27.2064 57.8636 26.9672C57.7895 26.8874 57.6413 26.8077 57.4931 26.7279ZM43.4903 35.5C43.5644 35.7393 43.5644 36.0583 43.8607 35.819C43.7866 35.7393 43.6385 35.6595 43.4903 35.5798C43.4162 35.3406 43.6385 35.0216 43.268 34.9418C43.1198 35.3406 43.1198 35.3406 43.4903 35.5ZM58.234 49.376C58.4563 49.2962 58.8267 49.5355 58.9749 49.2165C58.4563 49.057 58.4563 49.057 58.3822 49.376C58.0858 49.4557 57.7895 49.4557 58.0858 49.695C58.1599 49.6152 58.234 49.5355 58.234 49.376ZM58.234 46.7443H59.4935C59.6417 46.5848 59.9381 46.4254 59.9381 46.1064H58.6785C58.6045 46.3456 58.1599 46.4254 58.234 46.9836C57.9376 46.6646 57.9377 46.6646 57.419 46.5051C57.419 46.7443 57.4931 46.9038 57.4931 47.1431C57.8636 47.0633 58.0858 46.9836 58.234 46.7443ZM73.7186 33.8254C72.9777 33.9849 72.9777 34.7026 72.6073 35.1811C72.5332 35.2608 72.6814 35.3406 72.7555 35.5C72.9036 35.4203 72.9777 35.2608 73.1259 35.2608C73.3482 35.1811 73.5704 35.1013 73.7186 35.0216V33.8254C74.0891 33.6659 74.0891 33.6659 73.9409 33.1874C73.5704 33.3469 73.7927 33.6659 73.7186 33.8254ZM67.7915 61.5772H68.3842C68.5324 61.4975 68.6806 61.338 68.7547 61.2582H69.4955C70.1623 60.7 70.1624 60.7 69.866 60.3013C69.2733 60.8595 68.1619 60.7 67.9397 61.4975C67.6433 61.5772 67.347 61.5772 67.6433 61.8165C67.7174 61.8165 67.7915 61.657 67.7915 61.5772ZM178.11 26.0899H177.221C177.073 26.1697 176.925 26.3292 176.851 26.4089H176.258C175.813 26.5684 175.517 26.7279 175.221 26.8874C175.221 26.8874 175.221 26.9672 175.295 26.9672C175.369 26.9672 175.369 27.0469 175.443 27.0469C175.813 27.0469 176.184 27.0469 176.48 27.0469C176.777 26.5684 177.221 26.7279 177.591 26.6482C177.74 26.4887 178.11 26.4089 178.11 26.0899C178.332 26.0102 178.703 26.2494 178.851 25.9304C178.258 25.771 178.258 25.7709 178.11 26.0899ZM13.7065 48.8975C13.5583 48.8178 13.4842 48.738 13.4101 48.738C13.336 48.738 13.1879 48.738 13.1138 48.8177C12.7433 49.5355 12.7433 49.5355 12.0024 49.8545C11.9283 50.014 11.8543 50.2532 11.7802 50.4127C11.632 50.4127 11.4838 50.4127 11.4097 50.4127C10.8911 50.7317 10.7429 51.2101 10.5206 51.6886C10.8911 51.8481 11.1874 51.8481 11.4838 51.6886C11.4838 51.4494 11.5579 51.1304 11.5579 50.8912C12.0765 50.6519 12.5211 50.4924 12.9656 50.2532C12.8174 49.695 13.6324 49.6152 13.7065 48.8975ZM95.649 11.257C95.7972 11.0976 96.0194 10.9381 96.1676 10.7786C95.9453 10.6191 95.7972 10.3798 95.649 10.2203C95.2785 10.2203 94.9822 10.2203 94.834 10.2203C94.6117 10.3798 94.4636 10.5393 94.2413 10.7786C94.4636 11.0976 94.0931 11.576 94.4636 11.895C94.6117 11.895 94.7599 11.8153 94.9081 11.8153C94.9822 11.576 95.0563 11.4165 95.1304 11.1773H95.649V11.257ZM62.6794 43.8735C63.3462 44.2722 63.4943 43.395 64.013 43.6342C64.013 43.6342 64.1611 43.4747 64.2352 43.3152C64.013 42.9962 63.8648 42.5975 63.6425 42.2785C63.4202 42.438 63.2721 42.5975 63.0498 42.757V43.4747C62.9016 43.6342 62.8275 43.714 62.6794 43.8735ZM11.632 60.2215C11.9283 60.1418 12.2247 60.3013 12.5211 60.062C12.447 59.9025 12.2988 59.743 12.2247 59.5836C12.1506 59.1848 12.447 58.7861 12.0024 58.4671C11.8543 58.7063 11.7802 58.9456 11.7061 59.1051C11.4838 59.1051 11.3356 59.1848 11.1874 59.1848C11.3356 59.5836 11.4838 59.9025 11.632 60.2215ZM101.428 53.1241V52.5658C101.132 52.5658 101.132 52.0874 100.761 52.1671C100.687 52.4064 100.613 52.5658 100.539 52.8051H99.798C99.6498 52.9646 99.3534 53.1241 99.2794 53.3633C99.7239 53.6823 99.8721 53.2038 100.317 53.1241H101.428ZM181.815 27.7646C181.74 27.4456 181.74 27.2861 181.666 27.1266C181.148 27.0469 180.703 26.9672 180.259 27.2064C180.259 27.3659 180.333 27.5254 180.333 27.6849H181.815V27.7646ZM63.4943 44.7507C63.1239 44.9899 62.8275 45.0697 62.6053 45.2291C62.7534 45.4684 62.8275 45.6279 62.8275 45.7076H63.2721C63.3462 45.4684 63.4943 45.2291 63.5684 45.0697C63.8648 45.0697 63.8648 45.0697 64.087 44.8304C63.8648 44.5912 63.4943 44.7507 63.4943 44.7507ZM179.814 29.2001C179.518 29.2798 179.296 29.3596 179.073 29.519C178.851 29.6785 178.629 29.838 178.406 29.9975C178.481 30.0773 178.481 30.0773 178.555 30.157C178.629 30.157 178.703 30.2368 178.703 30.2368C179.073 30.0773 179.518 29.9178 179.888 29.7583C179.888 29.519 179.888 29.3596 179.814 29.2001ZM57.1968 5.27604C56.53 4.95706 56.3818 5.51528 56.0854 5.67478C56.0854 5.83427 56.1595 5.99376 56.1595 6.15326C56.53 5.99376 56.8263 5.83427 57.1968 5.67478V5.27604ZM97.7235 10.3798C97.353 10.1406 96.9826 10.0608 96.6121 10.3798C96.6121 10.5393 96.6862 10.6988 96.6862 10.7786C97.0567 10.7786 97.4271 11.0178 97.7235 10.6988V10.3798ZM102.91 49.2165C102.539 48.9772 102.317 48.5785 101.947 48.419C101.724 48.738 101.724 49.057 101.947 49.376C102.243 49.376 102.539 49.5355 102.91 49.2165ZM169.368 29.1203C169.516 28.9608 169.812 28.8013 169.886 28.5621C169.59 28.4026 169.219 28.4026 168.849 28.5621C168.849 28.7216 168.923 28.8811 168.923 29.1203H169.368ZM63.4202 28.6418C63.5684 28.7216 63.7166 28.7216 63.9389 28.8811C64.087 28.6418 64.2352 28.4823 64.5316 28.0836C64.5316 28.0836 64.6798 27.8444 64.3093 27.8444C64.013 28.0836 63.7166 28.4026 63.4202 28.6418ZM71.8664 35.6595C71.6441 35.819 71.3478 35.8988 71.1255 36.0583C71.1996 36.2975 71.2737 36.457 71.3478 36.5368C71.6441 36.3773 72.0146 36.2178 72.3109 36.0583C72.0887 35.8988 71.8664 35.7393 71.8664 35.6595ZM51.566 63.2519C51.1215 63.2519 50.8251 63.2519 50.8992 63.8101C51.0474 63.8899 51.2696 64.0494 51.4919 64.2089C51.7883 63.9696 51.6401 63.6506 51.566 63.2519ZM172.702 27.9241C171.442 27.7646 171.442 27.7646 170.923 28.1634C171.59 28.0836 172.035 28.2431 172.702 27.9241ZM50.1583 30.8747C50.4547 30.795 50.6769 30.795 50.8992 30.7152C50.8251 30.476 50.8251 30.3165 50.751 30.0773C50.5287 30.157 50.3065 30.157 50.1583 30.157V30.8747ZM70.7551 36.5368C70.4587 36.6165 70.2364 36.6165 70.0142 36.6963C70.0883 36.9355 70.0883 37.095 70.1623 37.3342C70.3846 37.2545 70.6069 37.2545 70.7551 37.2545V36.5368ZM68.236 39.0089C68.5324 38.9292 68.7547 38.9292 68.9769 38.8494C68.9028 38.6102 68.9028 38.4507 68.8287 38.2114C68.6065 38.2912 68.3842 38.2912 68.236 38.2912V39.0089ZM68.9028 39.8861C68.6065 39.9659 68.3842 39.9659 68.1619 40.0456C68.236 40.2849 68.236 40.4443 68.3101 40.6836C68.5324 40.6038 68.7547 40.6038 68.9028 40.6038V39.8861ZM60.5308 48.0203C60.4567 47.7013 60.4567 47.5418 60.3826 47.3823C60.1603 47.4621 59.9381 47.4621 59.7158 47.4621C59.7899 47.7013 59.7899 47.8608 59.864 48.0203H60.5308ZM131.212 48.4988C130.989 48.5785 130.767 48.738 130.545 48.8177C130.767 49.057 130.915 49.2165 131.138 49.376C131.36 49.057 131.36 48.738 131.212 48.4988ZM96.9085 51.1304C96.9826 51.4494 96.9826 51.6089 97.0567 51.7684C97.2789 51.6886 97.5012 51.6886 97.7235 51.6089C97.6494 51.3696 97.6494 51.2102 97.5753 51.0507H96.9085V51.1304ZM45.1202 34.6228C45.4166 34.3038 45.4166 34.1444 45.1943 33.9051C45.0462 33.9051 44.8239 33.9849 44.6757 33.9849C44.8239 34.1444 44.9721 34.3836 45.1202 34.6228ZM167.367 29.6785C166.997 29.3596 166.626 29.3596 166.256 29.6785C166.626 29.9178 166.997 29.9178 167.367 29.6785ZM49.1951 31.9114C49.4174 31.5925 49.7138 31.5127 49.7138 31.2735C49.4915 31.114 49.2692 31.114 49.047 31.3532C49.047 31.5127 49.1211 31.6722 49.1951 31.9114ZM70.5328 39.0089C70.7551 38.7697 71.0514 38.6102 71.1255 38.3709C70.9032 38.2114 70.681 38.2114 70.4587 38.4507C70.4587 38.6102 70.4587 38.7697 70.5328 39.0089ZM76.3858 16.9988C76.0895 16.9988 76.0154 16.9988 76.0154 16.9988C75.9413 16.9988 75.7931 17.0786 75.719 17.0786C75.7931 17.1583 75.7931 17.238 75.8672 17.3178C76.0154 17.3975 76.0895 17.557 76.3117 17.7165C76.2376 17.4773 76.3117 17.3178 76.3858 16.9988ZM47.4911 32.3102C47.7874 32.5494 48.0097 32.5494 48.3061 32.3899C48.3061 32.2304 48.232 32.0709 48.232 31.9912C48.0097 32.0709 47.7874 32.2304 47.4911 32.3102ZM11.632 32.8684C11.9283 32.6292 11.9283 32.3899 11.632 32.1507C11.4838 32.3102 11.1874 32.4697 11.1134 32.7887C11.3356 32.7887 11.4838 32.8684 11.632 32.8684ZM80.8312 25.9304C80.5348 25.6912 80.3126 25.6912 80.0162 25.8507C80.0162 26.0102 80.0903 26.1697 80.0903 26.2494C80.3125 26.1697 80.5348 26.0899 80.8312 25.9304ZM71.4959 59.5836C71.1255 59.6633 71.0514 59.9025 70.8291 60.062C71.0514 60.3013 71.3478 60.3013 71.57 60.062C71.4959 59.9025 71.4959 59.743 71.4959 59.5836ZM106.762 45.3886C106.466 45.6279 106.466 45.8671 106.762 46.0266C106.985 45.7874 106.985 45.5481 106.762 45.3886ZM88.981 49.2962C89.1292 49.2165 89.4255 49.6152 89.5737 49.2165C89.3514 48.9772 89.1292 49.057 88.981 49.2962ZM101.354 49.1367C101.28 49.1367 101.206 49.1367 101.132 49.1367C101.132 49.2962 101.057 49.4557 101.057 49.6152C101.057 49.6152 101.132 49.695 101.206 49.695C101.28 49.695 101.428 49.6152 101.428 49.5355C101.428 49.4557 101.354 49.2962 101.354 49.1367ZM52.8996 55.5165C53.196 55.2772 53.196 55.038 52.8996 54.8785C52.6773 55.038 52.6773 55.2772 52.8996 55.5165ZM48.5283 60.8595C48.3061 61.1785 48.1579 61.4177 48.6024 61.4975C48.7506 61.338 48.7506 61.1785 48.5283 60.8595ZM164.774 30.3165C164.996 30.5558 165.293 30.5558 165.515 30.3165C165.293 30.0773 165.07 30.0773 164.774 30.3165ZM61.8644 44.1127C61.7162 44.1924 61.4198 43.7937 61.2717 44.1924C61.4939 44.4317 61.7162 44.4317 61.8644 44.1127ZM60.6789 44.6709C60.4567 44.9899 60.3085 45.2291 60.753 45.3089C60.9012 45.1494 60.9012 44.9102 60.6789 44.6709ZM93.7227 11.4963C93.7968 11.576 93.7968 11.576 93.8708 11.6558C93.9449 11.576 93.9449 11.4963 94.019 11.4165C94.019 11.4165 93.9449 11.3368 93.8708 11.3368C93.7968 11.3368 93.7227 11.4165 93.7227 11.4963ZM95.649 11.895C95.7231 11.895 95.7972 11.8153 95.8712 11.7355C95.7972 11.7355 95.7972 11.6558 95.7231 11.6558C95.649 11.6558 95.5749 11.7355 95.5008 11.7355C95.5749 11.8153 95.5749 11.8153 95.649 11.895ZM99.2053 12.4532C99.2794 12.533 99.2794 12.533 99.3534 12.6127C99.4275 12.533 99.4275 12.4532 99.5016 12.3735C99.5016 12.3735 99.4275 12.2938 99.3534 12.2938C99.3534 12.2938 99.2794 12.3735 99.2053 12.4532ZM83.4243 13.8089C83.4984 13.8887 83.4984 13.8887 83.5725 13.9684C83.6466 13.8887 83.6466 13.8089 83.7206 13.7292C83.7206 13.7292 83.6466 13.6494 83.5725 13.6494C83.4984 13.6494 83.4243 13.7292 83.4243 13.8089ZM70.3846 19.7899C70.3105 19.7102 70.3105 19.7102 70.2364 19.6305C70.1624 19.7102 70.1623 19.7899 70.0883 19.8697C70.0883 19.8697 70.1624 19.9494 70.2364 19.9494C70.3105 19.9494 70.3105 19.8697 70.3846 19.7899ZM71.0514 19.9494C71.1255 19.8697 71.1255 19.8697 71.1996 19.8697C71.1255 19.8697 71.0514 19.7899 70.9773 19.7899C70.9773 19.7899 70.9032 19.8697 70.8291 19.8697C70.9032 19.8697 70.9773 19.9494 71.0514 19.9494ZM58.6785 22.9798C58.7526 23.0596 58.7526 23.0596 58.8267 23.0596C58.9008 22.9798 58.9008 22.9001 58.9749 22.8203C58.9749 22.8203 58.9008 22.7406 58.8267 22.7406C58.7526 22.8203 58.7526 22.9001 58.6785 22.9798ZM179.666 25.8507C179.592 25.9304 179.592 25.9304 179.518 26.0102C179.592 26.0102 179.666 26.0899 179.74 26.0899C179.74 26.0899 179.814 26.0102 179.888 26.0102C179.814 25.9304 179.74 25.8507 179.666 25.8507ZM78.8308 26.9672C78.7567 26.8874 78.7567 26.8077 78.6826 26.7279C78.6085 26.7279 78.5344 26.8077 78.5344 26.8077C78.5344 26.8874 78.6085 26.9671 78.6826 27.0469C78.7567 27.0469 78.8308 27.0469 78.8308 26.9672ZM16.2255 27.6051C16.1514 27.6051 16.1514 27.5254 16.0773 27.5254C16.0032 27.5254 15.9291 27.6051 15.8551 27.6051C15.9291 27.6051 15.9291 27.6849 16.0032 27.6849C16.0773 27.6849 16.1514 27.6849 16.2255 27.6051ZM177.814 27.5254C177.74 27.6051 177.74 27.6051 177.666 27.6051C177.74 27.6051 177.814 27.6849 177.888 27.6849C177.888 27.6849 177.962 27.6051 178.036 27.6051C177.962 27.6051 177.888 27.5254 177.814 27.5254ZM16.7441 29.4393C16.8182 29.4393 16.8923 29.3596 16.9664 29.2798C16.8923 29.2798 16.8923 29.2001 16.8182 29.2001C16.7441 29.2001 16.67 29.2798 16.596 29.2798C16.67 29.3596 16.67 29.3596 16.7441 29.4393ZM15.9291 29.5988C16.0032 29.6785 16.0032 29.7583 16.0773 29.838C16.1514 29.838 16.2255 29.7583 16.2255 29.7583C16.2255 29.6785 16.1514 29.5988 16.0773 29.519C16.0032 29.519 16.0032 29.519 15.9291 29.5988ZM14.7437 30.6355C14.6696 30.5558 14.6696 30.5558 14.5955 30.476C14.5215 30.5558 14.5215 30.6355 14.4474 30.7152C14.4474 30.7152 14.5215 30.795 14.5955 30.795C14.5955 30.795 14.6696 30.7152 14.7437 30.6355ZM63.4202 33.0279C63.3462 33.0279 63.3462 32.9482 63.2721 32.9482C63.198 32.9482 63.1239 33.0279 63.0498 33.0279C63.1239 33.0279 63.1239 33.1077 63.198 33.1077C63.2721 33.1077 63.3462 33.0279 63.4202 33.0279ZM48.6024 33.3469C48.5283 33.2671 48.5283 33.2671 48.4543 33.1874C48.3802 33.2671 48.3802 33.3469 48.3061 33.4266C48.3061 33.4266 48.3802 33.5064 48.4543 33.5064C48.5283 33.4266 48.6024 33.4266 48.6024 33.3469ZM6.0753 35.2608C6.00121 35.2608 5.92713 35.3406 5.92713 35.3406C5.92713 35.4203 6.00121 35.5 6.0753 35.5798C6.14939 35.5798 6.22348 35.5 6.22348 35.5C6.22348 35.3406 6.14939 35.2608 6.0753 35.2608ZM1.92632 36.138C2.0004 36.2178 2.0004 36.2178 2.07449 36.2975C2.14858 36.2178 2.14858 36.138 2.22267 36.0583C2.22267 36.0583 2.14858 35.9785 2.07449 35.9785C2.0004 35.9785 1.92632 36.0583 1.92632 36.138ZM68.9028 37.8127C68.8287 37.733 68.8287 37.6532 68.7547 37.5735C68.6806 37.5735 68.6065 37.6532 68.6065 37.6532C68.6065 37.733 68.6806 37.8127 68.7547 37.8925C68.8287 37.8925 68.8287 37.8127 68.9028 37.8127ZM70.0883 37.8127C70.1623 37.8924 70.1624 37.8925 70.2364 37.8925C70.3105 37.8127 70.3105 37.733 70.3846 37.6532C70.3846 37.6532 70.3105 37.5735 70.2364 37.5735C70.2364 37.6532 70.1623 37.733 70.0883 37.8127ZM68.1619 39.4076C68.0879 39.3279 68.0879 39.3279 68.0138 39.3279C67.9397 39.4076 67.9397 39.4874 67.8656 39.5671C67.8656 39.5671 67.9397 39.6469 68.0138 39.6469C68.0879 39.5671 68.0879 39.4874 68.1619 39.4076ZM160.181 39.6469C160.106 39.6469 160.032 39.7266 160.032 39.7266C160.032 39.8064 160.106 39.8861 160.181 39.9659C160.255 39.9659 160.329 39.8861 160.329 39.8861C160.255 39.7266 160.255 39.7266 160.181 39.6469ZM125.655 40.5241C125.581 40.4443 125.581 40.3646 125.507 40.2849C125.433 40.2849 125.359 40.3646 125.359 40.3646C125.359 40.4443 125.433 40.5241 125.507 40.6038C125.581 40.6038 125.655 40.5241 125.655 40.5241ZM67.7915 40.8431C67.7174 40.7633 67.7174 40.6836 67.6433 40.6038C67.5692 40.6038 67.4951 40.6836 67.4951 40.6836C67.4951 40.7633 67.5692 40.8431 67.6433 40.9228C67.7174 40.9228 67.7174 40.9228 67.7915 40.8431ZM148.845 42.6773C148.771 42.6773 148.697 42.757 148.623 42.8367C148.697 42.8367 148.697 42.9165 148.771 42.9165C148.845 42.9165 148.919 42.8367 148.993 42.8367C148.919 42.757 148.845 42.757 148.845 42.6773ZM147.882 43.076C147.956 43.1557 147.956 43.2355 148.03 43.3152C148.104 43.3152 148.178 43.2355 148.178 43.2355C148.178 43.1557 148.104 43.076 148.03 42.9962C147.956 42.9962 147.956 43.076 147.882 43.076ZM144.77 43.714C144.696 43.714 144.622 43.7937 144.548 43.7937C144.622 43.7937 144.622 43.8735 144.696 43.8735C144.77 43.8735 144.844 43.7937 144.918 43.7937C144.844 43.7937 144.844 43.7937 144.77 43.714ZM97.5012 44.3519C97.4271 44.3519 97.353 44.4317 97.353 44.4317C97.353 44.5114 97.4271 44.5912 97.5012 44.6709C97.5753 44.6709 97.6494 44.5912 97.6494 44.5912C97.6494 44.5114 97.5753 44.4317 97.5012 44.3519ZM43.0457 45.3886C42.9717 45.3886 42.8976 45.4684 42.8235 45.5481C42.8976 45.5481 42.8976 45.6279 42.9717 45.6279C43.0457 45.6279 43.1198 45.5481 43.1939 45.5481C43.1198 45.4684 43.0457 45.4684 43.0457 45.3886ZM140.621 45.3886C140.547 45.4684 140.547 45.4684 140.473 45.5481C140.547 45.5481 140.621 45.6279 140.695 45.6279C140.695 45.6279 140.769 45.5481 140.843 45.5481C140.769 45.4684 140.695 45.4684 140.621 45.3886ZM138.398 46.3456C138.472 46.2659 138.547 46.2659 138.621 46.1861C138.547 46.1861 138.547 46.1064 138.472 46.1064C138.398 46.1064 138.324 46.1861 138.25 46.1861C138.324 46.2659 138.324 46.2659 138.398 46.3456ZM104.984 47.3026C105.058 47.2228 105.058 47.2228 105.132 47.1431C105.058 47.1431 104.984 47.0633 104.91 47.0633C104.91 47.0633 104.836 47.1431 104.762 47.1431C104.762 47.2228 104.91 47.3026 104.984 47.3026ZM13.6324 47.9405C13.5583 47.8608 13.5583 47.781 13.4842 47.7013C13.4101 47.7013 13.336 47.781 13.336 47.781C13.336 47.8608 13.4101 47.9405 13.4842 48.0203C13.4842 48.0203 13.5583 48.0203 13.6324 47.9405ZM131.953 47.9405C131.879 47.8608 131.879 47.781 131.804 47.7013C131.73 47.7013 131.656 47.781 131.656 47.781C131.656 47.8608 131.73 47.9405 131.804 48.0203C131.879 48.0203 131.879 48.0203 131.953 47.9405ZM100.687 50.5722C100.613 50.5722 100.613 50.4924 100.539 50.4924C100.465 50.4924 100.391 50.5722 100.317 50.5722C100.391 50.5722 100.391 50.6519 100.465 50.6519C100.465 50.6519 100.613 50.6519 100.687 50.5722ZM54.6777 52.4063C54.7518 52.4063 54.8259 52.3266 54.9 52.2469C54.8259 52.2469 54.8259 52.1671 54.7518 52.1671C54.6777 52.1671 54.6036 52.2469 54.5296 52.2469C54.6036 52.3266 54.6777 52.3266 54.6777 52.4063ZM84.017 52.3266C83.9429 52.2469 83.9429 52.1671 83.8688 52.0874C83.7947 52.0874 83.7206 52.1671 83.7206 52.1671C83.7206 52.2469 83.7947 52.3266 83.8688 52.4063C83.9429 52.4063 83.9429 52.4063 84.017 52.3266ZM53.27 54.081C53.3441 54.081 53.4182 54.0013 53.4923 53.9215C53.4182 53.9215 53.4182 53.8418 53.3441 53.8418C53.27 53.8418 53.1959 53.9215 53.1219 53.9215C53.1219 54.0013 53.196 54.081 53.27 54.081ZM99.798 54.7988C99.8721 54.719 99.8721 54.719 99.9462 54.6393C99.8721 54.6393 99.798 54.5595 99.7239 54.5595C99.7239 54.5595 99.6498 54.6393 99.5757 54.6393C99.6498 54.719 99.7239 54.719 99.798 54.7988ZM109.059 56.3937C108.985 56.3139 108.985 56.2342 108.911 56.1544C108.837 56.1544 108.763 56.2342 108.763 56.2342C108.763 56.3139 108.837 56.3937 108.911 56.4734C108.985 56.4734 109.059 56.3937 109.059 56.3937ZM49.4174 61.7367C49.3433 61.7367 49.3433 61.657 49.2692 61.657C49.1951 61.657 49.1211 61.7367 49.047 61.7367C49.1211 61.7367 49.1211 61.8165 49.1951 61.8165C49.2692 61.8165 49.3433 61.7367 49.4174 61.7367ZM62.1607 64.6873C62.0866 64.6873 62.0126 64.7671 61.9385 64.8468C62.0126 64.8468 62.0126 64.9266 62.0866 64.9266C62.1607 64.9266 62.2348 64.8468 62.3089 64.8468C62.3089 64.7671 62.2348 64.6873 62.1607 64.6873ZM122.173 51.8481C122.099 51.9279 122.099 51.9279 122.025 52.0076C122.099 52.0076 122.173 52.0874 122.247 52.0874C122.247 52.0874 122.321 52.0076 122.395 52.0076C122.321 51.9279 122.247 51.8481 122.173 51.8481Z" fill="#F5F9FA"/>
</svg>
