<svg width="302" height="310" viewBox="0 0 302 310" fill="none" xmlns="http://www.w3.org/2000/svg">
<g filter="url(#filter0_bd_890_140)">
<circle cx="227" cy="235" r="30" fill="white" fill-opacity="0.8" shape-rendering="crispEdges"/>
</g>
<path fill-rule="evenodd" clip-rule="evenodd" d="M226.293 224.293C226.683 223.902 227.317 223.902 227.707 224.293L237.707 234.293C238.098 234.683 238.098 235.317 237.707 235.707C237.317 236.098 236.683 236.098 236.293 235.707L228 227.414V245C228 245.552 227.552 246 227 246C226.448 246 226 245.552 226 245V227.414L217.707 235.707C217.317 236.098 216.683 236.098 216.293 235.707C215.902 235.317 215.902 234.683 216.293 234.293L226.293 224.293Z" fill="#007C8E"/>
<circle cx="115" cy="25" r="20" fill="#F5F9FA"/>
<path d="M120.504 33C116.762 33 113.011 33 109.269 33C108.376 33 108.004 32.6504 108.004 31.7929C108.004 31.1935 107.995 30.5859 108.004 29.9865C108.013 29.3954 108.428 28.9875 109.043 28.9709C109.277 28.9625 109.52 28.9542 109.754 28.9709C110.014 28.9875 110.092 28.8793 110.083 28.6462C110.074 27.4974 110.23 26.3652 110.568 25.2581C111.131 23.4183 112.318 22.0114 113.877 20.8626C115.003 20.0302 116.19 19.2893 117.273 18.3985C117.706 18.0406 118.105 17.641 118.512 17.2497C118.702 17.0666 118.668 16.9334 118.503 16.7503C117.489 15.6681 116.268 14.8189 115.047 13.9781C113.998 13.2539 112.968 12.5213 112.136 11.5557C111.036 10.282 110.473 8.80021 110.23 7.18522C110.144 6.57752 110.074 5.96982 110.1 5.3538C110.109 5.12903 110.031 5.02914 109.788 5.04579C109.572 5.06243 109.355 5.05411 109.139 5.04579C108.428 5.02914 108.013 4.63788 108.004 3.9719C108.004 3.33923 108.004 2.70656 108.004 2.07388C108.013 1.39958 108.428 1.00832 109.121 1C109.173 1 109.225 1 109.286 1C116.762 1 124.246 1 131.722 1C132.632 1 132.996 1.34964 132.996 2.23205C132.996 2.81478 132.996 3.3975 132.996 3.98023C132.987 4.62955 132.58 5.02914 131.904 5.03746C131.722 5.03746 131.54 5.03746 131.35 5.03746C130.917 5.03746 130.917 5.03746 130.917 5.44537C130.908 6.59417 130.743 7.72633 130.397 8.82518C129.825 10.6316 128.664 12.0135 127.131 13.1374C126.005 13.9698 124.818 14.7107 123.735 15.6015C123.311 15.9511 122.921 16.3424 122.522 16.7253C122.315 16.9251 122.341 17.0832 122.531 17.283C123.432 18.2237 124.472 18.9979 125.546 19.7388C126.343 20.2882 127.148 20.846 127.885 21.4703C129.461 22.8023 130.371 24.4839 130.717 26.4568C130.847 27.1894 130.934 27.922 130.908 28.6629C130.899 28.8959 130.995 28.9792 131.228 28.9625C131.488 28.9459 131.748 28.9542 132.008 28.9625C132.554 28.9875 132.97 29.3871 132.987 29.9032C133.004 30.6108 133.004 31.3184 132.987 32.026C132.978 32.5671 132.554 32.9584 131.999 32.9917C131.878 33 131.766 32.9917 131.644 32.9917C127.928 33 124.212 33 120.504 33ZM120.513 5.03746C119.993 5.03746 119.473 5.03746 118.953 5.03746C116.822 5.03746 114.691 5.03746 112.56 5.03746C112.37 5.03746 112.179 5.02081 112.223 5.30385C112.292 5.78668 112.266 6.27784 112.335 6.76067C112.543 8.28408 113.098 9.65765 114.189 10.8065C114.319 10.9396 114.458 10.9979 114.639 10.9979C115.021 10.9896 115.393 10.9979 115.774 10.9979C119.283 10.9979 122.782 10.9979 126.291 10.9979C126.473 10.9979 126.646 11.0062 126.793 10.8481C127.504 10.0822 128.041 9.23309 128.344 8.25078C128.63 7.33507 128.734 6.40271 128.777 5.45369C128.794 5.04579 128.812 5.04579 128.396 5.04579C125.771 5.03746 123.138 5.03746 120.513 5.03746ZM120.495 24.975C122.886 24.975 125.277 24.975 127.668 24.975C128.023 24.975 128.032 24.9501 127.876 24.6504C127.382 23.7263 126.681 22.9688 125.84 22.3278C124.35 21.1956 122.8 20.1301 121.535 18.7315C120.894 18.0239 119.932 18.1238 119.265 18.8564C119.023 19.1228 118.798 19.3975 118.538 19.6556C117.732 20.4631 116.788 21.1124 115.861 21.7784C114.769 22.5609 113.765 23.4266 113.132 24.6171C112.95 24.9584 112.959 24.975 113.349 24.975C115.74 24.975 118.122 24.975 120.495 24.975Z" fill="#D0E6EA"/>
<path d="M23 5.42279L46 5.42279" stroke="#007C8E" stroke-width="2" stroke-linecap="round" stroke-linejoin="round"/>
<path d="M43 1L48 5.42285L43 9.8457" stroke="#007C8E" stroke-width="2" stroke-linecap="round" stroke-linejoin="round"/>
<path d="M12.0163 194.016C11.9539 192.69 12.0787 191.365 12.2502 190.055C12.3905 188.995 13.2793 188.278 14.3396 188.356C15.3375 188.418 16.0703 189.229 16.0703 190.273C16.0703 190.679 16.0235 191.084 15.9612 191.49C15.8988 191.911 16.0079 192.113 16.4757 192.098C17.3177 192.067 18.1597 192.067 18.9861 192.098C19.4383 192.113 19.5786 191.957 19.6254 191.505C19.906 188.808 20.6701 186.235 21.9174 183.818C22.354 182.976 23.1804 182.586 24.0536 182.758C24.88 182.929 25.4725 183.615 25.566 184.489C25.5972 184.894 25.5037 185.253 25.3166 185.611C24.038 188.137 23.3675 190.835 23.3208 193.657C23.274 197.96 24.537 201.859 27.1565 205.305C27.3748 205.601 27.5463 205.694 27.8425 205.383C28.4662 204.728 29.0899 204.104 29.7448 203.48C30.0099 203.215 29.9943 203.012 29.7916 202.732C29.4953 202.326 29.1991 201.905 28.9652 201.453C28.4662 200.518 28.7625 199.442 29.6356 198.896C30.5088 198.366 31.6626 198.553 32.224 199.457C33.331 201.235 34.7499 202.654 36.5275 203.761C37.4006 204.307 37.6033 205.445 37.1044 206.302C36.5898 207.191 35.4984 207.519 34.5628 207.035C34.095 206.801 33.6585 206.49 33.2375 206.178C32.9412 205.959 32.7385 205.975 32.489 206.24C31.8965 206.864 31.304 207.472 30.6647 208.049C30.3061 208.376 30.3529 208.579 30.7271 208.86C32.8633 210.466 35.2177 211.604 37.8216 212.181C43.2945 213.366 48.3308 212.321 52.915 209.109C53.0553 209.016 53.1957 208.891 53.336 208.797C53.6478 208.595 53.6478 208.407 53.3828 208.158C52.7279 207.519 52.073 206.864 51.4337 206.209C51.2154 205.991 51.0283 205.975 50.7788 206.162C50.3578 206.458 49.9213 206.77 49.4535 207.02C48.4868 207.534 47.3953 207.222 46.8652 206.302C46.3506 205.414 46.5845 204.291 47.4889 203.73C49.2352 202.654 50.6229 201.266 51.6988 199.52C52.2757 198.6 53.4295 198.381 54.3183 198.927C55.1915 199.457 55.4877 200.549 54.9888 201.484C54.7549 201.905 54.4898 202.326 54.1936 202.716C53.9441 203.044 53.9441 203.278 54.2559 203.558C54.864 204.135 55.4565 204.728 56.0335 205.336C56.3609 205.679 56.548 205.679 56.8443 205.289C58.7309 202.794 59.9471 200.019 60.3993 196.931C61.1477 191.911 60.0563 187.295 57.1249 183.132C56.9846 182.945 56.8443 182.758 56.7039 182.571C56.5636 182.368 56.4077 182.352 56.2206 182.524C55.5189 183.226 54.8173 183.927 54.1156 184.629C53.8817 184.863 54.022 185.05 54.1624 185.253C54.443 185.674 54.7549 186.079 54.9888 186.531C55.5033 187.467 55.2071 188.558 54.3495 189.088C53.4607 189.65 52.2913 189.447 51.73 188.511C50.6385 186.749 49.2352 185.346 47.4733 184.255C46.5845 183.693 46.3662 182.555 46.9119 181.682C47.4421 180.809 48.5335 180.497 49.4535 180.996C49.9057 181.23 50.3267 181.51 50.7321 181.822C51.0439 182.056 51.2622 182.025 51.5273 181.744C52.1198 181.121 52.7279 180.512 53.3516 179.92C53.6946 179.593 53.6322 179.421 53.2892 179.156C50.9504 177.394 48.3464 176.225 45.4619 175.679C43.2322 175.258 41.018 175.242 38.7883 175.632C37.8216 175.804 37.0108 175.429 36.5898 174.665C36.2 173.948 36.3092 173.075 36.8705 172.436C37.1511 172.124 37.5098 171.937 37.9308 171.859C38.3829 171.781 38.8507 171.703 39.3185 171.64C40.0981 171.547 40.1137 171.547 40.1137 170.736C40.1137 170.003 40.0981 169.255 40.1293 168.522C40.1449 168.023 39.9422 167.914 39.49 167.992C39.0846 168.054 38.6792 168.085 38.2738 168.085C37.2603 168.085 36.4651 167.352 36.3871 166.386C36.3092 165.357 36.9952 164.421 38.0087 164.281C40.6906 163.906 43.3725 163.906 46.0388 164.281C47.0523 164.421 47.7539 165.325 47.676 166.37C47.598 167.352 46.8184 168.07 45.8049 168.101C45.3527 168.101 44.9161 168.07 44.4639 167.992C44.1053 167.929 43.9182 168.054 43.9338 168.459C43.9494 169.348 43.9494 170.253 43.9338 171.141C43.9338 171.484 44.0741 171.609 44.4172 171.64C48.7518 172.093 52.6187 173.714 56.0335 176.412C56.4077 176.708 56.626 176.708 56.9378 176.365C57.4991 175.741 58.1072 175.164 58.7153 174.587C58.996 174.322 59.0116 174.151 58.6842 173.901C58.076 173.433 57.6083 172.903 57.6395 172.061C57.6707 171.328 57.9825 170.783 58.6062 170.44C59.2455 170.081 59.9471 170.05 60.5396 170.486C62.4419 171.905 64.1103 173.574 65.5292 175.46C66.0905 176.225 65.8878 177.347 65.1706 177.94C64.4221 178.563 63.3307 178.532 62.6134 177.877C62.5978 177.862 62.5822 177.846 62.5666 177.831C61.7402 177.02 61.7402 177.02 60.9294 177.831C60.5085 178.252 60.0875 178.704 59.6353 179.109C59.2923 179.405 59.3078 179.624 59.5885 179.967C61.7558 182.649 63.2059 185.689 63.97 189.042C64.1571 189.884 64.3286 190.726 64.3754 191.583C64.4065 191.957 64.5469 192.098 64.9211 192.082C65.7943 192.067 66.683 192.067 67.5562 192.082C67.9928 192.098 68.1019 191.895 68.0395 191.505C67.9928 191.1 67.9304 190.694 67.9148 190.289C67.8992 189.26 68.6321 188.418 69.6144 188.34C70.6435 188.262 71.579 188.932 71.7193 189.946C72.0936 192.628 72.0936 195.31 71.7193 197.976C71.579 199.005 70.6747 199.691 69.6456 199.629C68.6477 199.567 67.9148 198.74 67.9304 197.711C67.9304 197.29 67.9928 196.853 68.0395 196.432C68.0863 196.074 67.9772 195.887 67.5718 195.902C66.683 195.918 65.7787 195.918 64.8899 195.902C64.5469 195.902 64.4221 196.043 64.3909 196.386C63.9388 200.72 62.3172 204.587 59.6197 208.002C59.3234 208.376 59.3234 208.579 59.6665 208.906C60.2746 209.452 60.8515 210.045 61.3972 210.637C61.6935 210.965 61.8806 210.98 62.1612 210.622C62.5978 210.045 63.1124 209.608 63.9076 209.624C64.656 209.639 65.2329 209.936 65.5916 210.59C65.9502 211.23 65.9814 211.931 65.5448 212.524C64.1259 214.426 62.4731 216.095 60.5708 217.514C59.7912 218.09 58.653 217.872 58.0449 217.108C57.4368 216.344 57.4991 215.253 58.1852 214.551C58.996 213.725 58.996 213.725 58.1852 212.914C57.7642 212.493 57.312 212.072 56.9066 211.62C56.6104 211.292 56.3921 211.292 56.049 211.573C53.3828 213.725 50.3734 215.175 47.0211 215.939C46.1635 216.141 45.3059 216.297 44.4328 216.36C44.0585 216.391 43.9182 216.531 43.9182 216.905C43.9338 217.794 43.9338 218.699 43.9182 219.587C43.9182 219.962 44.0897 220.055 44.4328 220.024C44.8849 219.977 45.3215 219.915 45.7737 219.915C46.7872 219.899 47.5824 220.632 47.6604 221.614C47.7383 222.643 47.0523 223.579 46.0544 223.719C43.3725 224.094 40.6906 224.094 38.0243 223.719C37.0108 223.579 36.3092 222.675 36.3715 221.646C36.4339 220.648 37.2447 219.915 38.2894 219.915C38.7104 219.915 39.147 219.977 39.568 220.024C39.9266 220.071 40.1137 219.962 40.1137 219.556C40.0981 218.667 40.0981 217.763 40.1137 216.874C40.1137 216.531 39.9889 216.406 39.6303 216.36C35.2957 215.907 31.4288 214.286 28.014 211.588C27.6398 211.292 27.4371 211.277 27.1097 211.635C26.564 212.243 25.9714 212.82 25.3789 213.366C25.0671 213.662 25.0203 213.849 25.3945 214.13C25.8623 214.489 26.2833 214.894 26.3768 215.533C26.5016 216.391 26.1897 217.139 25.4881 217.545C24.7397 217.981 23.9912 217.935 23.3052 217.404C22.1981 216.547 21.169 215.596 20.2179 214.551C19.6877 213.974 19.1732 213.397 18.6898 212.789C17.9882 211.9 18.0817 210.746 18.8769 210.06C19.6877 209.374 20.826 209.483 21.6056 210.294C22.2917 211.011 22.2917 211.011 23.0089 210.294C23.4767 209.826 23.9289 209.343 24.4278 208.891C24.7552 208.595 24.7552 208.392 24.4746 208.033C22.3072 205.351 20.8572 202.311 20.0931 198.958C19.906 198.116 19.7345 197.274 19.6877 196.432C19.6566 196.058 19.5162 195.918 19.1576 195.918C18.2688 195.933 17.3645 195.933 16.4757 195.918C16.1015 195.918 15.9924 196.089 16.0391 196.417C16.0859 196.838 16.1483 197.274 16.1483 197.695C16.1639 198.771 15.4154 199.598 14.4019 199.66C13.2481 199.707 12.3905 198.974 12.2502 197.914C12.0787 196.62 11.9539 195.31 12.0163 194.016Z" fill="#007C8E"/>
<path d="M26.3613 172.202C26.408 172.903 25.9403 173.418 25.3633 173.839C24.9891 174.12 25.0203 174.291 25.3322 174.603C27.7022 176.942 30.0566 179.296 32.3955 181.666C32.7229 181.994 32.9568 182.041 33.331 181.744C33.7052 181.448 34.1262 181.183 34.5628 180.965C35.4828 180.497 36.543 180.793 37.0732 181.651C37.6189 182.524 37.4006 183.631 36.543 184.239C35.8726 184.707 35.1865 185.143 34.5628 185.689C33.6429 186.516 32.9256 187.498 32.2396 188.527C31.6626 189.416 30.54 189.619 29.6668 189.088C28.7937 188.558 28.4818 187.482 28.9808 186.547C29.1835 186.157 29.4174 185.752 29.698 185.424C30.0566 185.003 29.9943 184.738 29.6045 184.348C27.2656 182.041 24.9424 179.702 22.6191 177.363C22.2917 177.035 22.1045 177.02 21.8083 177.394C21.3873 177.955 20.8728 178.376 20.1087 178.376C19.3291 178.376 18.7522 178.064 18.3936 177.378C18.035 176.708 18.035 176.006 18.5027 175.398C19.906 173.558 21.5276 171.937 23.3675 170.533C23.9756 170.065 24.6773 170.05 25.3478 170.409C26.0338 170.752 26.3768 171.328 26.3613 172.202Z" fill="#007C8E"/>
<path d="M34.5316 175.289C34.5316 176.365 33.6741 177.207 32.5982 177.191C31.5535 177.176 30.7115 176.334 30.7115 175.289C30.7115 174.213 31.5691 173.371 32.645 173.387C33.7364 173.402 34.5316 174.213 34.5316 175.289Z" fill="#007C8E"/>
<circle cx="36" cy="143" r="4.5" stroke="#007C8E" stroke-width="3"/>
<circle cx="63" cy="247" r="7.5" stroke="#007C8E" stroke-width="3"/>
<circle cx="68" cy="156" r="2" fill="#007C8E"/>
<circle cx="14" cy="245" r="2" fill="#007C8E"/>
<circle cx="2" cy="209" r="2" fill="#007C8E"/>
<path d="M53.9989 94.0633C53.8062 97.3722 53.0037 100.913 51.5591 104.306C48.8089 110.766 44.3466 115.729 38.0759 119.08C37.6372 119.312 37.2091 119.544 36.7811 119.786C36.2889 120.06 35.7859 120.071 35.283 119.818C31.9015 118.1 28.8517 115.951 26.2621 113.19C23.4157 110.165 21.2648 106.73 19.8309 102.852C18.718 99.8276 18.0759 96.7294 18.001 93.5154C17.9689 91.9452 18.6859 90.7755 20.0663 90.0273C24.7426 87.5193 29.4189 85.0324 34.0952 82.5244C35.3579 81.8394 36.6099 81.8183 37.8726 82.5033C42.5382 85.0008 47.2038 87.4772 51.8694 89.9852C53.3889 90.7966 54.031 91.9558 53.9989 94.0633ZM51.3664 93.3573C51.345 92.8831 51.0561 92.5037 50.5532 92.2403C45.909 89.7639 41.2648 87.2875 36.6313 84.8006C36.1819 84.5582 35.7859 84.5898 35.3472 84.8322C32.2332 86.4972 29.1086 88.1516 25.9946 89.8166C24.4644 90.6385 22.9448 91.45 21.4146 92.2614C20.8796 92.5459 20.6014 92.9779 20.6442 93.5786C20.6763 94.1055 20.7298 94.6324 20.7726 95.1488C20.9759 97.3512 21.4574 99.4904 22.1958 101.566C23.512 105.276 25.5238 108.563 28.2418 111.44C30.4141 113.738 32.9074 115.613 35.7324 117.068C35.9143 117.162 36.0641 117.173 36.2568 117.078C38.611 115.898 40.7511 114.423 42.6559 112.631C46.4654 109.059 48.948 104.717 50.3391 99.7538C50.9277 97.6884 51.2594 95.5808 51.3664 93.3573Z" fill="#007C8E"/>
<path d="M42.4526 95.9602C42.4633 96.3079 42.3242 96.603 42.0995 96.8559C39.9914 99.3428 37.894 101.83 35.7752 104.317C35.2295 104.96 34.3627 105.012 33.7528 104.422C32.4793 103.2 31.2273 101.956 29.9753 100.713C29.4082 100.154 29.4189 99.3534 29.9432 98.837C30.4676 98.3206 31.2701 98.3101 31.848 98.8581C32.672 99.6484 33.4852 100.449 34.2878 101.261C34.5446 101.514 34.6837 101.545 34.9299 101.24C36.6313 99.2058 38.3434 97.1931 40.0663 95.1698C40.4836 94.6851 41.0508 94.527 41.6179 94.7378C42.1423 94.9274 42.4526 95.3806 42.4526 95.9602Z" fill="#007C8E"/>
<path d="M53.9989 94.0633C53.8062 97.3722 53.0037 100.913 51.5591 104.306C48.8089 110.766 44.3466 115.729 38.0759 119.08C37.6372 119.312 37.2091 119.544 36.7811 119.786C36.2889 120.06 35.7859 120.071 35.283 119.818C31.9015 118.1 28.8517 115.951 26.2621 113.19C23.4157 110.165 21.2648 106.73 19.8309 102.852C18.718 99.8276 18.0759 96.7294 18.001 93.5154C17.9689 91.9452 18.6859 90.7755 20.0663 90.0273C24.7426 87.5193 29.4189 85.0324 34.0952 82.5244C35.3579 81.8394 36.6099 81.8183 37.8726 82.5033C42.5382 85.0008 47.2038 87.4772 51.8694 89.9852C53.3889 90.7966 54.031 91.9558 53.9989 94.0633ZM51.3664 93.3573C51.345 92.8831 51.0561 92.5037 50.5532 92.2403C45.909 89.7639 41.2648 87.2875 36.6313 84.8006C36.1819 84.5582 35.7859 84.5898 35.3472 84.8322C32.2332 86.4972 29.1086 88.1516 25.9946 89.8166C24.4644 90.6385 22.9448 91.45 21.4146 92.2614C20.8796 92.5459 20.6014 92.9779 20.6442 93.5786C20.6763 94.1055 20.7298 94.6324 20.7726 95.1488C20.9759 97.3512 21.4574 99.4904 22.1958 101.566C23.512 105.276 25.5238 108.563 28.2418 111.44C30.4141 113.738 32.9074 115.613 35.7324 117.068C35.9143 117.162 36.0641 117.173 36.2568 117.078C38.611 115.898 40.7511 114.423 42.6559 112.631C46.4654 109.059 48.948 104.717 50.3391 99.7538C50.9277 97.6884 51.2594 95.5808 51.3664 93.3573Z" stroke="#007C8E"/>
<path d="M42.4526 95.9602C42.4633 96.3079 42.3242 96.603 42.0995 96.8559C39.9914 99.3428 37.894 101.83 35.7752 104.317C35.2295 104.96 34.3627 105.012 33.7528 104.422C32.4793 103.2 31.2273 101.956 29.9753 100.713C29.4082 100.154 29.4189 99.3534 29.9432 98.837C30.4676 98.3206 31.2701 98.3101 31.848 98.8581C32.672 99.6484 33.4852 100.449 34.2878 101.261C34.5446 101.514 34.6837 101.545 34.9299 101.24C36.6313 99.2058 38.3434 97.1931 40.0663 95.1698C40.4836 94.6851 41.0508 94.527 41.6179 94.7378C42.1423 94.9274 42.4526 95.3806 42.4526 95.9602Z" stroke="#007C8E"/>
<path d="M35.9733 65C27.7073 65.0089 20.9911 58.324 21 50.1161C21.0089 41.9083 27.6983 35.2589 35.9555 35.25C44.2126 35.25 50.9287 41.926 50.9287 50.1339C50.9198 58.3417 44.2215 64.9911 35.9733 65ZM35.9911 37.375C28.9187 37.3573 23.1556 43.0594 23.1378 50.0984C23.12 57.1286 28.8474 62.8484 35.9287 62.875C43.0012 62.9016 48.7553 57.1995 48.7821 50.1516C48.8088 43.1214 43.0724 37.4016 35.9911 37.375Z" fill="#EF7F1A"/>
<path d="M35.9644 33.125C34.6372 33.125 33.3189 33.1161 31.9917 33.1339C31.7423 33.1339 31.671 33.0719 31.6799 32.824C31.6977 32.2927 31.6888 31.7615 31.6799 31.2302C31.6799 31.062 31.7156 31 31.9026 31C34.6015 31.0089 37.3094 31.0089 40.0083 31C40.1865 31 40.2399 31.0531 40.231 31.2302C40.2221 31.7792 40.2132 32.337 40.231 32.8859C40.2399 33.1073 40.1419 33.1339 39.9549 33.1339C38.6366 33.125 37.3005 33.125 35.9644 33.125Z" fill="#EF7F1A"/>
<path d="M46.5374 35.5688C46.573 35.5245 46.6087 35.4802 46.6443 35.4448C47.0629 35.0287 47.4816 34.6214 47.8913 34.1964C47.9893 34.099 48.0517 34.0813 48.1585 34.1875C49.076 35.1083 49.9935 36.0203 50.9198 36.9323C51.0356 37.0474 51.0178 37.1182 50.9109 37.2245C50.5012 37.6141 50.1003 38.0125 49.7084 38.4198C49.5926 38.5349 49.5214 38.5526 49.3967 38.4287C48.497 37.5255 47.5885 36.6313 46.6888 35.7281C46.6354 35.675 46.5909 35.6219 46.5374 35.5688Z" fill="#EF7F1A"/>
<path d="M40.6556 50.7922C38.9721 50.7922 37.2975 50.7833 35.614 50.801C35.3646 50.801 35.3022 50.7391 35.3022 50.4911C35.3111 47.1531 35.3111 43.8151 35.3022 40.4771C35.3022 40.2203 35.3735 40.176 35.6229 40.176C40.3616 40.2292 44.6728 43.7443 45.7328 48.4281C45.8842 49.1099 45.9644 49.8005 46 50.5C46.0178 50.7479 45.9466 50.8187 45.6972 50.8099C44.0137 50.7833 42.3302 50.7922 40.6556 50.7922Z" fill="#EF7F1A"/>
<path d="M35.9733 65C27.7073 65.0089 20.9911 58.324 21 50.1161C21.0089 41.9083 27.6983 35.2589 35.9555 35.25C44.2126 35.25 50.9287 41.926 50.9287 50.1339C50.9198 58.3417 44.2215 64.9911 35.9733 65ZM35.9911 37.375C28.9187 37.3573 23.1556 43.0594 23.1378 50.0984C23.12 57.1286 28.8474 62.8484 35.9287 62.875C43.0012 62.9016 48.7553 57.1995 48.7821 50.1516C48.8088 43.1214 43.0724 37.4016 35.9911 37.375Z" stroke="#EF7F1A"/>
<path d="M35.9644 33.125C34.6372 33.125 33.3189 33.1161 31.9917 33.1339C31.7423 33.1339 31.671 33.0719 31.6799 32.824C31.6977 32.2927 31.6888 31.7615 31.6799 31.2302C31.6799 31.062 31.7156 31 31.9026 31C34.6015 31.0089 37.3094 31.0089 40.0083 31C40.1865 31 40.2399 31.0531 40.231 31.2302C40.2221 31.7792 40.2132 32.337 40.231 32.8859C40.2399 33.1073 40.1419 33.1339 39.9549 33.1339C38.6366 33.125 37.3005 33.125 35.9644 33.125Z" stroke="#EF7F1A"/>
<path d="M46.5374 35.5688C46.573 35.5245 46.6087 35.4802 46.6443 35.4448C47.0629 35.0287 47.4816 34.6214 47.8913 34.1964C47.9893 34.099 48.0517 34.0813 48.1585 34.1875C49.076 35.1083 49.9935 36.0203 50.9198 36.9323C51.0356 37.0474 51.0178 37.1182 50.9109 37.2245C50.5012 37.6141 50.1003 38.0125 49.7084 38.4198C49.5926 38.5349 49.5214 38.5526 49.3967 38.4287C48.497 37.5255 47.5885 36.6313 46.6888 35.7281C46.6354 35.675 46.5909 35.6219 46.5374 35.5688Z" stroke="#EF7F1A"/>
<path d="M40.6556 50.7922C38.9721 50.7922 37.2975 50.7833 35.614 50.801C35.3646 50.801 35.3022 50.7391 35.3022 50.4911C35.3111 47.1531 35.3111 43.8151 35.3022 40.4771C35.3022 40.2203 35.3735 40.176 35.6229 40.176C40.3616 40.2292 44.6728 43.7443 45.7328 48.4281C45.8842 49.1099 45.9644 49.8005 46 50.5C46.0178 50.7479 45.9466 50.8187 45.6972 50.8099C44.0137 50.7833 42.3302 50.7922 40.6556 50.7922Z" stroke="#EF7F1A"/>
<circle cx="189" cy="92" r="20" fill="#F5F9FA"/>
<path d="M196.51 68C199.832 68 203.154 68 206.475 68C207 68 207 68 207 68.5484C207 69.45 207 70.3608 207 71.2624C206.991 72.8611 205.951 73.9392 204.368 73.9485C204.046 73.9485 203.954 74.0601 203.963 74.3668C203.982 74.9802 203.954 75.5937 203.973 76.2164C203.982 76.5231 203.881 76.6161 203.577 76.6161C201.368 76.6068 199.16 76.6161 196.952 76.6068C196.593 76.6068 196.473 76.709 196.51 77.0622C196.538 77.2574 196.528 77.4619 196.51 77.6571C196.473 77.9731 196.611 78.0474 196.906 78.0474C199.086 78.0381 201.276 78.0381 203.457 78.0381C203.954 78.0381 203.954 78.0381 203.954 78.54C203.954 79.6275 203.945 80.7243 203.963 81.8117C203.973 82.1556 203.871 82.2765 203.513 82.2672C201.313 82.2486 199.123 82.2672 196.924 82.2486C196.593 82.2486 196.492 82.3415 196.501 82.6854C196.519 83.6799 196.501 83.6799 197.504 83.6799C199.501 83.6799 201.507 83.6892 203.503 83.6706C203.844 83.6706 203.963 83.7636 203.963 84.1261C203.945 85.2321 203.954 86.3289 203.954 87.4349C203.954 87.8997 203.954 87.909 203.494 87.909C201.313 87.909 199.123 87.9183 196.942 87.8997C196.593 87.8997 196.455 87.9926 196.501 88.3551C196.528 88.5503 196.519 88.7548 196.501 88.9499C196.464 89.266 196.602 89.3403 196.896 89.3403C199.068 89.331 201.24 89.331 203.42 89.331C203.954 89.331 203.954 89.331 203.954 89.8701C203.954 90.9576 203.945 92.0543 203.963 93.1418C203.973 93.5043 203.844 93.5972 203.503 93.5972C201.332 93.5879 199.16 93.5879 196.979 93.5879C196.501 93.5879 196.501 93.5879 196.501 94.0713C196.501 94.2479 196.519 94.4244 196.501 94.5917C196.464 94.9078 196.611 94.9821 196.896 94.9821C199.077 94.9728 201.267 94.9728 203.448 94.9728C203.945 94.9728 203.945 94.9728 203.945 95.4747C203.936 99.2576 201 102.557 197.274 102.957C193.179 103.394 189.563 100.466 189.056 96.3112C189.01 95.9673 189.001 95.6141 189.001 95.2703C189.001 88.3365 189.001 81.4028 189.001 74.469C189.001 73.9671 189.001 73.9671 188.495 73.9578C187.143 73.9392 186.057 72.8796 186.011 71.4762C185.983 70.4538 186.02 69.4314 186.001 68.409C185.992 68.0372 186.176 68 186.471 68C189.82 68.0093 193.16 68 196.51 68ZM196.501 69.5708C195.746 69.5708 194.982 69.5708 194.228 69.5708C192.139 69.5708 190.041 69.5708 187.952 69.5708C187.695 69.5708 187.538 69.5987 187.557 69.924C187.584 70.3422 187.566 70.7605 187.566 71.1787C187.566 72.0617 187.888 72.3963 188.771 72.3963C193.933 72.3963 199.096 72.3963 204.258 72.3963C204.387 72.3963 204.516 72.4056 204.635 72.387C205.058 72.3313 205.473 71.9223 205.426 71.5598C205.362 71.0765 205.399 70.5839 205.39 70.1006C205.38 69.5801 205.39 69.5801 204.884 69.5801C202.095 69.5708 199.298 69.5708 196.501 69.5708Z" fill="#D0E6EA"/>
<circle cx="189" cy="23" r="20" fill="#F5F9FA"/>
<path d="M188.599 12.9123C193.709 11.8904 198.77 10.8686 203.841 9.85642C203.841 9.8275 203.841 9.79858 203.851 9.76966C203.055 9.42263 202.258 9.06595 201.471 8.71892C200.402 8.25621 199.343 7.78385 198.265 7.33078C197.983 7.20546 197.896 7.09942 198.09 6.81023C198.391 6.34752 198.576 5.8366 198.624 5.28713C198.654 4.94974 198.799 4.95938 199.052 5.06542C200.781 5.82696 202.51 6.58851 204.249 7.34042C205.425 7.85133 206.61 8.36224 207.776 8.8828C208.145 9.04667 208.495 8.91172 208.845 8.8346C209.525 8.69 210.205 8.57432 210.895 8.76712C212.235 9.14307 213.061 10.0299 213.343 11.3699C214.217 15.5439 215.091 19.718 215.927 23.892C216.306 25.7718 215.179 27.4009 213.294 27.7865C208.369 28.7794 203.443 29.7627 198.527 30.746C194.874 31.4786 191.231 32.2209 187.569 32.9342C185.762 33.2909 184.062 32.163 183.693 30.3797C182.808 26.1574 181.924 21.9352 181.069 17.7129C180.7 15.9199 181.837 14.2233 183.663 13.9052C184.489 13.7606 185.053 13.4135 185.558 12.758C187.093 10.7818 188.686 8.85388 190.26 6.91627C190.571 6.53067 190.58 6.53067 190.843 6.93555C191.125 7.36934 191.465 7.73565 191.882 8.03449C192.145 8.21765 192.174 8.34296 191.96 8.60324C190.891 9.90462 189.852 11.206 188.803 12.5074C188.725 12.6038 188.608 12.6905 188.599 12.9123ZM191.902 23.2172C191.95 23.4679 192.009 23.6896 192.047 23.9113C192.096 24.2294 192.261 24.3162 192.582 24.2487C193.534 24.0366 194.505 23.8535 195.457 23.6414C195.72 23.5836 195.846 23.6414 195.885 23.9113C195.933 24.1812 195.992 24.4512 196.06 24.7211C196.167 25.2031 196.215 25.232 196.701 25.1259C197.789 24.8946 197.634 24.9813 197.439 23.9981C197.274 23.1691 197.167 23.2847 198.051 23.0919C198.537 22.9859 198.576 22.9377 198.479 22.4653C198.304 21.6749 198.304 21.6749 197.507 21.8388C196.992 21.9448 196.992 21.9448 196.886 21.4435C196.594 20.0747 196.293 18.7154 196.011 17.3466C195.953 17.0477 195.817 16.9321 195.506 17.0188C195.166 17.1056 194.826 17.1827 194.476 17.2405C194.233 17.2791 194.097 17.4044 194.01 17.6358C193.349 19.3806 192.679 21.1254 192.018 22.8702C191.97 22.9763 191.941 23.1016 191.902 23.2172ZM187.87 25.6947C187.851 25.5115 187.948 25.4248 188.016 25.3284C188.288 24.9139 188.569 24.509 188.841 24.0945C189.279 23.41 189.696 22.716 189.842 21.9062C190.124 20.3928 189.152 18.9564 187.753 18.8504C186.714 18.7733 185.81 19.0914 185.082 19.8337C184.392 20.5277 184.411 20.6627 185.208 21.2218C185.422 21.376 185.568 21.3664 185.723 21.1447C185.908 20.8844 186.112 20.6531 186.384 20.4795C187.287 19.8915 188.123 20.2482 188.336 21.2989C188.463 21.9448 188.22 22.4846 187.899 23.0052C187.287 23.9981 186.665 24.991 186.005 25.9646C185.723 26.3888 185.616 26.784 185.762 27.2756C185.898 27.7191 185.937 27.7769 186.393 27.6612C187.773 27.3142 189.143 26.9671 190.522 26.6201C191.649 26.3406 191.435 26.4755 191.241 25.4055C191.193 25.1163 191.037 25.0295 190.755 25.097C190.192 25.232 189.619 25.3477 189.045 25.4633C188.647 25.5405 188.268 25.6176 187.87 25.6947ZM211.273 15.1487C211.215 14.8884 211.157 14.6378 211.108 14.3775C211.06 14.1172 210.914 14.0401 210.661 14.098C209.049 14.445 207.436 14.792 205.823 15.1294C205.551 15.1873 205.454 15.3126 205.512 15.5825C205.561 15.8042 205.61 16.0259 205.639 16.2573C205.687 16.585 205.843 16.6718 206.173 16.585C207.154 16.344 208.135 16.1416 209.117 15.9102C209.418 15.8428 209.486 15.9295 209.408 16.2091C209.214 16.9321 209.029 17.6551 208.835 18.3684C208.476 19.7565 208.106 21.135 207.747 22.5232C207.65 22.9088 207.737 23.0052 208.145 22.9377C208.417 22.8895 208.689 22.8124 208.971 22.7931C209.379 22.7738 209.525 22.5617 209.602 22.1954C210.098 20.065 210.613 17.9346 211.128 15.8042C211.176 15.6018 211.225 15.3801 211.273 15.1487ZM203.191 15.0041C203.239 14.6378 203.093 14.5414 202.812 14.5992C202.637 14.6378 202.462 14.686 202.277 14.7053C201.947 14.7438 201.801 14.9173 201.772 15.2451C201.743 15.7271 201.665 16.1994 201.607 16.6814C201.277 19.3131 200.946 21.9352 200.626 24.5668C200.509 25.5308 200.519 25.5212 201.481 25.338C201.811 25.2705 201.937 25.1259 201.976 24.7982C202.19 22.9377 202.433 21.0676 202.666 19.2071C202.851 17.7804 203.016 16.3633 203.191 15.0041Z" fill="#D0E6EA"/>
<path d="M197 4.00993C197 5.67881 195.669 7 193.99 7C192.321 7 191 5.66887 191 3.99007C191 2.32119 192.331 1 194.01 1C195.679 1 197 2.33113 197 4.00993Z" fill="#DFF1E5"/>
<path d="M194.689 19C194.795 19.8506 194.896 20.6665 194.996 21.4738C195.016 21.63 194.951 21.6821 194.881 21.7081C194.629 21.8036 194.377 21.8904 194.125 21.9859C194.035 22.0206 193.969 22.0033 194.015 21.7949C194.221 20.8835 194.422 19.9808 194.629 19.0694C194.629 19.0608 194.644 19.0521 194.689 19Z" fill="#DFF1E5"/>
<circle cx="115" cy="159" r="20" fill="#F5F9FA"/>
<path d="M119.888 166.98C116.311 166.98 112.733 166.98 109.145 166.98C108.492 166.98 108.412 166.89 108.432 166.237C108.452 165.294 109.196 164.541 110.15 164.541C111.849 164.531 113.537 164.531 115.235 164.541C115.557 164.541 115.678 164.46 115.678 164.119C115.667 163.085 115.678 163.115 114.713 162.784C110.663 161.369 108.11 158.609 107.357 154.363C106.844 151.452 107.618 148.792 109.397 146.433C109.457 146.353 109.517 146.212 109.648 146.242C109.758 146.262 109.758 146.403 109.789 146.493C110.17 147.527 110.864 148.27 111.879 148.681C112.18 148.802 112.09 148.942 111.969 149.133C111.236 150.247 110.874 151.482 110.894 152.797C110.924 154.854 111.748 156.591 113.306 157.956C114.05 158.609 114.914 159.07 115.848 159.391C116.08 159.472 116.22 159.442 116.381 159.221C118.24 156.551 121.918 156.671 123.586 159.462C123.767 159.763 123.858 159.733 124.089 159.512C127.063 156.521 130.048 153.55 133.033 150.568C133.254 150.348 133.475 150.147 133.786 150.107C134.219 150.056 134.59 150.187 134.822 150.568C135.063 150.96 135.063 151.361 134.801 151.733C134.701 151.883 134.56 152.014 134.42 152.154C131.123 155.447 127.837 158.739 124.531 162.021C124.24 162.312 124.099 162.604 124.129 163.015C124.159 163.356 124.139 163.688 124.139 164.029C124.139 164.551 124.139 164.551 124.652 164.551C126.28 164.551 127.918 164.551 129.546 164.551C130.651 164.551 131.385 165.304 131.375 166.408C131.375 166.89 131.264 167 130.772 167C128.39 167 125.998 167 123.617 167C122.37 166.98 121.124 166.98 119.888 166.98ZM118.431 161.529C118.431 162.312 119.104 163.005 119.888 163.015C120.682 163.025 121.396 162.322 121.386 161.519C121.376 160.726 120.692 160.054 119.898 160.054C119.114 160.064 118.431 160.747 118.431 161.529Z" fill="#D0E6EA"/>
<path d="M113.195 141.595C112.321 141.585 111.517 141.906 110.824 142.528C110.613 142.709 110.492 142.719 110.301 142.518C109.839 142.036 109.356 141.575 108.894 141.103C108.261 140.45 108.261 139.698 108.904 139.045C109.246 138.694 109.256 138.694 108.904 138.343C108.141 137.59 107.357 136.837 106.593 136.074C105.799 135.291 105.809 134.609 106.583 133.836C107.035 133.384 107.487 132.932 107.94 132.481C108.593 131.838 109.336 131.838 110 132.491C110.824 133.294 111.638 134.107 112.452 134.94C112.673 135.161 112.803 135.161 113.024 134.94C113.738 134.217 114.462 134.227 115.185 134.95C118.602 138.363 122.029 141.775 125.446 145.188C126.159 145.901 126.169 146.664 125.466 147.366C124.069 148.762 122.672 150.147 121.265 151.522C120.702 152.084 119.918 152.084 119.346 151.522C118.23 150.428 117.145 149.324 116.039 148.23C115.818 148.019 115.909 147.888 116.059 147.708C117.386 146.112 117.275 143.934 115.778 142.558C115.065 141.906 114.23 141.585 113.195 141.595Z" fill="#D0E6EA"/>
<path d="M113.286 147.708C111.919 147.708 110.844 146.644 110.844 145.289C110.844 143.923 111.909 142.849 113.266 142.849C114.632 142.849 115.708 143.913 115.708 145.269C115.708 146.634 114.642 147.708 113.286 147.708Z" fill="#D0E6EA"/>
<path d="M124.36 153.73C124.099 153.73 123.858 153.64 123.677 153.469C123.345 153.148 123.024 152.817 122.682 152.496C122.531 152.355 122.531 152.235 122.682 152.084C123.828 150.95 124.973 149.806 126.119 148.661C126.27 148.511 126.39 148.521 126.531 148.671C126.852 149.003 127.194 149.324 127.506 149.655C127.867 150.056 127.877 150.619 127.496 151.01C126.702 151.823 125.888 152.626 125.074 153.429C124.873 153.61 124.632 153.72 124.36 153.73Z" fill="#D0E6EA"/>
<circle cx="115" cy="225" r="20" fill="#F5F9FA"/>
<path d="M131.451 203.947C131.451 202.795 131.451 201.73 131.451 200.664C131.451 200.131 131.451 200.131 131.98 200.131C132.407 200.131 132.834 200.131 133.271 200.131C133.782 200.131 133.782 200.131 133.782 200.635C133.782 202.196 133.791 203.747 133.772 205.308C133.772 205.603 133.865 205.793 134.097 205.964C135.537 207.039 136.976 208.134 138.416 209.218C138.731 209.456 138.964 209.732 139.001 210.141C139.084 210.903 138.592 211.454 137.812 211.493C137.431 211.512 137.05 211.502 136.66 211.493C136.438 211.493 136.363 211.588 136.354 211.816C136.308 212.91 136.308 212.91 137.366 212.91C139.409 212.91 141.452 212.91 143.495 212.91C144.554 212.91 144.991 213.358 144.991 214.452C144.991 219.114 144.972 223.777 145 228.439C145.009 229.524 144.378 230 143.468 230C133.744 229.981 124.012 229.99 114.289 229.99C114.196 229.99 114.103 229.99 114.01 229.99C113.146 229.981 112.654 229.477 112.645 228.592C112.645 226.241 112.645 223.882 112.645 221.531C112.645 218.353 112.645 215.185 112.645 212.006C112.645 211.512 112.645 211.512 112.162 211.502C111.8 211.502 111.438 211.521 111.085 211.483C110.518 211.426 110.156 211.102 110.035 210.589C109.915 210.056 110.11 209.628 110.518 209.304C111.456 208.581 112.403 207.877 113.341 207.163C116.759 204.575 120.176 201.996 123.594 199.408C124.309 198.866 124.699 198.866 125.405 199.398C127.299 200.835 129.194 202.272 131.079 203.709C131.2 203.776 131.293 203.833 131.451 203.947ZM114.976 218.743C114.976 221.55 114.985 224.357 114.967 227.164C114.967 227.507 115.069 227.612 115.403 227.612C116.49 227.593 117.585 227.602 118.672 227.612C118.96 227.612 119.053 227.507 119.053 227.222C119.034 226.565 119.034 225.918 119.053 225.261C119.081 224.053 118.978 222.835 119.109 221.626C119.564 217.478 124.411 215.308 127.699 217.801C129.268 218.991 129.993 220.618 130.002 222.607C130.002 224.139 130.011 225.67 129.993 227.212C129.993 227.526 130.095 227.631 130.392 227.621C131.469 227.602 132.546 227.602 133.633 227.621C133.986 227.631 134.088 227.526 134.088 227.155C134.069 224.757 134.079 222.35 134.079 219.952C134.079 216.802 134.079 213.653 134.079 210.493C134.079 210.151 134.088 209.799 134.348 209.57C134.617 209.333 134.524 209.237 134.292 209.057C131.126 206.668 127.959 204.28 124.792 201.882C124.569 201.72 124.43 201.73 124.225 201.892C122.071 203.528 119.916 205.155 117.753 206.782C116.74 207.553 115.71 208.324 114.688 209.114C114.614 209.171 114.372 209.218 114.567 209.38C114.948 209.713 114.985 210.141 114.985 210.608C114.976 213.319 114.985 216.031 114.976 218.743ZM140.589 218.838C140.589 218.553 140.589 218.268 140.589 217.982C140.589 217.811 140.514 217.716 140.338 217.716C139.79 217.716 139.251 217.716 138.703 217.716C138.527 217.716 138.453 217.801 138.453 217.973C138.453 218.515 138.462 219.067 138.453 219.609C138.453 219.828 138.555 219.904 138.75 219.904C139.019 219.895 139.279 219.904 139.549 219.904C140.589 219.904 140.589 219.904 140.589 218.838ZM138.453 224.043C138.453 224.329 138.453 224.614 138.453 224.9C138.453 225.071 138.518 225.166 138.694 225.166C139.242 225.166 139.781 225.166 140.329 225.166C140.524 225.166 140.589 225.062 140.589 224.871C140.589 224.338 140.589 223.805 140.589 223.273C140.589 223.054 140.487 222.978 140.292 222.978C140.022 222.987 139.762 222.978 139.493 222.978C138.453 222.987 138.453 222.987 138.453 224.043Z" fill="#D0E6EA"/>
<path d="M124.541 205.84C126.371 205.85 127.903 207.42 127.922 209.304C127.931 211.179 126.371 212.787 124.532 212.787C122.665 212.787 121.133 211.198 121.142 209.275C121.152 207.391 122.702 205.831 124.541 205.84Z" fill="#D0E6EA"/>
<circle cx="115" cy="92" r="20" fill="#F5F9FA"/>
<path d="M116.144 72.7207C113.289 74.2212 111.002 76.3904 108.925 78.8369C109.25 77.3201 109.785 75.9174 110.612 74.6289C113.954 69.475 118.658 66.8654 124.806 66.9959C125.244 67.0122 125.633 66.9306 126.039 66.7512C128.601 65.6748 131.229 64.9245 134.052 65.0061C137.036 65.0876 138.788 66.8165 138.886 69.8338C138.934 71.3833 138.594 72.8675 138.091 74.3191C137.945 74.7431 137.945 75.0693 138.172 75.4607C139.567 78.103 140.086 80.9246 139.989 83.893C139.972 84.5128 139.762 84.6922 139.129 84.6922C132.17 84.6759 125.228 84.6759 118.269 84.6759C117.523 84.6759 117.523 84.6759 117.587 85.4098C117.896 88.3456 119.858 90.6779 122.632 91.4119C125.552 92.1785 128.585 91.0857 130.24 88.6229C130.564 88.1499 130.889 88.0031 131.424 88.0031C133.808 88.0357 136.209 88.0194 138.594 88.0031C139.08 88.0031 139.21 88.1173 138.999 88.5903C136.452 94.4129 132.105 97.8706 125.763 98.6372C122.908 98.9797 120.15 98.4741 117.523 97.2835C117.149 97.1204 116.841 97.1367 116.484 97.2998C114.83 98.0827 113.11 98.7025 111.294 98.9308C110.402 99.045 109.509 99.0287 108.633 98.8003C106.2 98.2132 105 96.6311 105 93.9563C105 91.0205 105.779 88.2315 106.979 85.5729C108.796 81.5444 111.229 77.9399 114.359 74.8247C115.008 74.1886 115.625 73.5199 116.257 72.8838C116.225 72.8348 116.192 72.7859 116.144 72.7207ZM124.141 80.4679C126.087 80.4679 128.034 80.4679 129.964 80.4679C130.824 80.4679 130.872 80.4027 130.694 79.5546C130.142 76.7329 127.758 74.5963 124.79 74.2375C121.529 73.8461 118.139 76.423 117.62 79.6687C117.506 80.419 117.539 80.4679 118.301 80.4679C120.264 80.4679 122.194 80.4679 124.141 80.4679ZM109.282 88.313C108.861 88.9002 108.65 89.471 108.423 90.0256C107.839 91.4445 107.352 92.8798 107.401 94.4456C107.449 96.1744 108.488 97.5281 110.061 97.7891C112.153 98.1316 114.019 97.3487 116.014 96.5169C112.802 94.5108 110.596 91.8196 109.282 88.313ZM130.061 68.1376C133.16 69.4587 135.528 71.4159 137.328 74.1233C137.847 73.0143 138.204 71.3017 138.156 70.2742C138.058 68.3659 136.89 67.0937 135.074 66.9796C133.354 66.8817 131.781 67.4526 130.061 68.1376Z" fill="#D0E6EA"/>
<path fill-rule="evenodd" clip-rule="evenodd" d="M191.12 137.6C192.158 137.203 193.268 137 194.386 137C195.505 137 196.614 137.203 197.652 137.6C198.69 137.997 199.639 138.581 200.443 139.322C201.247 140.064 201.89 140.949 202.331 141.93C202.772 142.912 203 143.967 203 145.035C203 146.104 202.772 147.159 202.331 148.141C201.89 149.122 201.247 150.007 200.443 150.749C200.443 150.749 200.443 150.749 200.443 150.749L189.931 160.446C189.13 161.185 187.869 161.185 187.069 160.446L176.557 150.749C174.932 149.25 174 147.197 174 145.035C174 142.874 174.932 140.821 176.557 139.322C178.178 137.826 180.359 137.001 182.613 137.001C184.79 137.001 186.897 137.77 188.5 139.169C189.266 138.5 190.154 137.969 191.12 137.6ZM194.386 141C193.786 141 193.194 141.109 192.645 141.319C192.096 141.529 191.603 141.835 191.192 142.214L189.931 143.377C189.13 144.116 187.869 144.116 187.069 143.377L185.808 142.214C184.976 141.447 183.829 141.001 182.613 141.001C181.398 141.001 180.25 141.447 179.418 142.214C178.59 142.979 178.143 143.995 178.143 145.035C178.143 146.075 178.59 147.092 179.418 147.857L188.5 156.234L197.581 147.857C197.992 147.478 198.313 147.032 198.53 146.549C198.747 146.066 198.857 145.552 198.857 145.035C198.857 144.519 198.747 144.004 198.53 143.522C198.313 143.039 197.992 142.594 197.581 142.215C197.17 141.835 196.676 141.529 196.127 141.319C195.578 141.109 194.986 141 194.386 141Z" fill="#EF7F1A"/>
<path d="M59 4.42285C58.4477 4.42285 58 4.87057 58 5.42285C58 5.97514 58.4477 6.42285 59 6.42285L59 4.42285ZM82 6.42285C82.5523 6.42285 83 5.97514 83 5.42285C83 4.87057 82.5523 4.42285 82 4.42285L82 6.42285ZM79.6626 0.250987C79.2489 -0.114932 78.6169 -0.0762236 78.251 0.337445C77.8851 0.751114 77.9238 1.38309 78.3374 1.74901L79.6626 0.250987ZM84 5.42285L84.6626 6.17186C84.8771 5.98206 85 5.70933 85 5.42285C85 5.13637 84.8771 4.86365 84.6626 4.67384L84 5.42285ZM78.3374 9.09669C77.9238 9.46261 77.8851 10.0946 78.251 10.5083C78.6169 10.9219 79.2489 10.9606 79.6626 10.5947L78.3374 9.09669ZM59 6.42285L82 6.42285L82 4.42285L59 4.42285L59 6.42285ZM78.3374 1.74901L83.3374 6.17186L84.6626 4.67384L79.6626 0.250987L78.3374 1.74901ZM83.3374 4.67384L78.3374 9.09669L79.6626 10.5947L84.6626 6.17186L83.3374 4.67384Z" fill="white"/>
<defs>
<filter id="filter0_bd_890_140" x="147" y="155" width="160" height="160" filterUnits="userSpaceOnUse" color-interpolation-filters="sRGB">
<feFlood flood-opacity="0" result="BackgroundImageFix"/>
<feGaussianBlur in="BackgroundImage" stdDeviation="25"/>
<feComposite in2="SourceAlpha" operator="in" result="effect1_backgroundBlur_890_140"/>
<feColorMatrix in="SourceAlpha" type="matrix" values="0 0 0 0 0 0 0 0 0 0 0 0 0 0 0 0 0 0 127 0" result="hardAlpha"/>
<feOffset dx="5" dy="5"/>
<feGaussianBlur stdDeviation="20"/>
<feComposite in2="hardAlpha" operator="out"/>
<feColorMatrix type="matrix" values="0 0 0 0 0.0286979 0 0 0 0 0.242331 0 0 0 0 0.3625 0 0 0 0.15 0"/>
<feBlend mode="normal" in2="effect1_backgroundBlur_890_140" result="effect2_dropShadow_890_140"/>
<feBlend mode="normal" in="SourceGraphic" in2="effect2_dropShadow_890_140" result="shape"/>
</filter>
</defs>
</svg>
