<svg width="97" height="44" viewBox="0 0 97 44" fill="none" xmlns="http://www.w3.org/2000/svg">
<path d="M55.1644 23.5634V23.5229C55.3125 23.4825 55.436 23.3611 55.5595 23.2397C55.683 23.1587 55.683 22.8755 55.8312 22.754C55.8806 22.7136 55.93 22.6326 55.9547 22.5922C56.1522 22.7136 56.2757 22.3898 56.4486 22.3898C56.5721 22.228 56.6708 22.0661 56.7943 21.9042H57.0413C57.0907 21.7019 57.1648 21.4995 57.313 21.3781H57.5352C57.6587 21.2162 57.7822 21.0544 57.881 20.8925H58.2761C58.3502 20.7711 58.4243 20.6497 58.4737 20.5283H58.7453C58.7947 20.4878 58.8441 20.4069 58.8935 20.3664C58.9182 20.4878 58.9429 20.5687 58.9676 20.6902C58.9923 20.6902 59.0417 20.6497 59.0417 20.6497C58.9923 20.4069 59.1158 20.245 59.1652 20.0427C59.1899 19.8808 59.264 19.9213 59.3381 19.8808C59.3874 19.8808 59.4368 19.7998 59.4862 19.7189H59.7085C59.7826 19.557 59.8567 19.3952 59.9061 19.2738C60.0789 19.1524 60.2024 19.2333 60.3259 19.1928C60.4 19.3547 60.4247 19.5975 60.5729 19.7189C60.5976 19.6784 60.6223 19.5975 60.647 19.557C60.6223 19.4761 60.5729 19.4356 60.5235 19.3142C60.5482 19.2738 60.5976 19.1928 60.647 19.0714C60.6223 18.9905 60.5729 18.9095 60.5235 18.7881C60.5729 18.5858 60.7211 18.7881 60.8445 18.6667C60.9927 18.3025 61.3385 18.3025 61.5607 18.0192C61.6842 17.9788 61.8324 18.0597 61.9559 17.9788C61.9312 17.8978 61.9065 17.8169 61.8571 17.6955C62.0053 17.6955 62.1534 17.6955 62.2522 17.655C62.4004 17.5741 62.4992 17.4931 62.598 17.4122V17.2503C62.6968 17.1694 62.7955 17.0885 62.9437 17.0075C63.0178 17.0075 63.166 17.0075 63.3142 16.9671C63.3389 16.8861 63.3389 16.8052 63.3389 16.7242C63.4377 16.6433 63.5364 16.5624 63.6846 16.4814C63.734 16.4814 63.8575 16.4814 63.9316 16.441C63.9563 16.5624 63.9316 16.6838 64.0551 16.5624C64.0304 16.5219 63.981 16.4814 63.9316 16.441C63.9316 16.2386 64.0798 16.3196 64.1538 16.2386C64.1538 16.1982 64.1785 16.1172 64.1785 15.9958C64.2279 15.9553 64.302 15.9149 64.4008 15.8744C64.3761 15.7935 64.3267 15.7125 64.302 15.6316C64.3761 15.5102 64.4996 15.5911 64.5984 15.5507C64.6478 15.5102 64.6972 15.4293 64.7219 15.3888C64.796 15.4697 64.87 15.5911 64.9441 15.6721C65.0429 15.6316 65.1417 15.5911 65.2405 15.5102C65.2652 15.6316 65.2652 15.7125 65.2899 15.7935C65.1417 15.8744 64.9935 15.9553 64.9194 16.1982C64.9441 16.2791 64.9441 16.3196 64.9688 16.441C65.0676 16.3196 65.1417 16.1982 65.2405 16.0767H65.7344C65.8085 15.9553 65.8826 15.8744 65.9567 15.7935C66.1789 15.7935 66.3518 15.6316 66.5247 15.5102C66.5247 15.5102 66.5247 15.4697 66.5247 15.4293H66.9445C66.9939 15.3483 67.0927 15.2674 67.0927 15.1055H66.6729C66.6235 15.2269 66.5 15.2674 66.5 15.4293H66.0802C66.0308 15.4697 66.0061 15.5507 65.9567 15.5911C65.9073 15.5507 65.8826 15.4697 65.8332 15.4293C65.685 15.5507 65.5615 15.6316 65.4381 15.7125C65.3393 15.5911 65.4134 15.4293 65.3887 15.3078C65.4628 15.1055 65.6109 15.2674 65.7344 15.1864C65.7591 15.1055 65.7838 15.0246 65.8085 14.8627C65.8579 14.9032 65.8826 14.9436 65.9567 15.0246H66.3518C66.3765 14.9436 66.3765 14.9032 66.4012 14.8627C66.4753 14.8222 66.5247 14.7413 66.5988 14.7008C66.6235 14.7413 66.6482 14.7818 66.6729 14.8222C66.6976 14.8222 66.747 14.8627 66.7717 14.8627C67.068 14.8627 67.3891 14.8627 67.6854 14.8627C67.7348 14.7818 67.7842 14.7413 67.8336 14.6604C67.9077 14.7008 67.9571 14.7413 68.1053 14.8222H68.7968C68.8955 15.146 69.1672 14.9032 69.266 15.146C69.4389 15.146 69.6117 15.1864 69.8093 15.1864C69.834 15.2269 69.8587 15.2674 69.9081 15.3078H70.2292C70.3279 15.4697 70.5502 15.4293 70.5996 15.6721H70.3032C70.2538 15.6316 70.2291 15.5507 70.1798 15.5102C70.0563 15.5507 69.9081 15.4697 69.7599 15.5911V15.9553C69.8834 16.1172 70.0069 16.2791 70.1057 16.441V16.4814C70.1057 16.6433 70.1304 16.7647 70.1304 16.8861C70.2045 16.8861 70.2538 16.8861 70.3279 16.9266C70.3526 16.8052 70.3773 16.7242 70.402 16.6433C70.4761 16.6028 70.5502 16.5624 70.5749 16.5624C70.649 16.36 70.6984 16.1982 70.7725 15.9958C70.7231 15.9149 70.6737 15.8744 70.6243 15.8339C70.6243 15.8339 70.6243 15.7935 70.6243 15.753H70.9453C70.97 15.8339 70.9947 15.9149 70.9947 15.9553C70.9947 16.0767 70.9947 16.1577 71.0688 16.2791C71.1182 16.3196 71.1182 16.4005 71.1429 16.4814C71.0935 16.5624 71.0441 16.6028 71.0194 16.6838C71.1676 16.8861 71.1676 17.2503 71.3899 17.3313C71.3899 17.4122 71.3899 17.4527 71.3899 17.4931C71.3158 17.6955 71.2417 17.8574 71.1676 18.0597C71.2417 18.1406 71.2664 18.3025 71.3158 18.4644C71.4146 18.4644 71.5134 18.5049 71.5875 18.5049C71.6862 18.7072 71.5874 18.9095 71.6615 19.1119C71.6615 19.1119 71.6615 19.1524 71.6862 19.1524C71.785 19.1928 71.8838 19.1928 71.9826 19.1928C72.0073 19.2738 72.0073 19.3142 72.0073 19.3547C71.9332 19.6784 71.6121 19.7594 71.6121 20.1641C71.464 20.1641 71.3158 20.2045 71.1923 20.2045C71.0935 20.4069 71.1676 20.6092 71.1429 20.8116C71.0441 20.933 70.9206 21.0948 70.7972 21.2567C70.7231 21.3781 70.6984 21.54 70.6737 21.6614C70.6984 21.7019 70.7231 21.7423 70.7725 21.8233C70.6243 21.9042 70.5008 21.9851 70.3773 22.0661C70.2538 22.147 70.1304 22.2684 70.1551 22.5112C70.1057 22.5112 70.0563 22.5517 69.9822 22.5922C69.9081 22.8755 69.7599 23.0778 69.587 23.2397C69.4883 23.2801 69.3895 23.1587 69.2907 23.3206C69.3401 23.4015 69.3648 23.442 69.4142 23.4825C69.3154 23.5634 69.266 23.7658 69.1178 23.7253C68.9202 24.0086 68.7227 24.2919 68.5498 24.5751C68.4757 24.5751 68.451 24.5751 68.4016 24.6156C68.3769 24.6156 68.3769 24.6561 68.3522 24.6561C68.3275 24.737 68.3028 24.8584 68.2781 24.9393C68.2287 24.9393 68.1794 24.9393 68.1547 24.9393C67.6607 25.6273 67.1668 26.3153 66.6976 27.0032C66.6482 27.0032 66.5988 27.0032 66.5494 27.0032C66.5 27.1246 66.4753 27.246 66.4259 27.327H66.3024C66.1049 27.6103 65.9073 27.8935 65.685 28.1768C65.4628 28.4601 65.2652 28.7434 65.0182 28.9862C64.7713 29.1885 64.5984 29.5528 64.4008 29.836C64.4502 29.8765 64.4996 29.8765 64.5737 29.917C64.6972 29.6742 64.8947 29.5932 65.0429 29.4313C65.1911 29.229 65.364 29.1481 65.5368 29.0671C65.685 28.9862 65.7344 28.6624 65.932 28.7029C66.2036 28.3387 66.5494 28.1768 66.8704 27.934C67.1668 27.7317 67.4632 27.5293 67.636 27.2056C67.9077 27.0437 68.1053 26.9223 68.3028 26.7604C68.3769 26.6795 68.451 26.5581 68.5251 26.4771H68.7968C68.9696 26.032 69.3401 25.9106 69.6364 25.6273C69.6858 25.5868 69.7846 25.5868 69.9328 25.5868C69.9575 25.5464 70.0316 25.4654 70.0316 25.3845C70.0316 25.0608 70.2785 25.1012 70.402 24.9393C70.4514 24.8584 70.5996 24.9798 70.6737 24.8584C70.7478 24.7775 70.8466 24.737 70.9206 24.6561C70.9206 24.6156 70.9206 24.5347 70.9206 24.4942C71.1182 24.2919 71.3652 24.2109 71.5628 23.9681C71.6862 23.8062 71.8838 23.7253 72.0567 23.6039C72.2049 23.5229 72.3283 23.3611 72.4518 23.1992C72.6494 23.2801 72.7729 23.0373 72.9704 22.9969C73.0692 22.835 73.168 22.6731 73.2915 22.5112C73.5138 22.5517 73.6619 22.3898 73.8348 22.2684C74.0077 22.147 74.2053 22.0661 74.3041 21.7828H74.5016C74.6251 21.7019 74.7239 21.6209 74.8474 21.54C74.9955 21.4591 75.119 21.3377 75.2425 21.1758C75.3413 21.0544 75.4895 20.933 75.5883 20.933C75.7611 20.933 75.8352 20.7711 75.9587 20.7306C76.0822 20.6902 76.2057 20.5687 76.3292 20.4878C76.4773 20.4069 76.6008 20.2855 76.7243 20.2045C76.8478 20.1236 76.9713 20.0022 77.1194 20.0427C77.2429 19.7189 77.564 19.7189 77.6875 19.3952C77.8109 19.2738 77.9344 19.3952 78.0579 19.2738C78.2061 19.0714 78.453 19.0714 78.6012 18.8286C78.8235 18.95 78.947 18.6263 79.1692 18.6263C79.3668 18.6263 79.5644 18.4239 79.7372 18.262C79.8854 18.1002 80.0336 17.9383 80.2806 17.7764H80.5769C80.6263 17.736 80.6757 17.655 80.7004 17.6146C80.7498 17.655 80.7992 17.736 80.8239 17.7764C80.8733 17.7764 80.898 17.7764 80.9474 17.7764C80.9721 17.6955 80.9968 17.5741 81.0215 17.4527C81.0709 17.4931 81.0955 17.5336 81.1696 17.6146C81.1943 17.5741 81.2437 17.5336 81.2931 17.4527H81.7623C81.8117 17.4122 81.8611 17.3313 81.9105 17.2908H82.1575C82.2069 17.2503 82.2563 17.1694 82.281 17.1289C82.3304 17.1694 82.3798 17.2503 82.4045 17.2908H82.6514C82.7008 17.2503 82.7502 17.1694 82.7996 17.1289C82.8737 17.3717 82.8243 17.6146 82.849 17.8169C82.7255 17.9383 82.7255 17.9383 82.7749 18.1406C82.8984 18.0597 82.8243 17.9383 82.849 17.8169C83.0219 17.8169 82.9478 18.0192 82.9972 18.1406C83.0713 18.2216 83.1947 18.1406 83.2688 18.1811C83.3182 18.1002 83.3676 18.0597 83.417 18.0192C83.4664 18.1811 83.5158 18.3025 83.5899 18.5049V18.7881C83.6393 18.8691 83.7134 18.95 83.7628 19.0309C83.8368 18.8691 83.9109 18.7072 84.0097 18.5453C84.0838 18.6263 84.0838 18.6263 84.0591 19.1928C84.0344 19.2738 83.985 19.3142 83.9603 19.3952C84.0344 19.4356 84.1085 19.4356 84.1579 19.4356C84.2567 19.557 84.1826 19.6784 84.2073 19.8403C84.232 19.8808 84.2814 19.9617 84.3308 20.0427V20.5687C84.2567 20.6092 84.1826 20.6902 84.0838 20.7306C84.1332 20.8116 84.1579 20.852 84.2073 20.933C83.9603 21.2567 83.7134 21.6209 83.4664 21.9447V22.2684C83.3182 22.4708 83.1453 22.7136 82.9725 22.9564V23.2801C82.8737 23.3611 82.7749 23.442 82.7008 23.5229C82.6267 23.6444 82.5032 23.7253 82.5032 23.8872C82.4291 23.9276 82.3304 23.8872 82.4045 24.049C82.4291 24.0086 82.4538 23.9681 82.5032 23.8872C82.5279 23.9276 82.5773 23.9276 82.5773 23.9681C82.602 24.0895 82.602 24.1704 82.602 24.2514C82.281 24.6965 81.9846 25.1012 81.6389 25.5868C81.5401 25.6273 81.4166 25.7082 81.3672 25.9511C81.3178 26.1939 81.1696 26.2748 81.0215 26.3557C80.9968 26.4367 80.9968 26.5176 80.9721 26.5986C80.9227 26.5986 80.8733 26.639 80.7992 26.639C80.7004 26.8818 80.5522 27.246 80.4534 27.2865C80.2065 27.3675 80.1077 27.6507 79.9348 27.8531H79.8113C79.7125 28.015 79.7126 28.3387 79.4903 28.3792C79.2927 28.4196 79.2927 28.7029 79.2186 28.8648C79.1692 28.8648 79.1445 28.8648 79.0951 28.8648C78.8482 29.1076 78.7 29.5123 78.4036 29.6337V29.7956C78.2802 29.9574 78.1814 30.1193 78.0579 30.2812V30.3217C78.2061 30.524 78.2555 30.2407 78.3543 30.2002C78.453 30.1598 78.5518 30.2407 78.6259 30.1193C78.7 29.9979 78.8482 30.0384 78.9223 29.8765C78.9717 29.7956 79.0951 29.7551 79.2433 29.6742H79.4903C79.6879 29.5528 79.836 29.3504 79.9842 29.3504C80.1571 29.3504 80.2559 29.1481 80.4287 29.1481C80.5275 28.8648 80.7992 29.1076 80.898 28.8243C80.9474 28.8648 80.9721 28.9053 81.0215 28.9862C81.0955 28.8648 81.1943 28.7839 81.2684 28.6624H81.466C81.6142 28.541 81.7623 28.4196 81.9105 28.3387H82.2069C82.3304 28.2578 82.4538 28.1768 82.5526 28.0554C82.6514 27.934 82.7996 28.0959 82.8984 27.934C82.9972 27.7721 83.17 27.8126 83.2441 27.6507H83.7134C83.7628 27.5698 83.8121 27.4889 83.8615 27.4889C84.0838 27.5293 84.232 27.327 84.4049 27.2056C84.4296 27.2056 84.4789 27.1246 84.5036 27.1246C84.7012 27.246 84.7753 26.9223 84.9482 26.9628C84.9976 26.9628 85.0223 26.9628 85.0717 26.9628C85.1211 26.9223 85.1457 26.8414 85.1951 26.8009H85.5656C85.615 26.7604 85.6644 26.6795 85.6891 26.639H85.936C85.9607 26.5986 85.9607 26.5986 85.9854 26.5581C86.0101 26.5176 86.0101 26.5176 86.0348 26.5176C86.183 26.4367 86.3559 26.5176 86.4547 26.3153H86.8745C87.0968 26.1534 87.319 25.9915 87.5413 25.8297C87.566 25.9106 87.6154 26.032 87.6648 26.1939C87.6895 26.0725 87.7142 25.9915 87.7389 25.9106C88.0599 25.6678 88.4304 25.425 88.8008 25.1417H89.3935C89.4923 24.8584 89.6899 24.8179 89.8874 24.6561H90.2085C90.2579 24.6156 90.3073 24.5347 90.3567 24.4942H90.7271C90.7518 24.5347 90.8012 24.5751 90.8506 24.6561C90.9247 24.5751 91.0235 24.5347 91.147 24.4133C91.147 24.3728 91.1717 24.2919 91.2211 24.1704C91.3198 24.1704 91.3939 24.1704 91.4927 24.13C91.5668 23.9276 91.7397 24.0086 91.8632 23.9681C91.8879 23.9276 91.9126 23.8872 91.9619 23.8467C92.0113 23.8872 92.0854 23.9276 92.1595 24.0086C92.3324 23.8872 92.5053 23.7658 92.6781 23.6848C92.7275 23.6444 92.8016 23.6848 92.9251 23.6848C93.0239 23.5634 93.1474 23.3611 93.2955 23.1587C93.4684 23.1183 93.3696 23.4015 93.4684 23.4825C93.5919 23.3611 93.7154 23.2397 93.6907 22.9969H94.1105C94.1599 23.0778 94.2093 23.1183 94.2587 23.1992C94.3081 23.1587 94.4069 23.1587 94.4069 23.1183C94.4069 22.8755 94.5304 22.7945 94.6291 22.6731C94.8267 22.6326 94.7279 22.9159 94.8267 22.9969C94.9008 22.835 94.9996 22.6731 95.0737 22.4708C95.1478 22.5112 95.1972 22.5112 95.2713 22.5517C95.2219 22.6731 95.1725 22.7945 95.1478 22.8755C95.2466 23.1183 95.37 22.9969 95.5182 22.9969C95.5182 22.9159 95.5429 22.835 95.5429 22.754C95.5923 22.6731 95.6417 22.5922 95.7158 22.5112H96.0615C96.1109 22.4708 96.1603 22.3898 96.2097 22.3494H96.4567C96.5555 22.4303 96.5061 22.5922 96.5308 22.7945C96.432 22.8755 96.3332 22.9564 96.2591 22.9969C96.3826 23.3206 96.5802 23.0778 96.6543 23.2801C96.6049 23.3611 96.5802 23.4015 96.5308 23.4825C96.5308 23.5634 96.5308 23.6039 96.5308 23.6848C96.5802 23.7253 96.6296 23.7253 96.7036 23.7658C96.753 23.9681 96.8518 24.1704 97 24.3323C96.9012 24.6561 96.5802 24.6156 96.4814 24.9393C96.3579 25.0203 96.2344 24.8989 96.1356 25.0608C96.1603 25.1012 96.185 25.1417 96.185 25.1417C96.3826 25.1417 96.6049 25.1417 96.8024 25.1417C96.8518 25.2226 96.9012 25.3036 96.9753 25.3845V25.7082C96.9259 25.7892 96.8765 25.8701 96.8024 25.9511H96.5061C96.4814 25.9106 96.432 25.8701 96.4073 25.8297C96.3826 25.8701 96.3332 25.9106 96.3332 25.9106C96.3579 26.1129 96.2097 26.1939 96.1356 26.3153C95.9381 26.2748 95.8887 26.5581 95.7158 26.6795C95.6417 26.639 95.5676 26.5581 95.4935 26.5176C95.4194 26.639 95.4688 26.8009 95.4441 26.9223C95.2466 27.0437 95.0737 27.2056 94.8514 27.3675C94.802 27.2865 94.7032 27.1651 94.6291 27.0437L94.6045 27.0842C94.6045 27.3675 94.6045 27.6507 94.6045 27.934C94.4316 28.015 94.2834 28.2578 94.0364 28.1768C93.9623 28.2982 93.8883 28.4196 93.8389 28.541H93.5672C93.5178 28.5006 93.4684 28.4196 93.419 28.3387C93.3696 28.3387 93.3202 28.3792 93.2462 28.4196C93.2955 28.5006 93.3449 28.541 93.3943 28.622C93.3449 28.7029 93.2955 28.8243 93.2215 28.8243C92.9992 28.9053 92.8263 29.1481 92.5794 29.229C92.53 29.3099 92.4559 29.4313 92.3818 29.5123C92.3571 29.5123 92.3077 29.5528 92.2583 29.5528C92.1348 29.5932 91.9619 29.4718 91.8632 29.7146C91.6162 29.6742 91.3939 30.0384 91.147 29.917C90.9741 30.1598 90.7271 30.1598 90.653 30.4431C90.5049 30.524 90.4555 30.3217 90.3814 30.2812H90.1344C90.0603 30.4026 89.9862 30.4835 89.9121 30.6049H89.5664C89.517 30.6454 89.4676 30.7263 89.4182 30.7668C89.27 30.6454 89.2206 30.4431 89.1466 30.2002C89.1219 30.4026 89.0972 30.5645 89.0972 30.7263C88.9737 30.7668 88.8502 30.8477 88.7267 30.6454C88.8255 30.5645 88.9243 30.4431 89.0231 30.3621C88.9243 30.2002 88.8008 30.2812 88.7267 30.2407C88.6773 30.3217 88.6279 30.3621 88.5785 30.4431H88.3316C88.2328 30.6049 88.2575 30.8477 88.0599 30.9287C88.0352 30.8882 88.0105 30.8477 87.9611 30.7668C87.9117 30.7668 87.7883 30.7263 87.7389 30.7668C87.6154 30.9692 87.4425 30.8882 87.2696 30.9692C87.2943 31.0501 87.3437 31.0906 87.3684 31.1715C87.3684 31.2524 87.3684 31.3334 87.3931 31.5357C87.3437 31.5762 87.2696 31.6976 87.1955 31.7785C87.1708 31.6571 87.1709 31.5762 87.1462 31.5357C87.1955 31.4548 87.2449 31.4143 87.2696 31.3334C87.1709 31.2524 87.0721 31.1715 86.9733 31.131C86.8745 31.2929 86.6275 31.212 86.5781 31.5357C86.6275 31.5762 86.7016 31.6166 86.7757 31.6571C86.7757 31.7381 86.7757 31.7785 86.7757 31.819C86.7016 32.0213 86.5534 31.8595 86.43 31.9809C86.43 32.0213 86.4053 32.1023 86.4053 32.1832C86.2324 32.2641 86.0842 32.4665 85.8619 32.426C85.8125 32.3855 85.7879 32.3046 85.7385 32.2641C85.5409 32.426 85.3186 32.5474 85.047 32.7498H84.4543C84.4296 32.8712 84.4296 32.9116 84.4049 33.033C84.3555 33.114 84.3061 33.1949 84.232 33.2759C84.1332 33.2354 84.1826 33.114 84.1332 32.9926C84.0838 32.9926 84.0344 32.9521 83.9603 32.9521C83.9356 33.0735 83.9109 33.1544 83.8862 33.2759C83.8615 33.2759 83.8615 33.3163 83.8368 33.3163C83.5899 33.3163 83.3429 33.3163 83.096 33.3163C83.0466 33.4377 82.9478 33.4782 82.849 33.5187C82.7502 33.5591 82.7008 33.721 82.6267 33.8019H82.2316C82.1575 33.9233 82.0834 34.0448 82.034 34.1662H81.7377C81.6883 34.2066 81.6389 34.2876 81.5895 34.328H81.3425C81.2931 34.409 81.2437 34.4494 81.219 34.4899H80.9474C80.9227 34.5304 80.8733 34.5708 80.7992 34.6518H80.4287C80.2806 34.8946 80.1324 35.1374 80.0089 35.3397H79.5644C79.4903 35.4612 79.4162 35.5421 79.3421 35.6635C79.2927 35.623 79.268 35.5826 79.2186 35.5016C79.1939 35.5421 79.1445 35.5826 79.0951 35.6635C79.0457 35.623 79.0211 35.5421 78.9717 35.5016H78.7988C78.7741 35.3802 78.8482 35.2183 78.7247 35.1779C78.6753 35.4207 78.6753 35.4207 78.7988 35.5016C78.7 35.7849 78.5271 35.9468 78.3296 36.0682C78.2061 36.1491 78.1073 36.1491 77.9838 36.1896C77.9097 36.2705 77.8356 36.3919 77.7368 36.5133H77.3417C77.317 36.6347 77.317 36.6752 77.2923 36.7966C77.2429 36.8775 77.1935 36.9585 77.1194 37.0394H76.8725C76.8231 37.0799 76.7737 37.1608 76.7243 37.2013H76.3538C76.3045 37.2418 76.2551 37.3227 76.2304 37.3632H76.0328C75.4648 37.7679 74.9215 38.1321 74.3287 38.5772H74.0571C73.9583 38.6177 73.8842 38.6986 73.7854 38.7391C73.6866 38.7796 73.6619 38.9414 73.5385 38.901C73.4397 38.8605 73.3409 38.9414 73.2668 39.0628H72.7729C72.7235 39.1033 72.6741 39.1842 72.6247 39.2247H72.1061C72.032 39.1033 71.9579 38.9414 71.8591 38.7391C71.6615 38.6177 71.5134 38.901 71.3158 38.9819V39.1438C71.0935 39.3057 70.8713 39.4675 70.649 39.6294C70.6243 39.508 70.5996 39.3866 70.5749 39.3057C70.5008 39.1843 70.3773 39.2652 70.2785 39.2247C70.2538 39.1438 70.2291 39.0224 70.2045 38.9414C70.081 38.9819 70.0316 39.1438 69.9575 39.2247C69.7105 39.2652 69.7105 39.2652 69.513 39.4271C69.4883 39.4271 69.4636 39.4271 69.4636 39.4271C69.3154 39.1438 69.0437 39.1033 68.8955 38.82C68.9449 38.7796 68.9696 38.6986 69.0437 38.6177C68.9696 38.4153 68.8708 38.1725 68.7968 37.9297C68.8215 37.8893 68.8462 37.8488 68.8955 37.8083V36.7157C68.7227 36.5943 68.5251 36.7157 68.2534 36.5943C68.2287 36.5538 68.1794 36.4324 68.1053 36.311C67.9818 36.4324 68.0312 36.5538 68.0312 36.6752C68.0065 36.6347 67.9571 36.6347 67.9077 36.5943V35.704C67.9324 35.6635 67.9571 35.623 67.9571 35.623C68.13 35.623 68.2781 35.623 68.451 35.623C68.4757 35.6635 68.5004 35.704 68.5498 35.7444C68.7227 35.6635 68.9449 35.5826 68.9943 35.3397C69.0437 35.1374 69.2166 34.9351 69.0931 34.6518C69.0684 34.6518 69.0437 34.6113 69.019 34.5304C69.0684 34.3685 69.1178 34.2066 69.1672 34.0852C69.2907 34.0448 69.3648 34.1662 69.4142 34.2471H69.6858C69.6858 34.1662 69.7352 34.0852 69.7105 34.0043C69.6858 33.8829 69.5623 33.8829 69.587 33.721H69.7599C69.9081 33.5996 69.9328 33.3568 70.0316 33.1949C70.1304 33.033 70.1798 32.8712 70.2538 32.7093C70.3279 32.507 70.3773 32.3046 70.5255 32.1832C70.5749 32.1832 70.649 32.1832 70.6984 32.1427C70.7231 32.2641 70.6984 32.3855 70.8219 32.2641C70.7972 32.2237 70.7478 32.1832 70.6984 32.1427C70.7478 32.0618 70.7725 31.9809 70.8219 31.8595C70.8219 31.819 70.8219 31.7381 70.8219 31.5762C70.7972 31.6571 70.9206 31.6166 70.9206 31.6976C70.9453 31.7785 70.97 31.8999 70.9947 31.9809H71.1429C71.1676 31.8999 71.1676 31.7785 71.217 31.6976C71.2664 31.6166 71.3405 31.5357 71.3158 31.4143C71.2911 31.3738 71.2664 31.3334 71.217 31.2929C71.0935 31.3738 70.9453 31.4548 70.8219 31.6166C70.7231 31.6571 70.6243 31.6571 70.5008 31.6571C70.4761 31.7381 70.4514 31.8595 70.4267 31.9809H70.0563C69.9081 32.1427 69.8093 32.3046 69.6611 32.3855C69.513 32.4665 69.4142 32.7093 69.3154 32.8712H69.0684C68.9202 33.1949 68.6239 33.2354 68.4757 33.5187C68.3522 33.5591 68.1794 33.4782 68.1053 33.721H67.8583C67.7348 34.0448 67.4138 34.0448 67.2656 34.409H66.8704C66.8211 34.5304 66.747 34.6923 66.747 34.7327C66.5988 34.7732 66.5247 34.8137 66.4753 34.8137C66.4753 34.9755 66.4506 35.0969 66.4506 35.2183C66.3518 35.2993 66.2036 35.2993 66.1543 35.4612C66.1049 35.6635 65.932 35.5421 65.8579 35.704V35.8658C65.7591 35.9468 65.6603 36.0277 65.5368 36.1086C65.3887 36.0277 65.3887 35.7849 65.2899 35.5826C65.2652 35.7849 65.2405 35.9063 65.2158 36.1086C65.1664 36.1086 65.0923 36.1491 65.0429 36.1491C64.9194 36.311 64.8206 36.4729 64.6972 36.6347C64.5737 36.7157 64.5243 36.5943 64.4502 36.4729C64.2526 36.5943 64.2773 36.9585 64.1045 37.1204C63.981 37.0799 63.9316 36.918 63.8575 36.8371C63.7093 36.918 63.8328 37.1608 63.7587 37.2822C63.6846 37.4036 63.5611 37.3227 63.4623 37.3632C63.3142 37.5655 63.1413 37.8083 62.9931 38.0107C62.919 38.0511 62.8696 38.0511 62.8202 38.0916C62.7462 38.1725 62.8449 38.4153 62.6721 38.4153C62.6474 38.4153 62.6227 38.4153 62.6227 38.4153C62.4745 38.6986 62.2028 38.7391 62.0547 39.0224V39.1843C61.8324 39.3461 61.6101 39.508 61.2644 39.7508C61.2644 39.7508 61.1409 39.9127 61.0421 40.115C60.9433 40.3174 60.7458 40.2769 60.647 40.4792C60.5482 40.6816 60.3506 40.6411 60.2518 40.8435C60.1777 41.0053 60.0789 41.1267 59.9308 41.2077C59.7826 41.2481 59.6344 41.3291 59.5356 41.5314C59.4368 41.7338 59.2393 41.6933 59.1405 41.8956C59.0911 41.8552 59.0417 41.7742 58.9923 41.7338C58.8194 41.7742 58.696 42.017 58.4984 41.9361C58.4737 41.9766 58.4737 42.0575 58.449 42.098C58.449 42.1385 58.449 42.1385 58.449 42.1789C58.2761 42.2599 58.1279 42.5027 57.8563 42.4217C57.7575 42.5836 57.6587 42.7859 57.5352 42.9883C57.5105 42.9478 57.5105 42.9478 57.4858 42.9073C57.4117 42.9883 57.3377 43.0692 57.2389 43.1097C57.1401 43.1502 57.0413 43.0692 56.9672 43.1906V43.2311C56.8684 43.312 56.7696 43.393 56.6462 43.4739C56.5721 43.4334 56.5474 43.2716 56.3992 43.3525C56.3498 43.2311 56.3251 43.1097 56.2757 42.9883H56.1522C56.0287 43.1502 56.1275 43.3525 56.1028 43.5548C56.1275 43.5953 56.1769 43.6763 56.2263 43.7572C56.0781 43.8786 55.93 43.8381 55.7818 43.7977C55.7571 43.7572 55.7571 43.7167 55.7324 43.6358C55.7818 43.6358 55.8559 43.6358 55.9053 43.6358C55.93 43.6358 55.9547 43.5953 55.9547 43.5953C55.9547 43.5548 55.93 43.4739 55.9053 43.4739C55.8559 43.4739 55.7818 43.4739 55.7324 43.4739C55.7077 43.4334 55.7077 43.3525 55.683 43.3525C55.6089 43.312 55.6089 43.393 55.6089 43.4739C55.5348 43.5144 55.436 43.393 55.3866 43.5548C55.3372 43.7167 55.1891 43.5953 55.1397 43.7167C55.0656 43.8786 54.9668 43.7977 54.868 43.8381C54.7939 43.8786 54.7445 43.9191 54.6704 43.9595C54.6457 43.9191 54.6211 43.8786 54.5717 43.8381C54.4976 43.8786 54.4235 43.9595 54.3494 44C54.2753 43.9191 54.2506 43.8786 54.2012 43.7977H53.9543C53.9049 43.8381 53.8802 43.9191 53.8061 44C53.7073 43.9191 53.6085 43.8786 53.5097 43.7977C53.4603 43.8381 53.4109 43.8786 53.3368 43.9595C53.3615 43.9595 53.3368 43.9595 53.3368 43.9595C53.2628 43.7167 53.0405 43.8786 52.9664 43.7572C52.8429 43.5953 52.6947 43.6358 52.596 43.6358C52.3984 43.3525 52.6947 43.312 52.67 43.1097C52.6453 42.9478 52.5219 42.9074 52.4972 42.7859H52.2502C52.1267 42.6645 52.0773 42.5027 52.0279 42.3003C52.0032 42.1385 51.8304 42.098 51.8304 41.8956C51.9538 41.8956 51.9785 41.6933 52.0773 41.6528C52.0032 41.5719 51.9538 41.491 51.9045 41.3695C51.8304 41.3695 51.7563 41.3696 51.6081 41.3291C51.5834 41.2886 51.534 41.1672 51.4599 41.0458C51.534 40.9244 51.6328 41.0053 51.7563 40.9649C51.8057 40.8839 51.8798 40.803 51.9538 40.6816C51.9045 40.5602 51.8798 40.4388 51.8304 40.3578C51.9785 40.1555 52.0279 40.3983 52.1267 40.4792H52.3737C52.4478 40.3983 52.4972 40.3174 52.5466 40.2364C52.4725 40.196 52.3737 40.115 52.2996 40.0746C52.3243 40.0341 52.3737 39.9936 52.4231 39.9127C52.4231 39.8317 52.4231 39.6699 52.4478 39.5485C52.4972 39.4675 52.5713 39.3866 52.6206 39.3057H52.8676C52.9664 39.0628 52.9664 39.0628 52.8182 38.9414C52.8429 38.901 52.8429 38.82 52.8676 38.82C52.9664 38.7796 53.0652 38.7796 53.164 38.7796C53.164 38.6986 53.1887 38.6177 53.1887 38.4963C53.0652 38.4558 52.9664 38.4558 52.8429 38.4153C52.8429 38.3749 52.8676 38.2939 52.8676 38.2939C52.9911 38.2939 53.0652 38.213 53.1146 38.0916C53.1887 37.9297 53.2874 37.8893 53.4356 37.8893C53.3615 37.7679 53.3368 37.7274 53.2874 37.6464C53.3615 37.606 53.4356 37.5655 53.5097 37.525C53.5838 37.3227 53.5097 37.0799 53.5344 36.8775H53.732C53.7814 36.7966 53.8308 36.7157 53.9049 36.6347C53.8555 36.5538 53.8061 36.4729 53.7567 36.3919H53.485C53.4356 36.4729 53.3862 36.5538 53.3121 36.6347V36.999C53.2628 37.0799 53.1887 37.1204 53.1146 37.2013C52.917 37.2013 52.7441 37.3632 52.5713 37.4846C52.5713 37.5655 52.5713 37.6465 52.5713 37.7274C52.5466 37.7274 52.4725 37.7679 52.4725 37.7679C52.4725 37.9702 52.5466 38.0107 52.596 37.9702C52.6453 38.0511 52.67 38.1321 52.7194 38.2535C52.6206 38.3749 52.5219 38.5368 52.4231 38.6582C52.2749 38.6986 52.1267 38.6177 52.0032 38.6986C52.0279 38.8605 52.2255 38.9819 52.0279 39.1438C52.0032 39.1033 51.9785 39.0628 51.9291 39.0224C51.8057 39.0628 51.7563 39.2247 51.6575 39.3461C51.5834 39.2652 51.5093 39.1843 51.4599 39.1033C51.4846 38.9819 51.5093 38.901 51.534 38.82C51.5834 38.901 51.6328 38.9414 51.6822 38.9819C51.7316 38.901 51.8057 38.82 51.8551 38.7391V38.4963C51.9538 38.3749 52.0773 38.213 52.2255 38.0511C52.2008 38.0107 52.1514 37.9702 52.1514 37.9297C52.2996 37.7274 52.4231 37.5655 52.6206 37.2822C52.6947 37.2822 52.8182 37.1608 52.8429 36.918C52.8676 36.7561 52.9417 36.6347 53.0899 36.5943C53.1146 36.7157 53.0405 36.8775 53.164 36.918C53.2134 36.6752 53.2134 36.6752 53.0899 36.5943C53.0899 36.5133 53.0652 36.4324 53.0899 36.3515C53.1887 36.1491 53.2874 35.9063 53.3862 35.7444C53.485 35.7444 53.5344 35.7444 53.5838 35.7444C53.6085 35.9063 53.6826 35.9872 53.7814 36.0682C53.8555 35.9468 53.8555 35.8254 53.7567 35.7444H53.5838V35.4612C53.6826 35.4207 53.8061 35.4207 53.9296 35.3802C53.9296 35.2993 53.9543 35.2183 53.9789 35.1374C54.0283 35.0969 54.1271 35.0969 54.1765 35.016C54.2506 34.9351 54.3 34.8541 54.3988 34.8946C54.5223 35.016 54.4482 35.1779 54.4482 35.3397C54.4235 35.3802 54.3988 35.4207 54.3741 35.4612V36.0682C54.4235 36.0277 54.4482 36.0277 54.4729 36.0277C54.5717 35.9063 54.6458 35.7849 54.7198 35.6635C54.6704 35.5826 54.6458 35.5421 54.5964 35.4612C54.5964 35.3802 54.5964 35.3397 54.6211 35.2993C54.7445 35.1374 54.9421 35.3397 55.0903 35.1779C55.0656 35.1374 55.0162 35.0565 54.9915 35.016C55.0409 34.7732 55.2385 34.8137 55.3372 34.6518V34.4899C55.2879 34.409 55.2138 34.328 55.1644 34.2471C55.115 34.2876 55.0903 34.3685 55.0409 34.409C54.9915 34.3685 54.9668 34.2876 54.9174 34.2471C54.8186 34.3685 54.868 34.5304 54.868 34.6518C54.8186 34.7327 54.7692 34.8137 54.7198 34.8946C54.5964 34.8137 54.4976 34.7327 54.3741 34.6518C54.4235 34.409 54.4235 34.409 54.5717 34.2471C54.6211 34.2876 54.6457 34.3685 54.6951 34.409C54.7939 34.2876 54.7198 34.1257 54.7692 33.9638C54.8186 33.8829 54.9174 33.7615 54.9915 33.6401V33.4782C55.0656 33.3973 55.1891 33.3973 55.2385 33.2759C55.3372 33.114 55.4854 33.3163 55.5595 33.1544C55.6336 32.9926 55.7571 33.0735 55.8065 32.9926C55.8312 32.9116 55.8312 32.8307 55.8559 32.7498C55.93 32.7093 56.004 32.6688 56.0781 32.6284C56.0287 32.507 55.9794 32.3855 55.93 32.2237C56.0781 32.1832 56.2016 32.1427 56.3251 32.1023C56.3251 32.0213 56.3498 31.9404 56.3498 31.8595C56.4239 31.7381 56.5227 31.819 56.6708 31.7785C56.7449 31.6571 56.8437 31.4952 56.9425 31.2929V31.0906C57.0907 30.8882 57.1648 30.6049 57.4117 30.6049C57.4364 30.524 57.4364 30.4431 57.4611 30.3217C57.5352 30.2002 57.634 30.2812 57.7575 30.2407C57.8069 30.3217 57.881 30.4026 57.9304 30.4835C57.881 30.7263 57.7575 30.8073 57.5352 30.7668C57.6093 31.0096 57.6587 31.131 57.7328 31.2524C57.6587 31.2929 57.5599 31.2524 57.634 31.4143C57.6587 31.3738 57.6834 31.3334 57.7328 31.2524C57.8069 31.212 57.9057 31.131 58.0538 31.0096C58.0538 30.9287 58.0785 30.7668 58.1032 30.6049C58.1032 30.5645 58.1773 30.5645 58.202 30.524C58.2267 30.6454 58.202 30.7668 58.3255 30.6454C58.3008 30.6049 58.2514 30.5645 58.202 30.524C58.1526 30.2812 57.9798 30.1598 57.8316 29.917C57.9057 29.8765 57.9551 29.836 58.0785 29.7551C58.1032 29.7551 58.2267 29.836 58.3255 29.917C58.3502 30.0384 58.2761 30.2002 58.3996 30.3621C58.4737 30.1598 58.5231 29.9979 58.5725 29.7956C58.5725 29.7956 58.5725 29.7551 58.5478 29.7146C58.4737 29.5932 58.3502 29.6742 58.2514 29.6337C58.2267 29.5932 58.202 29.5123 58.202 29.5123C58.3008 29.4313 58.3008 29.2695 58.3008 29.1481C58.3008 29.0671 58.3255 29.0267 58.3749 28.9053C58.4243 29.0671 58.449 29.1481 58.4737 29.2695C58.5972 29.3504 58.6466 29.2695 58.7206 29.1481C58.6466 29.0267 58.5972 28.9457 58.5478 28.8243C58.5725 28.541 58.7453 28.4601 58.8688 28.2578C58.8935 28.2982 58.9182 28.3387 58.9676 28.4196H59.2393C59.3134 28.3387 59.3628 28.2578 59.4121 28.1768C59.3628 28.0959 59.3381 28.0554 59.2887 28.015C59.264 27.8531 59.3381 27.8126 59.3874 27.6912C59.4368 27.6103 59.4368 27.4889 59.4615 27.4079H59.6097C59.6591 27.2865 59.7332 27.2056 59.7826 27.0842C59.8814 26.8414 59.8814 26.8818 60.0543 26.72C60.2271 26.5581 60.4741 26.5176 60.5729 26.1939C60.647 26.1939 60.6964 26.1939 60.7704 26.1534C60.7951 26.2748 60.7704 26.3962 60.8939 26.2748C60.8692 26.2343 60.8198 26.1939 60.7704 26.1534C60.7704 26.032 60.7704 25.9106 60.7704 25.7487C60.8692 25.6678 60.9927 25.5868 61.1162 25.4654H61.5113V25.7487C61.4372 25.7892 61.3385 25.8701 61.2644 25.9106C61.2891 25.9915 61.2891 26.0725 61.3138 26.1939C61.4619 26.1129 61.6101 26.032 61.7336 25.9511C61.7583 25.8701 61.783 25.7487 61.8077 25.6678H62.0794C62.2028 25.344 62.351 25.0608 62.4745 24.9798C62.5733 24.9393 62.6721 25.0203 62.7462 24.8989V24.6965C63.166 24.5751 63.2648 24.0086 63.413 23.6039C63.4623 23.6039 63.5117 23.6039 63.5611 23.6039C63.6846 23.3206 63.9563 23.2397 63.981 22.835C64.1292 22.5922 64.3514 22.3898 64.4008 22.0661H64.6725C64.6972 21.9042 64.7219 21.7423 64.8206 21.6209C64.8453 21.5805 64.8206 21.4591 64.7959 21.3781C64.6725 21.4995 64.5737 21.6209 64.4502 21.7019C64.3267 21.7828 64.1785 21.9447 64.0057 21.8637C63.9316 22.0256 63.734 21.9851 63.734 22.1066C63.6846 22.3089 63.5858 22.4303 63.5117 22.5922C63.4377 22.754 63.3883 22.9159 63.3389 23.0778C63.2895 23.2397 63.2154 23.4015 63.166 23.5634C63.1166 23.523 63.0672 23.442 63.0425 23.4015C62.9931 23.4825 62.919 23.5634 62.8696 23.6444C62.8696 23.8467 62.8449 24.0086 62.8449 24.2514C62.7215 24.2514 62.6474 24.2919 62.5486 24.2919C62.4992 24.3728 62.4251 24.4537 62.3757 24.5347C62.3757 24.5751 62.3757 24.6561 62.3757 24.6965C62.104 24.8179 61.9065 25.1012 61.8324 25.4654H61.4372C61.3879 25.344 61.3385 25.1822 61.2891 25.0608C61.3879 24.8989 61.5113 24.9798 61.6101 24.9393C61.6595 24.8584 61.7089 24.7775 61.783 24.6965C61.8077 24.5751 61.783 24.3728 61.8324 24.2919C62.0053 24.13 61.8324 23.7658 62.0547 23.6444C61.9559 23.442 61.8571 23.5634 61.7089 23.5634C61.7089 23.6444 61.6842 23.7253 61.6842 23.8062C61.6101 23.8467 61.5113 23.8872 61.4372 23.9681C61.3385 24.049 61.2891 24.2109 61.1409 24.2109C61.0668 24.2109 60.9927 24.3728 60.9186 24.4942C60.8198 24.6965 60.647 24.6965 60.5235 24.8584C60.4741 24.8989 60.3753 24.8989 60.2518 24.8989C60.153 25.1012 59.9802 25.2226 59.8073 25.344C59.6591 25.425 59.5356 25.5464 59.3874 25.6273C59.264 25.7082 59.1652 25.9106 59.017 25.9915C58.8441 26.1129 58.7206 26.3557 58.5725 26.5581C58.3502 26.72 58.1032 26.8009 57.9057 27.0032C57.8069 27.0842 57.6587 27.2056 57.7328 27.4889H57.5352C57.4364 27.6103 57.3623 27.7721 57.2636 27.8935C57.1895 28.0149 57.1154 28.1364 56.9672 28.1768C56.819 28.1768 56.7943 28.5006 56.6462 28.5006C56.498 28.5006 56.4733 28.7029 56.3745 28.7839C56.251 28.8648 56.1275 28.9457 56.004 29.0267C55.9053 29.1076 55.8065 29.1885 55.6583 29.2695C55.5842 29.3909 55.4607 29.5123 55.3866 29.6742C55.2385 29.9574 54.9668 29.9979 54.8186 30.2812C54.6704 30.5645 54.3988 30.6049 54.2506 30.8882C54.2012 31.0096 54.0777 30.9692 54.0036 31.0501C53.9049 31.131 53.8061 31.1715 53.7073 31.2929C53.6085 31.4143 53.5344 31.5762 53.3862 31.6166C53.2628 31.6571 53.2134 31.8999 53.0652 31.9404C52.9417 31.9809 52.8182 32.1023 52.7194 32.1832V32.3855C52.6206 32.426 52.4725 32.3855 52.3984 32.4665C52.3243 32.5474 52.2008 32.5474 52.1514 32.6284C52.0773 32.7902 51.9291 32.7093 51.8551 32.8712C51.8057 32.9926 51.7069 33.0735 51.6328 33.1949C51.6328 33.2354 51.6328 33.3163 51.6328 33.3568C51.5093 33.4377 51.4105 33.5187 51.287 33.6401C51.2623 33.6401 51.2377 33.6401 51.2377 33.6401H51.1142C50.9907 33.8424 50.8672 34.0043 50.7931 34.1662H50.4968C50.398 34.328 50.2992 34.4494 50.2004 34.6113V34.8137C50.0522 34.8946 49.8794 34.9755 49.7312 35.0969C49.6077 35.2183 49.5089 35.4207 49.4101 35.5826H49.0891C49.015 35.7444 48.9903 35.9468 48.8421 36.0682C48.7927 36.0682 48.6939 36.0682 48.6198 36.0682C48.6198 36.0682 48.5951 36.0682 48.5704 36.1086C48.4223 36.4324 48.1012 36.4324 48.0024 36.7561C47.9283 36.6752 47.8543 36.6347 47.7555 36.5133C47.6814 36.6752 47.6073 36.8371 47.5826 36.918H47.2615C47.2121 37.2013 47.064 37.4036 46.8664 37.5655C46.7923 37.6464 46.7182 37.6869 46.6194 37.7679C46.5947 37.7274 46.57 37.6869 46.5206 37.6464C46.4219 37.8488 46.2984 38.0511 46.249 38.1321H45.9032C45.7798 38.2939 45.681 38.4558 45.5575 38.6177C45.2858 38.6986 45.113 39.0224 44.7919 38.9819C44.7178 39.1033 44.619 39.2247 44.5449 39.3057H44.298C44.1745 39.4675 44.051 39.6294 43.9522 39.7913C43.8287 39.8722 43.6559 39.6699 43.6065 39.9936H42.1247C42.0753 40.0341 42.0259 40.115 41.9765 40.1555H41.6061C41.5567 40.196 41.5073 40.2769 41.4579 40.3174C41.4332 40.196 41.4085 40.115 41.3838 39.9936C41.3344 39.9936 41.285 39.9936 41.2356 39.9936C41.1368 40.115 41.1862 40.2769 41.1862 40.3983C41.1615 40.4388 41.1368 40.4792 41.0874 40.4792C40.9146 40.4792 40.7664 40.4792 40.6182 40.4792C40.5194 40.3578 40.4453 40.2364 40.3713 40.1555C40.2478 40.3174 40.3466 40.5602 40.2972 40.7221C40.2231 40.8435 40.1737 40.9244 40.1243 41.0053C40.0749 40.9649 40.0008 40.9649 39.9267 40.9244C39.9761 40.8435 40.0255 40.7625 40.0502 40.7221C39.9267 40.5197 39.7538 40.7221 39.581 40.6006C39.581 40.5602 39.5563 40.4792 39.5563 40.3983C39.6057 40.3174 39.6304 40.2769 39.7045 40.196C39.6304 40.1555 39.581 40.1555 39.5316 40.115C39.4822 40.2364 39.4575 40.3578 39.4081 40.4792C39.3834 40.4388 39.3587 40.3983 39.2846 40.3174C39.1364 40.2364 38.9636 40.3578 38.766 40.2769C38.7166 40.196 38.6672 40.115 38.5931 40.0341C38.6178 39.9127 38.7166 39.9127 38.7166 39.7508C38.8401 39.6294 38.8401 39.6294 38.7907 39.4271C38.6672 39.508 38.7413 39.6294 38.7166 39.7508H38.5437C38.3955 39.3866 38.2721 38.9819 38.1239 38.6177C38.2474 38.4153 38.4202 38.6177 38.5684 38.5368C38.6425 38.4153 38.5931 38.2939 38.519 38.1725C38.4449 38.0511 38.4696 38.0107 38.5931 37.8893C38.7413 37.8083 38.7907 38.2535 38.9636 37.9702C38.9389 37.9297 38.9142 37.8488 38.8648 37.8083C38.9142 37.606 39.1858 37.525 39.087 37.2013C39.2352 37.1608 39.334 37.1608 39.4328 37.1608C39.4328 37.0799 39.4575 36.999 39.4575 36.918C39.3834 36.8371 39.334 36.7561 39.2846 36.6752C39.1858 36.7157 39.1611 36.918 39.0377 36.7966C38.9142 36.6752 38.9883 36.5133 38.9883 36.3515C38.9883 36.311 39.0623 36.311 39.087 36.2705C39.1117 36.3919 39.087 36.5133 39.2105 36.3919C39.1858 36.3515 39.1364 36.311 39.087 36.2705C39.087 36.1491 39.087 36.0277 39.087 35.8658C39.1611 35.8254 39.2105 35.7849 39.2846 35.7849C39.3587 35.6635 39.3093 35.5016 39.334 35.3802C39.3834 35.2993 39.4081 35.2588 39.4575 35.2183V35.0565C39.4328 35.016 39.4081 34.9755 39.4081 35.016C39.2846 35.1374 39.1364 35.1779 38.9883 35.1374C38.9883 35.2588 38.9636 35.3397 38.9636 35.4207C39.0377 35.4612 39.1117 35.5016 39.1858 35.5421C39.1858 35.5826 39.1611 35.6635 39.1611 35.6635C39.013 35.623 38.9636 35.8658 38.8401 35.8658C38.7907 35.7849 38.766 35.6635 38.7166 35.5826V35.2588C38.8895 35.1374 38.7907 34.7732 39.0377 34.6923C39.0623 34.7327 39.087 34.7732 39.1364 34.8137C39.1858 34.7732 39.2105 34.6923 39.2599 34.6518H39.5069C39.5316 34.7327 39.5563 34.8541 39.581 34.9755C39.6798 34.8946 39.8032 34.8137 39.902 34.7732C39.8526 34.6113 39.6798 34.5304 39.6551 34.328H40.0008C40.0008 34.2471 40.0255 34.1257 40.0502 34.0448C39.9761 34.0043 39.902 34.0043 39.8279 34.0043C39.8032 33.9638 39.7785 33.9233 39.8279 33.8829C39.9514 33.721 39.9267 33.3973 40.1737 33.3163C40.2231 33.3568 40.2725 33.3973 40.3466 33.4782C40.47 33.2354 40.6182 32.9521 40.7664 32.6688V32.3855C41.0628 32.1832 41.0628 32.1832 41.1862 31.7785C41.2356 31.819 41.285 31.8999 41.3097 31.9404C41.5073 31.819 41.6802 31.6571 41.8777 31.5357V31.1715C41.9518 31.131 42.0259 31.0906 42.1 31.0501C42.1 30.9692 42.1247 30.8882 42.1247 30.8073C42.1741 30.7263 42.2235 30.6454 42.2976 30.5645C42.3964 30.5645 42.4951 30.5645 42.5939 30.524C42.6186 30.3621 42.6186 30.2407 42.6186 30.0788C42.8656 29.917 43.0879 29.7551 43.3348 29.5932C43.2854 29.5123 43.2607 29.4718 43.2113 29.3909C43.3595 29.1076 43.6559 29.1076 43.7547 28.7839H44.0263C44.051 28.7029 44.051 28.5815 44.1004 28.5006C44.1498 28.3792 44.2486 28.2982 44.3227 28.2173C44.2733 28.1364 44.2486 28.0959 44.1745 28.015C44.298 27.9745 44.4215 27.9745 44.5202 27.934C44.5449 27.8531 44.5449 27.7721 44.5696 27.6912C44.6931 27.5293 44.7919 27.3675 44.9401 27.2056C44.8907 27.1651 44.8166 27.1246 44.7919 27.1246C44.6684 27.2056 44.5202 27.246 44.4462 27.4079C44.2239 27.7721 43.8534 27.8935 43.6806 28.3387C43.6065 28.2578 43.5818 28.2173 43.5324 28.1768C43.5077 28.2173 43.483 28.2578 43.4583 28.2578C43.3348 28.3387 43.2113 28.4196 43.0879 28.5006C43.0632 28.5006 43.0385 28.5006 43.0385 28.5006C42.8903 28.7029 42.7174 28.9457 42.5692 29.1885C42.4704 29.1481 42.3964 29.2695 42.3223 29.3504C42.1741 29.3099 42.1247 29.5123 42.0259 29.5932C41.9518 29.6742 41.853 29.7146 41.7789 29.7956C41.7789 29.836 41.7789 29.917 41.7789 29.9574C41.3344 30.2812 40.8652 30.6049 40.4206 30.8882C40.2725 30.8477 40.2478 30.6454 40.1243 30.5645C40.0749 30.6049 40.0255 30.6454 39.9267 30.7263C39.8773 30.6859 39.8032 30.6049 39.7538 30.524C39.7291 30.5645 39.6798 30.6454 39.6304 30.6859H39.3834C39.3587 30.7668 39.334 30.8882 39.3093 30.9692C39.1611 31.131 39.1117 30.8882 39.0377 30.8477C38.9389 30.8477 38.8401 30.8477 38.8648 31.0096H38.3955C38.3462 30.9692 38.2968 30.8882 38.2721 30.8477H38.0004C37.951 30.7263 37.8769 30.6049 37.8275 30.524C37.6053 30.4835 37.5559 30.7263 37.4571 30.8477C37.3336 30.8073 37.4077 30.6859 37.3583 30.5645C37.3089 30.4835 37.1854 30.5645 37.0619 30.4835C37.0619 30.4835 37.0126 30.4026 36.9632 30.3621H36.5433C36.4939 30.2812 36.4445 30.2002 36.3704 30.0788V29.7146C36.2964 29.6337 36.1976 29.5528 36.1235 29.4718C36.1235 29.3504 36.1235 29.3099 36.1235 29.229C36.0988 29.4718 36.0494 29.3909 36 29.3099C36.0494 29.2695 36.0988 29.2695 36.1482 29.229C36.3457 29.3504 36.4198 29.6742 36.6174 29.7146C36.6421 29.836 36.6174 29.9574 36.7409 29.836C36.7162 29.7956 36.6668 29.7551 36.6174 29.7146C36.6174 29.6337 36.6174 29.5528 36.6174 29.4718C36.4939 29.3099 36.3457 29.1885 36.2964 28.9862C36.2223 28.7839 36.1235 28.622 36.0247 28.4601C36.0988 28.2982 36.1729 28.0959 36.247 27.8935V27.6507C36.2964 27.5293 36.3457 27.4484 36.3704 27.3675H36.4939V27.6103C36.5433 27.6912 36.6174 27.7317 36.6915 27.6507C36.7656 27.5698 36.815 27.4889 36.9138 27.5293C36.9632 27.6507 37.0372 27.7721 37.0866 27.934C37.1113 28.0554 37.1113 28.2173 37.136 28.3387C37.2101 28.4601 37.3336 28.3387 37.4077 28.4196C37.4324 28.3387 37.4818 28.2982 37.4818 28.2578C37.4818 27.9745 37.4818 27.6912 37.4818 27.4484C37.5559 27.2865 37.6547 27.3675 37.8275 27.1651C37.8769 27.0842 37.8522 27.2056 37.8522 27.2865C37.8275 27.3675 37.6547 27.327 37.8028 27.4889H38.2227C38.2474 27.2056 38.1486 27.0842 37.8275 27.1246C37.7287 27.2865 37.7287 27.2056 37.7287 27.1246C37.6794 27.0842 37.6547 27.0032 37.6053 26.9628C37.63 26.9223 37.6794 26.8818 37.704 26.8818C37.8522 26.8414 38.0251 26.9628 38.1486 26.72C38.2721 26.6795 38.4449 26.7604 38.519 26.5581C38.6919 26.5986 38.6919 26.4367 38.7413 26.2748C38.766 26.1939 38.8401 26.1129 38.8895 26.032H39.2105H39.2599C39.3093 25.9915 39.3587 25.9106 39.3834 25.8701C39.4328 25.9106 39.4822 25.9915 39.5069 26.032C39.5563 25.9106 39.6798 25.8701 39.6551 25.7082C39.7291 25.6678 39.8279 25.7082 39.7538 25.5464C39.7291 25.5868 39.7045 25.6273 39.6551 25.7082C39.6057 25.6678 39.5069 25.7487 39.4575 25.6273C39.5069 25.4654 39.581 25.3845 39.6798 25.344C39.7785 25.3036 39.8526 25.2226 39.9267 25.1417C39.9514 25.2631 39.9267 25.3845 40.0502 25.2631C40.0255 25.2226 39.9761 25.1822 39.9267 25.1417C39.9514 24.9393 40.0502 24.9798 40.149 25.0203C40.1737 25.1417 40.1984 25.2226 40.2231 25.344C40.3713 25.2631 40.4206 24.9798 40.6182 25.0203C40.717 24.8989 40.8158 24.737 40.9393 24.5751C40.8899 24.4537 40.8405 24.3728 40.8158 24.2514C40.8899 24.13 40.9887 24.0086 41.0874 23.8467C41.1368 23.8062 41.2603 23.8467 41.3097 23.7253C41.3838 23.5634 41.532 23.7658 41.6308 23.6039C41.7049 23.5229 41.8036 23.4825 41.8777 23.4015C41.8283 23.3206 41.8036 23.2801 41.7543 23.1992C41.7543 23.1183 41.7543 23.0778 41.7543 22.9969C41.8036 22.9564 41.853 22.9564 41.9518 22.9159C42.1247 22.6731 42.3223 22.3898 42.5198 22.1066C42.6927 22.1066 42.7915 21.9042 42.915 21.7423C43.0632 21.8233 43.1126 21.54 43.236 21.5805C43.2607 21.5805 43.2854 21.5805 43.3101 21.5805C43.3348 21.4995 43.3595 21.3781 43.3842 21.2972C43.4336 21.2972 43.483 21.2567 43.5571 21.2567C43.6312 21.1758 43.7053 21.0544 43.7794 20.933C43.9028 20.933 44.051 20.933 44.1992 20.8925C44.2239 20.8116 44.2239 20.7306 44.2486 20.6092C44.298 20.5687 44.3721 20.5283 44.4462 20.4878C44.4708 20.4069 44.4709 20.3259 44.4955 20.245C44.6437 20.1641 44.7672 20.0831 44.9648 19.9617C45.3846 19.3547 45.3846 19.3547 45.8291 19.1119C45.8538 19.0309 45.8538 18.95 45.8785 18.9095C46.1996 18.7072 46.496 18.5049 46.817 18.262C47.2615 17.655 47.2615 17.655 47.8049 17.3717C47.7802 17.3313 47.7308 17.2503 47.6814 17.1694C47.7555 17.1289 47.8049 17.1289 47.953 17.048C48.0271 16.9266 48.1259 16.7242 48.2247 16.5624H48.5457C48.6939 16.36 48.8174 16.1982 48.9162 16.0363H49.3854C49.4101 15.9553 49.4348 15.8339 49.4595 15.7125C49.5089 15.7125 49.5583 15.6721 49.6324 15.6721C49.6571 15.5911 49.6818 15.5102 49.6818 15.4293C50.1263 15.1055 50.5462 14.8222 50.9907 14.4985H51.1883C51.3364 14.2961 51.5093 14.0533 51.6328 13.851C51.7563 13.77 51.8304 13.7296 51.9785 13.6486H52.1761C52.2749 13.5272 52.349 13.4058 52.4478 13.2844H52.7688C52.917 13.163 53.0158 13.1225 53.1146 13.0416C53.1146 12.9607 53.1393 12.8797 53.164 12.7583H53.5344C53.5838 12.556 53.6085 12.3536 53.8308 12.2322H54.2259C54.2753 12.1918 54.3247 12.0704 54.3494 12.0704C54.5223 12.1513 54.5717 11.7871 54.7198 11.868C54.8433 11.7062 54.9421 11.5443 55.0656 11.3824C55.115 11.4229 55.1397 11.4633 55.1891 11.5443C55.2385 11.5038 55.2632 11.4229 55.3125 11.3824C55.3619 11.3824 55.436 11.3824 55.4854 11.3419C55.5101 11.4633 55.4854 11.5847 55.6089 11.4633C55.5842 11.4229 55.5348 11.3824 55.4854 11.3419C55.5101 11.3015 55.5101 11.261 55.5348 11.2205C55.683 11.1801 55.8065 11.1396 55.9053 11.3419C55.93 11.3015 55.9794 11.3015 55.9794 11.261C55.9794 11.0182 56.0781 10.9373 56.2263 10.8563C56.3498 10.8563 56.3992 10.8158 56.498 10.7349C56.5968 10.7349 56.7202 10.7349 56.8437 10.7349C56.8684 10.7754 56.8931 10.8158 56.9178 10.8563C56.9425 10.8563 56.9919 10.8968 57.0166 10.8968C57.2883 10.8968 57.5846 10.8968 57.8563 10.8968C57.8563 10.9373 57.8563 11.0182 57.8563 11.0587H57.7328C57.634 11.1396 57.5599 11.2205 57.4858 11.3015C57.6093 11.4633 57.7328 11.4229 57.8563 11.3419C57.8563 11.261 57.8563 11.1396 57.881 11.0587C58.0292 11.0182 58.202 11.0991 58.3502 11.0182C58.3502 10.9777 58.3749 10.9373 58.3749 10.9373C58.2761 10.8158 58.1773 10.654 58.0785 10.4921C58.0292 10.654 58.0045 10.7754 57.9798 10.8563C57.9551 10.8968 57.9057 10.8968 57.881 10.8968C57.8563 10.6944 57.6834 10.6135 57.634 10.4112C57.8316 10.2898 58.0292 10.4112 58.2514 10.3302C58.202 10.2088 58.1526 10.1683 58.1279 10.0874C58.1526 9.96601 58.2267 10.0065 58.3255 10.0065C58.3502 10.0874 58.3749 10.2088 58.3996 10.2898C58.449 10.3302 58.4984 10.3302 58.5725 10.3707C58.6713 10.4921 58.5725 10.654 58.6219 10.7349C58.5725 10.8158 58.5231 10.8563 58.4737 10.9373C58.5478 10.9777 58.5972 10.9777 58.6466 11.0182C58.6959 10.9373 58.7453 10.8968 58.7947 10.8563C58.8441 10.8968 58.8935 10.9777 58.9182 11.0182C59.017 11.0587 59.1158 10.9777 59.2146 11.0991C59.1899 11.1396 59.1405 11.2205 59.0911 11.3015V12.3536C59.1652 12.3941 59.2146 12.4346 59.2887 12.4346C59.3628 12.5965 59.3134 12.7988 59.3381 13.0011C59.3628 13.0416 59.3874 13.0821 59.4368 13.163C59.4368 13.244 59.4368 13.3249 59.4615 13.4463C59.3381 13.7296 59.3381 13.7296 59.3381 13.9724C59.3381 14.0129 59.3381 14.0533 59.3134 14.0533C59.0911 14.2557 59.0911 14.7008 58.8441 14.8627V15.2269C58.77 15.3483 58.696 15.4293 58.5972 15.5507V16.2386C58.4984 16.36 58.4243 16.4814 58.3502 16.5624V17.3313C58.3008 17.4122 58.2761 17.4527 58.2267 17.5336V17.9383C58.1526 18.0192 58.0785 18.1406 57.9798 18.262C57.9551 18.3835 58.0045 18.5453 57.9304 18.6667C57.8563 18.5858 57.8069 18.4239 57.6834 18.5049C57.634 18.6263 57.5846 18.7477 57.5599 18.8691C57.5352 18.95 57.5105 19.0714 57.4611 19.1524C57.4117 19.2738 57.2883 19.3547 57.2636 19.4761C57.2389 19.5975 57.2389 19.6784 57.1648 19.7594C57.0907 19.8403 57.0166 19.9617 56.9425 20.0831C56.8437 20.245 56.6708 20.3259 56.6462 20.6092C56.5227 20.6497 56.4733 20.7711 56.4239 20.8925C56.5227 20.9734 56.5968 21.0139 56.6462 20.852C56.6462 20.7711 56.6462 20.6902 56.6462 20.6092C56.7449 20.5687 56.7696 20.7711 56.9178 20.7711H57.066C57.1648 20.6497 57.0907 20.4878 57.1401 20.3259C57.2389 20.2855 57.387 20.2855 57.4858 20.1641C57.6093 20.0427 57.7328 20.1236 57.8316 20.0427C57.9057 19.9213 57.8563 19.7594 57.881 19.5975C57.9304 19.5975 58.0045 19.5166 58.0291 19.557C58.1279 19.6784 58.2267 19.7189 58.3255 19.7594C58.3502 19.7594 58.3502 19.8403 58.3502 19.8808C58.202 20.0831 58.0538 20.2855 57.8563 20.5687C57.9057 20.5687 57.8316 20.5687 57.7822 20.6092C57.7575 20.6902 57.7328 20.8116 57.6834 20.933C57.634 20.7711 57.5846 20.6902 57.5599 20.5687C57.4117 20.6902 57.5352 20.8925 57.4611 21.0139C57.387 21.1353 57.2636 21.0544 57.1648 21.0544C57.1401 21.0948 57.1154 21.1353 57.066 21.2162C56.9919 21.2162 56.8931 21.2162 56.7696 21.2567C56.7449 21.4186 56.7449 21.5805 56.7202 21.7019C56.5968 21.8233 56.5227 21.7019 56.4486 21.5805C56.3992 21.6209 56.3745 21.6614 56.3251 21.7423H55.9547C55.8312 21.9447 55.683 22.147 55.5348 22.4303C55.5348 22.4303 55.5348 22.4708 55.5348 22.5112C55.3866 22.6731 55.1891 22.6731 55.1397 22.9564C55.0656 22.8755 55.0409 22.835 54.9915 22.754C54.9174 23.0373 54.7692 23.2397 54.6211 23.442C54.5717 23.4015 54.547 23.3611 54.4976 23.2397C54.4235 23.3611 54.3741 23.5229 54.3247 23.6039H54.1518C54.0036 24.0086 54.0036 24.0086 53.732 24.2109C53.732 24.2514 53.732 24.3323 53.732 24.4133C53.6579 24.4537 53.6085 24.4942 53.6332 24.4537C53.4109 24.737 53.2875 24.9393 53.1146 25.1822C53.1146 25.2631 53.1393 25.344 53.2874 25.344C53.4109 25.2226 53.5097 25.0203 53.6579 24.8584H53.9049C53.9543 24.737 54.0283 24.5751 54.0777 24.4942C54.2012 24.4942 54.2753 24.4942 54.3247 24.4537C54.3494 24.5751 54.3247 24.6965 54.4482 24.5751C54.4235 24.5347 54.3741 24.4942 54.3247 24.4537C54.3247 24.2919 54.4482 24.2514 54.4976 24.1704C54.6458 24.2109 54.7198 23.9681 54.868 23.9681C54.9915 23.8872 55.0162 23.6039 55.1644 23.5634C55.1891 23.6848 55.1644 23.8062 55.2879 23.6848C55.2632 23.6444 55.2138 23.6039 55.1644 23.5634ZM50.4968 28.015C50.5215 28.1364 50.5215 28.2982 50.6202 28.1768C50.5955 28.1364 50.5462 28.0959 50.4968 28.0554C50.4721 27.934 50.5462 27.7721 50.4227 27.7317C50.3733 27.934 50.3733 27.934 50.4968 28.015ZM55.4113 35.0565C55.4854 35.016 55.6089 35.1374 55.6583 34.9755C55.4854 34.8946 55.4854 34.8946 55.4607 35.0565C55.3619 35.0969 55.2632 35.0969 55.3619 35.2183C55.3866 35.1779 55.4113 35.1374 55.4113 35.0565ZM55.4113 33.721H55.8312C55.8806 33.6401 55.9794 33.5591 55.9794 33.3973H55.5595C55.5348 33.5187 55.3866 33.5591 55.4113 33.8424C55.3125 33.6805 55.3125 33.6805 55.1397 33.5996C55.1397 33.721 55.1644 33.8019 55.1644 33.9233C55.2879 33.8829 55.3619 33.8424 55.4113 33.721ZM60.5729 27.1651C60.3259 27.246 60.3259 27.6103 60.2024 27.8531C60.1777 27.8935 60.2271 27.934 60.2518 28.015C60.3012 27.9745 60.3259 27.8935 60.3753 27.8935C60.4494 27.8531 60.5235 27.8126 60.5729 27.7721V27.1651C60.6964 27.0842 60.6964 27.0842 60.647 26.8414C60.5235 26.9223 60.5976 27.0842 60.5729 27.1651ZM58.5972 41.2481H58.7947C58.8441 41.2077 58.8935 41.1267 58.9182 41.0863H59.1652C59.3874 40.803 59.3874 40.803 59.2887 40.6006C59.0911 40.8839 58.7206 40.803 58.6466 41.2077C58.5478 41.2481 58.449 41.2481 58.5478 41.3695C58.5725 41.3695 58.5972 41.2886 58.5972 41.2481ZM95.37 23.2397H95.0737C95.0243 23.2801 94.9749 23.3611 94.9502 23.4015H94.7526C94.6045 23.4825 94.5057 23.5634 94.4069 23.6444C94.4069 23.6444 94.4069 23.6848 94.4316 23.6848C94.4563 23.6848 94.4563 23.7253 94.481 23.7253C94.6045 23.7253 94.7279 23.7253 94.8267 23.7253C94.9255 23.4825 95.0737 23.5634 95.1972 23.5229C95.2466 23.442 95.37 23.4015 95.37 23.2397C95.4441 23.1992 95.5676 23.3206 95.617 23.1587C95.4194 23.0778 95.4194 23.0778 95.37 23.2397ZM40.5688 34.8137C40.5194 34.7732 40.4947 34.7327 40.47 34.7327C40.4453 34.7327 40.396 34.7327 40.3713 34.7732C40.2478 35.1374 40.2478 35.1374 40.0008 35.2993C39.9761 35.3802 39.9514 35.5016 39.9267 35.5826C39.8773 35.5826 39.8279 35.5826 39.8032 35.5826C39.6304 35.7444 39.581 35.9872 39.5069 36.2301C39.6304 36.311 39.7291 36.311 39.8279 36.2301C39.8279 36.1086 39.8526 35.9468 39.8526 35.8254C40.0255 35.704 40.1737 35.623 40.3219 35.5016C40.2725 35.2183 40.5441 35.1779 40.5688 34.8137ZM67.883 15.7125C67.9324 15.6316 68.0065 15.5507 68.0559 15.4697C67.9818 15.3888 67.9324 15.2674 67.883 15.1864C67.7595 15.1864 67.6607 15.1864 67.6113 15.1864C67.5372 15.2674 67.4879 15.3483 67.4138 15.4697C67.4879 15.6316 67.3644 15.8744 67.4879 16.0363C67.5372 16.0363 67.5866 15.9958 67.636 15.9958C67.6607 15.8744 67.6854 15.7935 67.7101 15.6721H67.883V15.7125ZM56.8931 32.2641C57.1154 32.4665 57.1648 32.0213 57.3377 32.1427C57.3377 32.1427 57.387 32.0618 57.4117 31.9809C57.3377 31.819 57.2883 31.6166 57.2142 31.4548C57.1401 31.5357 57.0907 31.6166 57.0166 31.6976V32.0618C56.9672 32.1427 56.9425 32.1832 56.8931 32.2641ZM39.8773 40.5602C39.9761 40.5197 40.0749 40.6006 40.1737 40.4792C40.149 40.3983 40.0996 40.3174 40.0749 40.2364C40.0502 40.0341 40.149 39.8317 40.0008 39.6699C39.9514 39.7913 39.9267 39.9127 39.902 39.9936C39.8279 39.9936 39.7785 40.0341 39.7291 40.0341C39.7785 40.2364 39.8279 40.3983 39.8773 40.5602ZM69.8093 36.9585V36.6752C69.7105 36.6752 69.7105 36.4324 69.587 36.4729C69.5623 36.5943 69.5377 36.6752 69.513 36.7966H69.266C69.2166 36.8775 69.1178 36.9585 69.0931 37.0799C69.2413 37.2418 69.2907 36.999 69.4389 36.9585H69.8093ZM96.6049 24.0895C96.5802 23.9276 96.5802 23.8467 96.5555 23.7658C96.3826 23.7253 96.2344 23.6848 96.0862 23.8062C96.0862 23.8872 96.1109 23.9681 96.1109 24.049H96.6049V24.0895ZM57.1648 32.7093C57.0413 32.8307 56.9425 32.8712 56.8684 32.9521C56.9178 33.0735 56.9425 33.1544 56.9425 33.1949H57.0907C57.1154 33.0735 57.1648 32.9521 57.1895 32.8712C57.2883 32.8712 57.2883 32.8712 57.3623 32.7498C57.2883 32.6284 57.1648 32.7093 57.1648 32.7093ZM95.9381 24.8179C95.8393 24.8584 95.7652 24.8989 95.6911 24.9798C95.617 25.0608 95.5429 25.1417 95.4688 25.2226C95.4935 25.2631 95.4935 25.2631 95.5182 25.3036C95.5429 25.3036 95.5676 25.344 95.5676 25.344C95.6911 25.2631 95.8393 25.1822 95.9628 25.1012C95.9628 24.9798 95.9628 24.8989 95.9381 24.8179ZM55.0656 12.6774C54.8433 12.5155 54.7939 12.7988 54.6951 12.8797C54.6951 12.9607 54.7198 13.0416 54.7198 13.1225C54.8433 13.0416 54.9421 12.9607 55.0656 12.8797V12.6774ZM68.5745 15.2674C68.451 15.146 68.3275 15.1055 68.204 15.2674C68.204 15.3483 68.2287 15.4293 68.2287 15.4697C68.3522 15.4697 68.4757 15.5911 68.5745 15.4293V15.2674ZM70.3032 34.9755C70.1798 34.8541 70.1057 34.6518 69.9822 34.5708C69.9081 34.7327 69.9081 34.8946 69.9822 35.0565C70.081 35.0565 70.1798 35.1374 70.3032 34.9755ZM92.4559 24.7775C92.5053 24.6965 92.604 24.6156 92.6287 24.4942C92.53 24.4133 92.4065 24.4133 92.283 24.4942C92.283 24.5751 92.3077 24.6561 92.3077 24.7775H92.4559ZM57.1401 24.5347C57.1895 24.5751 57.2389 24.5751 57.313 24.6561C57.3623 24.5347 57.4117 24.4537 57.5105 24.2514C57.5105 24.2514 57.5599 24.13 57.4364 24.13C57.3377 24.2514 57.2389 24.4133 57.1401 24.5347ZM59.9555 28.0959C59.8814 28.1768 59.7826 28.2173 59.7085 28.2982C59.7332 28.4196 59.7579 28.5006 59.7826 28.541C59.8814 28.4601 60.0049 28.3792 60.1036 28.2982C60.0296 28.2173 59.9555 28.1364 59.9555 28.0959ZM53.1887 42.098C53.0405 42.098 52.9417 42.098 52.9664 42.3813C53.0158 42.4217 53.0899 42.5027 53.164 42.5836C53.2628 42.4622 53.2134 42.3003 53.1887 42.098ZM93.5672 24.1704C93.1474 24.0895 93.1474 24.0895 92.9745 24.2919C93.1968 24.2514 93.3449 24.3323 93.5672 24.1704ZM52.7194 25.6678C52.8182 25.6273 52.8923 25.6273 52.9664 25.5868C52.9417 25.4654 52.9417 25.3845 52.917 25.2631C52.8429 25.3036 52.7688 25.3036 52.7194 25.3036V25.6678ZM59.585 28.541C59.4862 28.5815 59.4121 28.5815 59.3381 28.622C59.3628 28.7434 59.3628 28.8243 59.3874 28.9457C59.4615 28.9053 59.5356 28.9053 59.585 28.9053V28.541ZM58.7453 29.7956C58.8441 29.7551 58.9182 29.7551 58.9923 29.7146C58.9676 29.5932 58.9676 29.5123 58.9429 29.3909C58.8688 29.4313 58.7947 29.4313 58.7453 29.4313V29.7956ZM58.9676 30.2407C58.8688 30.2812 58.7947 30.2812 58.7206 30.3217C58.7453 30.4431 58.7453 30.524 58.77 30.6454C58.8441 30.6049 58.9182 30.6049 58.9676 30.6049V30.2407ZM56.1769 34.3685C56.1522 34.2066 56.1522 34.1257 56.1275 34.0448C56.0534 34.0852 55.9794 34.0852 55.9053 34.0852C55.93 34.2066 55.93 34.2876 55.9547 34.3685H56.1769ZM79.7372 34.6113C79.6632 34.6518 79.5891 34.7327 79.515 34.7732C79.5891 34.8946 79.6385 34.9755 79.7126 35.0565C79.7866 34.8946 79.7866 34.7327 79.7372 34.6113ZM68.3028 35.9468C68.3275 36.1086 68.3275 36.1896 68.3522 36.2705C68.4263 36.2301 68.5004 36.2301 68.5745 36.1896C68.5498 36.0682 68.5498 35.9872 68.5251 35.9063H68.3028V35.9468ZM51.0401 27.5698C51.1389 27.4079 51.1389 27.327 51.0648 27.2056C51.0154 27.2056 50.9413 27.246 50.8919 27.246C50.9413 27.327 50.9907 27.4484 51.0401 27.5698ZM91.7891 25.0608C91.6656 24.8989 91.5421 24.8989 91.4186 25.0608C91.5421 25.1822 91.6656 25.1822 91.7891 25.0608ZM52.3984 26.1939C52.4725 26.032 52.5713 25.9915 52.5713 25.8701C52.4972 25.7892 52.4231 25.7892 52.349 25.9106C52.349 25.9915 52.3737 26.0725 52.3984 26.1939ZM59.5109 29.7956C59.585 29.6742 59.6838 29.5932 59.7085 29.4718C59.6344 29.3909 59.5603 29.3909 59.4862 29.5123C59.4862 29.5932 59.4862 29.6742 59.5109 29.7956ZM61.4619 18.6263C61.3632 18.6263 61.3385 18.6263 61.3385 18.6263C61.3138 18.6263 61.2644 18.6667 61.2397 18.6667C61.2644 18.7072 61.2644 18.7477 61.2891 18.7881C61.3385 18.8286 61.3632 18.9095 61.4372 18.9905C61.4125 18.8691 61.4372 18.7881 61.4619 18.6263ZM51.8304 26.3962C51.9291 26.5176 52.0032 26.5176 52.102 26.4367C52.102 26.3557 52.0773 26.2748 52.0773 26.2343C52.0032 26.2748 51.9291 26.3557 51.8304 26.3962ZM39.8773 26.6795C39.9761 26.5581 39.9761 26.4367 39.8773 26.3153C39.8279 26.3962 39.7291 26.4771 39.7045 26.639C39.7785 26.639 39.8279 26.6795 39.8773 26.6795ZM62.9437 23.1587C62.8449 23.0373 62.7708 23.0373 62.6721 23.1183C62.6721 23.1992 62.6968 23.2801 62.6968 23.3206C62.7708 23.2801 62.8449 23.2397 62.9437 23.1587ZM59.832 40.2364C59.7085 40.2769 59.6838 40.3983 59.6097 40.4792C59.6838 40.6006 59.7826 40.6006 59.8567 40.4792C59.832 40.3983 59.832 40.3174 59.832 40.2364ZM71.5875 33.033C71.4887 33.1544 71.4887 33.2759 71.5875 33.3568C71.6615 33.2354 71.6615 33.114 71.5875 33.033ZM65.6603 35.016C65.7097 34.9755 65.8085 35.1779 65.8579 34.9755C65.7838 34.8541 65.7097 34.8946 65.6603 35.016ZM69.7846 34.9351C69.7599 34.9351 69.7352 34.9351 69.7105 34.9351C69.7105 35.016 69.6858 35.0969 69.6858 35.1779C69.6858 35.1779 69.7105 35.2183 69.7352 35.2183C69.7599 35.2183 69.8093 35.1779 69.8093 35.1374C69.8093 35.0969 69.7846 35.016 69.7846 34.9351ZM53.6332 38.1725C53.732 38.0511 53.732 37.9297 53.6332 37.8488C53.5591 37.9297 53.5591 38.0511 53.6332 38.1725ZM52.1761 40.8839C52.102 41.0458 52.0526 41.1672 52.2008 41.2077C52.2502 41.1267 52.2502 41.0458 52.1761 40.8839ZM90.9247 25.3845C90.9988 25.5059 91.0976 25.5059 91.1717 25.3845C91.0976 25.2631 91.0235 25.2631 90.9247 25.3845ZM56.6215 32.3855C56.5721 32.426 56.4733 32.2237 56.4239 32.426C56.498 32.5474 56.5721 32.5474 56.6215 32.3855ZM56.2263 32.6688C56.1522 32.8307 56.1028 32.9521 56.251 32.9926C56.3004 32.9116 56.3004 32.7902 56.2263 32.6688ZM67.2409 15.8339C67.2656 15.8744 67.2656 15.8744 67.2903 15.9149C67.315 15.8744 67.315 15.8339 67.3397 15.7935C67.3397 15.7935 67.315 15.753 67.2903 15.753C67.2656 15.753 67.2409 15.7935 67.2409 15.8339ZM67.883 16.0363C67.9077 16.0363 67.9324 15.9958 67.9571 15.9553C67.9324 15.9553 67.9324 15.9149 67.9077 15.9149C67.883 15.9149 67.8583 15.9553 67.8336 15.9553C67.8583 15.9958 67.8583 15.9958 67.883 16.0363ZM69.0684 16.3196C69.0931 16.36 69.0931 16.36 69.1178 16.4005C69.1425 16.36 69.1425 16.3196 69.1672 16.2791C69.1672 16.2791 69.1425 16.2386 69.1178 16.2386C69.1178 16.2386 69.0931 16.2791 69.0684 16.3196ZM63.8081 17.0075C63.8328 17.048 63.8328 17.048 63.8575 17.0885C63.8822 17.048 63.8822 17.0075 63.9069 16.9671C63.9069 16.9671 63.8822 16.9266 63.8575 16.9266C63.8328 16.9266 63.8081 16.9671 63.8081 17.0075ZM59.4615 20.0427C59.4368 20.0022 59.4368 20.0022 59.4121 19.9617C59.3874 20.0022 59.3874 20.0427 59.3628 20.0831C59.3628 20.0831 59.3874 20.1236 59.4121 20.1236C59.4368 20.1236 59.4368 20.0831 59.4615 20.0427ZM59.6838 20.1236C59.7085 20.0831 59.7085 20.0831 59.7332 20.0831C59.7085 20.0831 59.6838 20.0427 59.6591 20.0427C59.6591 20.0427 59.6344 20.0831 59.6097 20.0831C59.6344 20.0831 59.6591 20.1236 59.6838 20.1236ZM55.5595 21.6614C55.5842 21.7019 55.5842 21.7019 55.6089 21.7019C55.6336 21.6614 55.6336 21.6209 55.6583 21.5805C55.6583 21.5805 55.6336 21.54 55.6089 21.54C55.5842 21.5805 55.5842 21.6209 55.5595 21.6614ZM95.8887 23.1183C95.864 23.1587 95.864 23.1587 95.8393 23.1992C95.864 23.1992 95.8887 23.2397 95.9134 23.2397C95.9134 23.2397 95.9381 23.1992 95.9628 23.1992C95.9381 23.1587 95.9134 23.1183 95.8887 23.1183ZM62.2769 23.6848C62.2522 23.6444 62.2522 23.6039 62.2275 23.5634C62.2028 23.5634 62.1781 23.6039 62.1781 23.6039C62.1781 23.6444 62.2028 23.6848 62.2275 23.7253C62.2522 23.7253 62.2769 23.7253 62.2769 23.6848ZM41.4085 24.0086C41.3838 24.0086 41.3838 23.9681 41.3591 23.9681C41.3344 23.9681 41.3097 24.0086 41.285 24.0086C41.3097 24.0086 41.3097 24.049 41.3344 24.049C41.3591 24.049 41.3838 24.049 41.4085 24.0086ZM95.2713 23.9681C95.2466 24.0086 95.2466 24.0086 95.2219 24.0086C95.2466 24.0086 95.2713 24.049 95.296 24.049C95.296 24.049 95.3206 24.0086 95.3453 24.0086C95.3206 24.0086 95.296 23.9681 95.2713 23.9681ZM41.5814 24.9393C41.6061 24.9393 41.6308 24.8989 41.6555 24.8584C41.6308 24.8584 41.6308 24.8179 41.6061 24.8179C41.5814 24.8179 41.5567 24.8584 41.532 24.8584C41.5567 24.8989 41.5567 24.8989 41.5814 24.9393ZM41.3097 25.0203C41.3344 25.0608 41.3344 25.1012 41.3591 25.1417C41.3838 25.1417 41.4085 25.1012 41.4085 25.1012C41.4085 25.0608 41.3838 25.0203 41.3591 24.9798C41.3344 24.9798 41.3344 24.9798 41.3097 25.0203ZM40.9146 25.5464C40.8899 25.5059 40.8899 25.5059 40.8652 25.4654C40.8405 25.5059 40.8405 25.5464 40.8158 25.5868C40.8158 25.5868 40.8405 25.6273 40.8652 25.6273C40.8652 25.6273 40.8899 25.5868 40.9146 25.5464ZM57.1401 26.7604C57.1154 26.7604 57.1154 26.72 57.0907 26.72C57.066 26.72 57.0413 26.7604 57.0166 26.7604C57.0413 26.7604 57.0413 26.8009 57.066 26.8009C57.0907 26.8009 57.1154 26.7604 57.1401 26.7604ZM52.2008 26.9223C52.1761 26.8818 52.1761 26.8818 52.1514 26.8414C52.1267 26.8818 52.1267 26.9223 52.102 26.9628C52.102 26.9628 52.1267 27.0032 52.1514 27.0032C52.1761 26.9628 52.2008 26.9628 52.2008 26.9223ZM38.0251 27.8935C38.0004 27.8935 37.9757 27.934 37.9757 27.934C37.9757 27.9745 38.0004 28.015 38.0251 28.0554C38.0498 28.0554 38.0745 28.015 38.0745 28.015C38.0745 27.934 38.0498 27.8935 38.0251 27.8935ZM36.6421 28.3387C36.6668 28.3792 36.6668 28.3792 36.6915 28.4196C36.7162 28.3792 36.7162 28.3387 36.7409 28.2982C36.7409 28.2982 36.7162 28.2578 36.6915 28.2578C36.6668 28.2578 36.6421 28.2982 36.6421 28.3387ZM58.9676 29.1885C58.9429 29.1481 58.9429 29.1076 58.9182 29.0671C58.8935 29.0671 58.8688 29.1076 58.8688 29.1076C58.8688 29.1481 58.8935 29.1885 58.9182 29.229C58.9429 29.229 58.9429 29.1885 58.9676 29.1885ZM59.3628 29.1885C59.3874 29.229 59.3874 29.229 59.4121 29.229C59.4368 29.1885 59.4368 29.1481 59.4615 29.1076C59.4615 29.1076 59.4368 29.0671 59.4121 29.0671C59.4121 29.1076 59.3874 29.1481 59.3628 29.1885ZM58.7206 29.9979C58.696 29.9574 58.696 29.9574 58.6713 29.9574C58.6466 29.9979 58.6466 30.0384 58.6219 30.0788C58.6219 30.0788 58.6466 30.1193 58.6713 30.1193C58.696 30.0788 58.696 30.0384 58.7206 29.9979ZM89.3935 30.1193C89.3688 30.1193 89.3441 30.1598 89.3441 30.1598C89.3441 30.2002 89.3688 30.2407 89.3935 30.2812C89.4182 30.2812 89.4429 30.2407 89.4429 30.2407C89.4182 30.1598 89.4182 30.1598 89.3935 30.1193ZM77.885 30.5645C77.8603 30.524 77.8603 30.4835 77.8356 30.4431C77.8109 30.4431 77.7862 30.4835 77.7862 30.4835C77.7862 30.524 77.8109 30.5645 77.8356 30.6049C77.8603 30.6049 77.885 30.5645 77.885 30.5645ZM58.5972 30.7263C58.5725 30.6859 58.5725 30.6454 58.5478 30.6049C58.5231 30.6049 58.4984 30.6454 58.4984 30.6454C58.4984 30.6859 58.5231 30.7263 58.5478 30.7668C58.5725 30.7668 58.5725 30.7668 58.5972 30.7263ZM85.615 31.6571C85.5903 31.6571 85.5656 31.6976 85.5409 31.7381C85.5656 31.7381 85.5656 31.7785 85.5903 31.7785C85.615 31.7785 85.6397 31.7381 85.6644 31.7381C85.6397 31.6976 85.615 31.6976 85.615 31.6571ZM85.2939 31.8595C85.3186 31.8999 85.3186 31.9404 85.3433 31.9809C85.368 31.9809 85.3927 31.9404 85.3927 31.9404C85.3927 31.8999 85.368 31.8595 85.3433 31.819C85.3186 31.819 85.3186 31.8595 85.2939 31.8595ZM84.2567 32.1832C84.232 32.1832 84.2073 32.2237 84.1826 32.2237C84.2073 32.2237 84.2073 32.2641 84.232 32.2641C84.2567 32.2641 84.2814 32.2237 84.3061 32.2237C84.2814 32.2237 84.2814 32.2237 84.2567 32.1832ZM68.5004 32.507C68.4757 32.507 68.451 32.5474 68.451 32.5474C68.451 32.5879 68.4757 32.6284 68.5004 32.6688C68.5251 32.6688 68.5498 32.6284 68.5498 32.6284C68.5498 32.5879 68.5251 32.5474 68.5004 32.507ZM50.3486 33.033C50.3239 33.033 50.2992 33.0735 50.2745 33.114C50.2992 33.114 50.2992 33.1544 50.3239 33.1544C50.3486 33.1544 50.3733 33.114 50.398 33.114C50.3733 33.0735 50.3486 33.0735 50.3486 33.033ZM82.8737 33.033C82.849 33.0735 82.849 33.0735 82.8243 33.114C82.849 33.114 82.8737 33.1544 82.8984 33.1544C82.8984 33.1544 82.9231 33.114 82.9478 33.114C82.9231 33.0735 82.8984 33.0735 82.8737 33.033ZM82.1328 33.5187C82.1575 33.4782 82.1822 33.4782 82.2069 33.4377C82.1822 33.4377 82.1822 33.3973 82.1575 33.3973C82.1328 33.3973 82.1081 33.4377 82.0834 33.4377C82.1081 33.4782 82.1081 33.4782 82.1328 33.5187ZM70.9947 34.0043C71.0194 33.9638 71.0194 33.9638 71.0441 33.9233C71.0194 33.9233 70.9947 33.8829 70.97 33.8829C70.97 33.8829 70.9453 33.9233 70.9206 33.9233C70.9206 33.9638 70.97 34.0043 70.9947 34.0043ZM40.5441 34.328C40.5194 34.2876 40.5194 34.2471 40.4947 34.2066C40.47 34.2066 40.4453 34.2471 40.4453 34.2471C40.4453 34.2876 40.47 34.328 40.4947 34.3685C40.4947 34.3685 40.5194 34.3685 40.5441 34.328ZM79.9842 34.328C79.9595 34.2876 79.9595 34.2471 79.9348 34.2066C79.9101 34.2066 79.8854 34.2471 79.8854 34.2471C79.8854 34.2876 79.9101 34.328 79.9348 34.3685C79.9595 34.3685 79.9595 34.3685 79.9842 34.328ZM69.5623 35.6635C69.5377 35.6635 69.5377 35.623 69.513 35.623C69.4883 35.623 69.4636 35.6635 69.4389 35.6635C69.4636 35.6635 69.4636 35.704 69.4883 35.704C69.4883 35.704 69.5377 35.704 69.5623 35.6635ZM54.2259 36.5943C54.2506 36.5943 54.2753 36.5538 54.3 36.5133C54.2753 36.5133 54.2753 36.4729 54.2506 36.4729C54.2259 36.4729 54.2012 36.5133 54.1765 36.5133C54.2012 36.5538 54.2259 36.5538 54.2259 36.5943ZM64.0057 36.5538C63.981 36.5133 63.981 36.4729 63.9563 36.4324C63.9316 36.4324 63.9069 36.4729 63.9069 36.4729C63.9069 36.5133 63.9316 36.5538 63.9563 36.5943C63.981 36.5943 63.981 36.5943 64.0057 36.5538ZM53.7567 37.4441C53.7814 37.4441 53.8061 37.4036 53.8308 37.3632C53.8061 37.3632 53.8061 37.3227 53.7814 37.3227C53.7567 37.3227 53.732 37.3632 53.7073 37.3632C53.7073 37.4036 53.732 37.4441 53.7567 37.4441ZM69.266 37.8083C69.2907 37.7679 69.2907 37.7679 69.3154 37.7274C69.2907 37.7274 69.266 37.6869 69.2413 37.6869C69.2413 37.6869 69.2166 37.7274 69.1919 37.7274C69.2166 37.7679 69.2413 37.7679 69.266 37.8083ZM72.353 38.6177C72.3283 38.5772 72.3283 38.5368 72.3036 38.4963C72.2789 38.4963 72.2542 38.5368 72.2542 38.5368C72.2542 38.5772 72.2789 38.6177 72.3036 38.6582C72.3283 38.6582 72.353 38.6177 72.353 38.6177ZM52.4725 41.3291C52.4478 41.3291 52.4478 41.2886 52.4231 41.2886C52.3984 41.2886 52.3737 41.3291 52.349 41.3291C52.3737 41.3291 52.3737 41.3695 52.3984 41.3695C52.4231 41.3695 52.4478 41.3291 52.4725 41.3291ZM56.7202 42.8264C56.6955 42.8264 56.6708 42.8669 56.6462 42.9073C56.6708 42.9073 56.6709 42.9478 56.6955 42.9478C56.7202 42.9478 56.7449 42.9073 56.7696 42.9073C56.7696 42.8669 56.7449 42.8264 56.7202 42.8264ZM76.7243 36.311C76.6996 36.3515 76.6996 36.3515 76.6749 36.3919C76.6996 36.3919 76.7243 36.4324 76.749 36.4324C76.749 36.4324 76.7737 36.3919 76.7984 36.3919C76.7737 36.3515 76.749 36.311 76.7243 36.311Z" fill="#F5EFEB"/>
<path d="M19.5213 9.76065C19.5213 17.3523 9.76065 23.8594 9.76065 23.8594C9.76065 23.8594 0 17.3523 0 9.76065C3.85744e-08 7.17197 1.02835 4.68931 2.85883 2.85883C4.68931 1.02835 7.17197 0 9.76065 0C12.3493 0 14.832 1.02835 16.6625 2.85883C18.493 4.68931 19.5213 7.17197 19.5213 9.76065Z" fill="#F8E0D2"/>
<path d="M9.76063 13.0139C11.5575 13.0139 13.0142 11.5573 13.0142 9.76039C13.0142 7.9635 11.5575 6.50684 9.76063 6.50684C7.96374 6.50684 6.50708 7.9635 6.50708 9.76039C6.50708 11.5573 7.96374 13.0139 9.76063 13.0139Z" fill="#FAF5F5"/>
</svg>
