<svg width="256" height="103" viewBox="0 0 256 103" fill="none" xmlns="http://www.w3.org/2000/svg">
<path d="M80.4275 41.0892V40.9666C81.0494 40.844 81.5676 40.4762 82.0858 40.1084C82.604 39.8632 82.6041 39.005 83.2259 38.6373C83.4332 38.5147 83.6405 38.2695 83.7441 38.1469C84.5733 38.5147 85.0915 37.5339 85.817 37.5339C86.3352 37.0435 86.7498 36.5531 87.268 36.0628H88.3045C88.5117 35.4498 88.8227 34.8368 89.4445 34.469H90.3773C90.8955 33.9786 91.4138 33.4882 91.8283 32.9979H93.4866C93.7976 32.6301 94.1085 32.2623 94.3158 31.8945H95.4559C95.6632 31.7719 95.8704 31.5267 96.0777 31.4041C96.1814 31.7719 96.285 32.0171 96.3887 32.3849C96.4923 32.3849 96.6996 32.2623 96.6996 32.2623C96.4923 31.5267 97.0105 31.0363 97.2178 30.4233C97.3215 29.933 97.6324 30.0556 97.9433 29.933C98.1506 29.933 98.3579 29.6878 98.5652 29.4426H99.498C99.8089 28.9522 100.12 28.4618 100.327 28.094C101.053 27.7262 101.571 27.9714 102.089 27.8488C102.4 28.3392 102.504 29.0748 103.126 29.4426C103.229 29.32 103.333 29.0748 103.436 28.9522C103.333 28.707 103.126 28.5844 102.918 28.2166C103.022 28.094 103.229 27.8488 103.436 27.4811C103.333 27.2359 103.126 26.9907 102.918 26.6229C103.126 26.0099 103.747 26.6229 104.266 26.2551C104.887 25.1517 106.338 25.1517 107.271 24.2936C107.789 24.171 108.411 24.4162 108.93 24.171C108.826 23.9258 108.722 23.6806 108.515 23.3128C109.137 23.3128 109.759 23.3128 110.173 23.1902C110.795 22.945 111.21 22.6998 111.624 22.4546V21.9642C112.039 21.7191 112.453 21.4739 113.075 21.2287C113.386 21.2287 114.008 21.2287 114.63 21.1061C114.734 20.8609 114.734 20.6157 114.734 20.3705C115.148 20.1253 115.563 19.8801 116.185 19.6349C116.392 19.6349 116.91 19.6349 117.221 19.5123C117.325 19.8801 117.221 20.2479 117.739 19.8801C117.636 19.7575 117.428 19.6349 117.221 19.5123C117.221 18.8994 117.843 19.1445 118.154 18.8994C118.154 18.7768 118.257 18.5316 118.257 18.1638C118.465 18.0412 118.776 17.9186 119.19 17.796C119.087 17.5508 118.879 17.3056 118.776 17.0604C119.087 16.6926 119.605 16.9378 120.019 16.8152C120.227 16.6926 120.434 16.4474 120.538 16.3248C120.849 16.57 121.16 16.9378 121.47 17.183C121.885 17.0604 122.3 16.9378 122.714 16.6926C122.818 17.0604 122.818 17.3056 122.921 17.5508C122.3 17.796 121.678 18.0412 121.367 18.7768C121.47 19.0219 121.47 19.1445 121.574 19.5123C121.989 19.1445 122.3 18.7768 122.714 18.409H124.787C125.098 18.0412 125.409 17.796 125.72 17.5508C126.653 17.5508 127.378 17.0604 128.104 16.6926C128.104 16.6926 128.104 16.57 128.104 16.4474H129.866C130.073 16.2022 130.487 15.9571 130.487 15.4667H128.726C128.518 15.8345 128 15.9571 128 16.4474H126.238C126.031 16.57 125.927 16.8152 125.72 16.9378C125.513 16.8152 125.409 16.57 125.202 16.4474C124.58 16.8152 124.062 17.0604 123.543 17.3056C123.129 16.9378 123.44 16.4474 123.336 16.0797C123.647 15.4667 124.269 15.9571 124.787 15.7119C124.891 15.4667 124.994 15.2215 125.098 14.7311C125.305 14.8537 125.409 14.9763 125.72 15.2215H127.378C127.482 14.9763 127.482 14.8537 127.585 14.7311C127.896 14.6085 128.104 14.3633 128.415 14.2407C128.518 14.3633 128.622 14.4859 128.726 14.6085C128.829 14.6085 129.036 14.7311 129.14 14.7311C130.384 14.7311 131.731 14.7311 132.975 14.7311C133.182 14.4859 133.389 14.3633 133.597 14.1181C133.908 14.2407 134.115 14.3633 134.737 14.6085H137.639C138.053 15.5893 139.194 14.8537 139.608 15.5893C140.334 15.5893 141.059 15.7119 141.888 15.7119C141.992 15.8345 142.096 15.9571 142.303 16.0797H143.65C144.065 16.57 144.998 16.4474 145.205 17.183H143.961C143.754 17.0604 143.65 16.8152 143.443 16.6926C142.925 16.8152 142.303 16.57 141.681 16.9378V18.0412C142.199 18.5316 142.717 19.0219 143.132 19.5123V19.6349C143.132 20.1253 143.236 20.4931 143.236 20.8609C143.547 20.8609 143.754 20.8609 144.065 20.9835C144.168 20.6157 144.272 20.3705 144.376 20.1253C144.687 20.0027 144.998 19.8801 145.101 19.8801C145.412 19.2671 145.619 18.7768 145.93 18.1638C145.723 17.9186 145.516 17.796 145.309 17.6734C145.309 17.6734 145.309 17.5508 145.309 17.4282H146.656C146.76 17.6734 146.863 17.9186 146.863 18.0412C146.863 18.409 146.863 18.6542 147.174 19.0219C147.381 19.1445 147.381 19.3897 147.485 19.6349C147.278 19.8801 147.07 20.0027 146.967 20.2479C147.589 20.8609 147.589 21.9642 148.521 22.2094C148.521 22.4546 148.521 22.5772 148.521 22.6998C148.211 23.3128 147.9 23.8032 147.589 24.4162C147.9 24.6614 148.003 25.1517 148.211 25.6421C148.625 25.6421 149.04 25.7647 149.351 25.7647C149.765 26.3777 149.351 26.9907 149.662 27.6036C149.662 27.6036 149.662 27.7262 149.765 27.7262C150.18 27.8488 150.594 27.8488 151.009 27.8488C151.113 28.094 151.113 28.2166 151.113 28.3392C150.802 29.32 149.454 29.5652 149.454 30.7911C148.832 30.7911 148.211 30.9137 147.692 30.9137C147.278 31.5267 147.589 32.1397 147.485 32.7527C147.07 33.1205 146.552 33.6108 146.034 34.1012C145.723 34.469 145.619 34.9594 145.516 35.3272C145.619 35.4498 145.723 35.5724 145.93 35.8176C145.309 36.0628 144.79 36.3079 144.272 36.5531C143.754 36.7983 143.236 37.1661 143.339 37.9017C143.132 37.9017 142.925 38.0243 142.614 38.1469C142.303 39.005 141.681 39.618 140.955 40.1084C140.541 40.231 140.126 39.8632 139.712 40.3536C139.919 40.5988 140.023 40.7214 140.23 40.844C139.815 41.0892 139.608 41.7022 138.986 41.5796C138.157 42.4377 137.328 43.2959 136.602 44.1541C136.292 44.1541 136.188 44.1541 135.981 44.2767C135.877 44.2767 135.877 44.3993 135.773 44.3993C135.67 44.6445 135.566 45.0122 135.462 45.2574C135.255 45.2574 135.048 45.2574 134.944 45.2574C132.871 47.3416 130.798 49.4257 128.829 51.5098C128.622 51.5098 128.415 51.5098 128.207 51.5098C128 51.8776 127.896 52.2454 127.689 52.4906H127.171C126.342 53.3487 125.513 54.2069 124.58 55.0651C123.647 55.9233 122.818 56.7814 121.781 57.517C120.745 58.13 120.019 59.2333 119.19 60.0915C119.398 60.2141 119.605 60.2141 119.916 60.3367C120.434 59.6011 121.263 59.3559 121.885 58.8656C122.507 58.2526 123.232 58.0074 123.958 57.7622C124.58 57.517 124.787 56.5362 125.616 56.6588C126.756 55.5555 128.207 55.0651 129.555 54.3295C130.798 53.7165 132.042 53.1036 132.768 52.1228C133.908 51.6324 134.737 51.2646 135.566 50.7742C135.877 50.529 136.188 50.1613 136.499 49.9161H137.639C138.364 48.5675 139.919 48.1997 141.163 47.3416C141.37 47.219 141.785 47.219 142.406 47.219C142.51 47.0964 142.821 46.8512 142.821 46.606C142.821 45.6252 143.857 45.7478 144.376 45.2574C144.583 45.0122 145.205 45.38 145.516 45.0122C145.827 44.767 146.241 44.6445 146.552 44.3993C146.552 44.2767 146.552 44.0315 146.552 43.9089C147.381 43.2959 148.418 43.0507 149.247 42.3151C149.765 41.8248 150.594 41.5796 151.32 41.2118C151.942 40.9666 152.46 40.4762 152.978 39.9858C153.807 40.231 154.326 39.4954 155.155 39.3728C155.569 38.8825 155.984 38.3921 156.502 37.9017C157.435 38.0243 158.057 37.5339 158.782 37.1661C159.508 36.7983 160.337 36.5531 160.751 35.695H161.581C162.099 35.4498 162.513 35.2046 163.032 34.9594C163.653 34.7142 164.172 34.3464 164.69 33.856C165.104 33.4882 165.726 33.1205 166.141 33.1205C166.866 33.1205 167.177 32.6301 167.696 32.5075C168.214 32.3849 168.732 32.0171 169.25 31.7719C169.872 31.5267 170.39 31.1589 170.908 30.9137C171.427 30.6685 171.945 30.3008 172.567 30.4233C173.085 29.4426 174.432 29.4426 174.951 28.4618C175.469 28.094 175.987 28.4618 176.505 28.094C177.127 27.4811 178.164 27.4811 178.785 26.7455C179.718 27.1133 180.236 26.1325 181.169 26.1325C181.998 26.1325 182.828 25.5195 183.553 25.0291C184.175 24.5388 184.797 24.0484 185.833 23.558H187.077C187.284 23.4354 187.492 23.1902 187.595 23.0676C187.802 23.1902 188.01 23.4354 188.113 23.558C188.321 23.558 188.424 23.558 188.632 23.558C188.735 23.3128 188.839 22.945 188.943 22.5772C189.15 22.6998 189.253 22.8224 189.564 23.0676C189.668 22.945 189.875 22.8224 190.083 22.5772H192.052C192.259 22.4546 192.466 22.2094 192.674 22.0868H193.71C193.917 21.9642 194.125 21.7191 194.228 21.5965C194.436 21.7191 194.643 21.9642 194.747 22.0868H195.783C195.99 21.9642 196.198 21.7191 196.405 21.5965C196.716 22.332 196.508 23.0676 196.612 23.6806C196.094 24.0484 196.094 24.0484 196.301 24.6614C196.819 24.4162 196.508 24.0484 196.612 23.6806C197.338 23.6806 197.027 24.2936 197.234 24.6614C197.545 24.9065 198.063 24.6614 198.374 24.7839C198.581 24.5388 198.789 24.4162 198.996 24.2936C199.203 24.7839 199.411 25.1517 199.721 25.7647V26.6229C199.929 26.8681 200.24 27.1133 200.447 27.3585C200.758 26.8681 201.069 26.3777 201.483 25.8873C201.794 26.1325 201.794 26.1325 201.691 27.8488C201.587 28.094 201.38 28.2166 201.276 28.4618C201.587 28.5844 201.898 28.5844 202.105 28.5844C202.52 28.9522 202.209 29.32 202.313 29.8104C202.416 29.933 202.623 30.1782 202.831 30.4233V32.0171C202.52 32.1397 202.209 32.3849 201.794 32.5075C202.002 32.7527 202.105 32.8753 202.313 33.1205C201.276 34.1012 200.24 35.2046 199.203 36.1853V37.1661C198.581 37.7791 197.856 38.5147 197.13 39.2502V40.231C196.716 40.4762 196.301 40.7214 195.99 40.9666C195.679 41.3344 195.161 41.5796 195.161 42.0699C194.85 42.1925 194.436 42.0699 194.747 42.5603C194.85 42.4377 194.954 42.3151 195.161 42.0699C195.265 42.1925 195.472 42.1925 195.472 42.3151C195.576 42.6829 195.576 42.9281 195.576 43.1733C194.228 44.5219 192.985 45.7478 191.534 47.219C191.119 47.3416 190.601 47.5868 190.394 48.3223C190.186 49.0579 189.564 49.3031 188.943 49.5483C188.839 49.7935 188.839 50.0387 188.735 50.2839C188.528 50.2839 188.321 50.4065 188.01 50.4065C187.595 51.142 186.973 52.2454 186.559 52.368C185.522 52.6132 185.108 53.4713 184.382 54.0843H183.864C183.449 54.5747 183.449 55.5555 182.517 55.6781C181.687 55.8007 181.687 56.6588 181.377 57.1492C181.169 57.1492 181.066 57.1492 180.858 57.1492C179.822 57.8848 179.2 59.1107 177.956 59.4785V59.9689C177.438 60.4593 177.023 60.9497 176.505 61.4401V61.5627C177.127 62.1756 177.334 61.3175 177.749 61.1949C178.164 61.0723 178.578 61.3175 178.889 60.9497C179.2 60.5819 179.822 60.7045 180.133 60.2141C180.34 59.9689 180.858 59.8463 181.48 59.6011H182.517C183.346 59.2333 183.968 58.6204 184.589 58.6204C185.315 58.6204 185.73 58.0074 186.455 58.0074C186.87 57.1492 188.01 57.8848 188.424 57.0266C188.632 57.1492 188.735 57.2718 188.943 57.517C189.253 57.1492 189.668 56.904 189.979 56.5362H190.808C191.43 56.1684 192.052 55.8007 192.674 55.5555H193.917C194.436 55.3103 194.954 55.0651 195.368 54.6973C195.783 54.3295 196.405 54.8199 196.819 54.3295C197.234 53.8391 197.96 53.9617 198.27 53.4713H200.24C200.447 53.2262 200.654 52.981 200.862 52.981C201.794 53.1036 202.416 52.4906 203.142 52.1228C203.245 52.1228 203.453 51.8776 203.556 51.8776C204.385 52.2454 204.696 51.2646 205.422 51.3872C205.629 51.3872 205.733 51.3872 205.94 51.3872C206.147 51.2646 206.251 51.0194 206.458 50.8968H208.013C208.22 50.7742 208.428 50.529 208.531 50.4065H209.568C209.671 50.2839 209.671 50.2839 209.775 50.1613C209.879 50.0387 209.879 50.0387 209.982 50.0387C210.604 49.7935 211.33 50.0387 211.744 49.4257H213.506C214.439 48.9353 215.372 48.4449 216.304 47.9545C216.408 48.1997 216.615 48.5675 216.823 49.0579C216.926 48.6901 217.03 48.4449 217.134 48.1997C218.481 47.4642 220.036 46.7286 221.59 45.8704H224.078C224.492 45.0122 225.321 44.8896 226.151 44.3993H227.498C227.705 44.2767 227.913 44.0315 228.12 43.9089H229.674C229.778 44.0315 229.985 44.1541 230.193 44.3993C230.504 44.1541 230.918 44.0315 231.436 43.6637C231.436 43.5411 231.54 43.2959 231.747 42.9281C232.162 42.9281 232.473 42.9281 232.887 42.8055C233.198 42.1925 233.924 42.4377 234.442 42.3151C234.546 42.1925 234.649 42.0699 234.857 41.9473C235.064 42.0699 235.375 42.1925 235.686 42.4377C236.411 42.0699 237.137 41.7022 237.862 41.457C238.07 41.3344 238.381 41.457 238.899 41.457C239.313 41.0892 239.832 40.4762 240.453 39.8632C241.179 39.7406 240.764 40.5988 241.179 40.844C241.697 40.4762 242.215 40.1084 242.112 39.3728H243.874C244.081 39.618 244.288 39.7406 244.496 39.9858C244.703 39.8632 245.117 39.8632 245.117 39.7406C245.117 39.0051 245.636 38.7599 246.05 38.3921C246.879 38.2695 246.465 39.1276 246.879 39.3728C247.19 38.8825 247.605 38.3921 247.916 37.7791C248.227 37.9017 248.434 37.9017 248.745 38.0243C248.538 38.3921 248.33 38.7599 248.227 39.0051C248.641 39.7406 249.16 39.3728 249.781 39.3728C249.781 39.1276 249.885 38.8825 249.885 38.6373C250.092 38.3921 250.3 38.1469 250.611 37.9017H252.062C252.269 37.7791 252.476 37.5339 252.683 37.4113H253.72C254.134 37.6565 253.927 38.1469 254.031 38.7599C253.616 39.005 253.202 39.2502 252.891 39.3728C253.409 40.3536 254.238 39.618 254.549 40.231C254.342 40.4762 254.238 40.5988 254.031 40.844C254.031 41.0892 254.031 41.2118 254.031 41.457C254.238 41.5796 254.445 41.5796 254.756 41.7022C254.964 42.3151 255.378 42.9281 256 43.4185C255.585 44.3993 254.238 44.2767 253.823 45.2574C253.305 45.5026 252.787 45.1348 252.372 45.6252C252.476 45.7478 252.58 45.8704 252.58 45.8704C253.409 45.8704 254.342 45.8704 255.171 45.8704C255.378 46.1156 255.585 46.3608 255.896 46.606V47.5868C255.689 47.8319 255.482 48.0771 255.171 48.3223H253.927C253.823 48.1997 253.616 48.0771 253.513 47.9545C253.409 48.0771 253.202 48.1997 253.202 48.1997C253.305 48.8127 252.683 49.0579 252.372 49.4257C251.543 49.3031 251.336 50.1613 250.611 50.529C250.3 50.4064 249.989 50.1613 249.678 50.0387C249.367 50.4065 249.574 50.8968 249.47 51.2646C248.641 51.6324 247.916 52.1228 246.983 52.6132C246.776 52.368 246.361 52.0002 246.05 51.6324L245.947 51.755C245.947 52.6132 245.947 53.4713 245.947 54.3295C245.221 54.5747 244.599 55.3103 243.563 55.0651C243.252 55.4329 242.941 55.8007 242.734 56.1684H241.594C241.386 56.0459 241.179 55.8007 240.972 55.5555C240.764 55.5555 240.557 55.6781 240.246 55.8007C240.453 56.0459 240.661 56.1684 240.868 56.4136C240.661 56.6588 240.453 57.0266 240.143 57.0266C239.21 57.2718 238.484 58.0074 237.448 58.2526C237.24 58.4978 236.93 58.8656 236.619 59.1107C236.515 59.1107 236.308 59.2333 236.1 59.2333C235.582 59.3559 234.857 58.9881 234.442 59.7237C233.406 59.6011 232.473 60.7045 231.436 60.3367C230.711 61.0723 229.674 61.0723 229.364 61.9305C228.742 62.1756 228.534 61.5627 228.223 61.4401H227.187C226.876 61.8078 226.565 62.053 226.254 62.4208H224.803C224.596 62.5434 224.389 62.7886 224.181 62.9112C223.56 62.5434 223.352 61.9304 223.041 61.1949C222.938 61.8078 222.834 62.2982 222.834 62.7886C222.316 62.9112 221.798 63.1564 221.279 62.5434C221.694 62.2982 222.109 61.9304 222.523 61.6853C222.109 61.1949 221.59 61.4401 221.279 61.3175C221.072 61.5627 220.865 61.6853 220.657 61.9305H219.621C219.206 62.4208 219.31 63.1564 218.481 63.4016C218.377 63.279 218.274 63.1564 218.066 62.9112C217.859 62.9112 217.341 62.7886 217.134 62.9112C216.615 63.5242 215.89 63.279 215.164 63.5242C215.268 63.7694 215.475 63.892 215.579 64.1372C215.579 64.3824 215.579 64.6275 215.683 65.2405C215.475 65.3631 215.164 65.7309 214.853 65.9761C214.75 65.6083 214.75 65.3631 214.646 65.2405C214.853 64.9953 215.061 64.8727 215.164 64.6275C214.75 64.3824 214.335 64.1372 213.921 64.0146C213.506 64.505 212.47 64.2598 212.262 65.2405C212.47 65.3631 212.781 65.4857 213.092 65.6083C213.092 65.8535 213.092 65.9761 213.092 66.0987C212.781 66.7117 212.159 66.2213 211.64 66.5891C211.64 66.7117 211.537 66.9569 211.537 67.2021C210.811 67.4473 210.189 68.0602 209.257 67.9376C209.049 67.815 208.946 67.5699 208.738 67.4473C207.909 67.9376 206.977 68.3054 205.836 68.9184H203.349C203.245 69.2862 203.245 69.4088 203.142 69.7766C202.934 70.0218 202.727 70.267 202.416 70.5121C202.002 70.3895 202.209 70.0218 202.002 69.654C201.794 69.654 201.587 69.5314 201.276 69.5314C201.172 69.8992 201.069 70.1444 200.965 70.5121C200.862 70.5121 200.862 70.6347 200.758 70.6347C199.721 70.6347 198.685 70.6347 197.649 70.6347C197.441 71.0025 197.027 71.1251 196.612 71.2477C196.198 71.3703 195.99 71.8607 195.679 72.1059H194.021C193.71 72.4737 193.399 72.8415 193.192 73.2093H191.948C191.741 73.3318 191.534 73.577 191.326 73.6996H190.29C190.083 73.9448 189.875 74.0674 189.772 74.19H188.632C188.528 74.3126 188.321 74.4352 188.01 74.6804H186.455C185.833 75.416 185.211 76.1516 184.693 76.7645H182.828C182.517 77.1323 182.206 77.3775 181.895 77.7453C181.687 77.6227 181.584 77.5001 181.377 77.2549C181.273 77.3775 181.066 77.5001 180.858 77.7453C180.651 77.6227 180.547 77.3775 180.34 77.2549H179.615C179.511 76.8871 179.822 76.3967 179.304 76.2741C179.096 77.0097 179.096 77.0097 179.615 77.2549C179.2 78.1131 178.474 78.6035 177.645 78.9713C177.127 79.2164 176.713 79.2164 176.194 79.339C175.883 79.5842 175.572 79.952 175.158 80.3198H173.5C173.396 80.6876 173.396 80.8102 173.292 81.178C173.085 81.4232 172.878 81.6684 172.567 81.9135H171.53C171.323 82.0361 171.116 82.2813 170.908 82.4039H169.354C169.147 82.5265 168.939 82.7717 168.836 82.8943H168.006C165.623 84.1203 163.343 85.2236 160.855 86.5722H159.715C159.3 86.6948 158.989 86.94 158.575 87.0626C158.16 87.1852 158.057 87.6755 157.538 87.5529C157.124 87.4304 156.709 87.6755 156.398 88.0433H154.326C154.118 88.1659 153.911 88.4111 153.704 88.5337H151.527C151.216 88.1659 150.905 87.6755 150.491 87.0626C149.662 86.6948 149.04 87.5529 148.211 87.7981V88.2885C147.278 88.7789 146.345 89.2693 145.412 89.7597C145.309 89.3919 145.205 89.0241 145.101 88.7789C144.79 88.4111 144.272 88.6563 143.857 88.5337C143.754 88.2885 143.65 87.9207 143.547 87.6755C143.028 87.7981 142.821 88.2885 142.51 88.5337C141.474 88.6563 141.474 88.6563 140.645 89.1467C140.541 89.1467 140.437 89.1467 140.437 89.1467C139.815 88.2885 138.675 88.1659 138.053 87.3078C138.261 87.1852 138.364 86.94 138.675 86.6948C138.364 86.0818 137.95 85.3462 137.639 84.6106C137.743 84.4881 137.846 84.3655 138.053 84.2429V80.9328C137.328 80.565 136.499 80.9328 135.359 80.565C135.255 80.4424 135.048 80.0746 134.737 79.7068C134.219 80.0746 134.426 80.4424 134.426 80.8102C134.322 80.6876 134.115 80.6876 133.908 80.565V77.8679C134.011 77.7453 134.115 77.6227 134.115 77.6227C134.84 77.6227 135.462 77.6227 136.188 77.6227C136.291 77.7453 136.395 77.8679 136.602 77.9905C137.328 77.7453 138.261 77.5001 138.468 76.7645C138.675 76.1516 139.401 75.5386 138.883 74.6804C138.779 74.6804 138.675 74.5578 138.572 74.3126C138.779 73.8222 138.986 73.3318 139.194 72.9641C139.712 72.8415 140.023 73.2093 140.23 73.4544H141.37C141.37 73.2093 141.577 72.9641 141.474 72.7189C141.37 72.3511 140.852 72.3511 140.955 71.8607H141.681C142.303 71.4929 142.406 70.7573 142.821 70.267C143.236 69.7766 143.443 69.2862 143.754 68.7958C144.065 68.1828 144.272 67.5698 144.894 67.2021C145.101 67.2021 145.412 67.2021 145.619 67.0795C145.723 67.4473 145.619 67.815 146.138 67.4473C146.034 67.3247 145.827 67.2021 145.619 67.0795C145.827 66.8343 145.93 66.5891 146.138 66.2213C146.138 66.0987 146.138 65.8535 146.138 65.3631C146.034 65.6083 146.552 65.4857 146.552 65.7309C146.656 65.9761 146.76 66.3439 146.863 66.5891H147.485C147.589 66.3439 147.589 65.9761 147.796 65.7309C148.003 65.4857 148.314 65.2405 148.211 64.8727C148.107 64.7501 148.003 64.6276 147.796 64.505C147.278 64.7501 146.656 64.9953 146.138 65.4857C145.723 65.6083 145.309 65.6083 144.79 65.6083C144.687 65.8535 144.583 66.2213 144.479 66.5891H142.925C142.303 67.0795 141.888 67.5698 141.266 67.815C140.645 68.0602 140.23 68.7958 139.815 69.2862H138.779C138.157 70.267 136.913 70.3895 136.292 71.2477C135.773 71.3703 135.048 71.1251 134.737 71.8607H133.7C133.182 72.8415 131.835 72.8415 131.213 73.9448H129.555C129.347 74.3126 129.036 74.803 129.036 74.9256C128.415 75.0482 128.104 75.1708 127.896 75.1708C127.896 75.6612 127.793 76.029 127.793 76.3967C127.378 76.6419 126.756 76.6419 126.549 77.1323C126.342 77.7453 125.616 77.3775 125.305 77.8679V78.3583C124.891 78.6035 124.476 78.8486 123.958 79.0938C123.336 78.8486 123.336 78.1131 122.921 77.5001C122.818 78.1131 122.714 78.4809 122.611 79.0938C122.403 79.0938 122.092 79.2164 121.885 79.2164C121.367 79.7068 120.952 80.1972 120.434 80.6876C119.916 80.9328 119.709 80.565 119.398 80.1972C118.568 80.565 118.672 81.6684 117.947 82.1587C117.428 82.0361 117.221 81.5458 116.91 81.3006C116.288 81.5458 116.806 82.2813 116.496 82.6491C116.185 83.0169 115.666 82.7717 115.252 82.8943C114.63 83.5073 113.904 84.2429 113.283 84.8558C112.972 84.9784 112.764 84.9784 112.557 85.101C112.246 85.3462 112.661 86.0818 111.935 86.0818C111.832 86.0818 111.728 86.0818 111.728 86.0818C111.106 86.94 109.966 87.0626 109.344 87.9207V88.4111C108.411 88.9015 107.479 89.3919 106.028 90.1275C106.028 90.1275 105.509 90.6178 105.095 91.2308C104.68 91.8438 103.851 91.7212 103.436 92.3342C103.022 92.9472 102.193 92.8246 101.778 93.4375C101.467 93.9279 101.053 94.2957 100.431 94.5409C99.8089 94.6635 99.187 94.9087 98.7725 95.5217C98.3579 96.1347 97.5287 96.012 97.1142 96.625C96.9069 96.5024 96.6996 96.2572 96.4923 96.1347C95.7668 96.2572 95.2486 96.9928 94.4194 96.7476C94.3158 96.8702 94.3158 97.1154 94.2122 97.238C94.2122 97.3606 94.2122 97.3606 94.2122 97.4832C93.4866 97.7284 92.8648 98.464 91.7247 98.2188C91.3101 98.7092 90.8955 99.3221 90.3773 99.9351C90.2737 99.8125 90.2737 99.8125 90.17 99.6899C89.8591 99.9351 89.5482 100.18 89.1336 100.303C88.719 100.425 88.3045 100.18 87.9935 100.548V100.671C87.5789 100.916 87.1644 101.161 86.6462 101.406C86.3352 101.284 86.2316 100.793 85.6097 101.038C85.4024 100.671 85.2988 100.303 85.0915 99.9351H84.5733C84.0551 100.425 84.4696 101.038 84.366 101.651C84.4696 101.774 84.6769 102.019 84.8842 102.264C84.2624 102.632 83.6405 102.51 83.0186 102.387C82.915 102.264 82.915 102.142 82.8113 101.897C83.0186 101.897 83.3296 101.897 83.5368 101.897C83.6405 101.897 83.7441 101.774 83.7441 101.774C83.7441 101.651 83.6405 101.406 83.5368 101.406C83.3296 101.406 83.0186 101.406 82.8113 101.406C82.7077 101.284 82.7077 101.038 82.604 101.038C82.2931 100.916 82.2931 101.161 82.2931 101.406C81.9822 101.529 81.5676 101.161 81.3603 101.651C81.153 102.142 80.5312 101.774 80.3239 102.142C80.013 102.632 79.5984 102.387 79.1838 102.51C78.8729 102.632 78.6656 102.755 78.3547 102.877C78.251 102.755 78.1474 102.632 77.9401 102.51C77.6292 102.632 77.3182 102.877 77.0073 103C76.6964 102.755 76.5927 102.632 76.3854 102.387H75.349C75.1417 102.51 75.0381 102.755 74.7271 103C74.3126 102.755 73.898 102.632 73.4834 102.387C73.2761 102.51 73.0688 102.632 72.7579 102.877C72.8615 102.877 72.7579 102.877 72.7579 102.877C72.447 102.142 71.5142 102.632 71.2032 102.264C70.685 101.774 70.0632 101.897 69.6486 101.897C68.8194 101.038 70.0632 100.916 69.9595 100.303C69.8559 99.8125 69.3377 99.6899 69.234 99.3221H68.1976C67.6794 98.9543 67.4721 98.464 67.2648 97.851C67.1611 97.3606 66.4356 97.238 66.4356 96.625C66.9538 96.625 67.0575 96.012 67.4721 95.8895C67.1611 95.6443 66.9538 95.3991 66.7466 95.0313C66.4356 95.0313 66.1247 95.0313 65.5028 94.9087C65.3992 94.7861 65.1919 94.4183 64.881 94.0505C65.1919 93.6827 65.6065 93.9279 66.1247 93.8053C66.332 93.5601 66.6429 93.3149 66.9538 92.9472C66.7466 92.5794 66.6429 92.2116 66.4356 91.9664C67.0575 91.3534 67.2648 92.089 67.6794 92.3342H68.7158C69.0267 92.089 69.234 91.8438 69.4413 91.5986C69.1304 91.476 68.7158 91.2308 68.4049 91.1082C68.5085 90.9856 68.7158 90.863 68.9231 90.6178C68.9231 90.3727 68.9231 89.8823 69.0267 89.5145C69.234 89.2693 69.5449 89.0241 69.7522 88.7789H70.7887C71.2032 88.0433 71.2032 88.0433 70.5814 87.6755C70.685 87.5529 70.685 87.3078 70.7887 87.3078C71.2032 87.1852 71.6178 87.1852 72.0324 87.1852C72.0324 86.94 72.136 86.6948 72.136 86.327C71.6178 86.2044 71.2032 86.2044 70.685 86.0818C70.685 85.9592 70.7887 85.714 70.7887 85.714C71.3069 85.714 71.6178 85.4688 71.8251 85.101C72.136 84.6106 72.5506 84.4881 73.1725 84.4881C72.8615 84.1203 72.7579 83.9977 72.5506 83.7525C72.8615 83.6299 73.1725 83.5073 73.4834 83.3847C73.7943 82.7717 73.4834 82.0361 73.587 81.4232H74.4162C74.6235 81.178 74.8308 80.9328 75.1417 80.6876C74.9344 80.4424 74.7271 80.1972 74.5198 79.952H73.3798C73.1725 80.1972 72.9652 80.4424 72.6543 80.6876V81.7909C72.447 82.0361 72.136 82.1587 71.8251 82.4039C70.996 82.4039 70.2704 82.8943 69.5449 83.2621C69.5449 83.5073 69.5449 83.7525 69.5449 83.9977C69.4413 83.9977 69.1304 84.1203 69.1304 84.1203C69.1304 84.7332 69.4413 84.8558 69.6486 84.7332C69.8559 84.9784 69.9595 85.2236 70.1668 85.5914C69.7522 85.9592 69.3377 86.4496 68.9231 86.8174C68.3012 86.94 67.6794 86.6948 67.1611 86.94C67.2648 87.4304 68.0939 87.7981 67.2648 88.2885C67.1611 88.1659 67.0575 88.0433 66.8502 87.9207C66.332 88.0433 66.1247 88.5337 65.7101 88.9015C65.3992 88.6563 65.0883 88.4111 64.881 88.1659C64.9846 87.7981 65.0883 87.5529 65.1919 87.3078C65.3992 87.5529 65.6065 87.6755 65.8138 87.7981C66.0211 87.5529 66.332 87.3078 66.5393 87.0626V86.327C66.9538 85.9592 67.4721 85.4688 68.0939 84.9784C67.9903 84.8558 67.783 84.7332 67.783 84.6106C68.4049 83.9977 68.9231 83.5073 69.7522 82.6491C70.0632 82.6491 70.5814 82.2813 70.685 81.5458C70.7887 81.0554 71.0996 80.6876 71.7215 80.565C71.8251 80.9328 71.5142 81.4232 72.0324 81.5458C72.2397 80.8102 72.2397 80.8102 71.7215 80.565C71.7215 80.3198 71.6178 80.0746 71.7215 79.8294C72.136 79.2164 72.5506 78.4809 72.9652 77.9905C73.3798 77.9905 73.587 77.9905 73.7943 77.9905C73.898 78.4809 74.2089 78.7261 74.6235 78.9713C74.9344 78.6035 74.9344 78.2357 74.5198 77.9905H73.7943V77.1323C74.2089 77.0097 74.7271 77.0097 75.2453 76.8871C75.2453 76.6419 75.349 76.3967 75.4526 76.1516C75.6599 76.029 76.0745 76.029 76.2818 75.7838C76.5927 75.5386 76.8 75.2934 77.2146 75.416C77.7328 75.7838 77.4219 76.2741 77.4219 76.7645C77.3182 76.8871 77.2146 77.0097 77.1109 77.1323V78.9713C77.3182 78.8487 77.4219 78.8486 77.5255 78.8486C77.9401 78.4809 78.251 78.1131 78.562 77.7453C78.3547 77.5001 78.251 77.3775 78.0437 77.1323C78.0437 76.8871 78.0437 76.7645 78.1474 76.6419C78.6656 76.1516 79.4947 76.7645 80.1166 76.2741C80.013 76.1516 79.8057 75.9064 79.702 75.7838C79.9093 75.0482 80.7385 75.1708 81.153 74.6804V74.19C80.9458 73.9448 80.6348 73.6996 80.4275 73.4544C80.2202 73.577 80.1166 73.8222 79.9093 73.9448C79.702 73.8222 79.5984 73.577 79.3911 73.4544C78.9765 73.8222 79.1838 74.3126 79.1838 74.6804C78.9765 74.9256 78.7692 75.1708 78.562 75.416C78.0437 75.1708 77.6292 74.9256 77.1109 74.6804C77.3182 73.9448 77.3182 73.9448 77.9401 73.4544C78.1474 73.577 78.251 73.8222 78.4583 73.9448C78.8729 73.577 78.5619 73.0867 78.7692 72.5963C78.9765 72.3511 79.3911 71.9833 79.702 71.6155V71.1251C80.013 70.8799 80.5312 70.8799 80.7385 70.5121C81.153 70.0218 81.7749 70.6347 82.0858 70.1444C82.3968 69.654 82.915 69.8992 83.1223 69.654C83.2259 69.4088 83.2259 69.1636 83.3296 68.9184C83.6405 68.7958 83.9514 68.6732 84.2624 68.5506C84.0551 68.1828 83.8478 67.815 83.6405 67.3247C84.2623 67.2021 84.7806 67.0795 85.2988 66.9569C85.2988 66.7117 85.4024 66.4665 85.4024 66.2213C85.7134 65.8535 86.1279 66.0987 86.7498 65.9761C87.0607 65.6083 87.4753 65.1179 87.8899 64.505V63.892C88.5117 63.279 88.8227 62.4208 89.8591 62.4208C89.9628 62.1756 89.9628 61.9304 90.0664 61.5627C90.3773 61.1949 90.7919 61.4401 91.3101 61.3175C91.5174 61.5627 91.8283 61.8078 92.0356 62.053C91.8283 62.7886 91.3101 63.0338 90.3773 62.9112C90.6883 63.6468 90.8955 64.0146 91.2065 64.3824C90.8955 64.505 90.481 64.3824 90.7919 64.8727C90.8955 64.7501 90.9992 64.6276 91.2065 64.3824C91.5174 64.2598 91.932 64.0146 92.5538 63.6468C92.5538 63.4016 92.6575 62.9112 92.7611 62.4208C92.7611 62.2982 93.0721 62.2982 93.1757 62.1756C93.2794 62.5434 93.1757 62.9112 93.6939 62.5434C93.5903 62.4208 93.383 62.2982 93.1757 62.1756C92.9684 61.4401 92.2429 61.0723 91.6211 60.3367C91.932 60.2141 92.1393 60.0915 92.6575 59.8463C92.7611 59.8463 93.2794 60.0915 93.6939 60.3367C93.7976 60.7045 93.4866 61.1949 94.0049 61.6853C94.3158 61.0723 94.5231 60.5819 94.7304 59.9689C94.7304 59.9689 94.7304 59.8463 94.6267 59.7237C94.3158 59.3559 93.7976 59.6011 93.383 59.4785C93.2794 59.3559 93.1757 59.1107 93.1757 59.1107C93.5903 58.8656 93.5903 58.3752 93.5903 58.0074C93.5903 57.7622 93.6939 57.6396 93.9012 57.2718C94.1085 57.7622 94.2122 58.0074 94.3158 58.3752C94.834 58.6204 95.0413 58.3752 95.3522 58.0074C95.0413 57.6396 94.834 57.3944 94.6267 57.0266C94.7304 56.1684 95.4559 55.9233 95.9741 55.3103C96.0777 55.4329 96.1814 55.5555 96.3887 55.8007H97.5287C97.8397 55.5555 98.047 55.3103 98.2543 55.0651C98.047 54.8199 97.9433 54.6973 97.736 54.5747C97.6324 54.0843 97.9433 53.9617 98.1506 53.5939C98.3579 53.3487 98.3579 52.981 98.4615 52.7358H99.0834C99.2907 52.368 99.6016 52.1228 99.8089 51.755C100.223 51.0194 100.223 51.142 100.949 50.6516C101.674 50.1613 102.711 50.0387 103.126 49.0579C103.436 49.0579 103.644 49.0579 103.955 48.9353C104.058 49.3031 103.955 49.6709 104.473 49.3031C104.369 49.1805 104.162 49.0579 103.955 48.9353C103.955 48.5675 103.955 48.1997 103.955 47.7093C104.369 47.4642 104.887 47.219 105.406 46.8512H107.064V47.7093C106.753 47.8319 106.338 48.0771 106.028 48.1997C106.131 48.4449 106.131 48.6901 106.235 49.0579C106.857 48.8127 107.479 48.5675 107.997 48.3223C108.1 48.0771 108.204 47.7093 108.308 47.4642H109.448C109.966 46.4834 110.588 45.6252 111.106 45.38C111.521 45.2574 111.935 45.5026 112.246 45.1348V44.5219C114.008 44.1541 114.423 42.4377 115.045 41.2118C115.252 41.2118 115.459 41.2118 115.666 41.2118C116.185 40.3536 117.325 40.1084 117.428 38.8825C118.05 38.1469 118.983 37.5339 119.19 36.5531H120.33C120.434 36.0628 120.538 35.5724 120.952 35.2046C121.056 35.082 120.952 34.7142 120.849 34.469C120.33 34.8368 119.916 35.2046 119.398 35.4498C118.879 35.695 118.257 36.1853 117.532 35.9402C117.221 36.4305 116.392 36.3079 116.392 36.6757C116.185 37.2887 115.77 37.6565 115.459 38.1469C115.148 38.6373 114.941 39.1276 114.734 39.618C114.526 40.1084 114.215 40.5988 114.008 41.0892C113.801 40.9666 113.594 40.7214 113.49 40.5988C113.283 40.844 112.972 41.0892 112.764 41.3344C112.764 41.9473 112.661 42.4377 112.661 43.1733C112.143 43.1733 111.832 43.2959 111.417 43.2959C111.21 43.5411 110.899 43.7863 110.692 44.0315C110.692 44.1541 110.692 44.3993 110.692 44.5219C109.551 44.8896 108.722 45.7478 108.411 46.8512H106.753C106.546 46.4834 106.338 45.993 106.131 45.6252C106.546 45.1348 107.064 45.38 107.479 45.2574C107.686 45.0122 107.893 44.767 108.204 44.5219C108.308 44.1541 108.204 43.5411 108.411 43.2959C109.137 42.8055 108.411 41.7022 109.344 41.3344C108.93 40.7214 108.515 41.0892 107.893 41.0892C107.893 41.3344 107.789 41.5796 107.789 41.8248C107.479 41.9473 107.064 42.0699 106.753 42.3151C106.338 42.5603 106.131 43.0507 105.509 43.0507C105.198 43.0507 104.887 43.5411 104.577 43.9089C104.162 44.5219 103.436 44.5219 102.918 45.0122C102.711 45.1348 102.296 45.1348 101.778 45.1348C101.364 45.7478 100.638 46.1156 99.9126 46.4834C99.2907 46.7286 98.7725 47.0964 98.1506 47.3416C97.6324 47.5868 97.2178 48.1997 96.5959 48.4449C95.8704 48.8127 95.3522 49.5483 94.7304 50.1613C93.7976 50.6516 92.7611 50.8968 91.932 51.5098C91.5174 51.755 90.8955 52.1228 91.2065 52.981H90.3773C89.9628 53.3487 89.6518 53.8391 89.2373 54.2069C88.9263 54.5747 88.6154 54.9425 87.9935 55.0651C87.3717 55.0651 87.268 56.0459 86.6462 56.0459C86.0243 56.0459 85.9206 56.6588 85.5061 56.904C84.9879 57.1492 84.4696 57.3944 83.9514 57.6396C83.5368 57.8848 83.1223 58.13 82.5004 58.3752C82.1895 58.743 81.6713 59.1107 81.3603 59.6011C80.7385 60.4593 79.5984 60.5819 78.9765 61.4401C78.3547 62.2982 77.2146 62.4208 76.5927 63.279C76.3854 63.6468 75.8672 63.5242 75.5563 63.7694C75.1417 64.0146 74.7271 64.1372 74.3125 64.505C73.898 64.8727 73.5871 65.3631 72.9652 65.4857C72.447 65.6083 72.2397 66.3439 71.6178 66.4665C71.0996 66.5891 70.5814 66.9569 70.1668 67.2021V67.815C69.7522 67.9376 69.1304 67.815 68.8194 68.0602C68.5085 68.3054 67.9903 68.3054 67.783 68.5506C67.4721 69.041 66.8502 68.7958 66.5393 69.2862C66.332 69.654 65.9174 69.8992 65.6065 70.267C65.6065 70.3895 65.6065 70.6347 65.6065 70.7573C65.0883 71.0025 64.6737 71.2477 64.1555 71.6155C64.0518 71.6155 63.9482 71.6155 63.9482 71.6155H63.43C62.9117 72.2285 62.3935 72.7189 62.0826 73.2093H60.8389C60.4243 73.6996 60.0097 74.0674 59.5951 74.5578V75.1708C58.9733 75.416 58.2478 75.6612 57.6259 76.029C57.1077 76.3967 56.6931 77.0097 56.2785 77.5001H54.9312C54.6202 77.9905 54.5166 78.6035 53.8947 78.9713C53.6875 78.9713 53.2729 78.9713 52.9619 78.9713C52.9619 78.9713 52.8583 78.9712 52.7547 79.0938C52.1328 80.0746 50.7854 80.0746 50.3708 81.0554C50.0599 80.8102 49.749 80.6876 49.3344 80.3198C49.0235 80.8102 48.7126 81.3006 48.6089 81.5458H47.2615C47.0542 82.4039 46.4324 83.0169 45.6032 83.5073C45.2923 83.7525 44.9814 83.8751 44.5668 84.1203C44.4632 83.9977 44.3595 83.8751 44.1522 83.7525C43.7377 84.3655 43.2194 84.9784 43.0121 85.2236H41.5611C41.0429 85.714 40.6283 86.2044 40.1101 86.6948C38.97 86.94 38.2445 87.9207 36.8972 87.7981C36.5862 88.1659 36.1717 88.5337 35.8607 88.7789H34.8243C34.3061 89.2693 33.7879 89.7597 33.3733 90.2501C32.8551 90.4952 32.1296 89.8823 31.9223 90.863H25.7036C25.4964 90.9856 25.2891 91.2308 25.0818 91.3534H23.5271C23.3198 91.476 23.1126 91.7212 22.9053 91.8438C22.8016 91.476 22.698 91.2308 22.5943 90.863C22.387 90.863 22.1798 90.863 21.9725 90.863C21.5579 91.2308 21.7652 91.7212 21.7652 92.089C21.6615 92.2116 21.5579 92.3342 21.3506 92.3342C20.6251 92.3342 20.0032 92.3342 19.3814 92.3342C18.9668 91.9664 18.6559 91.5986 18.3449 91.3534C17.8267 91.8438 18.2413 92.5794 18.034 93.0698C17.7231 93.4375 17.5158 93.6827 17.3085 93.9279C17.1012 93.8053 16.7903 93.8053 16.4794 93.6827C16.6866 93.4375 16.8939 93.1924 16.9976 93.0698C16.4794 92.4568 15.7538 93.0697 15.0283 92.702C15.0283 92.5794 14.9247 92.3342 14.9247 92.089C15.132 91.8438 15.2356 91.7212 15.5466 91.476C15.2356 91.3534 15.0283 91.3534 14.8211 91.2308C14.6138 91.5986 14.5101 91.9664 14.3028 92.3342C14.1992 92.2116 14.0955 92.089 13.7846 91.8438C13.1628 91.5986 12.4372 91.9664 11.6081 91.7212C11.4008 91.476 11.1935 91.2308 10.8826 90.9856C10.9862 90.6178 11.4008 90.6178 11.4008 90.1275C11.919 89.7597 11.919 89.7597 11.7117 89.1467C11.1935 89.3919 11.5045 89.7597 11.4008 90.1275H10.6753C10.0534 89.0241 9.53522 87.7981 8.91336 86.6948C9.43158 86.0818 10.1571 86.6948 10.7789 86.4496C11.0899 86.0818 10.8826 85.714 10.5717 85.3462C10.2607 84.9784 10.3644 84.8558 10.8826 84.4881C11.5045 84.2429 11.7117 85.5914 12.4372 84.7332C12.3336 84.6106 12.23 84.3655 12.0227 84.2429C12.23 83.6299 13.37 83.3847 12.9555 82.4039C13.5773 82.2813 13.9919 82.2813 14.4065 82.2813C14.4065 82.0361 14.5101 81.7909 14.5101 81.5458C14.1992 81.3006 13.9919 81.0554 13.7846 80.8102C13.37 80.9328 13.2664 81.5458 12.7482 81.178C12.23 80.8102 12.5409 80.3198 12.5409 79.8294C12.5409 79.7068 12.8518 79.7068 12.9555 79.5842C13.0591 79.952 12.9555 80.3198 13.4737 79.952C13.37 79.8294 13.1628 79.7068 12.9555 79.5842C12.9555 79.2164 12.9555 78.8487 12.9555 78.3583C13.2664 78.2357 13.4737 78.1131 13.7846 78.1131C14.0955 77.7453 13.8883 77.2549 13.9919 76.8871C14.1992 76.6419 14.3028 76.5193 14.5101 76.3967V75.9064C14.4065 75.7838 14.3028 75.6612 14.3028 75.7838C13.7846 76.1516 13.1628 76.2741 12.5409 76.1516C12.5409 76.5193 12.4372 76.7645 12.4372 77.0097C12.7482 77.1323 13.0591 77.2549 13.37 77.3775C13.37 77.5001 13.2664 77.7453 13.2664 77.7453C12.6445 77.6227 12.4372 78.3583 11.919 78.3583C11.7117 78.1131 11.6081 77.7453 11.4008 77.5001V76.5193C12.1263 76.1516 11.7117 75.0482 12.7482 74.803C12.8518 74.9256 12.9555 75.0482 13.1628 75.1708C13.37 75.0482 13.4737 74.803 13.681 74.6804H14.7174C14.8211 74.9256 14.9247 75.2934 15.0283 75.6612C15.4429 75.416 15.9611 75.1708 16.3757 75.0482C16.1684 74.5578 15.4429 74.3126 15.3393 73.6996H16.7903C16.7903 73.4544 16.8939 73.0867 16.9976 72.8415C16.6866 72.7189 16.3757 72.7189 16.0648 72.7189C15.9611 72.5963 15.8575 72.4737 16.0648 72.3511C16.583 71.8607 16.4794 70.8799 17.5158 70.6347C17.7231 70.7573 17.9304 70.8799 18.2413 71.1251C18.7595 70.3895 19.3814 69.5314 20.0032 68.6732V67.815C21.247 67.2021 21.247 67.2021 21.7652 65.9761C21.9725 66.0987 22.1798 66.3439 22.2834 66.4665C23.1126 66.0987 23.8381 65.6083 24.6672 65.2405V64.1372C24.9781 64.0146 25.2891 63.892 25.6 63.7694C25.6 63.5242 25.7036 63.279 25.7036 63.0338C25.9109 62.7886 26.1182 62.5434 26.4291 62.2982C26.8437 62.2982 27.2583 62.2982 27.6729 62.1756C27.7765 61.6853 27.7765 61.3175 27.7765 60.8271C28.813 60.3367 29.7458 59.8463 30.7822 59.3559C30.5749 59.1107 30.4713 58.9881 30.264 58.743C30.8858 57.8848 32.1296 57.8848 32.5441 56.904H33.6842C33.7879 56.6588 33.7879 56.291 33.9951 56.0459C34.2024 55.6781 34.617 55.4329 34.9279 55.1877C34.7206 54.9425 34.617 54.8199 34.3061 54.5747C34.8243 54.4521 35.3425 54.4521 35.7571 54.3295C35.8607 54.0843 35.8607 53.8391 35.9644 53.5939C36.4826 53.1036 36.8972 52.6132 37.519 52.1228C37.3117 52.0002 37.0008 51.8776 36.8972 51.8776C36.3789 52.1228 35.7571 52.2454 35.4462 52.7358C34.5134 53.8391 32.9587 54.2069 32.2332 55.5555C31.9223 55.3103 31.8186 55.1877 31.6113 55.0651C31.5077 55.1877 31.4041 55.3103 31.3004 55.3103C30.7822 55.5555 30.264 55.8007 29.7458 56.0459C29.6421 56.0459 29.5385 56.0459 29.5385 56.0459C28.9166 56.6588 28.1911 57.3944 27.5692 58.13C27.1547 58.0074 26.8437 58.3752 26.5328 58.6204C25.9109 58.4978 25.7036 59.1107 25.2891 59.3559C24.9781 59.6011 24.5636 59.7237 24.2526 59.9689C24.2526 60.0915 24.2526 60.3367 24.2526 60.4593C22.387 61.4401 20.4178 62.4208 18.5522 63.279C17.9304 63.1564 17.8267 62.5434 17.3085 62.2982C17.1012 62.4208 16.8939 62.5434 16.4794 62.7886C16.2721 62.666 15.9611 62.4208 15.7538 62.1756C15.6502 62.2982 15.4429 62.5434 15.2356 62.666H14.1992C14.0955 62.9112 13.9919 63.279 13.8883 63.5242C13.2664 64.0146 13.0591 63.279 12.7482 63.1564C12.3336 63.1564 11.919 63.1564 12.0227 63.6468H10.0534C9.84615 63.5242 9.63887 63.279 9.53522 63.1564H8.39514C8.18785 62.7886 7.87692 62.4208 7.66964 62.1756C6.73684 62.053 6.52955 62.7886 6.11498 63.1564C5.59676 63.0338 5.90769 62.666 5.70041 62.2982C5.49312 62.053 4.9749 62.2982 4.45668 62.053C4.45668 62.053 4.24939 61.8079 4.04211 61.6853H2.28016C2.07287 61.4401 1.86559 61.1949 1.55466 60.8271V59.7237C1.24372 59.4785 0.82915 59.2333 0.518219 58.9882C0.518219 58.6204 0.518219 58.4978 0.518219 58.2526C0.414575 58.9882 0.207287 58.743 0 58.4978C0.207287 58.3752 0.414575 58.3752 0.621862 58.2526C1.45101 58.6204 1.76194 59.6011 2.59109 59.7237C2.69474 60.0915 2.59109 60.4593 3.10931 60.0915C3.00567 59.9689 2.79838 59.8463 2.59109 59.7237C2.59109 59.4785 2.59109 59.2333 2.59109 58.9882C2.07287 58.4978 1.45101 58.13 1.24372 57.517C0.932794 56.904 0.518219 56.4136 0.103644 55.9233C0.414575 55.4329 0.725506 54.8199 1.03644 54.2069V53.4713C1.24372 53.1036 1.45101 52.8584 1.55466 52.6132H2.07287V53.3488C2.28016 53.5939 2.59109 53.7165 2.90202 53.4713C3.21296 53.2262 3.42024 52.981 3.83482 53.1036C4.04211 53.4713 4.35304 53.8391 4.56032 54.3295C4.66397 54.6973 4.66397 55.1877 4.76761 55.5555C5.07854 55.9233 5.59676 55.5555 5.90769 55.8007C6.01134 55.5555 6.21862 55.4329 6.21862 55.3103C6.21862 54.4521 6.21862 53.5939 6.21862 52.8584C6.52955 52.368 6.94413 52.6132 7.66964 52.0002C7.87692 51.755 7.77328 52.1228 7.77328 52.368C7.66964 52.6132 6.94413 52.4906 7.56599 52.981H9.32794C9.43158 52.1228 9.017 51.755 7.66964 51.8776C7.25506 52.368 7.25506 52.1228 7.25506 51.8776C7.04777 51.755 6.94413 51.5098 6.73684 51.3872C6.84049 51.2646 7.04777 51.142 7.15142 51.142C7.77328 51.0194 8.49879 51.3872 9.017 50.6516C9.53522 50.529 10.2607 50.7742 10.5717 50.1613C11.2972 50.2839 11.2972 49.7935 11.5045 49.3031C11.6081 49.0579 11.919 48.8127 12.1263 48.5675H13.4737H13.681C13.8883 48.4449 14.0955 48.1997 14.1992 48.0771C14.4065 48.1997 14.6138 48.4449 14.7174 48.5675C14.9247 48.1997 15.4429 48.0771 15.3393 47.5868C15.6502 47.4642 16.0648 47.5868 15.7538 47.0964C15.6502 47.219 15.5466 47.3416 15.3393 47.5868C15.132 47.4642 14.7174 47.7093 14.5101 47.3416C14.7174 46.8512 15.0283 46.606 15.4429 46.4834C15.8575 46.3608 16.1684 46.1156 16.4794 45.8704C16.583 46.2382 16.4794 46.606 16.9976 46.2382C16.8939 46.1156 16.6866 45.993 16.4794 45.8704C16.583 45.2574 16.9976 45.38 17.4121 45.5026C17.5158 45.8704 17.6194 46.1156 17.7231 46.4834C18.3449 46.2382 18.5522 45.38 19.3814 45.5026C19.796 45.1348 20.2105 44.6445 20.7287 44.1541C20.5215 43.7863 20.3142 43.5411 20.2105 43.1733C20.5215 42.8055 20.936 42.4377 21.3506 41.9473C21.5579 41.8247 22.0761 41.9473 22.2834 41.5796C22.5943 41.0892 23.2162 41.7022 23.6308 41.2118C23.9417 40.9666 24.3563 40.844 24.6672 40.5988C24.4599 40.3536 24.3563 40.231 24.149 39.9858C24.149 39.7406 24.149 39.618 24.149 39.3728C24.3563 39.2502 24.5636 39.2502 24.9781 39.1276C25.7036 38.3921 26.5328 37.5339 27.3619 36.6757C28.0875 36.6757 28.502 36.0628 29.0202 35.5724C29.6421 35.8176 29.8494 34.9594 30.3676 35.082C30.4713 35.082 30.5749 35.082 30.6785 35.082C30.7822 34.8368 30.8858 34.469 30.9895 34.2238C31.1968 34.2238 31.404 34.1012 31.715 34.1012C32.0259 33.856 32.3368 33.4882 32.6478 33.1205C33.166 33.1205 33.7879 33.1205 34.4097 32.9979C34.5134 32.7527 34.5134 32.5075 34.617 32.1397C34.8243 32.0171 35.1352 31.8945 35.4462 31.7719C35.5498 31.5267 35.5498 31.2815 35.6534 31.0363C36.2753 30.7911 36.7935 30.5459 37.6227 30.1782C39.3846 28.3392 39.3846 28.3392 41.2502 27.6036C41.3538 27.3585 41.3538 27.1133 41.4575 26.9907C42.8049 26.3777 44.0486 25.7647 45.396 25.0291C47.2615 23.1902 47.2615 23.1902 49.5417 22.332C49.4381 22.2094 49.2308 21.9642 49.0235 21.7191C49.3344 21.5965 49.5417 21.5965 50.1636 21.3513C50.4745 20.9835 50.8891 20.3705 51.3036 19.8801H52.651C53.2729 19.2671 53.7911 18.7768 54.2057 18.2864H56.1749C56.2785 18.0412 56.3822 17.6734 56.4858 17.3056C56.6931 17.3056 56.9004 17.183 57.2113 17.183C57.315 16.9378 57.4186 16.6926 57.4186 16.4474C59.2842 15.4667 61.0462 14.6085 62.9117 13.6277H63.7409C64.3628 13.0148 65.0883 12.2792 65.6065 11.6662C66.1247 11.421 66.4356 11.2984 67.0575 11.0532H67.8866C68.3012 10.6854 68.6121 10.3177 69.0267 9.94987H70.3741C70.996 9.58208 71.4105 9.45949 71.8251 9.21429C71.8251 8.9691 71.9287 8.72391 72.0324 8.35612H73.587C73.7943 7.74314 73.898 7.13017 74.8308 6.76238H76.4891C76.6964 6.63978 76.9036 6.272 77.0073 6.272C77.7328 6.51719 77.9401 5.41383 78.562 5.65902C79.0802 5.16863 79.4947 4.67825 80.013 4.18787C80.2202 4.31046 80.3239 4.43306 80.5312 4.67825C80.7385 4.55566 80.8421 4.31046 81.0494 4.18787C81.2567 4.18787 81.5676 4.18787 81.7749 4.06527C81.8785 4.43306 81.7749 4.80085 82.2931 4.43306C82.1895 4.31046 81.9822 4.18787 81.7749 4.06527C81.8785 3.94268 81.8785 3.82008 81.9822 3.69749C82.604 3.57489 83.1223 3.4523 83.5368 4.06527C83.6405 3.94268 83.8478 3.94268 83.8478 3.82008C83.8478 3.08451 84.2624 2.83932 84.8842 2.59413C85.4024 2.59413 85.6097 2.47153 86.0243 2.22634C86.4389 2.22634 86.9571 2.22634 87.4753 2.22634C87.5789 2.34893 87.6826 2.47153 87.7862 2.59413C87.8899 2.59413 88.0972 2.71672 88.2008 2.71672C89.3409 2.71672 90.5846 2.71672 91.7247 2.71672C91.7247 2.83932 91.7247 3.08451 91.7247 3.2071H91.2065C90.7919 3.45229 90.481 3.69749 90.17 3.94268C90.6883 4.43306 91.2065 4.31046 91.7247 4.06527C91.7247 3.82008 91.7247 3.45229 91.8283 3.2071C92.4502 3.08451 93.1757 3.3297 93.7976 3.08451C93.7976 2.96191 93.9012 2.83932 93.9012 2.83932C93.4866 2.47153 93.0721 1.98115 92.6575 1.49076C92.4502 1.98115 92.3466 2.34893 92.2429 2.59413C92.1393 2.71672 91.932 2.71672 91.8283 2.71672C91.7247 2.10374 90.9992 1.85855 90.7919 1.24557C91.6211 0.877785 92.4502 1.24557 93.383 1.00038C93.1757 0.632594 92.9684 0.509998 92.8648 0.264807C92.9684 -0.10298 93.2794 0.0196153 93.6939 0.0196153C93.7976 0.264807 93.9012 0.632594 94.0049 0.877785C94.2121 1.00038 94.4194 1.00038 94.7304 1.12298C95.1449 1.49076 94.7304 1.98115 94.9377 2.22634C94.7304 2.47153 94.5231 2.59413 94.3158 2.83932C94.6267 2.96191 94.834 2.96191 95.0413 3.08451C95.2486 2.83932 95.4559 2.71672 95.6632 2.59413C95.8705 2.71672 96.0777 2.96191 96.1814 3.08451C96.596 3.2071 97.0105 2.96191 97.4251 3.3297C97.3215 3.45229 97.1142 3.69749 96.9069 3.94268V7.13017C97.2178 7.25276 97.4251 7.37536 97.736 7.37536C98.047 7.86574 97.8397 8.47872 97.9433 9.0917C98.047 9.21429 98.1506 9.33689 98.3579 9.58208C98.3579 9.82727 98.3579 10.0725 98.4615 10.4402C97.9433 11.2984 97.9433 11.2984 97.9433 12.034C97.9433 12.1566 97.9433 12.2792 97.8397 12.2792C96.9069 12.8922 96.9069 14.2407 95.8704 14.7311V15.8345C95.5595 16.2022 95.2486 16.4474 94.834 16.8152V18.8994C94.4194 19.2671 94.1085 19.6349 93.7976 19.8801V22.2094C93.5903 22.4546 93.4866 22.5772 93.2794 22.8224V24.0484C92.9684 24.2936 92.6575 24.6614 92.2429 25.0291C92.1393 25.3969 92.3466 25.8873 92.0356 26.2551C91.7247 26.0099 91.5174 25.5195 90.9992 25.7647C90.7919 26.1325 90.5846 26.5003 90.481 26.8681C90.3773 27.1133 90.2737 27.4811 90.0664 27.7262C89.8591 28.094 89.3409 28.3392 89.2373 28.707C89.1336 29.0748 89.1336 29.32 88.8227 29.5652C88.5117 29.8104 88.2008 30.1782 87.8899 30.5459C87.4753 31.0363 86.7498 31.2815 86.6462 32.1397C86.1279 32.2623 85.9206 32.6301 85.7134 32.9979C86.1279 33.243 86.4389 33.3656 86.6462 32.8753C86.6462 32.6301 86.6462 32.3849 86.6462 32.1397C87.0607 32.0171 87.1644 32.6301 87.7862 32.6301H88.4081C88.8227 32.2623 88.5117 31.7719 88.719 31.2815C89.1336 31.1589 89.7555 31.1589 90.17 30.7911C90.6883 30.4233 91.2065 30.6685 91.6211 30.4233C91.932 30.0556 91.7247 29.5652 91.8283 29.0748C92.0356 29.0748 92.3466 28.8296 92.4502 28.9522C92.8648 29.32 93.2794 29.4426 93.6939 29.5652C93.7976 29.5652 93.7976 29.8104 93.7976 29.933C93.1757 30.5459 92.5538 31.1589 91.7247 32.0171C91.932 32.0171 91.621 32.0171 91.4138 32.1397C91.3101 32.3849 91.2065 32.7527 90.9992 33.1205C90.7919 32.6301 90.5846 32.3849 90.481 32.0171C89.8591 32.3849 90.3773 32.9979 90.0664 33.3656C89.7555 33.7334 89.2372 33.4882 88.8227 33.4882C88.719 33.6108 88.6154 33.7334 88.4081 33.9786C88.0972 33.9786 87.6826 33.9786 87.1644 34.1012C87.0607 34.5916 87.0607 35.082 86.9571 35.4498C86.4389 35.8176 86.1279 35.4498 85.817 35.082C85.6097 35.2046 85.5061 35.3272 85.2988 35.5724H83.7441C83.2259 36.1853 82.604 36.7983 81.9822 37.6565C81.9822 37.6565 81.9822 37.7791 81.9822 37.9017C81.3603 38.3921 80.5312 38.3921 80.3239 39.2502C80.013 39.005 79.9093 38.8825 79.702 38.6373C79.3911 39.4954 78.7692 40.1084 78.1474 40.7214C77.9401 40.5988 77.8364 40.4762 77.6292 40.1084C77.3182 40.4762 77.1109 40.9666 76.9036 41.2118H76.1781C75.5563 42.4377 75.5563 42.4377 74.4162 43.0507C74.4162 43.1733 74.4162 43.4185 74.4162 43.6637C74.1053 43.7863 73.898 43.9089 74.0016 43.7863C73.0688 44.6445 72.5506 45.2574 71.8251 45.993C71.8251 46.2382 71.9287 46.4834 72.5506 46.4834C73.0688 46.1156 73.4834 45.5026 74.1053 45.0122H75.1417C75.349 44.6445 75.6599 44.1541 75.8672 43.9089C76.3854 43.9089 76.6964 43.9089 76.9036 43.7863C77.0073 44.1541 76.9036 44.5219 77.4219 44.1541C77.3182 44.0315 77.1109 43.9089 76.9036 43.7863C76.9036 43.2959 77.4219 43.1733 77.6292 42.9281C78.251 43.0507 78.5619 42.3151 79.1838 42.3151C79.702 42.0699 79.8057 41.2118 80.4275 41.0892C80.5312 41.457 80.4275 41.8248 80.9457 41.457C80.8421 41.3344 80.6348 41.2118 80.4275 41.0892ZM60.8389 54.5747C60.9425 54.9425 60.9425 55.4329 61.3571 55.0651C61.2534 54.9425 61.0462 54.8199 60.8389 54.6973C60.7352 54.3295 61.0462 53.8391 60.5279 53.7165C60.3207 54.3295 60.3206 54.3295 60.8389 54.5747ZM81.464 75.9064C81.7749 75.7838 82.2931 76.1516 82.5004 75.6612C81.7749 75.416 81.7749 75.416 81.6713 75.9064C81.2567 76.029 80.8421 76.029 81.2567 76.3967C81.3603 76.2741 81.464 76.1516 81.464 75.9064ZM81.464 71.8607H83.2259C83.4332 71.6155 83.8478 71.3703 83.8478 70.8799H82.0858C81.9822 71.2477 81.3603 71.3703 81.464 72.2285C81.0494 71.7381 81.0494 71.7381 80.3239 71.4929C80.3239 71.8607 80.4275 72.1059 80.4275 72.4737C80.9457 72.3511 81.2567 72.2285 81.464 71.8607ZM103.126 52.0002C102.089 52.2454 102.089 53.3487 101.571 54.0843C101.467 54.2069 101.674 54.3295 101.778 54.5747C101.985 54.4521 102.089 54.2069 102.296 54.2069C102.607 54.0843 102.918 53.9617 103.126 53.8391V52.0002C103.644 51.755 103.644 51.755 103.436 51.0194C102.918 51.2646 103.229 51.755 103.126 52.0002ZM94.834 94.6635H95.6632C95.8705 94.5409 96.0777 94.2957 96.1814 94.1731H97.2178C98.1506 93.3149 98.1506 93.3149 97.736 92.702C96.9069 93.5601 95.3522 93.3149 95.0413 94.5409C94.6267 94.6635 94.2122 94.6635 94.6267 95.0313C94.7304 95.0313 94.834 94.7861 94.834 94.6635ZM249.16 40.1084H247.916C247.709 40.231 247.501 40.4762 247.398 40.5988H246.568C245.947 40.844 245.532 41.0892 245.117 41.3344C245.117 41.3344 245.117 41.457 245.221 41.457C245.325 41.457 245.325 41.5796 245.428 41.5796C245.947 41.5796 246.465 41.5796 246.879 41.5796C247.294 40.844 247.916 41.0892 248.434 40.9666C248.641 40.7214 249.16 40.5988 249.16 40.1084C249.47 39.9858 249.989 40.3536 250.196 39.8632C249.367 39.618 249.367 39.618 249.16 40.1084ZM19.1741 75.1708C18.9668 75.0482 18.8632 74.9256 18.7595 74.9256C18.6559 74.9256 18.4486 74.9256 18.3449 75.0482C17.8267 76.1516 17.8267 76.1516 16.7903 76.6419C16.6866 76.8871 16.583 77.2549 16.4794 77.5001C16.2721 77.5001 16.0648 77.5001 15.9611 77.5001C15.2356 77.9905 15.0283 78.7261 14.7174 79.4616C15.2356 79.7068 15.6502 79.7068 16.0648 79.4616C16.0648 79.0938 16.1684 78.6035 16.1684 78.2357C16.8939 77.8679 17.5158 77.6227 18.1377 77.2549C17.9304 76.3967 19.0704 76.2741 19.1741 75.1708ZM133.804 17.3056C134.011 17.0604 134.322 16.8152 134.53 16.57C134.219 16.3248 134.011 15.9571 133.804 15.7119C133.286 15.7119 132.871 15.7119 132.664 15.7119C132.353 15.9571 132.146 16.2022 131.835 16.57C132.146 17.0604 131.628 17.796 132.146 18.2864C132.353 18.2864 132.56 18.1638 132.768 18.1638C132.871 17.796 132.975 17.5508 133.079 17.183H133.804V17.3056ZM87.6826 67.4473C88.6154 68.0602 88.8227 66.7117 89.5482 67.0795C89.5482 67.0795 89.7555 66.8343 89.8591 66.5891C89.5482 66.0987 89.3409 65.4857 89.03 64.9953C88.719 65.2405 88.5117 65.4857 88.2008 65.7309V66.8343C87.9935 67.0795 87.8899 67.2021 87.6826 67.4473ZM16.2721 92.5794C16.6866 92.4568 17.1012 92.702 17.5158 92.3342C17.4121 92.089 17.2049 91.8438 17.1012 91.5986C16.9976 90.9856 17.4121 90.3726 16.7903 89.8823C16.583 90.25 16.4794 90.6178 16.3757 90.863C16.0648 90.863 15.8575 90.9856 15.6502 90.9856C15.8575 91.5986 16.0648 92.089 16.2721 92.5794ZM141.888 81.6684V80.8102C141.474 80.8102 141.474 80.0746 140.955 80.1972C140.852 80.565 140.748 80.8102 140.645 81.178H139.608C139.401 81.4232 138.986 81.6684 138.883 82.0361C139.504 82.5265 139.712 81.7909 140.334 81.6684H141.888ZM254.342 42.6829C254.238 42.1925 254.238 41.9473 254.134 41.7022C253.409 41.5796 252.787 41.457 252.165 41.8248C252.165 42.0699 252.269 42.3151 252.269 42.5603H254.342V42.6829ZM88.8227 68.7958C88.3045 69.1636 87.8899 69.2862 87.5789 69.5314C87.7862 69.8992 87.8899 70.1444 87.8899 70.267H88.5117C88.6154 69.8992 88.8227 69.5314 88.9263 69.2862C89.3409 69.2862 89.3409 69.2862 89.6518 68.9184C89.3409 68.5506 88.8227 68.7958 88.8227 68.7958ZM251.543 44.8896C251.129 45.0122 250.818 45.1348 250.507 45.38C250.196 45.6252 249.885 45.8704 249.574 46.1156C249.678 46.2382 249.678 46.2382 249.781 46.3608C249.885 46.3608 249.989 46.4834 249.989 46.4834C250.507 46.2382 251.129 45.993 251.647 45.7478C251.647 45.38 251.647 45.1348 251.543 44.8896ZM80.013 8.11093C79.0802 7.62055 78.8729 8.47872 78.4583 8.72391C78.4583 8.9691 78.562 9.21429 78.562 9.45949C79.0802 9.21429 79.4947 8.9691 80.013 8.72391V8.11093ZM136.706 15.9571C136.188 15.5893 135.67 15.4667 135.151 15.9571C135.151 16.2022 135.255 16.4474 135.255 16.57C135.773 16.57 136.291 16.9378 136.706 16.4474V15.9571ZM143.961 75.6612C143.443 75.2934 143.132 74.6804 142.614 74.4352C142.303 74.9256 142.303 75.416 142.614 75.9064C143.028 75.9064 143.443 76.1516 143.961 75.6612ZM236.93 44.7671C237.137 44.5219 237.551 44.2767 237.655 43.9089C237.24 43.6637 236.722 43.6637 236.204 43.9089C236.204 44.1541 236.308 44.3993 236.308 44.7671H236.93ZM88.719 44.0315C88.9263 44.1541 89.1336 44.1541 89.4445 44.3993C89.6518 44.0315 89.8591 43.7863 90.2737 43.1733C90.2737 43.1733 90.481 42.8055 89.9628 42.8055C89.5482 43.1733 89.1336 43.6637 88.719 44.0315ZM100.534 54.8199C100.223 55.0651 99.8089 55.1877 99.498 55.4329C99.6016 55.8007 99.7053 56.0459 99.8089 56.1684C100.223 55.9233 100.742 55.6781 101.156 55.4329C100.845 55.1877 100.534 54.9425 100.534 54.8199ZM72.136 97.238C71.5142 97.238 71.0996 97.238 71.2032 98.0962C71.4105 98.2188 71.7215 98.464 72.0324 98.7092C72.447 98.3414 72.2397 97.851 72.136 97.238ZM241.594 42.9281C239.832 42.6829 239.832 42.6829 239.106 43.2959C240.039 43.1733 240.661 43.4185 241.594 42.9281ZM70.1668 47.4642C70.5814 47.3416 70.8923 47.3416 71.2032 47.219C71.0996 46.8512 71.0996 46.606 70.996 46.2382C70.685 46.3608 70.3741 46.3608 70.1668 46.3608V47.4642ZM98.9798 56.1684C98.5652 56.291 98.2543 56.291 97.9433 56.4136C98.047 56.7814 98.047 57.0266 98.1506 57.3944C98.4615 57.2718 98.7725 57.2718 98.9798 57.2718V56.1684ZM95.4559 59.9689C95.8704 59.8463 96.1814 59.8463 96.4923 59.7237C96.3887 59.3559 96.3887 59.1107 96.285 58.743C95.9741 58.8656 95.6632 58.8656 95.4559 58.8656V59.9689ZM96.3887 61.3175C95.9741 61.4401 95.6632 61.4401 95.3522 61.5627C95.4559 61.9304 95.4559 62.1756 95.5595 62.5434C95.8704 62.4208 96.1814 62.4208 96.3887 62.4208V61.3175ZM84.6769 73.8222C84.5733 73.3318 84.5733 73.0867 84.4696 72.8415C84.1587 72.9641 83.8478 72.9641 83.5368 72.9641C83.6405 73.3318 83.6405 73.577 83.7441 73.8222H84.6769ZM183.553 74.5578C183.242 74.6804 182.931 74.9256 182.62 75.0482C182.931 75.416 183.138 75.6612 183.449 75.9064C183.76 75.416 183.76 74.9256 183.553 74.5578ZM135.566 78.6035C135.67 79.0938 135.67 79.339 135.773 79.5842C136.084 79.4616 136.395 79.4616 136.706 79.339C136.602 78.9712 136.602 78.7261 136.499 78.4809H135.566V78.6035ZM63.119 53.2262C63.5336 52.7358 63.5336 52.4906 63.2227 52.1228C63.0154 52.1228 62.7045 52.2454 62.4972 52.2454C62.7045 52.4906 62.9117 52.8584 63.119 53.2262ZM234.131 45.6252C233.613 45.1348 233.095 45.1348 232.577 45.6252C233.095 45.993 233.613 45.993 234.131 45.6252ZM68.8194 49.0579C69.1304 48.5675 69.5449 48.4449 69.5449 48.0771C69.234 47.8319 68.9231 47.8319 68.6121 48.1997C68.6121 48.4449 68.7158 48.6901 68.8194 49.0579ZM98.6688 59.9689C98.9798 59.6011 99.3943 59.3559 99.498 58.9882C99.187 58.743 98.8761 58.743 98.5652 59.1107C98.5652 59.3559 98.5652 59.6011 98.6688 59.9689ZM106.857 26.1325C106.442 26.1325 106.338 26.1325 106.338 26.1325C106.235 26.1325 106.028 26.2551 105.924 26.2551C106.028 26.3777 106.028 26.5003 106.131 26.6229C106.338 26.7455 106.442 26.9907 106.753 27.2359C106.649 26.8681 106.753 26.6229 106.857 26.1325ZM66.4356 49.6709C66.8502 50.0387 67.1611 50.0387 67.5757 49.7935C67.5757 49.5483 67.4721 49.3031 67.4721 49.1805C67.1611 49.3031 66.8502 49.5483 66.4356 49.6709ZM16.2721 50.529C16.6866 50.1613 16.6866 49.7935 16.2721 49.4257C16.0648 49.6709 15.6502 49.9161 15.5466 50.4065C15.8575 50.4065 16.0648 50.529 16.2721 50.529ZM113.075 39.8632C112.661 39.4954 112.35 39.4954 111.935 39.7406C111.935 39.9858 112.039 40.231 112.039 40.3536C112.35 40.231 112.661 40.1084 113.075 39.8632ZM100.016 91.5986C99.498 91.7212 99.3943 92.089 99.0834 92.3342C99.3943 92.702 99.8089 92.702 100.12 92.3342C100.016 92.089 100.016 91.8438 100.016 91.5986ZM149.351 69.7766C148.936 70.1444 148.936 70.5121 149.351 70.7573C149.662 70.3895 149.662 70.0218 149.351 69.7766ZM124.476 75.7838C124.683 75.6612 125.098 76.2741 125.305 75.6612C124.994 75.2934 124.683 75.416 124.476 75.7838ZM141.785 75.5386C141.681 75.5386 141.577 75.5386 141.474 75.5386C141.474 75.7838 141.37 76.029 141.37 76.2741C141.37 76.2741 141.474 76.3967 141.577 76.3967C141.681 76.3967 141.888 76.2741 141.888 76.1516C141.888 76.029 141.785 75.7838 141.785 75.5386ZM74.0016 85.3462C74.4162 84.9784 74.4162 84.6106 74.0016 84.3655C73.6907 84.6106 73.6907 84.9784 74.0016 85.3462ZM67.8866 93.5601C67.5757 94.0505 67.3684 94.4183 67.9903 94.5409C68.1976 94.2957 68.1976 94.0505 67.8866 93.5601ZM230.504 46.606C230.815 46.9738 231.229 46.9738 231.54 46.606C231.229 46.2382 230.918 46.2382 230.504 46.606ZM86.5425 67.815C86.3352 67.9376 85.9206 67.3247 85.7134 67.9376C86.0243 68.3054 86.3352 68.3054 86.5425 67.815ZM84.8842 68.6732C84.5733 69.1636 84.366 69.5314 84.9879 69.654C85.1951 69.4088 85.1951 69.041 84.8842 68.6732ZM131.109 17.6734C131.213 17.796 131.213 17.796 131.317 17.9186C131.42 17.796 131.42 17.6734 131.524 17.5508C131.524 17.5508 131.42 17.4282 131.317 17.4282C131.213 17.4282 131.109 17.5508 131.109 17.6734ZM133.804 18.2864C133.908 18.2864 134.011 18.1638 134.115 18.0412C134.011 18.0412 134.011 17.9186 133.908 17.9186C133.804 17.9186 133.7 18.0412 133.597 18.0412C133.7 18.1638 133.7 18.1638 133.804 18.2864ZM138.779 19.1445C138.883 19.2671 138.883 19.2671 138.986 19.3897C139.09 19.2671 139.09 19.1445 139.194 19.0219C139.194 19.0219 139.09 18.8994 138.986 18.8994C138.986 18.8994 138.883 19.0219 138.779 19.1445ZM116.703 21.2287C116.806 21.3513 116.806 21.3513 116.91 21.4739C117.014 21.3513 117.014 21.2287 117.117 21.1061C117.117 21.1061 117.014 20.9835 116.91 20.9835C116.806 20.9835 116.703 21.1061 116.703 21.2287ZM98.4615 30.4233C98.3579 30.3008 98.3579 30.3008 98.2543 30.1782C98.1506 30.3008 98.1506 30.4233 98.047 30.5459C98.047 30.5459 98.1506 30.6685 98.2543 30.6685C98.3579 30.6685 98.3579 30.5459 98.4615 30.4233ZM99.3943 30.6685C99.498 30.5459 99.498 30.5459 99.6016 30.5459C99.498 30.5459 99.3943 30.4233 99.2907 30.4233C99.2907 30.4233 99.187 30.5459 99.0834 30.5459C99.187 30.5459 99.2907 30.6685 99.3943 30.6685ZM82.0858 35.3272C82.1895 35.4498 82.1895 35.4498 82.2931 35.4498C82.3968 35.3272 82.3968 35.2046 82.5004 35.082C82.5004 35.082 82.3968 34.9594 82.2931 34.9594C82.1895 35.082 82.1895 35.2046 82.0858 35.3272ZM251.336 39.7406C251.232 39.8632 251.232 39.8632 251.129 39.9858C251.232 39.9858 251.336 40.1084 251.44 40.1084C251.44 40.1084 251.543 39.9858 251.647 39.9858C251.543 39.8632 251.44 39.7406 251.336 39.7406ZM110.277 41.457C110.173 41.3344 110.173 41.2118 110.07 41.0892C109.966 41.0892 109.862 41.2118 109.862 41.2118C109.862 41.3344 109.966 41.457 110.07 41.5796C110.173 41.5796 110.277 41.5796 110.277 41.457ZM22.698 42.4377C22.5943 42.4377 22.5943 42.3151 22.4907 42.3151C22.387 42.3151 22.2834 42.4377 22.1798 42.4377C22.2834 42.4377 22.2834 42.5603 22.387 42.5603C22.4907 42.5603 22.5943 42.5603 22.698 42.4377ZM248.745 42.3151C248.641 42.4377 248.641 42.4377 248.538 42.4377C248.641 42.4377 248.745 42.5603 248.849 42.5603C248.849 42.5603 248.952 42.4377 249.056 42.4377C248.952 42.4377 248.849 42.3151 248.745 42.3151ZM23.4235 45.2574C23.5271 45.2574 23.6308 45.1348 23.7344 45.0122C23.6308 45.0122 23.6308 44.8896 23.5271 44.8896C23.4235 44.8896 23.3198 45.0122 23.2162 45.0122C23.3198 45.1348 23.3198 45.1348 23.4235 45.2574ZM22.2834 45.5026C22.387 45.6252 22.387 45.7478 22.4907 45.8704C22.5943 45.8704 22.698 45.7478 22.698 45.7478C22.698 45.6252 22.5943 45.5026 22.4907 45.38C22.387 45.38 22.387 45.38 22.2834 45.5026ZM20.6251 47.0964C20.5215 46.9738 20.5215 46.9738 20.4178 46.8512C20.3142 46.9738 20.3142 47.0964 20.2105 47.219C20.2105 47.219 20.3142 47.3416 20.4178 47.3416C20.4178 47.3416 20.5215 47.219 20.6251 47.0964ZM88.719 50.7742C88.6154 50.7742 88.6154 50.6516 88.5117 50.6516C88.4081 50.6516 88.3045 50.7742 88.2008 50.7742C88.3045 50.7742 88.3045 50.8968 88.4081 50.8968C88.5117 50.8968 88.6154 50.7742 88.719 50.7742ZM67.9903 51.2646C67.8866 51.142 67.8866 51.142 67.783 51.0194C67.6794 51.142 67.6794 51.2646 67.5757 51.3872C67.5757 51.3872 67.6794 51.5098 67.783 51.5098C67.8866 51.3872 67.9903 51.3872 67.9903 51.2646ZM8.49879 54.2069C8.39514 54.2069 8.2915 54.3295 8.2915 54.3295C8.2915 54.4521 8.39514 54.5747 8.49879 54.6973C8.60243 54.6973 8.70607 54.5747 8.70607 54.5747C8.70607 54.3295 8.60243 54.2069 8.49879 54.2069ZM2.69474 55.5555C2.79838 55.6781 2.79838 55.6781 2.90202 55.8007C3.00567 55.6781 3.00567 55.5555 3.10931 55.4329C3.10931 55.4329 3.00567 55.3103 2.90202 55.3103C2.79838 55.3103 2.69474 55.4329 2.69474 55.5555ZM96.3887 58.13C96.285 58.0074 96.285 57.8848 96.1814 57.7622C96.0777 57.7622 95.9741 57.8848 95.9741 57.8848C95.9741 58.0074 96.0777 58.13 96.1814 58.2526C96.285 58.2526 96.285 58.13 96.3887 58.13ZM98.047 58.13C98.1506 58.2526 98.1506 58.2526 98.2543 58.2526C98.3579 58.13 98.3579 58.0074 98.4615 57.8848C98.4615 57.8848 98.3579 57.7622 98.2543 57.7622C98.2543 57.8848 98.1506 58.0074 98.047 58.13ZM95.3522 60.5819C95.2486 60.4593 95.2486 60.4593 95.1449 60.4593C95.0413 60.5819 95.0413 60.7045 94.9377 60.8271C94.9377 60.8271 95.0413 60.9497 95.1449 60.9497C95.2486 60.8271 95.2486 60.7045 95.3522 60.5819ZM224.078 60.9497C223.974 60.9497 223.87 61.0723 223.87 61.0723C223.87 61.1949 223.974 61.3175 224.078 61.4401C224.181 61.4401 224.285 61.3175 224.285 61.3175C224.181 61.0723 224.181 61.0723 224.078 60.9497ZM175.78 62.2982C175.676 62.1756 175.676 62.053 175.572 61.9305C175.469 61.9305 175.365 62.053 175.365 62.053C175.365 62.1756 175.469 62.2982 175.572 62.4208C175.676 62.4208 175.78 62.2982 175.78 62.2982ZM94.834 62.7886C94.7304 62.666 94.7304 62.5434 94.6267 62.4208C94.5231 62.4208 94.4194 62.5434 94.4194 62.5434C94.4194 62.666 94.5231 62.7886 94.6267 62.9112C94.7304 62.9112 94.7304 62.9112 94.834 62.7886ZM208.22 65.6083C208.117 65.6083 208.013 65.7309 207.909 65.8535C208.013 65.8535 208.013 65.9761 208.117 65.9761C208.22 65.9761 208.324 65.8535 208.428 65.8535C208.324 65.7309 208.22 65.7309 208.22 65.6083ZM206.873 66.2213C206.977 66.3439 206.977 66.4665 207.08 66.5891C207.184 66.5891 207.287 66.4665 207.287 66.4665C207.287 66.3439 207.184 66.2213 207.08 66.0987C206.977 66.0987 206.977 66.2213 206.873 66.2213ZM202.52 67.2021C202.416 67.2021 202.313 67.3247 202.209 67.3247C202.313 67.3247 202.313 67.4473 202.416 67.4473C202.52 67.4473 202.623 67.3247 202.727 67.3247C202.623 67.3247 202.623 67.3247 202.52 67.2021ZM136.395 68.1828C136.292 68.1828 136.188 68.3054 136.188 68.3054C136.188 68.428 136.292 68.5506 136.395 68.6732C136.499 68.6732 136.602 68.5506 136.602 68.5506C136.602 68.428 136.499 68.3054 136.395 68.1828ZM60.217 69.7766C60.1134 69.7766 60.0097 69.8992 59.9061 70.0218C60.0097 70.0218 60.0097 70.1444 60.1134 70.1444C60.217 70.1444 60.3206 70.0218 60.4243 70.0218C60.3206 69.8992 60.217 69.8992 60.217 69.7766ZM196.716 69.7766C196.612 69.8992 196.612 69.8992 196.509 70.0218C196.612 70.0218 196.716 70.1444 196.819 70.1444C196.819 70.1444 196.923 70.0218 197.027 70.0218C196.923 69.8992 196.819 69.8992 196.716 69.7766ZM193.606 71.2477C193.71 71.1251 193.814 71.1251 193.917 71.0025C193.814 71.0025 193.814 70.8799 193.71 70.8799C193.606 70.8799 193.503 71.0025 193.399 71.0025C193.503 71.1251 193.503 71.1251 193.606 71.2477ZM146.863 72.7189C146.967 72.5963 146.967 72.5963 147.07 72.4737C146.967 72.4737 146.863 72.3511 146.76 72.3511C146.76 72.3511 146.656 72.4737 146.552 72.4737C146.552 72.5963 146.76 72.7189 146.863 72.7189ZM19.0704 73.6996C18.9668 73.577 18.9668 73.4544 18.8632 73.3318C18.7595 73.3318 18.6559 73.4544 18.6559 73.4544C18.6559 73.577 18.7595 73.6996 18.8632 73.8222C18.8632 73.8222 18.9668 73.8222 19.0704 73.6996ZM184.589 73.6996C184.486 73.577 184.486 73.4544 184.382 73.3318C184.279 73.3318 184.175 73.4544 184.175 73.4544C184.175 73.577 184.279 73.6996 184.382 73.8222C184.486 73.8222 184.486 73.8222 184.589 73.6996ZM140.852 77.7453C140.748 77.7453 140.748 77.6227 140.645 77.6227C140.541 77.6227 140.437 77.7453 140.334 77.7453C140.437 77.7453 140.437 77.8679 140.541 77.8679C140.541 77.8679 140.748 77.8679 140.852 77.7453ZM76.4891 80.565C76.5927 80.565 76.6964 80.4424 76.8 80.3198C76.6964 80.3198 76.6964 80.1972 76.5927 80.1972C76.4891 80.1972 76.3854 80.3198 76.2818 80.3198C76.3854 80.4424 76.4891 80.4424 76.4891 80.565ZM117.532 80.4424C117.428 80.3198 117.428 80.1972 117.325 80.0746C117.221 80.0746 117.117 80.1972 117.117 80.1972C117.117 80.3198 117.221 80.4424 117.325 80.565C117.428 80.565 117.428 80.565 117.532 80.4424ZM74.5198 83.1395C74.6235 83.1395 74.7271 83.0169 74.8308 82.8943C74.7271 82.8943 74.7271 82.7717 74.6235 82.7717C74.5198 82.7717 74.4162 82.8943 74.3125 82.8943C74.3125 83.0169 74.4162 83.1395 74.5198 83.1395ZM139.608 84.2429C139.712 84.1203 139.712 84.1203 139.815 83.9977C139.712 83.9977 139.608 83.8751 139.504 83.8751C139.504 83.8751 139.401 83.9977 139.297 83.9977C139.401 84.1203 139.504 84.1203 139.608 84.2429ZM152.564 86.6948C152.46 86.5722 152.46 86.4496 152.356 86.327C152.253 86.327 152.149 86.4496 152.149 86.4496C152.149 86.5722 152.253 86.6948 152.356 86.8174C152.46 86.8174 152.564 86.6948 152.564 86.6948ZM69.1304 94.9087C69.0267 94.9087 69.0267 94.7861 68.9231 94.7861C68.8194 94.7861 68.7158 94.9087 68.6121 94.9087C68.7158 94.9087 68.7158 95.0313 68.8194 95.0313C68.9231 95.0313 69.0267 94.9087 69.1304 94.9087ZM86.9571 99.4447C86.8534 99.4447 86.7498 99.5673 86.6462 99.6899C86.7498 99.6899 86.7498 99.8125 86.8534 99.8125C86.9571 99.8125 87.0607 99.6899 87.1644 99.6899C87.1644 99.5673 87.0607 99.4447 86.9571 99.4447ZM170.908 79.7068C170.805 79.8294 170.805 79.8294 170.701 79.952C170.805 79.952 170.909 80.0746 171.012 80.0746C171.012 80.0746 171.116 79.952 171.219 79.952C171.116 79.8294 171.012 79.7068 170.908 79.7068Z" fill="#F5F9FA"/>
</svg>
