<svg width="29" height="29" viewBox="0 0 29 29" fill="none" xmlns="http://www.w3.org/2000/svg">
<path d="M14.4876 29C11.8101 29 9.32818 28.2914 7.04179 26.9043C6.69582 26.6933 6.41002 26.6631 6.03397 26.7988C4.65011 27.2662 3.2512 27.7034 1.85229 28.1557C1.6417 28.216 1.40103 28.412 1.22053 28.2311C1.00994 28.0351 1.22053 27.7788 1.29574 27.5526C1.747 26.1957 2.18322 24.8388 2.64952 23.4819C2.76986 23.1502 2.72473 22.8939 2.52918 22.5924C-0.388969 18.0543 -0.825188 13.2449 1.44616 8.37511C3.65733 3.62596 7.49305 0.836774 12.6825 0.143247C17.4057 -0.489973 21.4972 0.987541 24.8515 4.34964C30.1614 9.68678 30.387 18.2956 25.4532 23.9795C22.6404 27.236 18.7746 29 14.4876 29ZM19.2258 22.5321C19.3913 22.5321 19.5718 22.5623 19.7373 22.5321C21.8732 22.1552 23.1368 21.0546 23.212 19.0343C23.227 18.6574 23.1367 18.3709 22.7757 18.2051C21.7378 17.7226 20.6999 17.21 19.6771 16.7125C19.1506 16.4562 18.7445 16.5919 18.4136 17.0744C18.1729 17.4362 17.9021 17.783 17.6464 18.1146C17.1651 18.7328 16.8492 18.8232 16.1272 18.5217C13.7355 17.5568 11.9756 15.8682 10.6368 13.6821C10.4262 13.3353 10.4413 13.0036 10.697 12.7021C10.9828 12.3554 11.2987 12.0237 11.5845 11.6769C11.8552 11.3452 11.9605 10.9985 11.78 10.5763C11.3137 9.49078 10.8775 8.39019 10.4112 7.28959C10.3209 7.06344 10.1705 6.80714 9.92986 6.77698C9.11759 6.65637 8.32036 6.59606 7.64347 7.21421C6.39498 8.39019 6.00389 9.83755 6.2596 11.4809C6.48523 12.9735 7.2975 14.2098 8.1549 15.4159C10.5466 18.8082 13.6001 21.2657 17.6765 22.306C18.1729 22.4416 18.6843 22.5623 19.2258 22.5321Z" fill="#68B262"/>
</svg>
