<svg width="21" height="95" viewBox="0 0 21 95" fill="none" xmlns="http://www.w3.org/2000/svg">
<path d="M12.6667 27H14.4444V28.7H18V44H2V28.7H5.55556V27H7.33333V28.7H12.6667V27ZM7.33333 30.4H3.77778V32.1H16.2222V30.4H7.33333ZM3.77778 33.8V42.3H16.2222V33.8H3.77778ZM5.55556 35.5H7.33333V37.2H5.55556V35.5ZM10.8889 35.5H9.11111V37.2H10.8889V35.5ZM12.6667 35.5H14.4444V37.2H12.6667V35.5ZM7.33333 38.9H5.55556V40.6H7.33333V38.9ZM9.11111 38.9H10.8889V40.6H9.11111V38.9ZM14.4444 38.9H12.6667V40.6H14.4444V38.9Z" fill="#D0DFE4"/>
<path fill-rule="evenodd" clip-rule="evenodd" d="M10.5 1.54545C6.65911 1.54545 3.54545 4.65911 3.54545 8.5C3.54545 12.3409 6.65911 15.4545 10.5 15.4545C14.3409 15.4545 17.4545 12.3409 17.4545 8.5C17.4545 4.65911 14.3409 1.54545 10.5 1.54545ZM2 8.5C2 3.80558 5.80558 0 10.5 0C15.1944 0 19 3.80558 19 8.5C19 13.1944 15.1944 17 10.5 17C5.80558 17 2 13.1944 2 8.5ZM10.5 3.09091C10.9268 3.09091 11.2727 3.43687 11.2727 3.86364V8.02243L13.9365 9.35431C14.3182 9.54516 14.4729 10.0093 14.2821 10.391C14.0912 10.7727 13.627 10.9275 13.2453 10.7366L10.1544 9.19115C9.89264 9.06025 9.72727 8.79269 9.72727 8.5V3.86364C9.72727 3.43687 10.0732 3.09091 10.5 3.09091Z" fill="#D0DFE4"/>
<path d="M0.0114812 59.9245C0.0114812 57.8703 0.0114812 55.816 0.0114812 53.7618C0.0229625 52.1869 1.20553 51 2.78994 51C6.63615 51 10.4824 51 14.3286 51C14.6156 51 14.8797 51.0228 15.0634 51.2625C15.2586 51.5021 15.2815 51.7646 15.1552 52.0271C15.0174 52.3353 14.7534 52.438 14.4204 52.438C12.5605 52.438 10.689 52.438 8.82907 52.438C7.03799 52.438 5.24692 52.438 3.44437 52.438C2.12403 52.438 1.44664 53.1113 1.44664 54.4123C1.44664 58.0871 1.44664 61.7733 1.44664 65.4481C1.44664 66.7492 2.12403 67.4339 3.44437 67.4225C3.93806 67.4225 4.42027 67.4111 4.84508 67.7306C5.30433 68.0844 5.57988 68.5181 5.57988 69.1115C5.57988 69.6365 5.57988 70.1615 5.57988 70.6979C5.57988 71.0174 5.66025 71.2913 5.98172 71.4511C6.29171 71.6109 6.53282 71.4625 6.77393 71.2799C8.15167 70.2528 9.52942 69.2257 10.9072 68.1985C11.6075 67.6736 12.3768 67.4111 13.2608 67.4225C14.6041 67.4453 15.9589 67.4339 17.3022 67.4225C18.5996 67.4225 19.2885 66.7263 19.2885 65.4367C19.2885 61.8304 19.2885 58.2241 19.2885 54.6063C19.2885 54.1955 19.4033 53.8645 19.8281 53.7504C20.3333 53.6134 20.7236 53.9672 20.7236 54.5493C20.7236 56.2041 20.7236 57.8589 20.7236 59.5137C20.7236 61.6706 20.7236 63.8162 20.7236 65.9731C20.7236 67.7078 19.5525 68.8605 17.8074 68.8605C16.3722 68.8605 14.9371 68.8719 13.5019 68.8605C12.8016 68.8605 12.1931 69.0431 11.6305 69.4767C10.2642 70.5267 8.89795 71.5538 7.49724 72.5581C6.25727 73.4483 4.58101 72.8548 4.19065 71.4168C4.07584 71.006 4.14472 70.5952 4.13324 70.1843C4.12176 68.9746 4.01843 68.8719 2.8129 68.8605C1.58441 68.8491 0.723318 68.267 0.206662 67.1714C0.0574062 66.8405 0 66.4981 0 66.1329C0.0114812 64.0672 0.0114812 61.9902 0.0114812 59.9245Z" fill="#0E3449"/>
<path d="M10.379 55.1085C12.0208 55.1085 13.3756 56.1699 13.7774 57.779C14.1448 59.2626 13.4215 60.8946 12.0093 61.6022C11.4812 61.8647 11.1253 62.1956 11.0679 62.8119C11.0334 63.1999 10.666 63.4168 10.2757 63.3711C9.91974 63.3369 9.65567 63.063 9.64419 62.675C9.62123 61.6136 10.1494 60.8832 11.0793 60.4267C11.7682 60.0843 12.2275 59.5936 12.3423 58.8176C12.503 57.7904 11.8256 56.809 10.7808 56.5921C9.72456 56.3753 8.66829 57.003 8.4157 58.0073C8.36977 58.2013 8.34681 58.3953 8.31237 58.6007C8.24348 59.023 7.95645 59.2741 7.55461 59.2512C7.15276 59.2284 6.90018 58.9545 6.87721 58.5094C6.81981 56.7063 8.43866 55.1085 10.379 55.1085Z" fill="#0E3449"/>
<path d="M17.2563 51C17.6811 51 17.9911 51.2967 17.9796 51.719C17.9796 52.1184 17.6811 52.4151 17.2792 52.4266C16.8544 52.4266 16.5444 52.1184 16.5444 51.7076C16.5559 51.3081 16.8429 51.0114 17.2563 51Z" fill="#0E3449"/>
<path d="M10.4134 64.695C10.8267 64.7064 11.1252 65.0373 11.0908 65.471C11.0678 65.8704 10.7463 66.1443 10.3445 66.1215C9.94263 66.0987 9.6556 65.802 9.66708 65.3911C9.66708 64.9803 9.98855 64.6835 10.4134 64.695Z" fill="#0E3449"/>
<path d="M16 89.45L16.687 90.1766C16.8868 89.9878 17 89.7249 17 89.45H16ZM16 81.65H17C17 81.2506 16.7624 80.8896 16.3956 80.7316C16.0288 80.5736 15.6032 80.649 15.313 80.9234L16 81.65ZM5 81.65L4.31299 80.9234C4.1132 81.1122 4 81.3751 4 81.65H5ZM4 94C4 94.5523 4.44772 95 5 95C5.55228 95 6 94.5523 6 94H4ZM5 89.45C5.68701 90.1766 5.68648 90.1771 5.68596 90.1776C5.68578 90.1778 5.68526 90.1783 5.68491 90.1786C5.68422 90.1793 5.68354 90.1799 5.68287 90.1805C5.68152 90.1818 5.68021 90.183 5.67894 90.1842C5.6764 90.1865 5.674 90.1887 5.67175 90.1908C5.66724 90.1948 5.66334 90.1982 5.66005 90.2011C5.65346 90.2067 5.64937 90.21 5.64792 90.2111C5.64499 90.2134 5.65285 90.207 5.67287 90.1944C5.71258 90.1694 5.80281 90.118 5.95529 90.0603C6.25897 89.9455 6.8249 89.8 7.75 89.8V87.8C6.6126 87.8 5.80353 87.9795 5.24783 88.1897C4.97063 88.2945 4.76007 88.4056 4.60643 88.5025C4.52977 88.5508 4.4678 88.5952 4.41922 88.633C4.39495 88.6519 4.37406 88.6691 4.3564 88.6843C4.34757 88.6919 4.33955 88.699 4.33232 88.7055C4.32871 88.7088 4.32529 88.7119 4.32207 88.7149C4.32046 88.7164 4.3189 88.7178 4.31738 88.7192C4.31663 88.7199 4.31588 88.7206 4.31515 88.7213C4.31478 88.7217 4.31424 88.7222 4.31406 88.7223C4.31352 88.7228 4.31299 88.7234 5 89.45ZM7.75 89.8C8.57352 89.8 9.27084 90.0543 10.1463 90.3853C10.9896 90.7043 12.011 91.1 13.25 91.1V89.1C12.4265 89.1 11.7292 88.8457 10.8537 88.5147C10.0104 88.1957 8.98898 87.8 7.75 87.8V89.8ZM13.25 91.1C14.3874 91.1 15.1965 90.9205 15.7522 90.7103C16.0294 90.6055 16.2399 90.4944 16.3936 90.3975C16.4702 90.3492 16.5322 90.3048 16.5808 90.267C16.6051 90.2481 16.6259 90.2309 16.6436 90.2157C16.6524 90.2081 16.6604 90.201 16.6677 90.1945C16.6713 90.1912 16.6747 90.1881 16.6779 90.1851C16.6795 90.1836 16.6811 90.1822 16.6826 90.1808C16.6834 90.1801 16.6841 90.1794 16.6848 90.1787C16.6852 90.1783 16.6858 90.1778 16.6859 90.1777C16.6865 90.1772 16.687 90.1766 16 89.45C15.313 88.7234 15.3135 88.7229 15.314 88.7224C15.3142 88.7222 15.3147 88.7217 15.3151 88.7214C15.3158 88.7207 15.3165 88.7201 15.3171 88.7195C15.3185 88.7182 15.3198 88.717 15.3211 88.7158C15.3236 88.7135 15.326 88.7113 15.3283 88.7092C15.3328 88.7052 15.3367 88.7018 15.34 88.6989C15.3465 88.6933 15.3506 88.69 15.3521 88.6889C15.355 88.6866 15.3472 88.693 15.3271 88.7056C15.2874 88.7306 15.1972 88.782 15.0447 88.8397C14.741 88.9545 14.1751 89.1 13.25 89.1V91.1ZM17 89.45V81.65H15V89.45H17ZM16 81.65C15.313 80.9234 15.3135 80.9229 15.314 80.9224C15.3142 80.9222 15.3147 80.9217 15.3151 80.9214C15.3158 80.9207 15.3165 80.9201 15.3171 80.9195C15.3185 80.9182 15.3198 80.917 15.3211 80.9158C15.3236 80.9135 15.326 80.9113 15.3283 80.9092C15.3328 80.9052 15.3367 80.9018 15.34 80.8989C15.3465 80.8933 15.3506 80.89 15.3521 80.8889C15.355 80.8866 15.3472 80.893 15.3271 80.9056C15.2874 80.9306 15.1972 80.982 15.0447 81.0397C14.741 81.1545 14.1751 81.3 13.25 81.3V83.3C14.3874 83.3 15.1965 83.1205 15.7522 82.9103C16.0294 82.8055 16.2399 82.6944 16.3936 82.5975C16.4702 82.5492 16.5322 82.5048 16.5808 82.467C16.6051 82.4481 16.6259 82.4309 16.6436 82.4157C16.6524 82.4081 16.6604 82.401 16.6677 82.3945C16.6713 82.3912 16.6747 82.3881 16.6779 82.3851C16.6795 82.3836 16.6811 82.3822 16.6826 82.3808C16.6834 82.3801 16.6841 82.3794 16.6848 82.3787C16.6852 82.3783 16.6858 82.3778 16.6859 82.3777C16.6865 82.3772 16.687 82.3766 16 81.65ZM13.25 81.3C12.4265 81.3 11.7292 81.0457 10.8537 80.7147C10.0104 80.3957 8.98898 80 7.75 80V82C8.57352 82 9.27084 82.2543 10.1463 82.5853C10.9896 82.9043 12.011 83.3 13.25 83.3V81.3ZM7.75 80C6.6126 80 5.80353 80.1795 5.24783 80.3897C4.97063 80.4945 4.76007 80.6056 4.60643 80.7025C4.52977 80.7508 4.4678 80.7952 4.41922 80.833C4.39495 80.8519 4.37406 80.8691 4.3564 80.8843C4.34757 80.8919 4.33955 80.899 4.33232 80.9055C4.32871 80.9088 4.32529 80.9119 4.32207 80.9149C4.32046 80.9164 4.3189 80.9178 4.31738 80.9192C4.31663 80.9199 4.31588 80.9206 4.31515 80.9213C4.31478 80.9217 4.31424 80.9222 4.31406 80.9223C4.31352 80.9228 4.31299 80.9234 5 81.65C5.68701 82.3766 5.68648 82.3771 5.68596 82.3776C5.68578 82.3778 5.68526 82.3783 5.68491 82.3786C5.68422 82.3793 5.68354 82.3799 5.68287 82.3805C5.68152 82.3818 5.68021 82.383 5.67894 82.3842C5.6764 82.3865 5.674 82.3887 5.67175 82.3908C5.66724 82.3948 5.66334 82.3982 5.66005 82.4011C5.65346 82.4067 5.64937 82.41 5.64792 82.4111C5.64499 82.4134 5.65285 82.407 5.67287 82.3944C5.71258 82.3694 5.80281 82.318 5.95529 82.2603C6.25897 82.1455 6.8249 82 7.75 82V80ZM4 81.65V89.45H6V81.65H4ZM6 94V89.45H4V94H6Z" fill="#EF7F1A"/>
</svg>
