<svg width="195" height="110" viewBox="0 0 195 110" fill="none" xmlns="http://www.w3.org/2000/svg">
<path d="M61.2632 43.8816V43.7507C61.7368 43.6198 62.1316 43.227 62.5263 42.8342C62.9211 42.5724 62.9211 41.6559 63.3947 41.2631C63.5526 41.1322 63.7105 40.8703 63.7895 40.7394C64.4211 41.1322 64.8158 40.0847 65.3684 40.0847C65.7632 39.561 66.0789 39.0373 66.4737 38.5136H67.2632C67.4211 37.859 67.6579 37.2043 68.1316 36.8116H68.8421C69.2368 36.2878 69.6316 35.7641 69.9474 35.2404H71.2105C71.4474 34.8476 71.6842 34.4549 71.8421 34.0621H72.7105C72.8684 33.9312 73.0263 33.6693 73.1842 33.5384C73.2632 33.9312 73.3421 34.193 73.4211 34.5858C73.5 34.5858 73.6579 34.4549 73.6579 34.4549C73.5 33.6693 73.8947 33.1456 74.0526 32.491C74.1316 31.9672 74.3684 32.0982 74.6053 31.9672C74.7632 31.9672 74.9211 31.7054 75.0789 31.4435H75.7895C76.0263 30.9198 76.2632 30.3961 76.4211 30.0033C76.9737 29.6105 77.3684 29.8724 77.7632 29.7415C78 30.2652 78.079 31.0508 78.5526 31.4435C78.6316 31.3126 78.7105 31.0508 78.7895 30.9198C78.7105 30.658 78.5526 30.527 78.3947 30.1343C78.4737 30.0033 78.6316 29.7415 78.7895 29.3487C78.7105 29.0868 78.5526 28.825 78.3947 28.4322C78.5526 27.7776 79.0263 28.4322 79.4211 28.0394C79.8947 26.8611 81 26.8611 81.7105 25.9446C82.1053 25.8137 82.5789 26.0755 82.9737 25.8137C82.8947 25.5518 82.8158 25.2899 82.6579 24.8972C83.1316 24.8972 83.6053 24.8972 83.9211 24.7662C84.3947 24.5044 84.7105 24.2425 85.0263 23.9807V23.457C85.3421 23.1951 85.6579 22.9333 86.1316 22.6714C86.3684 22.6714 86.8421 22.6714 87.3158 22.5405C87.3947 22.2786 87.3947 22.0168 87.3947 21.7549C87.7105 21.493 88.0263 21.2312 88.5 20.9693C88.6579 20.9693 89.0526 20.9693 89.2895 20.8384C89.3684 21.2312 89.2895 21.624 89.6842 21.2312C89.6053 21.1003 89.4474 20.9693 89.2895 20.8384C89.2895 20.1838 89.7632 20.4456 90 20.1838C90 20.0528 90.0789 19.791 90.0789 19.3982C90.2368 19.2673 90.4737 19.1364 90.7895 19.0054C90.7105 18.7436 90.5526 18.4817 90.4737 18.2199C90.7105 17.8271 91.1053 18.0889 91.4211 17.958C91.579 17.8271 91.7368 17.5652 91.8158 17.4343C92.0526 17.6962 92.2895 18.0889 92.5263 18.3508C92.8421 18.2199 93.1579 18.0889 93.4737 17.8271C93.5526 18.2199 93.5526 18.4817 93.6316 18.7436C93.1579 19.0054 92.6842 19.2673 92.4474 20.0528C92.5263 20.3147 92.5263 20.4456 92.6053 20.8384C92.9211 20.4456 93.1579 20.0528 93.4737 19.6601H95.0526C95.2895 19.2673 95.5263 19.0054 95.7632 18.7436C96.4737 18.7436 97.0263 18.2199 97.5789 17.8271C97.5789 17.8271 97.5789 17.6962 97.5789 17.5652H98.9211C99.079 17.3034 99.3947 17.0415 99.3947 16.5178H98.0526C97.8947 16.9106 97.5 17.0415 97.5 17.5652H96.1579C96 17.6962 95.9211 17.958 95.7632 18.0889C95.6053 17.958 95.5263 17.6962 95.3684 17.5652C94.8947 17.958 94.5 18.2199 94.1053 18.4817C93.7895 18.0889 94.0263 17.5652 93.9474 17.1724C94.1842 16.5178 94.6579 17.0415 95.0526 16.7797C95.1316 16.5178 95.2105 16.256 95.2895 15.7322C95.4474 15.8632 95.5263 15.9941 95.7632 16.256H97.0263C97.1053 15.9941 97.1053 15.8632 97.1842 15.7322C97.4211 15.6013 97.579 15.3395 97.8158 15.2085C97.8947 15.3395 97.9737 15.4704 98.0526 15.6013C98.1316 15.6013 98.2895 15.7322 98.3684 15.7322C99.3158 15.7322 100.342 15.7322 101.289 15.7322C101.447 15.4704 101.605 15.3395 101.763 15.0776C102 15.2085 102.158 15.3395 102.632 15.6013H104.842C105.158 16.6487 106.026 15.8632 106.342 16.6487C106.895 16.6487 107.447 16.7797 108.079 16.7797C108.158 16.9106 108.237 17.0415 108.395 17.1724H109.421C109.737 17.6962 110.447 17.5652 110.605 18.3508H109.658C109.5 18.2199 109.421 17.958 109.263 17.8271C108.868 17.958 108.395 17.6962 107.921 18.0889V19.2673C108.316 19.791 108.711 20.3147 109.026 20.8384V20.9693C109.026 21.493 109.105 21.8858 109.105 22.2786C109.342 22.2786 109.5 22.2786 109.737 22.4095C109.816 22.0168 109.895 21.7549 109.974 21.493C110.211 21.3621 110.447 21.2312 110.526 21.2312C110.763 20.5766 110.921 20.0528 111.158 19.3982C111 19.1364 110.842 19.0054 110.684 18.8745C110.684 18.8745 110.684 18.7436 110.684 18.6126H111.711C111.789 18.8745 111.868 19.1364 111.868 19.2673C111.868 19.6601 111.868 19.9219 112.105 20.3147C112.263 20.4456 112.263 20.7075 112.342 20.9693C112.184 21.2312 112.026 21.3621 111.947 21.624C112.421 22.2786 112.421 23.457 113.132 23.7188C113.132 23.9807 113.132 24.1116 113.132 24.2425C112.895 24.8972 112.658 25.4209 112.421 26.0755C112.658 26.3374 112.737 26.8611 112.895 27.3848C113.211 27.3848 113.526 27.5157 113.763 27.5157C114.079 28.1703 113.763 28.825 114 29.4796C114 29.4796 114 29.6105 114.079 29.6105C114.395 29.7415 114.711 29.7415 115.026 29.7415C115.105 30.0033 115.105 30.1343 115.105 30.2652C114.868 31.3126 113.842 31.5745 113.842 32.8837C113.368 32.8837 112.895 33.0147 112.5 33.0147C112.184 33.6693 112.421 34.3239 112.342 34.9786C112.026 35.3714 111.632 35.8951 111.237 36.4188C111 36.8116 110.921 37.3353 110.842 37.7281C110.921 37.859 111 37.9899 111.158 38.2518C110.684 38.5136 110.289 38.7755 109.895 39.0373C109.5 39.2992 109.105 39.692 109.184 40.4775C109.026 40.4775 108.868 40.6085 108.632 40.7394C108.395 41.6559 107.921 42.3105 107.368 42.8342C107.053 42.9651 106.737 42.5724 106.421 43.0961C106.579 43.3579 106.658 43.4889 106.816 43.6198C106.5 43.8816 106.342 44.5363 105.868 44.4054C105.237 45.3218 104.605 46.2383 104.053 47.1548C103.816 47.1548 103.737 47.1548 103.579 47.2858C103.5 47.2858 103.5 47.4167 103.421 47.4167C103.342 47.6785 103.263 48.0713 103.184 48.3332C103.026 48.3332 102.868 48.3332 102.789 48.3332C101.211 50.5589 99.6316 52.7847 98.1316 55.0105C97.9737 55.0105 97.8158 55.0105 97.6579 55.0105C97.5 55.4033 97.4211 55.796 97.2632 56.0579H96.8684C96.2368 56.9744 95.6053 57.8909 94.8947 58.8074C94.1842 59.7239 93.5526 60.6404 92.7632 61.4259C91.9737 62.0806 91.4211 63.2589 90.7895 64.1754C90.9474 64.3063 91.1053 64.3063 91.3421 64.4372C91.7368 63.6517 92.3684 63.3898 92.8421 62.8661C93.3158 62.2115 93.8684 61.9496 94.4211 61.6878C94.8947 61.4259 95.0526 60.3785 95.6842 60.5094C96.5526 59.3311 97.6579 58.8074 98.6842 58.0218C99.6316 57.3672 100.579 56.7125 101.132 55.6651C102 55.1414 102.632 54.7486 103.263 54.2249C103.5 53.9631 103.737 53.5703 103.974 53.3084H104.842C105.395 51.8682 106.579 51.4754 107.526 50.5589C107.684 50.428 108 50.428 108.474 50.428C108.553 50.2971 108.789 50.0352 108.789 49.7734C108.789 48.726 109.579 48.8569 109.974 48.3332C110.132 48.0713 110.605 48.4641 110.842 48.0713C111.079 47.8095 111.395 47.6785 111.632 47.4167C111.632 47.2858 111.632 47.0239 111.632 46.893C112.263 46.2383 113.053 45.9765 113.684 45.1909C114.079 44.6672 114.711 44.4054 115.263 44.0126C115.737 43.7507 116.132 43.227 116.526 42.7033C117.158 42.9652 117.553 42.1796 118.184 42.0487C118.5 41.525 118.816 41.0012 119.211 40.4775C119.921 40.6085 120.395 40.0847 120.947 39.692C121.5 39.2992 122.132 39.0373 122.447 38.1208H123.079C123.474 37.859 123.789 37.5971 124.184 37.3353C124.658 37.0734 125.053 36.6806 125.447 36.1569C125.763 35.7641 126.237 35.3714 126.553 35.3714C127.105 35.3714 127.342 34.8476 127.737 34.7167C128.132 34.5858 128.526 34.193 128.921 33.9312C129.395 33.6693 129.789 33.2765 130.184 33.0147C130.579 32.7528 130.974 32.36 131.447 32.491C131.842 31.4435 132.868 31.4435 133.263 30.3961C133.658 30.0033 134.053 30.3961 134.447 30.0033C134.921 29.3487 135.711 29.3487 136.184 28.5631C136.895 28.9559 137.289 27.9085 138 27.9085C138.632 27.9085 139.263 27.2539 139.816 26.7301C140.289 26.2064 140.763 25.6827 141.553 25.159H142.5C142.658 25.0281 142.816 24.7662 142.895 24.6353C143.053 24.7662 143.211 25.0281 143.289 25.159C143.447 25.159 143.526 25.159 143.684 25.159C143.763 24.8972 143.842 24.5044 143.921 24.1116C144.079 24.2425 144.158 24.3735 144.395 24.6353C144.474 24.5044 144.632 24.3735 144.789 24.1116H146.289C146.447 23.9807 146.605 23.7188 146.763 23.5879H147.553C147.711 23.457 147.868 23.1951 147.947 23.0642C148.105 23.1951 148.263 23.457 148.342 23.5879H149.132C149.289 23.457 149.447 23.1951 149.605 23.0642C149.842 23.8497 149.684 24.6353 149.763 25.2899C149.368 25.6827 149.368 25.6827 149.526 26.3374C149.921 26.0755 149.684 25.6827 149.763 25.2899C150.316 25.2899 150.079 25.9446 150.237 26.3374C150.474 26.5992 150.868 26.3374 151.105 26.4683C151.263 26.2064 151.421 26.0755 151.579 25.9446C151.737 26.4683 151.895 26.8611 152.132 27.5157V28.4322C152.289 28.6941 152.526 28.9559 152.684 29.2178C152.921 28.6941 153.158 28.1703 153.474 27.6466C153.711 27.9085 153.711 27.9085 153.632 29.7415C153.553 30.0033 153.395 30.1343 153.316 30.3961C153.553 30.527 153.789 30.527 153.947 30.527C154.263 30.9198 154.026 31.3126 154.105 31.8363C154.184 31.9672 154.342 32.2291 154.5 32.491V34.193C154.263 34.3239 154.026 34.5858 153.711 34.7167C153.868 34.9786 153.947 35.1095 154.105 35.3714C153.316 36.4188 152.526 37.5971 151.737 38.6445V39.692C151.263 40.3466 150.711 41.1322 150.158 41.9177V42.9652C149.842 43.227 149.526 43.4889 149.289 43.7507C149.053 44.1435 148.658 44.4054 148.658 44.9291C148.421 45.06 148.105 44.9291 148.342 45.4528C148.421 45.3218 148.5 45.1909 148.658 44.9291C148.737 45.06 148.895 45.06 148.895 45.1909C148.974 45.5837 148.974 45.8456 148.974 46.1074C147.947 47.5476 147 48.8569 145.895 50.428C145.579 50.5589 145.184 50.8208 145.026 51.6064C144.868 52.3919 144.395 52.6538 143.921 52.9156C143.842 53.1775 143.842 53.4393 143.763 53.7012C143.605 53.7012 143.447 53.8321 143.211 53.8321C142.895 54.6177 142.421 55.796 142.105 55.927C141.316 56.1888 141 57.1053 140.447 57.76H140.053C139.737 58.2837 139.737 59.3311 139.026 59.462C138.395 59.5929 138.395 60.5094 138.158 61.0331C138 61.0331 137.921 61.0331 137.763 61.0331C136.974 61.8187 136.5 63.128 135.553 63.5208V64.0445C135.158 64.5682 134.842 65.0919 134.447 65.6156V65.7465C134.921 66.4012 135.079 65.4847 135.395 65.3537C135.711 65.2228 136.026 65.4847 136.263 65.0919C136.5 64.6991 136.974 64.83 137.211 64.3063C137.368 64.0445 137.763 63.9135 138.237 63.6517H139.026C139.658 63.2589 140.132 62.6043 140.605 62.6043C141.158 62.6043 141.474 61.9496 142.026 61.9496C142.342 61.0331 143.211 61.8187 143.526 60.9022C143.684 61.0331 143.763 61.1641 143.921 61.4259C144.158 61.0331 144.474 60.7713 144.711 60.3785H145.342C145.816 59.9857 146.289 59.5929 146.763 59.3311H147.711C148.105 59.0692 148.5 58.8074 148.816 58.4146C149.132 58.0218 149.605 58.5455 149.921 58.0218C150.237 57.4981 150.789 57.629 151.026 57.1053H152.526C152.684 56.8435 152.842 56.5816 153 56.5816C153.711 56.7125 154.184 56.0579 154.737 55.6651C154.816 55.6651 154.974 55.4033 155.053 55.4033C155.684 55.796 155.921 54.7486 156.474 54.8795C156.632 54.8795 156.711 54.8795 156.868 54.8795C157.026 54.7486 157.105 54.4868 157.263 54.3558H158.447C158.605 54.2249 158.763 53.9631 158.842 53.8321H159.632C159.711 53.7012 159.711 53.7012 159.789 53.5703C159.868 53.4393 159.868 53.4393 159.947 53.4393C160.421 53.1775 160.974 53.4393 161.289 52.7847H162.632C163.342 52.261 164.053 51.7373 164.763 51.2136C164.842 51.4754 165 51.8682 165.158 52.3919C165.237 51.9991 165.316 51.7373 165.395 51.4754C166.421 50.6899 167.605 49.9043 168.789 48.9878H170.684C171 48.0713 171.632 47.9404 172.263 47.4167H173.289C173.447 47.2858 173.605 47.0239 173.763 46.893H174.947C175.026 47.0239 175.184 47.1548 175.342 47.4167C175.579 47.1548 175.895 47.0239 176.289 46.6311C176.289 46.5002 176.368 46.2383 176.526 45.8456C176.842 45.8456 177.079 45.8456 177.395 45.7146C177.632 45.06 178.184 45.3218 178.579 45.1909C178.658 45.06 178.737 44.9291 178.895 44.7981C179.053 44.9291 179.289 45.06 179.526 45.3218C180.079 44.9291 180.632 44.5363 181.184 44.2744C181.342 44.1435 181.579 44.2744 181.974 44.2744C182.289 43.8816 182.684 43.227 183.158 42.5724C183.711 42.4414 183.395 43.3579 183.711 43.6198C184.105 43.227 184.5 42.8342 184.421 42.0487H185.763C185.921 42.3105 186.079 42.4414 186.237 42.7033C186.395 42.5724 186.711 42.5724 186.711 42.4414C186.711 41.6559 187.105 41.394 187.421 41.0012C188.053 40.8703 187.737 41.7868 188.053 42.0487C188.289 41.525 188.605 41.0012 188.842 40.3466C189.079 40.4775 189.237 40.4775 189.474 40.6085C189.316 41.0012 189.158 41.394 189.079 41.6559C189.395 42.4414 189.789 42.0487 190.263 42.0487C190.263 41.7868 190.342 41.5249 190.342 41.2631C190.5 41.0012 190.658 40.7394 190.895 40.4775H192C192.158 40.3466 192.316 40.0847 192.474 39.9538H193.263C193.579 40.2157 193.421 40.7394 193.5 41.394C193.184 41.6559 192.868 41.9177 192.632 42.0487C193.026 43.0961 193.658 42.3105 193.895 42.9652C193.737 43.227 193.658 43.3579 193.5 43.6198C193.5 43.8816 193.5 44.0126 193.5 44.2744C193.658 44.4054 193.816 44.4054 194.053 44.5363C194.211 45.1909 194.526 45.8456 195 46.3693C194.684 47.4167 193.658 47.2858 193.342 48.3332C192.947 48.595 192.553 48.2022 192.237 48.726C192.316 48.8569 192.395 48.9878 192.395 48.9878C193.026 48.9878 193.737 48.9878 194.368 48.9878C194.526 49.2497 194.684 49.5115 194.921 49.7734V50.8208C194.763 51.0827 194.605 51.3445 194.368 51.6064H193.421C193.342 51.4754 193.184 51.3445 193.105 51.2136C193.026 51.3445 192.868 51.4754 192.868 51.4754C192.947 52.1301 192.474 52.3919 192.237 52.7847C191.605 52.6538 191.447 53.5703 190.895 53.9631C190.658 53.8321 190.421 53.5703 190.184 53.4393C189.947 53.8321 190.105 54.3558 190.026 54.7486C189.395 55.1414 188.842 55.6651 188.132 56.1888C187.974 55.927 187.658 55.5342 187.421 55.1414L187.342 55.2723C187.342 56.1888 187.342 57.1053 187.342 58.0218C186.789 58.2837 186.316 59.0692 185.526 58.8074C185.289 59.2002 185.053 59.5929 184.895 59.9857H184.026C183.868 59.8548 183.711 59.5929 183.553 59.3311C183.395 59.3311 183.237 59.462 183 59.5929C183.158 59.8548 183.316 59.9857 183.474 60.2476C183.316 60.5094 183.158 60.9022 182.921 60.9022C182.211 61.1641 181.658 61.9496 180.868 62.2115C180.711 62.4733 180.474 62.8661 180.237 63.128C180.158 63.128 180 63.2589 179.842 63.2589C179.447 63.3898 178.895 62.997 178.579 63.7826C177.789 63.6517 177.079 64.83 176.289 64.4372C175.737 65.2228 174.947 65.2228 174.711 66.1393C174.237 66.4012 174.079 65.7465 173.842 65.6156H173.053C172.816 66.0084 172.579 66.2702 172.342 66.663H171.237C171.079 66.7939 170.921 67.0558 170.763 67.1867C170.289 66.7939 170.132 66.1393 169.895 65.3537C169.816 66.0084 169.737 66.5321 169.737 67.0558C169.342 67.1867 168.947 67.4486 168.553 66.7939C168.868 66.5321 169.184 66.1393 169.5 65.8775C169.184 65.3537 168.789 65.6156 168.553 65.4847C168.395 65.7465 168.237 65.8775 168.079 66.1393H167.289C166.974 66.663 167.053 67.4486 166.421 67.7104C166.342 67.5795 166.263 67.4486 166.105 67.1867C165.947 67.1867 165.553 67.0558 165.395 67.1867C165 67.8414 164.447 67.5795 163.895 67.8414C163.974 68.1032 164.132 68.2341 164.211 68.496C164.211 68.7579 164.211 69.0197 164.289 69.6743C164.132 69.8053 163.895 70.1981 163.658 70.4599C163.579 70.0671 163.579 69.8053 163.5 69.6743C163.658 69.4125 163.816 69.2816 163.895 69.0197C163.579 68.7579 163.263 68.496 162.947 68.3651C162.632 68.8888 161.842 68.6269 161.684 69.6743C161.842 69.8053 162.079 69.9362 162.316 70.0671C162.316 70.329 162.316 70.4599 162.316 70.5908C162.079 71.2455 161.605 70.7218 161.211 71.1146C161.211 71.2455 161.132 71.5073 161.132 71.7692C160.579 72.031 160.105 72.6857 159.395 72.5548C159.237 72.4238 159.158 72.162 159 72.031C158.368 72.5548 157.658 72.9475 156.789 73.6022H154.895C154.816 73.995 154.816 74.1259 154.737 74.5187C154.579 74.7805 154.421 75.0424 154.184 75.3042C153.868 75.1733 154.026 74.7805 153.868 74.3877C153.711 74.3877 153.553 74.2568 153.316 74.2568C153.237 74.6496 153.158 74.9114 153.079 75.3042C153 75.3042 153 75.4352 152.921 75.4352C152.132 75.4352 151.342 75.4352 150.553 75.4352C150.395 75.8279 150.079 75.9589 149.763 76.0898C149.447 76.2207 149.289 76.7444 149.053 77.0063H147.789C147.553 77.3991 147.316 77.7918 147.158 78.1846H146.211C146.053 78.3156 145.895 78.5774 145.737 78.7083H144.947C144.789 78.9702 144.632 79.1011 144.553 79.2321H143.684C143.605 79.363 143.447 79.4939 143.211 79.7558H142.026C141.553 80.5413 141.079 81.3269 140.684 81.9815H139.263C139.026 82.3743 138.789 82.6362 138.553 83.0289C138.395 82.898 138.316 82.7671 138.158 82.5052C138.079 82.6362 137.921 82.7671 137.763 83.0289C137.605 82.898 137.526 82.6362 137.368 82.5052H136.816C136.737 82.1125 136.974 81.5887 136.579 81.4578C136.421 82.2434 136.421 82.2434 136.816 82.5052C136.5 83.4217 135.947 83.9454 135.316 84.3382C134.921 84.6001 134.605 84.6001 134.211 84.731C133.974 84.9929 133.737 85.3856 133.421 85.7784H132.158C132.079 86.1712 132.079 86.3021 132 86.6949C131.842 86.9568 131.684 87.2186 131.447 87.4805H130.658C130.5 87.6114 130.342 87.8733 130.184 88.0042H129C128.842 88.1351 128.684 88.397 128.605 88.5279H127.974C126.158 89.8372 124.421 91.0155 122.526 92.4557H121.658C121.342 92.5866 121.105 92.8485 120.789 92.9794C120.474 93.1104 120.395 93.6341 120 93.5031C119.684 93.3722 119.368 93.6341 119.132 94.0268H117.553C117.395 94.1578 117.237 94.4196 117.079 94.5506H115.421C115.184 94.1578 114.947 93.6341 114.632 92.9794C114 92.5866 113.526 93.5031 112.895 93.765V94.2887C112.184 94.8124 111.474 95.3361 110.763 95.8598C110.684 95.4671 110.605 95.0743 110.526 94.8124C110.289 94.4196 109.895 94.6815 109.579 94.5506C109.5 94.2887 109.421 93.8959 109.342 93.6341C108.947 93.765 108.789 94.2887 108.553 94.5506C107.763 94.6815 107.763 94.6815 107.132 95.2052C107.053 95.2052 106.974 95.2052 106.974 95.2052C106.5 94.2887 105.632 94.1578 105.158 93.2413C105.316 93.1104 105.395 92.8485 105.632 92.5866C105.395 91.932 105.079 91.1465 104.842 90.3609C104.921 90.23 105 90.099 105.158 89.9681V86.4331C104.605 86.0403 103.974 86.4331 103.105 86.0403C103.026 85.9093 102.868 85.5166 102.632 85.1238C102.237 85.5166 102.395 85.9093 102.395 86.3021C102.316 86.1712 102.158 86.1712 102 86.0403V83.1599C102.079 83.029 102.158 82.898 102.158 82.898C102.711 82.898 103.184 82.898 103.737 82.898C103.816 83.029 103.895 83.1599 104.053 83.2908C104.605 83.0289 105.316 82.7671 105.474 81.9815C105.632 81.3269 106.184 80.6723 105.789 79.7558C105.711 79.7558 105.632 79.6248 105.553 79.363C105.711 78.8393 105.868 78.3156 106.026 77.9228C106.421 77.7919 106.658 78.1846 106.816 78.4465H107.684C107.684 78.1846 107.842 77.9228 107.763 77.6609C107.684 77.2681 107.289 77.2681 107.368 76.7444H107.921C108.395 76.3516 108.474 75.5661 108.789 75.0424C109.105 74.5187 109.263 73.995 109.5 73.4712C109.737 72.8166 109.895 72.162 110.368 71.7692C110.526 71.7692 110.763 71.7692 110.921 71.6383C111 72.031 110.921 72.4238 111.316 72.031C111.237 71.9001 111.079 71.7692 110.921 71.6383C111.079 71.3764 111.158 71.1146 111.316 70.7218C111.316 70.5908 111.316 70.329 111.316 69.8053C111.237 70.0671 111.632 69.9362 111.632 70.1981C111.711 70.4599 111.789 70.8527 111.868 71.1146H112.342C112.421 70.8527 112.421 70.4599 112.579 70.1981C112.737 69.9362 112.974 69.6743 112.895 69.2816C112.816 69.1506 112.737 69.0197 112.579 68.8888C112.184 69.1506 111.711 69.4125 111.316 69.9362C111 70.0671 110.684 70.0671 110.289 70.0671C110.211 70.329 110.132 70.7218 110.053 71.1146H108.868C108.395 71.6383 108.079 72.162 107.605 72.4238C107.132 72.6857 106.816 73.4712 106.5 73.995H105.711C105.237 75.0424 104.289 75.1733 103.816 76.0898C103.421 76.2207 102.868 75.9589 102.632 76.7444H101.842C101.447 77.7919 100.421 77.7919 99.9474 78.9702H98.6842C98.5263 79.363 98.2895 79.8867 98.2895 80.0176C97.8158 80.1485 97.579 80.2795 97.4211 80.2795C97.4211 80.8032 97.3421 81.196 97.3421 81.5887C97.0263 81.8506 96.5526 81.8506 96.3947 82.3743C96.2368 83.029 95.6842 82.6362 95.4474 83.1599V83.6836C95.1316 83.9454 94.8158 84.2073 94.4211 84.4691C93.9474 84.2073 93.9474 83.4217 93.6316 82.7671C93.5526 83.4217 93.4737 83.8145 93.3947 84.4691C93.2369 84.4691 93 84.6001 92.8421 84.6001C92.4474 85.1238 92.1316 85.6475 91.7368 86.1712C91.3421 86.4331 91.1842 86.0403 90.9474 85.6475C90.3158 86.0403 90.3947 87.2186 89.8421 87.7423C89.4474 87.6114 89.2895 87.0877 89.0526 86.8258C88.579 87.0877 88.9737 87.8733 88.7368 88.266C88.5 88.6588 88.1053 88.397 87.7895 88.5279C87.3158 89.1825 86.7632 89.9681 86.2895 90.6227C86.0526 90.7537 85.8947 90.7537 85.7368 90.8846C85.5 91.1465 85.8158 91.932 85.2632 91.932C85.1842 91.932 85.1053 91.932 85.1053 91.932C84.6316 92.8485 83.7632 92.9794 83.2895 93.8959V94.4196C82.5789 94.9433 81.8684 95.4671 80.7632 96.2526C80.7632 96.2526 80.3684 96.7763 80.0526 97.431C79.7368 98.0856 79.1053 97.9547 78.7895 98.6093C78.4737 99.2639 77.8421 99.133 77.5263 99.7877C77.2895 100.311 76.9737 100.704 76.5 100.966C76.0263 101.097 75.5526 101.359 75.2368 102.013C74.9211 102.668 74.2895 102.537 73.9737 103.192C73.8158 103.061 73.6579 102.799 73.5 102.668C72.9474 102.799 72.5526 103.585 71.9211 103.323C71.8421 103.454 71.8421 103.715 71.7632 103.846C71.7632 103.977 71.7632 103.977 71.7632 104.108C71.2105 104.37 70.7368 105.156 69.8684 104.894C69.5526 105.418 69.2368 106.072 68.8421 106.727C68.7632 106.596 68.7632 106.596 68.6842 106.465C68.4474 106.727 68.2105 106.989 67.8947 107.12C67.5789 107.251 67.2632 106.989 67.0263 107.381V107.512C66.7105 107.774 66.3947 108.036 66 108.298C65.7632 108.167 65.6842 107.643 65.2105 107.905C65.0526 107.512 64.9737 107.12 64.8158 106.727H64.4211C64.0263 107.251 64.3421 107.905 64.2632 108.56C64.3421 108.691 64.5 108.953 64.6579 109.214C64.1842 109.607 63.7105 109.476 63.2368 109.345C63.1579 109.214 63.1579 109.084 63.0789 108.822C63.2368 108.822 63.4737 108.822 63.6316 108.822C63.7105 108.822 63.7895 108.691 63.7895 108.691C63.7895 108.56 63.7105 108.298 63.6316 108.298C63.4737 108.298 63.2368 108.298 63.0789 108.298C63 108.167 63 107.905 62.9211 107.905C62.6842 107.774 62.6842 108.036 62.6842 108.298C62.4474 108.429 62.1316 108.036 61.9737 108.56C61.8158 109.084 61.3421 108.691 61.1842 109.084C60.9474 109.607 60.6316 109.345 60.3158 109.476C60.0789 109.607 59.9211 109.738 59.6842 109.869C59.6053 109.738 59.5263 109.607 59.3684 109.476C59.1316 109.607 58.8947 109.869 58.6579 110C58.4211 109.738 58.3421 109.607 58.1842 109.345H57.3947C57.2368 109.476 57.1579 109.738 56.9211 110C56.6053 109.738 56.2895 109.607 55.9737 109.345C55.8158 109.476 55.6579 109.607 55.4211 109.869C55.1842 109.084 54.4737 109.607 54.2368 109.214C53.8421 108.691 53.3684 108.822 53.0526 108.822C52.4211 107.905 53.3684 107.774 53.2895 107.12C53.2105 106.596 52.8158 106.465 52.7368 106.072H51.9474C51.5526 105.679 51.3947 105.156 51.2368 104.501C51.1579 103.977 50.6053 103.846 50.6053 103.192C51 103.192 51.0789 102.537 51.3947 102.406C51.1579 102.144 51 101.882 50.8421 101.49C50.6053 101.49 50.3684 101.49 49.8947 101.359C49.8158 101.228 49.6579 100.835 49.4211 100.442C49.6579 100.05 49.9737 100.311 50.3684 100.18C50.5263 99.9186 50.7632 99.6567 51 99.2639C50.8421 98.8712 50.7632 98.4784 50.6053 98.2165C51.0789 97.5619 51.2368 98.3475 51.5526 98.6093H52.3421C52.579 98.3475 52.7368 98.0856 52.8947 97.8237C52.6579 97.6928 52.3421 97.431 52.1053 97.3C52.1842 97.1691 52.3421 97.0382 52.5 96.7763C52.5 96.5145 52.5 95.9908 52.5789 95.598C52.7368 95.3361 52.9737 95.0743 53.1316 94.8124H53.9211C54.2368 94.0269 54.2368 94.0269 53.7632 93.6341C53.8421 93.5031 53.8421 93.2413 53.9211 93.2413C54.2368 93.1104 54.5526 93.1104 54.8684 93.1104C54.8684 92.8485 54.9474 92.5867 54.9474 92.1939C54.5526 92.0629 54.2368 92.0629 53.8421 91.932C53.8421 91.8011 53.9211 91.5392 53.9211 91.5392C54.3158 91.5392 54.5526 91.2774 54.7105 90.8846C54.9474 90.3609 55.2632 90.23 55.7368 90.23C55.5 89.8372 55.4211 89.7062 55.2632 89.4444C55.5 89.3135 55.7368 89.1825 55.9737 89.0516C56.2105 88.397 55.9737 87.6114 56.0526 86.9568H56.6842C56.8421 86.6949 57 86.4331 57.2368 86.1712C57.0789 85.9093 56.9211 85.6475 56.7632 85.3856H55.8947C55.7368 85.6475 55.5789 85.9093 55.3421 86.1712V87.3495C55.1842 87.6114 54.9474 87.7423 54.7105 88.0042C54.079 88.0042 53.5263 88.5279 52.9737 88.9207C52.9737 89.1825 52.9737 89.4444 52.9737 89.7062C52.8947 89.7062 52.6579 89.8372 52.6579 89.8372C52.6579 90.4918 52.8947 90.6227 53.0526 90.4918C53.2105 90.7537 53.2895 91.0155 53.4474 91.4083C53.1316 91.8011 52.8158 92.3248 52.5 92.7176C52.0263 92.8485 51.5526 92.5866 51.1579 92.8485C51.2368 93.3722 51.8684 93.765 51.2368 94.2887C51.1579 94.1578 51.0789 94.0268 50.9211 93.8959C50.5263 94.0268 50.3684 94.5506 50.0526 94.9433C49.8158 94.6815 49.5789 94.4196 49.4211 94.1578C49.5 93.765 49.579 93.5031 49.6579 93.2413C49.8158 93.5031 49.9737 93.6341 50.1316 93.765C50.2895 93.5031 50.5263 93.2413 50.6842 92.9794V92.1939C51 91.8011 51.3947 91.2774 51.8684 90.7537C51.7895 90.6227 51.6316 90.4918 51.6316 90.3609C52.1053 89.7062 52.5 89.1825 53.1316 88.266C53.3684 88.266 53.7632 87.8733 53.8421 87.0877C53.9211 86.564 54.1579 86.1712 54.6316 86.0403C54.7105 86.4331 54.4737 86.9568 54.8684 87.0877C55.0263 86.3021 55.0263 86.3021 54.6316 86.0403C54.6316 85.7784 54.5526 85.5166 54.6316 85.2547C54.9474 84.6001 55.2632 83.8145 55.5789 83.2908C55.8947 83.2908 56.0526 83.2908 56.2105 83.2908C56.2895 83.8145 56.5263 84.0764 56.8421 84.3382C57.0789 83.9454 57.079 83.5527 56.7632 83.2908H56.2105V82.3743C56.5263 82.2434 56.9211 82.2434 57.3158 82.1125C57.3158 81.8506 57.3947 81.5887 57.4737 81.3269C57.6316 81.196 57.9474 81.196 58.1053 80.9341C58.3421 80.6723 58.5 80.4104 58.8158 80.5413C59.2105 80.9341 58.9737 81.4578 58.9737 81.9815C58.8947 82.1125 58.8158 82.2434 58.7368 82.3743V84.3382C58.8947 84.2073 58.9737 84.2073 59.0526 84.2073C59.3684 83.8145 59.6053 83.4217 59.8421 83.0289C59.6842 82.7671 59.6053 82.6362 59.4474 82.3743C59.4474 82.1125 59.4474 81.9815 59.5263 81.8506C59.9211 81.3269 60.5526 81.9815 61.0263 81.4578C60.9474 81.3269 60.7895 81.065 60.7105 80.9341C60.8684 80.1485 61.5 80.2795 61.8158 79.7558V79.2321C61.6579 78.9702 61.4211 78.7083 61.2632 78.4465C61.1053 78.5774 61.0263 78.8393 60.8684 78.9702C60.7105 78.8393 60.6316 78.5774 60.4737 78.4465C60.1579 78.8393 60.3158 79.363 60.3158 79.7558C60.1579 80.0176 60 80.2795 59.8421 80.5413C59.4474 80.2795 59.1316 80.0176 58.7368 79.7558C58.8947 78.9702 58.8947 78.9702 59.3684 78.4465C59.5263 78.5774 59.6053 78.8393 59.7632 78.9702C60.0789 78.5774 59.8421 78.0537 60 77.53C60.1579 77.2681 60.4737 76.8754 60.7105 76.4826V75.9589C60.9474 75.697 61.3421 75.697 61.5 75.3042C61.8158 74.7805 62.2895 75.4352 62.5263 74.9114C62.7632 74.3877 63.1579 74.6496 63.3158 74.3877C63.3947 74.1259 63.3947 73.864 63.4737 73.6022C63.7105 73.4712 63.9474 73.3403 64.1842 73.2094C64.0263 72.8166 63.8684 72.4238 63.7105 71.9001C64.1842 71.7692 64.5789 71.6383 64.9737 71.5073C64.9737 71.2455 65.0526 70.9836 65.0526 70.7218C65.2895 70.329 65.6053 70.5908 66.0789 70.4599C66.3158 70.0671 66.6316 69.5434 66.9474 68.8888V68.2341C67.4211 67.5795 67.6579 66.663 68.4474 66.663C68.5263 66.4012 68.5263 66.1393 68.6053 65.7465C68.8421 65.3537 69.1579 65.6156 69.5526 65.4847C69.7105 65.7465 69.9474 66.0084 70.1053 66.2702C69.9474 67.0558 69.5526 67.3177 68.8421 67.1867C69.0789 67.9723 69.2368 68.3651 69.4737 68.7579C69.2368 68.8888 68.9211 68.7579 69.1579 69.2816C69.2368 69.1506 69.3158 69.0197 69.4737 68.7579C69.7105 68.6269 70.0263 68.3651 70.5 67.9723C70.5 67.7104 70.579 67.1867 70.6579 66.663C70.6579 66.5321 70.8947 66.5321 70.9737 66.4012C71.0526 66.7939 70.9737 67.1867 71.3684 66.7939C71.2895 66.663 71.1316 66.5321 70.9737 66.4012C70.8158 65.6156 70.2632 65.2228 69.7895 64.4372C70.0263 64.3063 70.1842 64.1754 70.5789 63.9135C70.6579 63.9135 71.0526 64.1754 71.3684 64.4372C71.4474 64.83 71.2105 65.3537 71.6053 65.8775C71.8421 65.2228 72 64.6991 72.1579 64.0445C72.1579 64.0445 72.1579 63.9135 72.0789 63.7826C71.8421 63.3898 71.4474 63.6517 71.1316 63.5208C71.0526 63.3898 70.9737 63.128 70.9737 63.128C71.2895 62.8661 71.2895 62.3424 71.2895 61.9496C71.2895 61.6878 71.3684 61.5568 71.5263 61.1641C71.6842 61.6878 71.7632 61.9496 71.8421 62.3424C72.2368 62.6043 72.3947 62.3424 72.6316 61.9496C72.3947 61.5568 72.2368 61.295 72.0789 60.9022C72.1579 59.9857 72.7105 59.7239 73.1053 59.0692C73.1842 59.2002 73.2632 59.3311 73.4211 59.5929H74.2895C74.5263 59.3311 74.6842 59.0692 74.8421 58.8074C74.6842 58.5455 74.6053 58.4146 74.4474 58.2837C74.3684 57.76 74.6053 57.629 74.7632 57.2362C74.9211 56.9744 74.9211 56.5816 75 56.3198H75.4737C75.6316 55.927 75.8684 55.6651 76.0263 55.2723C76.3421 54.4868 76.3421 54.6177 76.8947 54.094C77.4474 53.5703 78.2368 53.4393 78.5526 52.3919C78.7895 52.3919 78.9474 52.3919 79.1842 52.261C79.2632 52.6538 79.1842 53.0466 79.5789 52.6538C79.5 52.5229 79.3421 52.3919 79.1842 52.261C79.1842 51.8682 79.1842 51.4754 79.1842 50.9517C79.5 50.6899 79.8947 50.428 80.2895 50.0352H81.5526V50.9517C81.3158 51.0827 81 51.3445 80.7632 51.4754C80.8421 51.7373 80.8421 51.9991 80.9211 52.3919C81.3947 52.1301 81.8684 51.8682 82.2632 51.6064C82.3421 51.3445 82.4211 50.9517 82.5 50.6899H83.3684C83.7632 49.6424 84.2368 48.726 84.6316 48.4641C84.9474 48.3332 85.2632 48.595 85.5 48.2023V47.5476C86.8421 47.1548 87.1579 45.3218 87.6316 44.0126C87.7895 44.0126 87.9474 44.0126 88.1053 44.0126C88.5 43.0961 89.3684 42.8342 89.4474 41.5249C89.9211 40.7394 90.6316 40.0847 90.7895 39.0373H91.6579C91.7368 38.5136 91.8158 37.9899 92.1316 37.5971C92.2105 37.4662 92.1316 37.0734 92.0526 36.8116C91.6579 37.2043 91.3421 37.5971 90.9474 37.859C90.5526 38.1208 90.079 38.6445 89.5263 38.3827C89.2895 38.9064 88.6579 38.7755 88.6579 39.1683C88.5 39.8229 88.1842 40.2157 87.9474 40.7394C87.7105 41.2631 87.5526 41.7868 87.3947 42.3105C87.2368 42.8342 87 43.3579 86.8421 43.8816C86.6842 43.7507 86.5263 43.4889 86.4474 43.3579C86.2895 43.6198 86.0526 43.8816 85.8947 44.1435C85.8947 44.7981 85.8158 45.3218 85.8158 46.1074C85.4211 46.1074 85.1842 46.2383 84.8684 46.2383C84.7105 46.5002 84.4737 46.762 84.3158 47.0239C84.3158 47.1548 84.3158 47.4167 84.3158 47.5476C83.4474 47.9404 82.8158 48.8569 82.5789 50.0352H81.3158C81.1579 49.6425 81 49.1187 80.8421 48.726C81.1579 48.2022 81.5526 48.4641 81.8684 48.3332C82.0263 48.0713 82.1842 47.8095 82.4211 47.5476C82.5 47.1548 82.4211 46.5002 82.5789 46.2383C83.1316 45.7146 82.5789 44.5363 83.2895 44.1435C82.9737 43.4889 82.6579 43.8816 82.1842 43.8816C82.1842 44.1435 82.1053 44.4054 82.1053 44.6672C81.8684 44.7981 81.5526 44.9291 81.3158 45.1909C81 45.4528 80.8421 45.9765 80.3684 45.9765C80.1316 45.9765 79.8947 46.5002 79.6579 46.893C79.3421 47.5476 78.7895 47.5476 78.3947 48.0713C78.2369 48.2022 77.9211 48.2023 77.5263 48.2023C77.2105 48.8569 76.6579 49.2497 76.1053 49.6424C75.6316 49.9043 75.2368 50.2971 74.7632 50.5589C74.3684 50.8208 74.0526 51.4754 73.5789 51.7373C73.0263 52.1301 72.6316 52.9156 72.1579 53.5703C71.4474 54.094 70.6579 54.3558 70.0263 55.0105C69.7105 55.2723 69.2368 55.6651 69.4737 56.5816H68.8421C68.5263 56.9744 68.2895 57.4981 67.9737 57.8909C67.7368 58.2837 67.5 58.6764 67.0263 58.8074C66.5526 58.8074 66.4737 59.8548 66 59.8548C65.5263 59.8548 65.4474 60.5094 65.1316 60.7713C64.7368 61.0331 64.3421 61.295 63.9474 61.5569C63.6316 61.8187 63.3158 62.0806 62.8421 62.3424C62.6053 62.7352 62.2105 63.128 61.9737 63.6517C61.5 64.5682 60.6316 64.6991 60.1579 65.6156C59.6842 66.5321 58.8158 66.663 58.3421 67.5795C58.1842 67.9723 57.7895 67.8414 57.5526 68.1032C57.2368 68.3651 56.9211 68.496 56.6053 68.8888C56.2895 69.2816 56.0526 69.8053 55.5789 69.9362C55.1842 70.0671 55.0263 70.8527 54.5526 70.9836C54.1579 71.1145 53.7632 71.5073 53.4474 71.7692V72.4238C53.1316 72.5548 52.6579 72.4238 52.4211 72.6857C52.1842 72.9475 51.7895 72.9475 51.6316 73.2094C51.3947 73.7331 50.9211 73.4712 50.6842 73.995C50.5263 74.3877 50.2105 74.6496 49.9737 75.0424C49.9737 75.1733 49.9737 75.4352 49.9737 75.5661C49.5789 75.8279 49.2632 76.0898 48.8684 76.4826C48.7895 76.4826 48.7105 76.4826 48.7105 76.4826H48.3158C47.9211 77.1372 47.5263 77.6609 47.2895 78.1846H46.3421C46.0263 78.7083 45.7105 79.1011 45.3947 79.6248V80.2795C44.9211 80.5413 44.3684 80.8032 43.8947 81.196C43.5 81.5888 43.1842 82.2434 42.8684 82.7671H41.8421C41.6053 83.2908 41.5263 83.9454 41.0526 84.3382C40.8947 84.3382 40.5789 84.3382 40.3421 84.3382C40.3421 84.3382 40.2632 84.3382 40.1842 84.4691C39.7105 85.5166 38.6842 85.5166 38.3684 86.564C38.1316 86.3021 37.8947 86.1712 37.5789 85.7784C37.3421 86.3021 37.1053 86.8258 37.0263 87.0877H36C35.8421 88.0042 35.3684 88.6588 34.7368 89.1825C34.5 89.4444 34.2632 89.5753 33.9474 89.8372C33.8684 89.7062 33.7895 89.5753 33.6316 89.4444C33.3158 90.099 32.9211 90.7537 32.7632 91.0155H31.6579C31.2632 91.5392 30.9474 92.0629 30.5526 92.5866C29.6842 92.8485 29.1316 93.8959 28.1053 93.765C27.8684 94.1578 27.5526 94.5506 27.3158 94.8124H26.5263C26.1316 95.3361 25.7368 95.8598 25.4211 96.3835C25.0263 96.6454 24.4737 95.9908 24.3158 97.0382H19.5789C19.4211 97.1691 19.2632 97.431 19.1053 97.5619H17.9211C17.7632 97.6928 17.6053 97.9547 17.4474 98.0856C17.3684 97.6928 17.2895 97.431 17.2105 97.0382C17.0526 97.0382 16.8947 97.0382 16.7368 97.0382C16.4211 97.431 16.5789 97.9547 16.5789 98.3475C16.5 98.4784 16.4211 98.6093 16.2632 98.6093C15.7105 98.6093 15.2368 98.6093 14.7632 98.6093C14.4474 98.2165 14.2105 97.8237 13.9737 97.5619C13.5789 98.0856 13.8947 98.8712 13.7368 99.3949C13.5 99.7877 13.3421 100.05 13.1842 100.311C13.0263 100.18 12.7895 100.18 12.5526 100.05C12.7105 99.7877 12.8684 99.5258 12.9474 99.3949C12.5526 98.7402 12 99.3949 11.4474 99.0021C11.4474 98.8712 11.3684 98.6093 11.3684 98.3475C11.5263 98.0856 11.6053 97.9547 11.8421 97.6928C11.6053 97.5619 11.4474 97.5619 11.2895 97.431C11.1316 97.8238 11.0526 98.2165 10.8947 98.6093C10.8158 98.4784 10.7368 98.3475 10.5 98.0856C10.0263 97.8237 9.47368 98.2165 8.84211 97.9547C8.68421 97.6928 8.52632 97.431 8.28947 97.1691C8.36842 96.7763 8.68421 96.7763 8.68421 96.2526C9.07895 95.8598 9.07895 95.8598 8.92105 95.2052C8.52632 95.467 8.76316 95.8598 8.68421 96.2526H8.13158C7.6579 95.0743 7.26316 93.765 6.78947 92.5866C7.18421 91.932 7.73684 92.5866 8.21053 92.3248C8.44737 91.932 8.28947 91.5392 8.05263 91.1464C7.81579 90.7537 7.89474 90.6227 8.28947 90.23C8.76316 89.9681 8.92105 91.4083 9.47368 90.4918C9.39474 90.3609 9.31579 90.099 9.1579 89.9681C9.31579 89.3135 10.1842 89.0516 9.86842 88.0042C10.3421 87.8733 10.6579 87.8733 10.9737 87.8733C10.9737 87.6114 11.0526 87.3496 11.0526 87.0877C10.8158 86.8258 10.6579 86.564 10.5 86.3021C10.1842 86.4331 10.1053 87.0877 9.71053 86.6949C9.31579 86.3021 9.55263 85.7784 9.55263 85.2547C9.55263 85.1238 9.78947 85.1238 9.86842 84.9929C9.94737 85.3856 9.86842 85.7784 10.2632 85.3856C10.1842 85.2547 10.0263 85.1238 9.86842 84.9929C9.86842 84.6001 9.86842 84.2073 9.86842 83.6836C10.1053 83.5527 10.2632 83.4217 10.5 83.4217C10.7368 83.0289 10.5789 82.5052 10.6579 82.1125C10.8158 81.8506 10.8947 81.7197 11.0526 81.5887V81.065C10.9737 80.9341 10.8947 80.8032 10.8947 80.9341C10.5 81.3269 10.0263 81.4578 9.55263 81.3269C9.55263 81.7197 9.47368 81.9815 9.47368 82.2434C9.71053 82.3743 9.94737 82.5052 10.1842 82.6362C10.1842 82.7671 10.1053 83.0289 10.1053 83.0289C9.63158 82.898 9.47368 83.6836 9.07895 83.6836C8.92105 83.4217 8.84211 83.0289 8.68421 82.7671V81.7197C9.23684 81.3269 8.92105 80.1486 9.71053 79.8867C9.78947 80.0176 9.86842 80.1485 10.0263 80.2795C10.1842 80.1485 10.2632 79.8867 10.4211 79.7558H11.2105C11.2895 80.0176 11.3684 80.4104 11.4474 80.8032C11.7632 80.5413 12.1579 80.2795 12.4737 80.1485C12.3158 79.6248 11.7632 79.363 11.6842 78.7083H12.7895C12.7895 78.4465 12.8684 78.0537 12.9474 77.7918C12.7105 77.6609 12.4737 77.6609 12.2368 77.6609C12.1579 77.53 12.0789 77.3991 12.2368 77.2681C12.6316 76.7444 12.5526 75.697 13.3421 75.4352C13.5 75.5661 13.6579 75.697 13.8947 75.9589C14.2895 75.1733 14.7632 74.2568 15.2368 73.3403V72.4238C16.1842 71.7692 16.1842 71.7692 16.5789 70.4599C16.7368 70.5908 16.8947 70.8527 16.9737 70.9836C17.6053 70.5908 18.1579 70.0671 18.7895 69.6743V68.496C19.0263 68.3651 19.2632 68.2342 19.5 68.1032C19.5 67.8414 19.5789 67.5795 19.5789 67.3177C19.7368 67.0558 19.8947 66.7939 20.1316 66.5321C20.4474 66.5321 20.7632 66.5321 21.0789 66.4012C21.1579 65.8775 21.1579 65.4847 21.1579 64.961C21.9474 64.4373 22.6579 63.9135 23.4474 63.3898C23.2895 63.128 23.2105 62.9971 23.0526 62.7352C23.5263 61.8187 24.4737 61.8187 24.7895 60.7713H25.6579C25.7368 60.5094 25.7368 60.1166 25.8947 59.8548C26.0526 59.462 26.3684 59.2002 26.6053 58.9383C26.4474 58.6764 26.3684 58.5455 26.1316 58.2837C26.5263 58.1527 26.9211 58.1527 27.2368 58.0218C27.3158 57.76 27.3158 57.4981 27.3947 57.2362C27.7895 56.7125 28.1053 56.1888 28.5789 55.6651C28.4211 55.5342 28.1842 55.4033 28.1053 55.4033C27.7105 55.6651 27.2368 55.796 27 56.3198C26.2895 57.4981 25.1053 57.8909 24.5526 59.3311C24.3158 59.0692 24.2368 58.9383 24.0789 58.8074C24 58.9383 23.9211 59.0692 23.8421 59.0692C23.4474 59.3311 23.0526 59.5929 22.6579 59.8548C22.5789 59.8548 22.5 59.8548 22.5 59.8548C22.0263 60.5094 21.4737 61.295 21 62.0806C20.6842 61.9496 20.4474 62.3424 20.2105 62.6043C19.7368 62.4733 19.5789 63.128 19.2632 63.3898C19.0263 63.6517 18.7105 63.7826 18.4737 64.0445C18.4737 64.1754 18.4737 64.4373 18.4737 64.5682C17.0526 65.6156 15.5526 66.663 14.1316 67.5795C13.6579 67.4486 13.5789 66.7939 13.1842 66.5321C13.0263 66.663 12.8684 66.7939 12.5526 67.0558C12.3947 66.9249 12.1579 66.663 12 66.4012C11.9211 66.5321 11.7632 66.7939 11.6053 66.9249H10.8158C10.7368 67.1867 10.6579 67.5795 10.5789 67.8414C10.1053 68.3651 9.94737 67.5795 9.71053 67.4486C9.39474 67.4486 9.07895 67.4486 9.1579 67.9723H7.6579C7.5 67.8414 7.34211 67.5795 7.26316 67.4486H6.39474C6.23684 67.0558 6 66.663 5.84211 66.4012C5.13158 66.2702 4.97368 67.0558 4.6579 67.4486C4.26316 67.3177 4.5 66.9249 4.34211 66.5321C4.18421 66.2702 3.78947 66.5321 3.39474 66.2702C3.39474 66.2702 3.23684 66.0084 3.07895 65.8775H1.73684C1.57895 65.6156 1.42105 65.3537 1.18421 64.961V63.7826C0.947368 63.5208 0.631579 63.2589 0.394737 62.9971C0.394737 62.6043 0.394737 62.4733 0.394737 62.2115C0.315789 62.9971 0.157895 62.7352 0 62.4733C0.157895 62.3424 0.31579 62.3424 0.473684 62.2115C1.10526 62.6043 1.34211 63.6517 1.97368 63.7826C2.05263 64.1754 1.97368 64.5682 2.36842 64.1754C2.28947 64.0445 2.13158 63.9135 1.97368 63.7826C1.97368 63.5208 1.97368 63.2589 1.97368 62.9971C1.57895 62.4733 1.10526 62.0806 0.947369 61.4259C0.710526 60.7713 0.394737 60.2476 0.0789474 59.7239C0.315789 59.2002 0.552632 58.5455 0.789474 57.8909V57.1053C0.947368 56.7125 1.10526 56.4507 1.18421 56.1888H1.57895V56.9744C1.73684 57.2362 1.97368 57.3672 2.21053 57.1053C2.44737 56.8435 2.60526 56.5816 2.92105 56.7125C3.07895 57.1053 3.31579 57.4981 3.47368 58.0218C3.55263 58.4146 3.55263 58.9383 3.63158 59.3311C3.86842 59.7239 4.26316 59.3311 4.5 59.5929C4.57895 59.3311 4.73684 59.2002 4.73684 59.0692C4.73684 58.1527 4.73684 57.2362 4.73684 56.4507C4.97368 55.927 5.28947 56.1888 5.84211 55.5342C6 55.2723 5.92105 55.6651 5.92105 55.927C5.84211 56.1888 5.28947 56.0579 5.76316 56.5816H7.10526C7.18421 55.6651 6.86842 55.2723 5.84211 55.4033C5.52632 55.927 5.52632 55.6651 5.52632 55.4033C5.36842 55.2723 5.28947 55.0105 5.13158 54.8795C5.21053 54.7486 5.36842 54.6177 5.44737 54.6177C5.92105 54.4868 6.47368 54.8796 6.86842 54.094C7.26316 53.9631 7.81579 54.2249 8.05263 53.5703C8.60526 53.7012 8.60526 53.1775 8.76316 52.6538C8.84211 52.3919 9.07895 52.1301 9.23684 51.8682H10.2632H10.4211C10.5789 51.7373 10.7368 51.4754 10.8158 51.3445C10.9737 51.4754 11.1316 51.7373 11.2105 51.8682C11.3684 51.4754 11.7632 51.3445 11.6842 50.8208C11.9211 50.6899 12.2368 50.8208 12 50.2971C11.9211 50.428 11.8421 50.5589 11.6842 50.8208C11.5263 50.6899 11.2105 50.9517 11.0526 50.5589C11.2105 50.0352 11.4474 49.7734 11.7632 49.6424C12.0789 49.5115 12.3158 49.2497 12.5526 48.9878C12.6316 49.3806 12.5526 49.7734 12.9474 49.3806C12.8684 49.2497 12.7105 49.1187 12.5526 48.9878C12.6316 48.3332 12.9474 48.4641 13.2632 48.595C13.3421 48.9878 13.4211 49.2497 13.5 49.6424C13.9737 49.3806 14.1316 48.4641 14.7632 48.595C15.0789 48.2022 15.3947 47.6785 15.7895 47.1548C15.6316 46.762 15.4737 46.5002 15.3947 46.1074C15.6316 45.7146 15.9474 45.3218 16.2632 44.7981C16.4211 44.6672 16.8158 44.7981 16.9737 44.4054C17.2105 43.8816 17.6842 44.5363 18 44.0126C18.2368 43.7507 18.5526 43.6198 18.7895 43.3579C18.6316 43.0961 18.5526 42.9652 18.3947 42.7033C18.3947 42.4414 18.3947 42.3105 18.3947 42.0487C18.5526 41.9177 18.7105 41.9177 19.0263 41.7868C19.5789 41.0012 20.2105 40.0847 20.8421 39.1683C21.3947 39.1683 21.7105 38.5136 22.1053 37.9899C22.5789 38.2518 22.7368 37.3353 23.1316 37.4662C23.2105 37.4662 23.2895 37.4662 23.3684 37.4662C23.4474 37.2043 23.5263 36.8116 23.6053 36.5497C23.7632 36.5497 23.9211 36.4188 24.1579 36.4188C24.3947 36.1569 24.6316 35.7641 24.8684 35.3714C25.2632 35.3714 25.7368 35.3714 26.2105 35.2404C26.2895 34.9786 26.2895 34.7167 26.3684 34.3239C26.5263 34.193 26.7632 34.0621 27 33.9312C27.0789 33.6693 27.0789 33.4074 27.1579 33.1456C27.6316 32.8837 28.0263 32.6219 28.6579 32.2291C30 30.2652 30 30.2652 31.4211 29.4796C31.5 29.2178 31.5 28.9559 31.5789 28.825C32.6053 28.1703 33.5526 27.5157 34.5789 26.7301C36 24.7662 36 24.7662 37.7368 23.8497C37.6579 23.7188 37.5 23.457 37.3421 23.1951C37.5789 23.0642 37.7368 23.0642 38.2105 22.8023C38.4474 22.4095 38.7632 21.7549 39.0789 21.2312H40.1053C40.5789 20.5766 40.9737 20.0528 41.2895 19.5291H42.7895C42.8684 19.2673 42.9474 18.8745 43.0263 18.4817C43.1842 18.4817 43.3421 18.3508 43.5789 18.3508C43.6579 18.0889 43.7368 17.8271 43.7368 17.5652C45.1579 16.5178 46.5 15.6013 47.9211 14.5539H48.5526C49.0263 13.8993 49.5789 13.1137 49.9737 12.4591C50.3684 12.1972 50.6053 12.0663 51.0789 11.8044H51.7105C52.0263 11.4116 52.2632 11.0189 52.5789 10.6261H53.6053C54.079 10.2333 54.3947 10.1024 54.7105 9.84051C54.7105 9.57865 54.7895 9.3168 54.8684 8.92401H56.0526C56.2105 8.26938 56.2895 7.61474 57 7.22196H58.2632C58.4211 7.09103 58.579 6.69825 58.6579 6.69825C59.2105 6.9601 59.3684 5.78176 59.8421 6.04361C60.2368 5.5199 60.5526 4.99619 60.9474 4.47248C61.1053 4.60341 61.1842 4.73434 61.3421 4.99619C61.5 4.86526 61.5789 4.60341 61.7368 4.47248C61.8947 4.47248 62.1316 4.47248 62.2895 4.34155C62.3684 4.73434 62.2895 5.12712 62.6842 4.73434C62.6053 4.60341 62.4474 4.47248 62.2895 4.34155C62.3684 4.21063 62.3684 4.0797 62.4474 3.94877C62.9211 3.81784 63.3158 3.68692 63.6316 4.34155C63.7105 4.21063 63.8684 4.21063 63.8684 4.0797C63.8684 3.29413 64.1842 3.03228 64.6579 2.77042C65.0526 2.77042 65.2105 2.6395 65.5263 2.37764C65.8421 2.37764 66.2368 2.37764 66.6316 2.37764C66.7105 2.50857 66.7895 2.6395 66.8684 2.77042C66.9474 2.77042 67.1053 2.90135 67.1842 2.90135C68.0526 2.90135 69 2.90135 69.8684 2.90135C69.8684 3.03228 69.8684 3.29413 69.8684 3.42506H69.4737C69.1579 3.68692 68.9211 3.94877 68.6842 4.21063C69.0789 4.73434 69.4737 4.60341 69.8684 4.34155C69.8684 4.0797 69.8684 3.68692 69.9474 3.42506C70.4211 3.29413 70.9737 3.55599 71.4474 3.29413C71.4474 3.16321 71.5263 3.03228 71.5263 3.03228C71.2105 2.6395 70.8947 2.11579 70.5789 1.59208C70.4211 2.11579 70.3421 2.50857 70.2632 2.77042C70.1842 2.90135 70.0263 2.90135 69.9474 2.90135C69.8684 2.24671 69.3158 1.98486 69.1579 1.33022C69.7895 0.93744 70.4211 1.33022 71.1316 1.06837C70.9737 0.675586 70.8158 0.544658 70.7368 0.282803C70.8158 -0.109979 71.0526 0.0209484 71.3684 0.0209484C71.4474 0.282803 71.5263 0.675586 71.6053 0.937441C71.7632 1.06837 71.9211 1.06837 72.1579 1.1993C72.4737 1.59208 72.1579 2.11579 72.3158 2.37764C72.1579 2.6395 72 2.77042 71.8421 3.03228C72.079 3.16321 72.2368 3.16321 72.3947 3.29413C72.5526 3.03228 72.7105 2.90135 72.8684 2.77042C73.0263 2.90135 73.1842 3.16321 73.2632 3.29413C73.579 3.42506 73.8947 3.16321 74.2105 3.55599C74.1316 3.68692 73.9737 3.94877 73.8158 4.21063V7.61474C74.0526 7.74567 74.2105 7.8766 74.4474 7.8766C74.6842 8.40031 74.5263 9.05494 74.6053 9.70958C74.6842 9.84051 74.7632 9.97143 74.9211 10.2333C74.9211 10.4951 74.9211 10.757 75 11.1498C74.6053 12.0663 74.6053 12.0663 74.6053 12.8518C74.6053 12.9828 74.6053 13.1137 74.5263 13.1137C73.8158 13.7683 73.8158 15.2085 73.0263 15.7322V16.9106C72.7895 17.3034 72.5526 17.5652 72.2368 17.958V20.1838C71.9211 20.5766 71.6842 20.9693 71.4474 21.2312V23.7188C71.2895 23.9807 71.2105 24.1116 71.0526 24.3735V25.6827C70.8158 25.9446 70.579 26.3374 70.2632 26.7301C70.1842 27.1229 70.3421 27.6466 70.1053 28.0394C69.8684 27.7776 69.7105 27.2539 69.3158 27.5157C69.1579 27.9085 69 28.3013 68.9211 28.6941C68.8421 28.9559 68.7632 29.3487 68.6053 29.6105C68.4474 30.0033 68.0526 30.2652 67.9737 30.658C67.8947 31.0508 67.8947 31.3126 67.6579 31.5745C67.4211 31.8363 67.1842 32.2291 66.9474 32.6219C66.6316 33.1456 66.0789 33.4074 66 34.3239C65.6053 34.4549 65.4474 34.8476 65.2895 35.2404C65.6053 35.5023 65.8421 35.6332 66 35.1095C66 34.8476 66 34.5858 66 34.3239C66.3158 34.193 66.3947 34.8476 66.8684 34.8476H67.3421C67.6579 34.4549 67.4211 33.9312 67.5789 33.4074C67.8947 33.2765 68.3684 33.2765 68.6842 32.8837C69.0789 32.491 69.4737 32.7528 69.7895 32.491C70.0263 32.0982 69.8684 31.5745 69.9474 31.0508C70.1053 31.0508 70.3421 30.7889 70.4211 30.9198C70.7368 31.3126 71.0526 31.4435 71.3684 31.5745C71.4474 31.5745 71.4474 31.8363 71.4474 31.9672C70.9737 32.6219 70.5 33.2765 69.8684 34.193C70.0263 34.193 69.7895 34.193 69.6316 34.3239C69.5526 34.5858 69.4737 34.9786 69.3158 35.3714C69.1579 34.8476 69 34.5858 68.9211 34.193C68.4474 34.5858 68.8421 35.2404 68.6053 35.6332C68.3684 36.026 67.9737 35.7641 67.6579 35.7641C67.579 35.8951 67.5 36.026 67.3421 36.2878C67.1053 36.2878 66.7895 36.2879 66.3947 36.4188C66.3158 36.9425 66.3158 37.4662 66.2368 37.859C65.8421 38.2518 65.6053 37.859 65.3684 37.4662C65.2105 37.5971 65.1316 37.7281 64.9737 37.9899H63.7895C63.3947 38.6445 62.9211 39.2992 62.4474 40.2157C62.4474 40.2157 62.4474 40.3466 62.4474 40.4775C61.9737 41.0012 61.3421 41.0012 61.1842 41.9177C60.9474 41.6559 60.8684 41.5249 60.7105 41.2631C60.4737 42.1796 60 42.8342 59.5263 43.4889C59.3684 43.3579 59.2895 43.227 59.1316 42.8342C58.8947 43.227 58.7368 43.7507 58.5789 44.0126H58.0263C57.5526 45.3218 57.5526 45.3218 56.6842 45.9765C56.6842 46.1074 56.6842 46.3693 56.6842 46.6311C56.4474 46.762 56.2895 46.893 56.3684 46.762C55.6579 47.6785 55.2632 48.3332 54.7105 49.1187C54.7105 49.3806 54.7895 49.6424 55.2632 49.6424C55.6579 49.2497 55.9737 48.595 56.4474 48.0713H57.2368C57.3947 47.6785 57.6316 47.1548 57.7895 46.893C58.1842 46.893 58.4211 46.893 58.5789 46.762C58.6579 47.1548 58.5789 47.5476 58.9737 47.1548C58.8947 47.0239 58.7368 46.893 58.5789 46.762C58.5789 46.2383 58.9737 46.1074 59.1316 45.8456C59.6053 45.9765 59.8421 45.1909 60.3158 45.1909C60.7105 44.9291 60.7895 44.0126 61.2632 43.8816C61.3421 44.2744 61.2632 44.6672 61.6579 44.2744C61.5789 44.1435 61.4211 44.0126 61.2632 43.8816ZM46.3421 58.2837C46.4211 58.6764 46.4211 59.2002 46.7368 58.8074C46.6579 58.6764 46.5 58.5455 46.3421 58.4146C46.2632 58.0218 46.5 57.4981 46.1053 57.3672C45.9474 58.0218 45.9474 58.0218 46.3421 58.2837ZM62.0526 81.065C62.2895 80.9341 62.6842 81.3269 62.8421 80.8032C62.2895 80.5413 62.2895 80.5413 62.2105 81.065C61.8947 81.196 61.579 81.196 61.8947 81.5887C61.9737 81.4578 62.0526 81.3269 62.0526 81.065ZM62.0526 76.7444H63.3947C63.5526 76.4826 63.8684 76.2207 63.8684 75.697H62.5263C62.4474 76.0898 61.9737 76.2207 62.0526 77.1372C61.7368 76.6135 61.7368 76.6135 61.1842 76.3517C61.1842 76.7444 61.2632 77.0063 61.2632 77.3991C61.6579 77.2681 61.8947 77.1372 62.0526 76.7444ZM78.5526 55.5342C77.7632 55.796 77.7632 56.9744 77.3684 57.76C77.2895 57.8909 77.4474 58.0218 77.5263 58.2837C77.6842 58.1527 77.7632 57.8909 77.9211 57.8909C78.1579 57.7599 78.3947 57.629 78.5526 57.4981V55.5342C78.9474 55.2723 78.9474 55.2723 78.7895 54.4868C78.3947 54.7486 78.6316 55.2723 78.5526 55.5342ZM72.2368 101.097H72.8684C73.0263 100.966 73.1842 100.704 73.2632 100.573H74.0526C74.7632 99.6567 74.7632 99.6567 74.4474 99.0021C73.8158 99.9186 72.6316 99.6567 72.3947 100.966C72.0789 101.097 71.7632 101.097 72.0789 101.49C72.1579 101.49 72.2368 101.228 72.2368 101.097ZM189.789 42.8342H188.842C188.684 42.9651 188.526 43.227 188.447 43.3579H187.816C187.342 43.6198 187.026 43.8816 186.711 44.1435C186.711 44.1435 186.711 44.2744 186.789 44.2744C186.868 44.2744 186.868 44.4054 186.947 44.4054C187.342 44.4054 187.737 44.4054 188.053 44.4054C188.368 43.6198 188.842 43.8816 189.237 43.7507C189.395 43.4889 189.789 43.3579 189.789 42.8342C190.026 42.7033 190.421 43.0961 190.579 42.5724C189.947 42.3105 189.947 42.3105 189.789 42.8342ZM14.6053 80.2795C14.4474 80.1485 14.3684 80.0176 14.2895 80.0176C14.2105 80.0176 14.0526 80.0176 13.9737 80.1485C13.5789 81.3269 13.5789 81.3269 12.7895 81.8506C12.7105 82.1125 12.6316 82.5052 12.5526 82.7671C12.3947 82.7671 12.2368 82.7671 12.1579 82.7671C11.6053 83.2908 11.4474 84.0764 11.2105 84.8619C11.6053 85.1238 11.9211 85.1238 12.2368 84.8619C12.2368 84.4691 12.3158 83.9454 12.3158 83.5527C12.8684 83.1599 13.3421 82.898 13.8158 82.5052C13.6579 81.5887 14.5263 81.4578 14.6053 80.2795ZM101.921 18.4817C102.079 18.2199 102.316 17.958 102.474 17.6962C102.237 17.4343 102.079 17.0415 101.921 16.7797C101.526 16.7797 101.211 16.7797 101.053 16.7797C100.816 17.0415 100.658 17.3034 100.421 17.6962C100.658 18.2199 100.263 19.0054 100.658 19.5291C100.816 19.5291 100.974 19.3982 101.132 19.3982C101.211 19.0054 101.289 18.7436 101.368 18.3508H101.921V18.4817ZM66.7895 72.031C67.5 72.6857 67.6579 71.2455 68.2105 71.6383C68.2105 71.6383 68.3684 71.3764 68.4474 71.1146C68.2105 70.5908 68.0526 69.9362 67.8158 69.4125C67.579 69.6744 67.4211 69.9362 67.1842 70.1981V71.3764C67.0263 71.6383 66.9474 71.7692 66.7895 72.031ZM12.3947 98.8712C12.7105 98.7402 13.0263 99.0021 13.3421 98.6093C13.2632 98.3475 13.1053 98.0856 13.0263 97.8237C12.9474 97.1691 13.2632 96.5145 12.7895 95.9908C12.6316 96.3835 12.5526 96.7763 12.4737 97.0382C12.2368 97.0382 12.0789 97.1691 11.9211 97.1691C12.0789 97.8237 12.2368 98.3475 12.3947 98.8712ZM108.079 87.2186V86.3021C107.763 86.3021 107.763 85.5166 107.368 85.6475C107.289 86.0403 107.211 86.3021 107.132 86.6949H106.342C106.184 86.9568 105.868 87.2186 105.789 87.6114C106.263 88.1351 106.421 87.3495 106.895 87.2186H108.079ZM193.737 45.5837C193.658 45.06 193.658 44.7981 193.579 44.5363C193.026 44.4054 192.553 44.2744 192.079 44.6672C192.079 44.9291 192.158 45.1909 192.158 45.4528H193.737V45.5837ZM67.6579 73.4712C67.2632 73.864 66.9474 73.995 66.7105 74.2568C66.8684 74.6496 66.9474 74.9114 66.9474 75.0424H67.4211C67.5 74.6496 67.6579 74.2568 67.7368 73.995C68.0526 73.995 68.0526 73.995 68.2895 73.6022C68.0526 73.2094 67.6579 73.4712 67.6579 73.4712ZM191.605 47.9404C191.289 48.0713 191.053 48.2023 190.816 48.4641C190.579 48.726 190.342 48.9878 190.105 49.2497C190.184 49.3806 190.184 49.3806 190.263 49.5115C190.342 49.5115 190.421 49.6424 190.421 49.6424C190.816 49.3806 191.289 49.1187 191.684 48.8569C191.684 48.4641 191.684 48.2023 191.605 47.9404ZM60.9474 8.66216C60.2368 8.13845 60.0789 9.05494 59.7632 9.3168C59.7632 9.57865 59.8421 9.84051 59.8421 10.1024C60.2368 9.84051 60.5526 9.57865 60.9474 9.3168V8.66216ZM104.132 17.0415C103.737 16.6487 103.342 16.5178 102.947 17.0415C102.947 17.3034 103.026 17.5652 103.026 17.6962C103.421 17.6962 103.816 18.0889 104.132 17.5652V17.0415ZM109.658 80.8032C109.263 80.4104 109.026 79.7558 108.632 79.4939C108.395 80.0176 108.395 80.5413 108.632 81.065C108.947 81.065 109.263 81.3269 109.658 80.8032ZM180.474 47.8095C180.632 47.5476 180.947 47.2858 181.026 46.893C180.711 46.6311 180.316 46.6311 179.921 46.893C179.921 47.1548 180 47.4167 180 47.8095H180.474ZM67.5789 47.0239C67.7368 47.1548 67.8947 47.1548 68.1316 47.4167C68.2895 47.0239 68.4474 46.762 68.7632 46.1074C68.7632 46.1074 68.9211 45.7146 68.5263 45.7146C68.2105 46.1074 67.8947 46.6311 67.5789 47.0239ZM76.5789 58.5455C76.3421 58.8074 76.0263 58.9383 75.7895 59.2002C75.8684 59.5929 75.9474 59.8548 76.0263 59.9857C76.3421 59.7239 76.7368 59.462 77.0526 59.2002C76.8158 58.9383 76.5789 58.6764 76.5789 58.5455ZM54.9474 103.846C54.4737 103.846 54.1579 103.846 54.2368 104.763C54.3947 104.894 54.6316 105.156 54.8684 105.418C55.1842 105.025 55.0263 104.501 54.9474 103.846ZM184.026 45.8456C182.684 45.5837 182.684 45.5837 182.132 46.2383C182.842 46.1074 183.316 46.3693 184.026 45.8456ZM53.4474 50.6899C53.7632 50.5589 54 50.5589 54.2368 50.428C54.1579 50.0352 54.1579 49.7734 54.0789 49.3806C53.8421 49.5115 53.6053 49.5115 53.4474 49.5115V50.6899ZM75.3947 59.9857C75.0789 60.1166 74.8421 60.1167 74.6053 60.2476C74.6842 60.6404 74.6842 60.9022 74.7632 61.295C75 61.1641 75.2368 61.1641 75.3947 61.1641V59.9857ZM72.7105 64.0445C73.0263 63.9135 73.2632 63.9135 73.5 63.7826C73.4211 63.3898 73.4211 63.128 73.3421 62.7352C73.1053 62.8661 72.8684 62.8661 72.7105 62.8661V64.0445ZM73.4211 65.4847C73.1053 65.6156 72.8684 65.6156 72.6316 65.7465C72.7105 66.1393 72.7105 66.4012 72.7895 66.7939C73.0263 66.663 73.2632 66.663 73.4211 66.663V65.4847ZM64.5 78.8393C64.4211 78.3156 64.4211 78.0537 64.3421 77.7918C64.1053 77.9228 63.8684 77.9228 63.6316 77.9228C63.7105 78.3156 63.7105 78.5774 63.7895 78.8393H64.5ZM139.816 79.6248C139.579 79.7558 139.342 80.0176 139.105 80.1485C139.342 80.5413 139.5 80.8032 139.737 81.065C139.974 80.5413 139.974 80.0176 139.816 79.6248ZM103.263 83.9454C103.342 84.4691 103.342 84.731 103.421 84.9929C103.658 84.8619 103.895 84.8619 104.132 84.731C104.053 84.3382 104.053 84.0764 103.974 83.8145H103.263V83.9454ZM48.0789 56.8435C48.3947 56.3198 48.3947 56.0579 48.1579 55.6651C48 55.6651 47.7632 55.796 47.6053 55.796C47.7632 56.0579 47.9211 56.4507 48.0789 56.8435ZM178.342 48.726C177.947 48.2022 177.553 48.2022 177.158 48.726C177.553 49.1187 177.947 49.1187 178.342 48.726ZM52.4211 52.3919C52.6579 51.8682 52.9737 51.7373 52.9737 51.3445C52.7368 51.0827 52.5 51.0827 52.2632 51.4754C52.2632 51.7373 52.3421 51.9991 52.4211 52.3919ZM75.1579 64.0445C75.3947 63.6517 75.7105 63.3898 75.7895 62.9971C75.5526 62.7352 75.3158 62.7352 75.0789 63.128C75.0789 63.3898 75.079 63.6517 75.1579 64.0445ZM81.3947 27.9085C81.0789 27.9085 81 27.9085 81 27.9085C80.9211 27.9085 80.7632 28.0394 80.6842 28.0394C80.7632 28.1703 80.7632 28.3013 80.8421 28.4322C81 28.5631 81.079 28.825 81.3158 29.0868C81.2368 28.6941 81.3158 28.4322 81.3947 27.9085ZM50.6053 53.0466C50.9211 53.4393 51.1579 53.4393 51.4737 53.1775C51.4737 52.9156 51.3947 52.6538 51.3947 52.5229C51.1579 52.6538 50.9211 52.9156 50.6053 53.0466ZM12.3947 53.9631C12.7105 53.5703 12.7105 53.1775 12.3947 52.7847C12.2368 53.0466 11.9211 53.3084 11.8421 53.8321C12.0789 53.8321 12.2368 53.9631 12.3947 53.9631ZM86.1316 42.5724C85.8158 42.1796 85.579 42.1796 85.2632 42.4414C85.2632 42.7033 85.3421 42.9651 85.3421 43.0961C85.579 42.9651 85.8158 42.8342 86.1316 42.5724ZM76.1842 97.8237C75.7895 97.9547 75.7105 98.3475 75.4737 98.6093C75.7105 99.0021 76.0263 99.0021 76.2632 98.6093C76.1842 98.3475 76.1842 98.0856 76.1842 97.8237ZM113.763 74.5187C113.447 74.9114 113.447 75.3042 113.763 75.5661C114 75.1733 114 74.7805 113.763 74.5187ZM94.8158 80.9341C94.9737 80.8032 95.2895 81.4578 95.4474 80.8032C95.2105 80.4104 94.9737 80.5413 94.8158 80.9341ZM108 80.6723C107.921 80.6723 107.842 80.6723 107.763 80.6723C107.763 80.9341 107.684 81.196 107.684 81.4578C107.684 81.4578 107.763 81.5887 107.842 81.5887C107.921 81.5887 108.079 81.4578 108.079 81.3269C108.079 81.196 108 80.9341 108 80.6723ZM56.3684 91.1464C56.6842 90.7537 56.6842 90.3609 56.3684 90.099C56.1316 90.3609 56.1316 90.7537 56.3684 91.1464ZM51.7105 99.9186C51.4737 100.442 51.3158 100.835 51.7895 100.966C51.9474 100.704 51.9474 100.442 51.7105 99.9186ZM175.579 49.7734C175.816 50.1662 176.132 50.1662 176.368 49.7734C176.132 49.3806 175.895 49.3806 175.579 49.7734ZM65.9211 72.4238C65.7632 72.5548 65.4474 71.9001 65.2895 72.5548C65.5263 72.9475 65.7632 72.9475 65.9211 72.4238ZM64.6579 73.3403C64.4211 73.864 64.2632 74.2568 64.7368 74.3877C64.8947 74.1259 64.8947 73.7331 64.6579 73.3403ZM99.8684 18.8745C99.9474 19.0054 99.9474 19.0054 100.026 19.1364C100.105 19.0054 100.105 18.8745 100.184 18.7436C100.184 18.7436 100.105 18.6126 100.026 18.6126C99.9474 18.6126 99.8684 18.7436 99.8684 18.8745ZM101.921 19.5291C102 19.5291 102.079 19.3982 102.158 19.2673C102.079 19.2673 102.079 19.1364 102 19.1364C101.921 19.1364 101.842 19.2673 101.763 19.2673C101.842 19.3982 101.842 19.3982 101.921 19.5291ZM105.711 20.4456C105.789 20.5766 105.789 20.5766 105.868 20.7075C105.947 20.5766 105.947 20.4456 106.026 20.3147C106.026 20.3147 105.947 20.1838 105.868 20.1838C105.868 20.1838 105.789 20.3147 105.711 20.4456ZM88.8947 22.6714C88.9737 22.8023 88.9737 22.8023 89.0526 22.9333C89.1316 22.8023 89.1316 22.6714 89.2105 22.5405C89.2105 22.5405 89.1316 22.4095 89.0526 22.4095C88.9737 22.4095 88.8947 22.5405 88.8947 22.6714ZM75 32.491C74.9211 32.36 74.9211 32.36 74.8421 32.2291C74.7632 32.36 74.7632 32.491 74.6842 32.6219C74.6842 32.6219 74.7632 32.7528 74.8421 32.7528C74.9211 32.7528 74.9211 32.6219 75 32.491ZM75.7105 32.7528C75.7895 32.6219 75.7895 32.6219 75.8684 32.6219C75.7895 32.6219 75.7105 32.491 75.6316 32.491C75.6316 32.491 75.5526 32.6219 75.4737 32.6219C75.5526 32.6219 75.6316 32.7528 75.7105 32.7528ZM62.5263 37.7281C62.6053 37.859 62.6053 37.859 62.6842 37.859C62.7632 37.7281 62.7632 37.5971 62.8421 37.4662C62.8421 37.4662 62.7632 37.3353 62.6842 37.3353C62.6053 37.4662 62.6053 37.5971 62.5263 37.7281ZM191.447 42.4414C191.368 42.5724 191.368 42.5724 191.289 42.7033C191.368 42.7033 191.447 42.8342 191.526 42.8342C191.526 42.8342 191.605 42.7033 191.684 42.7033C191.605 42.5724 191.526 42.4414 191.447 42.4414ZM84 44.2744C83.9211 44.1435 83.921 44.0126 83.8421 43.8816C83.7632 43.8816 83.6842 44.0126 83.6842 44.0126C83.6842 44.1435 83.7632 44.2744 83.8421 44.4054C83.921 44.4054 84 44.4054 84 44.2744ZM17.2895 45.3218C17.2105 45.3218 17.2105 45.1909 17.1316 45.1909C17.0526 45.1909 16.9737 45.3218 16.8947 45.3218C16.9737 45.3218 16.9737 45.4528 17.0526 45.4528C17.1316 45.4528 17.2105 45.4528 17.2895 45.3218ZM189.474 45.1909C189.395 45.3218 189.395 45.3218 189.316 45.3218C189.395 45.3218 189.474 45.4528 189.553 45.4528C189.553 45.4528 189.632 45.3218 189.711 45.3218C189.632 45.3218 189.553 45.1909 189.474 45.1909ZM17.8421 48.3332C17.9211 48.3332 18 48.2022 18.0789 48.0713C18 48.0713 18 47.9404 17.9211 47.9404C17.8421 47.9404 17.7632 48.0713 17.6842 48.0713C17.7632 48.2022 17.7632 48.2022 17.8421 48.3332ZM16.9737 48.595C17.0526 48.726 17.0526 48.8569 17.1316 48.9878C17.2105 48.9878 17.2895 48.8569 17.2895 48.8569C17.2895 48.726 17.2105 48.595 17.1316 48.4641C17.0526 48.4641 17.0526 48.4641 16.9737 48.595ZM15.7105 50.2971C15.6316 50.1662 15.6316 50.1662 15.5526 50.0352C15.4737 50.1662 15.4737 50.2971 15.3947 50.428C15.3947 50.428 15.4737 50.5589 15.5526 50.5589C15.5526 50.5589 15.6316 50.428 15.7105 50.2971ZM67.5789 54.2249C67.5 54.2249 67.5 54.094 67.4211 54.094C67.3421 54.094 67.2632 54.2249 67.1842 54.2249C67.2632 54.2249 67.2632 54.3558 67.3421 54.3558C67.4211 54.3558 67.5 54.2249 67.5789 54.2249ZM51.7895 54.7486C51.7105 54.6177 51.7105 54.6177 51.6316 54.4868C51.5526 54.6177 51.5526 54.7486 51.4737 54.8795C51.4737 54.8795 51.5526 55.0105 51.6316 55.0105C51.7105 54.8796 51.7895 54.8796 51.7895 54.7486ZM6.47368 57.8909C6.39474 57.8909 6.31579 58.0218 6.31579 58.0218C6.31579 58.1527 6.39474 58.2837 6.47368 58.4146C6.55263 58.4146 6.63158 58.2837 6.63158 58.2837C6.63158 58.0218 6.55263 57.8909 6.47368 57.8909ZM2.05263 59.3311C2.13158 59.462 2.13158 59.462 2.21053 59.5929C2.28947 59.462 2.28947 59.3311 2.36842 59.2002C2.36842 59.2002 2.28947 59.0692 2.21053 59.0692C2.13158 59.0692 2.05263 59.2002 2.05263 59.3311ZM73.4211 62.0806C73.3421 61.9496 73.3421 61.8187 73.2632 61.6878C73.1842 61.6878 73.1053 61.8187 73.1053 61.8187C73.1053 61.9496 73.1842 62.0806 73.2632 62.2115C73.3421 62.2115 73.3421 62.0806 73.4211 62.0806ZM74.6842 62.0806C74.7632 62.2115 74.7632 62.2115 74.8421 62.2115C74.9211 62.0806 74.9211 61.9496 75 61.8187C75 61.8187 74.9211 61.6878 74.8421 61.6878C74.8421 61.8187 74.7632 61.9496 74.6842 62.0806ZM72.6316 64.6991C72.5526 64.5682 72.5526 64.5682 72.4737 64.5682C72.3947 64.6991 72.3947 64.83 72.3158 64.961C72.3158 64.961 72.3947 65.0919 72.4737 65.0919C72.5526 64.961 72.5526 64.83 72.6316 64.6991ZM170.684 65.0919C170.605 65.0919 170.526 65.2228 170.526 65.2228C170.526 65.3537 170.605 65.4847 170.684 65.6156C170.763 65.6156 170.842 65.4847 170.842 65.4847C170.763 65.2228 170.763 65.2228 170.684 65.0919ZM133.895 66.5321C133.816 66.4012 133.816 66.2702 133.737 66.1393C133.658 66.1393 133.579 66.2702 133.579 66.2702C133.579 66.4012 133.658 66.5321 133.737 66.663C133.816 66.663 133.895 66.5321 133.895 66.5321ZM72.2368 67.0558C72.1579 66.9249 72.1579 66.7939 72.0789 66.663C72 66.663 71.9211 66.7939 71.9211 66.7939C71.9211 66.9249 72 67.0558 72.0789 67.1867C72.1579 67.1867 72.1579 67.1867 72.2368 67.0558ZM158.605 70.0671C158.526 70.0671 158.447 70.1981 158.368 70.329C158.447 70.329 158.447 70.4599 158.526 70.4599C158.605 70.4599 158.684 70.329 158.763 70.329C158.684 70.1981 158.605 70.1981 158.605 70.0671ZM157.579 70.7218C157.658 70.8527 157.658 70.9836 157.737 71.1146C157.816 71.1146 157.895 70.9836 157.895 70.9836C157.895 70.8527 157.816 70.7218 157.737 70.5908C157.658 70.5908 157.658 70.7218 157.579 70.7218ZM154.263 71.7692C154.184 71.7692 154.105 71.9001 154.026 71.9001C154.105 71.9001 154.105 72.031 154.184 72.031C154.263 72.031 154.342 71.9001 154.421 71.9001C154.342 71.9001 154.342 71.9001 154.263 71.7692ZM103.895 72.8166C103.816 72.8166 103.737 72.9475 103.737 72.9475C103.737 73.0785 103.816 73.2094 103.895 73.3403C103.974 73.3403 104.053 73.2094 104.053 73.2094C104.053 73.0785 103.974 72.9475 103.895 72.8166ZM45.8684 74.5187C45.7895 74.5187 45.7105 74.6496 45.6316 74.7805C45.7105 74.7805 45.7105 74.9114 45.7895 74.9114C45.8684 74.9114 45.9474 74.7805 46.0263 74.7805C45.9474 74.6496 45.8684 74.6496 45.8684 74.5187ZM149.842 74.5187C149.763 74.6496 149.763 74.6496 149.684 74.7805C149.763 74.7805 149.842 74.9114 149.921 74.9114C149.921 74.9114 150 74.7805 150.079 74.7805C150 74.6496 149.921 74.6496 149.842 74.5187ZM147.474 76.0898C147.553 75.9589 147.632 75.9589 147.711 75.8279C147.632 75.8279 147.632 75.697 147.553 75.697C147.474 75.697 147.395 75.8279 147.316 75.8279C147.395 75.9589 147.395 75.9589 147.474 76.0898ZM111.868 77.6609C111.947 77.53 111.947 77.53 112.026 77.3991C111.947 77.3991 111.868 77.2681 111.789 77.2681C111.789 77.2681 111.711 77.3991 111.632 77.3991C111.632 77.53 111.789 77.6609 111.868 77.6609ZM14.5263 78.7083C14.4474 78.5774 14.4474 78.4465 14.3684 78.3156C14.2895 78.3156 14.2105 78.4465 14.2105 78.4465C14.2105 78.5774 14.2895 78.7083 14.3684 78.8393C14.3684 78.8393 14.4474 78.8393 14.5263 78.7083ZM140.605 78.7083C140.526 78.5774 140.526 78.4465 140.447 78.3156C140.368 78.3156 140.289 78.4465 140.289 78.4465C140.289 78.5774 140.368 78.7083 140.447 78.8393C140.526 78.8393 140.526 78.8393 140.605 78.7083ZM107.289 83.0289C107.211 83.0289 107.211 82.898 107.132 82.898C107.053 82.898 106.974 83.0289 106.895 83.0289C106.974 83.0289 106.974 83.1599 107.053 83.1599C107.053 83.1599 107.211 83.1599 107.289 83.0289ZM58.2632 86.0403C58.3421 86.0403 58.4211 85.9093 58.5 85.7784C58.4211 85.7784 58.4211 85.6475 58.3421 85.6475C58.2632 85.6475 58.1842 85.7784 58.1053 85.7784C58.1842 85.9093 58.2632 85.9093 58.2632 86.0403ZM89.5263 85.9093C89.4474 85.7784 89.4474 85.6475 89.3684 85.5166C89.2895 85.5166 89.2105 85.6475 89.2105 85.6475C89.2105 85.7784 89.2895 85.9093 89.3684 86.0403C89.4474 86.0403 89.4474 86.0403 89.5263 85.9093ZM56.7632 88.7897C56.8421 88.7897 56.9211 88.6588 57 88.5279C56.9211 88.5279 56.9211 88.397 56.8421 88.397C56.7632 88.397 56.6842 88.5279 56.6053 88.5279C56.6053 88.6588 56.6842 88.7897 56.7632 88.7897ZM106.342 89.9681C106.421 89.8372 106.421 89.8372 106.5 89.7062C106.421 89.7062 106.342 89.5753 106.263 89.5753C106.263 89.5753 106.184 89.7062 106.105 89.7062C106.184 89.8372 106.263 89.8372 106.342 89.9681ZM116.211 92.5866C116.132 92.4557 116.132 92.3248 116.053 92.1939C115.974 92.1939 115.895 92.3248 115.895 92.3248C115.895 92.4557 115.974 92.5866 116.053 92.7176C116.132 92.7176 116.211 92.5866 116.211 92.5866ZM52.6579 101.359C52.5789 101.359 52.5789 101.228 52.5 101.228C52.4211 101.228 52.3421 101.359 52.2632 101.359C52.3421 101.359 52.3421 101.49 52.4211 101.49C52.5 101.49 52.5789 101.359 52.6579 101.359ZM66.2368 106.203C66.1579 106.203 66.0789 106.334 66 106.465C66.0789 106.465 66.079 106.596 66.1579 106.596C66.2368 106.596 66.3158 106.465 66.3947 106.465C66.3947 106.334 66.3158 106.203 66.2368 106.203ZM130.184 85.1238C130.105 85.2547 130.105 85.2547 130.026 85.3856C130.105 85.3856 130.184 85.5166 130.263 85.5166C130.263 85.5166 130.342 85.3856 130.421 85.3856C130.342 85.2547 130.263 85.1238 130.184 85.1238Z" fill="#E6F4F9"/>
</svg>
