<svg width="30" height="30" viewBox="0 0 30 30" fill="none" xmlns="http://www.w3.org/2000/svg">
<path d="M6.60676 25.7243C6.93463 24.4762 6.36086 23.9015 5.24611 23.376C2.85266 22.243 1.42643 20.1903 0.721516 17.6778C-0.26209 14.2129 -0.229303 10.6988 0.754303 7.23389C1.7543 3.75258 4.13135 1.65065 7.57398 0.731062C9.09857 0.32053 10.6723 0.172738 12.2461 0.0742105C14.7051 -0.0735811 17.1477 -0.00789594 19.5904 0.336951C22.0986 0.69822 24.3936 1.53571 26.1805 3.457C27.574 4.95133 28.2789 6.7741 28.6395 8.74465C29.1477 11.487 29.1477 14.2622 28.5248 16.9881C27.5248 21.389 24.6559 23.8194 20.2953 24.6405C18.0658 25.051 15.8199 25.1331 13.574 25.0838C13.1805 25.0674 12.9346 25.1824 12.6887 25.4779C11.9018 26.3975 11.115 27.3007 10.2953 28.2039C9.59037 28.9921 8.7543 29.2056 7.91824 28.8772C7.06578 28.5487 6.62316 27.8262 6.60676 26.7752C6.60676 26.4304 6.60676 26.0855 6.60676 25.7243ZM21.0002 17.218C21.2133 16.397 20.7871 15.9043 19.9674 15.5759C19.3609 15.346 18.7871 15.0012 18.1969 14.7056C17.6232 14.4264 17.0494 14.4428 16.4756 14.7056C16.0822 14.8862 15.7051 15.0997 15.41 15.4117C15.115 15.7073 14.8527 15.7401 14.4756 15.5595C13.0822 14.8862 12.0002 13.9174 11.1969 12.6037C10.7707 11.8811 10.6068 11.3064 11.2789 10.6003C11.8527 9.99267 12.1641 9.18803 11.7707 8.33412C11.3936 7.49663 10.951 6.67557 10.5412 5.85451C10.4428 5.67387 10.3281 5.46039 10.115 5.46039C9.11496 5.41113 8.09857 5.24692 7.19693 5.87093C5.72152 6.87263 5.0002 8.7775 5.59037 10.4853C6.60676 13.4247 8.19693 16.0193 10.6723 17.957C12.3773 19.2871 14.2133 20.4038 16.3281 20.9621C18.5412 21.504 21.3281 19.5006 21.0002 17.218ZM14.951 4.06458C14.8035 4.06458 14.6559 4.04816 14.5248 4.06458C14.1805 4.09743 13.9346 4.27806 13.9346 4.63933C13.9182 5.0006 14.1477 5.19765 14.492 5.24692C14.6068 5.26334 14.7379 5.26334 14.8527 5.27976C17.9838 5.55892 20.41 7.69369 20.9674 10.6659C21.0494 11.0601 21.0658 11.4706 21.115 11.8811C21.1641 12.226 21.3281 12.4723 21.7051 12.4723C22.0822 12.4559 22.3117 12.1931 22.3117 11.8154C22.3117 11.4049 22.2625 10.9944 22.2133 10.6003C21.7379 7.11894 18.4428 4.14669 14.951 4.06458ZM19.6723 11.5855C19.6395 9.15518 17.7543 7.11894 15.1314 6.70841C14.3936 6.59346 13.9674 6.75768 13.9346 7.20105C13.8855 7.92359 14.4592 7.87432 14.9018 7.94001C16.9182 8.23559 18.2625 9.61498 18.4592 11.6512C18.5084 12.0946 18.6232 12.5051 19.1477 12.4723C19.6723 12.4394 19.6723 11.9961 19.6723 11.5855ZM14.7543 9.33582C14.3936 9.3194 14.0166 9.35224 13.951 9.79561C13.8691 10.2554 14.1805 10.4689 14.5904 10.5346C15.3609 10.6495 15.7707 11.1093 15.8855 11.8811C15.9346 12.2588 16.1477 12.5051 16.5412 12.4723C16.951 12.423 17.0986 12.111 17.0822 11.7169C17.033 10.4853 15.9674 9.38508 14.7543 9.33582Z" fill="#4F5899"/>
</svg>
